<svg width="51" height="49" viewBox="0 0 51 49" fill="none" xmlns="http://www.w3.org/2000/svg">
<path d="M2.29248 33.8027C2.29248 33.8027 6.40602 32.0839 13.7508 32.0839C25.2091 32.0839 34.3758 38.9589 48.1258 38.9589M2.29248 45.8339H48.1258M30.9383 19.4797L35.5216 36.6672M25.8646 4.5839L25.2091 2.29224M26.5704 5.1064C20.0483 6.9764 15.811 13.4114 16.0516 20.3391C16.1021 21.7783 16.1273 22.4979 16.7414 22.8141C17.3579 23.1349 17.995 22.6835 19.2714 21.7829L22.1177 19.7708C22.5371 19.4709 23.0468 19.3244 23.5614 19.356L30.2462 19.7845L35.8333 15.836C36.253 15.5369 36.7627 15.3913 37.2771 15.4235L40.765 15.6458C42.2614 15.742 43.0108 15.7902 43.3798 15.2149C43.7487 14.6397 43.4485 14.0164 42.8458 12.7697C39.8437 6.57765 33.1291 3.22494 26.5704 5.1064Z" stroke="black" stroke-opacity="0.8" stroke-width="4.58333" stroke-linecap="round" stroke-linejoin="round"/>
</svg>
