<?xml version="1.0" encoding="utf-8"?>
<!-- Generator: Adobe Illustrator 16.0.0, SVG Export Plug-In . SVG Version: 6.00 Build 0)  -->
<!DOCTYPE svg PUBLIC "-//W3C//DTD SVG 1.1//EN" "http://www.w3.org/Graphics/SVG/1.1/DTD/svg11.dtd">
<svg version="1.1" id="圖層_1" xmlns="http://www.w3.org/2000/svg" xmlns:xlink="http://www.w3.org/1999/xlink" x="0px" y="0px"
	 width="297.641px" height="354.33px" viewBox="0 0 297.641 354.33" enable-background="new 0 0 297.641 354.33"
	 xml:space="preserve">
<path fill="#FBFBFB" d="M148.82,339.587L55.033,236.054l-19.422-33.656l-13.636-87.604l20.436-44.215l36.638-30.166
	c0,0,33.836-15.289,39.208-15.702s52.479-4.132,52.479-4.132l47.521,12.396l31.818,21.901l21.901,47.107l5.371,51.653
	l-18.596,57.852l-42.976,65.703l-42.563,42.975L148.82,339.587z"/>
<path fill="#DDF0F7" d="M55.851,249.428c-8.129-0.018-14.484-6.336-14.537-14.452c-0.056-8.313,6.474-14.843,14.791-14.795
	c8.125,0.047,14.651,6.661,14.593,14.788C70.637,243.097,64.116,249.446,55.851,249.428z"/>
<path fill="none" d="M233.785,269.958c-0.296,0.281-0.516,0.529-0.671,0.752L233.785,269.958z"/>
<path fill="none" d="M234.263,272.407l-0.479-2.449l-0.671,0.752C232.395,271.715,233.011,272.161,234.263,272.407z"/>
<g>
	<path fill="#94CEE0" d="M96.024,306.129c13.795,14.291,28.324,27.82,43.63,40.521c6.055,5.021,12.058,5.086,18.11,0.063
		c15.334-12.709,29.854-26.28,43.701-40.563l31.646-35.446c0.155-0.224,0.375-0.47,0.671-0.752c0.249-0.236,0.442-0.531,0.661-0.804
		c15.977-19.976,30.345-40.974,41.046-64.313c6.863-14.979,11.985-30.5,13.781-46.926c1.808-16.524,0.499-32.931-3.521-49.042
		c-10.144-40.621-33.59-70.966-71.155-89.654C180.994,2.499,145.615-0.004,109.481,9.06C75.928,17.475,48.759,35.652,29.99,65.013
		C9.778,96.632,3.703,131.344,9.874,168.195c1.966,11.744,5.996,22.957,10.895,33.812c2.646,5.861,8.473,8.637,14.559,7.172
		c5.914-1.422,9.584-6.496,9.466-12.92c-0.051-2.695-1.081-5.082-2.135-7.438c-10.478-23.476-12.555-47.742-6.77-72.697
		c7.561-32.612,25.328-57.801,55.321-73.288c29.343-15.151,60.403-17.461,91.994-8.777c64.661,17.775,89.771,81.468,79.191,131.66
		c-3.979,18.901-12.354,36.024-22.479,52.292c-24.257,38.973-55.652,71.689-89.749,102.025c-1.273,1.133-1.972,0.805-2.994-0.145
		c-2.682-2.467-5.445-4.84-8.143-7.291c-13.549-12.318-26.521-25.227-38.786-38.83c-3.123-3.467-6.894-5.152-11.563-4.654
		c-6.013,0.645-12.015,1.357-18,2.182C64.947,272.114,93.03,302.87,96.024,306.129z"/>
	<path fill="#94CEE0" d="M90.794,261.073c-4.277-4.807-10.669-5.707-16.038-2.486c-5.216,3.127-7.199,9.066-5.164,15.16
		c0.854,2.559,2.554,4.527,4.266,6.463c0.858,0.973,1.687,1.959,2.506,2.949l24.893-8.271
		C98.762,271.69,93.499,264.106,90.794,261.073z"/>
</g>
<g>
	<g id="XMLID_1_">
		<g>
		</g>
		<g>
			<path fill="none" stroke="#070001" stroke-width="14" stroke-linecap="round" stroke-linejoin="round" d="M77.81,158.465
				c0,0,12.01-4.87,33.45-4.87c33.45,0,60.22,19.47,100.36,19.47"/>
			
				<line fill="none" stroke="#070001" stroke-width="14" stroke-linecap="round" stroke-linejoin="round" x1="77.81" y1="192.535" x2="211.62" y2="192.535"/>
			
				<line fill="none" stroke="#070001" stroke-width="14" stroke-linecap="round" stroke-linejoin="round" x1="161.44" y1="117.895" x2="174.82" y2="166.575"/>
			
				<line fill="none" stroke="#070001" stroke-width="14" stroke-linecap="round" stroke-linejoin="round" x1="146.63" y1="75.705" x2="144.71" y2="69.215"/>
			<path fill="none" stroke="#070001" stroke-width="14" stroke-linecap="round" stroke-linejoin="round" d="M148.69,77.185
				c-19.04,5.3-31.41,23.52-30.71,43.15c0.15,4.07,0.22,6.11,2.01,7c1.8,0.91,3.66-0.37,7.39-2.92l8.31-5.69
				c1.23-0.85,2.71-1.27,4.22-1.18l19.51,1.22l16.32-11.19c1.22-0.85,2.71-1.26,4.21-1.17l10.19,0.63
				c4.359,0.28,6.55,0.41,7.63-1.22c1.08-1.62,0.2-3.39-1.561-6.92C187.44,81.355,167.84,71.865,148.69,77.185z"/>
		</g>
	</g>
</g>
</svg>
