<svg width="59" height="40" viewBox="0 0 59 40" fill="none" xmlns="http://www.w3.org/2000/svg">
<g clip-path="url(#clip0_2012_38)">
<path d="M44.4362 16.6847H50.4125C51.9945 16.6847 53.5163 17.3114 54.6358 18.4331C55.7552 19.5572 56.3866 21.0767 56.3866 22.661V28.6327C56.3866 29.4283 56.0697 30.1915 55.51 30.7512C54.9503 31.3063 54.194 31.6232 53.3984 31.6232H48.9162M44.4362 16.6847H8.58754M44.4362 16.6847L37.2133 4.64875C36.6837 3.76294 35.9366 3.02978 35.0369 2.52558C34.1396 2.01445 33.1242 1.74847 32.095 1.74847H19.7492C18.6414 1.74847 17.552 2.05839 16.6107 2.64122C15.6624 3.22405 14.8992 4.05898 14.4043 5.05118L8.58754 16.6847M48.9162 31.6232C48.9162 33.2051 48.2871 34.727 47.1653 35.8464C46.0436 36.9658 44.5218 37.5948 42.9421 37.5948C41.3625 37.5948 39.8383 36.9681 38.7189 35.8464C37.5995 34.7246 36.9681 33.2028 36.9681 31.6232M48.9162 31.6232C48.9162 30.0366 48.2871 28.5194 47.1653 27.3999C46.0436 26.2805 44.5218 25.6468 42.9421 25.6468C41.3625 25.6468 39.8383 26.2782 38.7189 27.3999C37.5995 28.5217 36.9681 30.0389 36.9681 31.6232M8.58754 16.6847C7.00326 16.6847 5.48373 17.3114 4.36202 18.4331C3.24261 19.5572 2.61353 21.0744 2.61353 22.661V28.6327C2.61353 29.4283 2.92807 30.1915 3.48777 30.7512C4.04979 31.3063 4.80839 31.6232 5.59937 31.6232H10.0816M36.9681 31.6232H22.0319M10.0816 31.6232C10.0816 33.2051 10.7107 34.727 11.8324 35.8464C12.9541 36.9658 14.4737 37.5948 16.0579 37.5948C17.6422 37.5948 19.1617 36.9681 20.2835 35.8464C21.4052 34.7246 22.0343 33.2028 22.0343 31.6232C22.0343 30.0389 21.4052 28.5217 20.2835 27.3999C19.1617 26.2782 17.6422 25.6468 16.0579 25.6468C14.4737 25.6468 12.9541 26.2805 11.8324 27.3999C10.7107 28.5194 10.0816 30.0366 10.0816 31.6232Z" stroke="#040000" stroke-width="3.6" stroke-linecap="round" stroke-linejoin="round"/>
</g>
<defs>
<clipPath id="clip0_2012_38">
<rect width="59" height="39.341" fill="white"/>
</clipPath>
</defs>
</svg>
