<svg width="40" height="40" viewBox="0 0 40 40" fill="none" xmlns="http://www.w3.org/2000/svg">
<path d="M19.7752 35.579C23.972 35.579 27.9865 33.9066 30.9554 30.9436C33.9281 27.9787 35.5927 23.9602 35.5927 19.7635C35.5927 15.5746 33.9222 11.5502 30.9554 8.58533C27.9865 5.6165 23.972 3.95192 19.7752 3.95192C15.5785 3.95192 11.5581 5.6165 8.59512 8.58533C5.62237 11.5522 3.95779 15.5746 3.95779 19.7635C3.95779 23.9602 5.62433 27.9787 8.59512 30.9436C11.5581 33.9085 15.5785 35.579 19.7752 35.579ZM19.7752 0C22.37 0 24.9433 0.513083 27.3422 1.50204C29.7373 2.49492 31.9189 3.95192 33.7499 5.78883C35.5868 7.62183 37.0399 9.7995 38.0348 12.2004C39.0237 14.5994 39.5368 17.1687 39.5368 19.7635C39.5368 25.0079 37.457 30.0291 33.7499 33.7362C30.0428 37.4433 25.0079 39.527 19.7713 39.527C8.84187 39.527 0 30.6283 0 19.7596C0 14.5152 2.08367 9.49204 5.79079 5.781C9.50379 2.07387 14.5347 0 19.7752 0ZM20.7642 9.88566V20.2648L29.659 25.5386L28.1745 27.967L17.7993 21.7355V9.88566H20.7642Z" fill="black"/>
</svg>
