<?xml version="1.0" encoding="utf-8"?>
<!-- Generator: Adobe Illustrator 16.0.0, SVG Export Plug-In . SVG Version: 6.00 Build 0)  -->
<!DOCTYPE svg PUBLIC "-//W3C//DTD SVG 1.1//EN" "http://www.w3.org/Graphics/SVG/1.1/DTD/svg11.dtd">
<svg version="1.1" id="圖層_1" xmlns="http://www.w3.org/2000/svg" xmlns:xlink="http://www.w3.org/1999/xlink" x="0px" y="0px"
	 width="297.641px" height="354.33px" viewBox="0 0 297.641 354.33" enable-background="new 0 0 297.641 354.33"
	 xml:space="preserve">
<g id="圖層_2">
	<path fill="#FBFBFB" d="M148.82,339.587L55.033,236.054l-19.422-33.656l-13.636-87.604l20.436-44.215l36.638-30.166
		c0,0,33.836-15.289,39.208-15.702s52.479-4.132,52.479-4.132l47.521,12.396l31.818,21.901l21.901,47.107l5.371,51.653
		l-18.596,57.852l-42.976,65.703l-42.563,42.975L148.82,339.587z"/>
</g>
<path fill="#D25B59" d="M56.692,249.424c-8.129-0.018-14.485-6.336-14.538-14.452c-0.054-8.312,6.474-14.841,14.791-14.794
	c8.125,0.048,14.653,6.662,14.593,14.789C71.478,243.094,64.958,249.442,56.692,249.424z"/>
<path fill="none" d="M234.625,269.953c-0.296,0.282-0.514,0.528-0.671,0.752L234.625,269.953z"/>
<path fill="none" d="M235.104,272.401l-0.479-2.448l-0.671,0.752C233.236,271.713,233.852,272.158,235.104,272.401z"/>
<g>
	<path fill="#C13532" d="M96.866,306.125c13.795,14.291,28.325,27.821,43.629,40.521c6.054,5.023,12.058,5.088,18.111,0.068
		c15.334-12.711,29.854-26.281,43.702-40.563l31.646-35.447c0.157-0.223,0.375-0.471,0.671-0.752
		c0.249-0.238,0.444-0.531,0.661-0.803c15.978-19.976,30.345-40.974,41.046-64.314c6.865-14.977,11.987-30.5,13.783-46.926
		c1.806-16.523,0.499-32.93-3.521-49.042c-10.142-40.621-33.59-70.966-71.155-89.654C181.837,2.5,146.456-0.003,110.323,9.061
		c-33.552,8.414-60.721,26.592-79.491,55.952C10.619,96.63,4.543,131.342,10.713,168.193c1.967,11.744,5.997,22.955,10.895,33.811
		c2.645,5.861,8.472,8.64,14.558,7.174c5.914-1.424,9.584-6.497,9.465-12.922c-0.05-2.694-1.081-5.082-2.134-7.44
		c-10.477-23.474-12.554-47.74-6.769-72.695c7.56-32.612,25.329-57.801,55.321-73.288c29.343-15.151,60.404-17.461,91.994-8.777
		c64.66,17.775,89.77,81.468,79.192,131.661c-3.981,18.898-12.354,36.021-22.479,52.291
		c-24.257,38.969-55.652,71.688-89.749,102.023c-1.273,1.135-1.971,0.805-2.993-0.139c-2.681-2.468-5.446-4.841-8.142-7.291
		c-13.549-12.324-26.521-25.228-38.787-38.83c-3.124-3.467-6.893-5.158-11.562-4.658c-6.013,0.643-12.015,1.361-18,2.18
		C65.789,272.108,93.872,302.865,96.866,306.125z"/>
	<path fill="#C13532" d="M91.636,261.067c-4.278-4.803-10.67-5.705-16.038-2.485c-5.217,3.127-7.2,9.067-5.164,15.162
		c0.854,2.557,2.552,4.524,4.264,6.461c0.86,0.973,1.686,1.961,2.506,2.95l24.893-8.272
		C99.604,271.688,94.34,264.104,91.636,261.067z"/>
</g>
<g>
	<g id="XMLID_1_">
		<g>
			<path fill="#070001" d="M217.72,116.685c1.239,1.39,1.859,3.1,1.85,5.13c0,6.72-1.82,12.61-5.48,17.65
				c-3.649,5.04-8.26,8.34-13.85,9.9v51.51c0,3.96-1.26,7.35-3.78,10.18c-2.52,2.82-5.56,4.23-9.1,4.23H161.59
				c-1.829,0-3.359-0.69-4.59-2.08c-1.229-1.38-1.85-3.09-1.85-5.12v-21.61c0-2.05-0.62-3.76-1.86-5.13
				c-1.239-1.38-2.76-2.069-4.59-2.08c-1.82,0-3.35,0.69-4.58,2.08c-1.24,1.38-1.86,3.101-1.86,5.13v21.61
				c0,2.04-0.62,3.75-1.85,5.13c-1.24,1.391-2.77,2.07-4.59,2.07h-25.77c-3.54,0-6.58-1.41-9.1-4.23
				c-2.52-2.819-3.78-6.21-3.79-10.18v-51.51c-5.58-1.56-10.2-4.86-13.85-9.9c-3.65-5.05-5.47-10.93-5.47-17.65
				c0-2.04,0.61-3.75,1.85-5.13c1.24-1.38,2.77-2.07,4.59-2.07c1.82-0.01,3.35,0.68,4.59,2.07c1.24,1.39,1.86,3.1,1.85,5.13
				c0,3.84,1.26,7.18,3.79,10c2.52,2.82,5.5,4.23,8.93,4.23h6.61v-15.49c-5.59-1.56-10.2-4.86-13.85-9.91
				c-3.65-5.04-5.48-10.92-5.48-17.64c0-2.05,0.62-3.76,1.86-5.14c1.23-1.38,2.76-2.07,4.58-2.07c1.83,0.01,3.36,0.7,4.6,2.08
				c1.24,1.37,1.85,3.09,1.85,5.13c0,3.84,1.26,7.17,3.79,10c2.52,2.82,5.5,4.23,8.93,4.22h3.38l18.69-27.91
				c1.29-1.92,2.84-3.36,4.67-4.32c1.82-0.96,3.7-1.44,5.63-1.44c1.94,0,3.82,0.48,5.64,1.44c1.83,0.96,3.391,2.4,4.671,4.32
				l18.689,27.91h3.38c3.44,0,6.42-1.41,8.94-4.22c2.53-2.82,3.79-6.16,3.78-10c0-2.04,0.619-3.76,1.859-5.13
				c1.23-1.38,2.76-2.08,4.58-2.08c1.82-0.02,3.36,0.68,4.6,2.07c1.24,1.39,1.851,3.1,1.851,5.13c0,6.72-1.83,12.6-5.48,17.65
				c-3.649,5.04-8.27,8.34-13.85,9.91v15.49h6.6c3.44,0,6.42-1.41,8.95-4.23c2.521-2.82,3.78-6.15,3.78-10
				c0-2.04,0.62-3.75,1.85-5.13c1.24-1.38,2.771-2.07,4.59-2.07C214.95,114.605,216.48,115.305,217.72,116.685z M187.36,200.875
				v-50.43h-77.31v50.43h19.33v-14.41c0-6,1.87-11.1,5.63-15.3c3.76-4.21,8.32-6.31,13.69-6.31s9.94,2.1,13.69,6.31
				c3.76,4.2,5.64,9.3,5.64,15.3v14.41H187.36z M174.47,136.045v-14.41H122.93v14.41H174.47z M161.59,107.225l-12.89-19.27
				l-12.88,19.27H161.59z"/>
		</g>
		<g>
		</g>
	</g>
</g>
</svg>
