<?xml version="1.0" encoding="utf-8"?>
<!-- Generator: Adobe Illustrator 16.0.0, SVG Export Plug-In . SVG Version: 6.00 Build 0)  -->
<!DOCTYPE svg PUBLIC "-//W3C//DTD SVG 1.1//EN" "http://www.w3.org/Graphics/SVG/1.1/DTD/svg11.dtd">
<svg version="1.1" id="圖層_1" xmlns="http://www.w3.org/2000/svg" xmlns:xlink="http://www.w3.org/1999/xlink" x="0px" y="0px"
	 width="297.641px" height="354.33px" viewBox="0 0 297.641 354.33" enable-background="new 0 0 297.641 354.33"
	 xml:space="preserve">
<g id="圖層_2" opacity="0.6">
	<path fill="#FBFBFB" d="M148.82,339.588L55.033,236.054l-19.423-33.656l-13.636-87.604l20.437-44.215l36.638-30.166
		c0,0,33.836-15.289,39.208-15.702s52.479-4.132,52.479-4.132l47.521,12.396l31.818,21.9l21.9,47.107l5.371,51.653l-18.596,57.852
		l-42.977,65.703l-42.563,42.975L148.82,339.588z"/>
</g>
<path fill="#FCFAD1" d="M53.78,250.545c-8.129-0.019-14.483-6.336-14.536-14.453c-0.056-8.313,6.474-14.842,14.791-14.795
	c8.125,0.048,14.651,6.662,14.593,14.789C68.566,244.213,62.045,250.563,53.78,250.545z"/>
<path fill="none" d="M231.714,271.076c-0.296,0.28-0.517,0.528-0.671,0.752L231.714,271.076z"/>
<path fill="none" d="M232.191,273.524l-0.479-2.448l-0.671,0.752C230.323,272.832,230.939,273.278,232.191,273.524z"/>
<g>
	<path fill="#F8ED98" d="M93.953,307.246c13.795,14.291,28.323,27.819,43.63,40.521c6.056,5.021,12.059,5.086,18.109,0.063
		c15.334-12.709,29.854-26.28,43.702-40.563l31.646-35.447c0.154-0.223,0.375-0.469,0.671-0.752
		c0.249-0.236,0.441-0.531,0.661-0.803c15.978-19.979,30.345-40.977,41.046-64.314c6.863-14.979,11.984-30.5,13.781-46.925
		c1.808-16.524,0.499-32.931-3.521-49.042c-10.145-40.621-33.591-70.966-71.156-89.654c-33.6-16.714-68.979-19.217-105.112-10.153
		C73.857,18.592,46.688,36.77,27.919,66.13C7.707,97.75,1.632,132.461,7.802,169.313c1.966,11.745,5.995,22.958,10.894,33.812
		c2.646,5.86,8.474,8.639,14.56,7.172c5.914-1.422,9.584-6.496,9.467-12.92c-0.052-2.693-1.081-5.082-2.136-7.438
		c-10.479-23.477-12.556-47.743-6.771-72.697c7.562-32.612,25.329-57.801,55.322-73.288c29.342-15.15,60.402-17.461,91.993-8.776
		c64.661,17.774,89.771,81.468,79.19,131.659c-3.979,18.901-12.354,36.024-22.479,52.292
		c-24.258,38.974-55.653,71.689-89.749,102.025c-1.274,1.133-1.973,0.805-2.994-0.144c-2.683-2.468-5.446-4.84-8.144-7.291
		c-13.549-12.319-26.521-25.228-38.786-38.829c-3.123-3.469-6.895-5.154-11.563-4.656c-6.012,0.645-12.014,1.357-18,2.182
		C62.876,273.231,90.959,303.987,93.953,307.246z"/>
	<path fill="#F8ED98" d="M88.723,262.19c-4.278-4.808-10.669-5.707-16.038-2.485c-5.216,3.127-7.2,9.065-5.164,15.16
		c0.854,2.559,2.554,4.526,4.266,6.463c0.858,0.974,1.688,1.959,2.506,2.948l24.894-8.271
		C96.691,272.81,91.427,265.226,88.723,262.19z"/>
</g>
<g>
	<g id="XMLID_1_">
		<g>
			<path fill="none" stroke="#070001" stroke-width="11" stroke-linecap="round" d="M191.13,142.385c0-4.461-1.97-8.75-5.479-11.91
				c-3.5-3.15-8.271-4.931-13.229-4.931s-9.72,1.771-13.229,4.931c-3.5,3.16-5.479,7.449-5.479,11.91"/>
			<polyline fill="none" stroke="#070001" stroke-width="11" stroke-linecap="round" stroke-linejoin="round" points="
				101.32,81.755 101.32,89.755 101.32,107.865 101.32,142.385 			"/>
			
				<line fill="none" stroke="#070001" stroke-width="11" stroke-linecap="round" stroke-linejoin="round" x1="120.03" y1="78.385" x2="120.03" y2="112.075"/>
			
				<line fill="none" stroke="#070001" stroke-width="11" stroke-linecap="round" stroke-linejoin="round" x1="138.74" y1="75.025" x2="138.74" y2="112.075"/>
			
				<line fill="none" stroke="#070001" stroke-width="11" stroke-linecap="round" stroke-linejoin="round" x1="86.35" y1="91.865" x2="101.32" y2="89.755"/>
			
				<line fill="none" stroke="#070001" stroke-width="11" stroke-linecap="round" stroke-linejoin="round" x1="206.1" y1="75.025" x2="157.45" y2="81.865"/>
			
				<line fill="none" stroke="#070001" stroke-width="11" stroke-linecap="round" stroke-linejoin="round" x1="86.35" y1="108.705" x2="101.32" y2="107.865"/>
			
				<line fill="none" stroke="#070001" stroke-width="11" stroke-linecap="round" stroke-linejoin="round" x1="206.1" y1="101.965" x2="157.45" y2="104.705"/>
			<path fill="none" stroke="#070001" stroke-width="11" stroke-linejoin="round" d="M191.13,142.385h8.171
				c11.989,0,16.39,2.489,13.399,13.35c-5.29,19.16-20.24,23.911-34.051,36.411c-3.359,3.028,1.87,7.52,1.87,10.858
				c0,6.301-6.641,6.75-11.939,6.75h-44.69c-5.3,0-11.939-0.449-11.939-6.729c0-3.28,5.069-7.98,1.869-10.88
				c-13.81-12.5-28.76-17.25-34.04-36.4c-3-10.859,1.4-13.35,13.391-13.35v-0.01h8.149h52.391L191.13,142.385L191.13,142.385z"/>
		</g>
	</g>
</g>
</svg>
