<svg width="63" height="63" viewBox="0 0 63 63" fill="none" xmlns="http://www.w3.org/2000/svg">
<path d="M12.075 34.3875C12.5125 33.5125 13.1364 32.8125 13.9466 32.2875C14.7569 31.7625 15.6642 31.5 16.6687 31.5C17.7188 31.5 18.6812 31.7739 19.5562 32.3216C20.4312 32.8694 21.0656 33.6455 21.4594 34.65L23.2313 38.9813C23.3188 39.2438 23.5156 39.3645 23.8219 39.3435C24.1281 39.3225 24.325 39.1799 24.4125 38.9156L30.0562 20.0813C30.6687 17.9813 31.8395 16.2969 33.5685 15.0281C35.2975 13.7594 37.2549 13.125 39.4406 13.125C41.5844 13.125 43.4989 13.748 45.1841 14.994C46.8694 16.24 48.0392 17.8701 48.6937 19.8844L58.8656 49.0219C59.1719 49.8969 59.052 50.6957 58.506 51.4185C57.96 52.1412 57.2267 52.5018 56.3063 52.5C55.7812 52.5 55.3 52.3364 54.8625 52.0091C54.425 51.6819 54.0969 51.2549 53.8781 50.7281L43.7062 21.525C43.3562 20.5187 42.8094 19.7426 42.0656 19.1966C41.3219 18.6506 40.4469 18.3767 39.4406 18.375C38.4344 18.3733 37.5489 18.6576 36.7841 19.2281C36.0194 19.7986 35.4611 20.5861 35.1094 21.5906L29.4656 40.425C29.0719 41.65 28.3614 42.6562 27.3341 43.4437C26.3069 44.2312 25.1361 44.625 23.8219 44.625C22.6406 44.625 21.5469 44.3074 20.5406 43.6721C19.5344 43.0369 18.8125 42.1514 18.375 41.0156L16.6031 36.6844L9.58125 51.0563C9.3625 51.4938 9.03438 51.8438 8.59688 52.1063C8.15938 52.3688 7.7 52.5 7.21875 52.5C6.2125 52.5 5.46875 52.0844 4.9875 51.2531C4.50625 50.4219 4.48438 49.5687 4.92188 48.6937L12.075 34.3875ZM15.75 26.25C13.5625 26.25 11.7031 25.4739 10.1719 23.9216C8.64062 22.3694 7.875 20.5205 7.875 18.375C7.875 16.1875 8.64062 14.3281 10.1719 12.7969C11.7031 11.2656 13.5625 10.5 15.75 10.5C17.9375 10.5 19.7969 11.2656 21.3281 12.7969C22.8594 14.3281 23.625 16.1875 23.625 18.375C23.625 20.5188 22.8594 22.3676 21.3281 23.9216C19.7969 25.4756 17.9375 26.2517 15.75 26.25ZM15.75 21C16.4937 21 17.1176 20.748 17.6216 20.244C18.1256 19.74 18.3767 19.117 18.375 18.375C18.3733 17.633 18.1213 17.01 17.619 16.506C17.1167 16.002 16.4937 15.75 15.75 15.75C15.0063 15.75 14.3833 16.002 13.881 16.506C13.3788 17.01 13.1267 17.633 13.125 18.375C13.1233 19.117 13.3753 19.7409 13.881 20.2466C14.3868 20.7524 15.0098 21.0035 15.75 21Z" fill="black" fill-opacity="0.8"/>
</svg>
