<svg width="51" height="51" viewBox="0 0 51 51" fill="none" xmlns="http://www.w3.org/2000/svg">
<path d="M15.1406 23.9063C15.6134 23.9063 16.0757 24.0465 16.4688 24.3091C16.8619 24.5718 17.1683 24.9452 17.3493 25.382C17.5302 25.8189 17.5776 26.2995 17.4853 26.7633C17.3931 27.227 17.1654 27.653 16.8311 27.9873C16.4967 28.3216 16.0708 28.5493 15.607 28.6416C15.1433 28.7338 14.6626 28.6865 14.2258 28.5055C13.7889 28.3246 13.4156 28.0182 13.1529 27.625C12.8902 27.2319 12.75 26.7697 12.75 26.2969C12.75 25.6628 13.0019 25.0548 13.4502 24.6064C13.8985 24.1581 14.5066 23.9063 15.1406 23.9063ZM15.1406 20.7188C14.0374 20.7188 12.9589 21.0459 12.0416 21.6588C11.1243 22.2718 10.4093 23.143 9.98711 24.1622C9.56492 25.1815 9.45445 26.3031 9.66968 27.3851C9.88492 28.4672 10.4162 29.4611 11.1963 30.2412C11.9764 31.0213 12.9703 31.5526 14.0524 31.7678C15.1344 31.9831 16.256 31.8726 17.2753 31.4504C18.2946 31.0282 19.1657 30.3132 19.7787 29.3959C20.3916 28.4786 20.7188 27.4001 20.7188 26.2969C20.7188 24.8175 20.1311 23.3986 19.085 22.3525C18.0389 21.3064 16.62 20.7188 15.1406 20.7188Z" fill="black" fill-opacity="0.8"/>
<path d="M15.1406 20.6309C16.6434 20.6309 18.0849 21.2274 19.1475 22.29C20.2101 23.3526 20.8066 24.7941 20.8066 26.2969C20.8066 27.4174 20.4741 28.5126 19.8516 29.4443C19.229 30.3761 18.3439 31.1024 17.3086 31.5312C16.2733 31.96 15.1342 32.0731 14.0352 31.8545C12.936 31.6359 11.9262 31.0961 11.1338 30.3037C10.3414 29.5113 9.80163 28.5014 9.58301 27.4023C9.3644 26.3033 9.47745 25.1642 9.90625 24.1289C10.3351 23.0936 11.0614 22.2085 11.9932 21.5859C12.9249 20.9634 14.0201 20.6309 15.1406 20.6309ZM15.1406 23.9941C14.5299 23.9941 13.9445 24.2371 13.5127 24.6689C13.0809 25.1008 12.8379 25.6862 12.8379 26.2969C12.8379 26.7522 12.9726 27.1975 13.2256 27.5762C13.4786 27.9548 13.839 28.2495 14.2598 28.4238C14.6805 28.5981 15.1432 28.6445 15.5898 28.5557C16.0365 28.4668 16.4465 28.2468 16.7686 27.9248C17.0906 27.6028 17.3106 27.1928 17.3994 26.7461C17.4882 26.2995 17.4418 25.8367 17.2676 25.416C17.0933 24.9953 16.7986 24.6349 16.4199 24.3818C16.0413 24.1289 15.596 23.9941 15.1406 23.9941Z" stroke="black" stroke-opacity="0.8" stroke-width="0.175862"/>
<path d="M39.8438 22.3125H27.0938C26.2484 22.3125 25.4376 22.6483 24.8398 23.2461C24.2421 23.8439 23.9062 24.6546 23.9062 25.5V35.0625H6.375V16.8937L25.5 6.59812L44.1958 16.6548C44.9064 17.037 45.7921 16.7876 46.1988 16.0907C46.6235 15.3632 46.3648 14.4286 45.6264 14.0231L26.2491 3.37874C26.0185 3.25596 25.7612 3.19174 25.5 3.19174C25.2388 3.19174 24.9815 3.25596 24.7509 3.37874L4.03219 14.535C3.7777 14.6705 3.56474 14.8725 3.41599 15.1195C3.26724 15.3665 3.18827 15.6492 3.1875 15.9375V46.2187C3.1875 47.0989 3.90105 47.8125 4.78125 47.8125C5.66145 47.8125 6.375 47.0989 6.375 46.2187V38.25H44.625V46.2187C44.625 47.0989 45.3385 47.8125 46.2188 47.8125C47.099 47.8125 47.8125 47.0989 47.8125 46.2187V30.2812C47.8125 28.1678 46.9729 26.1409 45.4785 24.6465C43.9841 23.1521 41.9572 22.3125 39.8438 22.3125ZM27.0938 35.0625V25.5H39.8438C41.1118 25.5 42.3279 26.0037 43.2246 26.9004C44.1213 27.797 44.625 29.0132 44.625 30.2812V35.0625H27.0938Z" fill="black" fill-opacity="0.8"/>
<path d="M25.5 2.69174C25.8003 2.69174 26.0968 2.75598 26.3691 2.88022L26.4902 2.94077L45.8672 13.5853C46.8518 14.1264 47.1972 15.3727 46.6309 16.3431C46.0883 17.2725 44.9068 17.6049 43.959 17.0951L25.5 7.16537L6.875 17.1927V34.5628H23.4062V25.5003C23.4062 24.5224 23.7949 23.5844 24.4863 22.8929C25.1779 22.2014 26.1158 21.8128 27.0938 21.8128H39.8438C42.0898 21.8128 44.2438 22.7051 45.832 24.2933C47.4201 25.8815 48.3125 28.0356 48.3125 30.2816V46.2191C48.3123 47.3753 47.375 48.3128 46.2188 48.3128C45.0625 48.3128 44.1252 47.3753 44.125 46.2191V38.7503H6.875V46.2191C6.87481 47.3753 5.93748 48.3128 4.78125 48.3128C3.62502 48.3128 2.68769 47.3753 2.6875 46.2191V15.9359L2.69238 15.7943C2.71561 15.4652 2.81645 15.1454 2.9873 14.8617C3.18264 14.5373 3.46273 14.2721 3.79688 14.0941L24.5137 2.93881L24.6309 2.88022C24.9032 2.75598 25.1997 2.69174 25.5 2.69174ZM27.5938 34.5628H44.125V30.2816C44.125 29.1462 43.6739 28.0571 42.8711 27.2542C42.0682 26.4514 40.9792 26.0003 39.8438 26.0003H27.5938V34.5628Z" stroke="black" stroke-opacity="0.8"/>
</svg>
