<?xml version="1.0" encoding="utf-8"?>
<!-- Generator: Adobe Illustrator 16.0.0, SVG Export Plug-In . SVG Version: 6.00 Build 0)  -->
<!DOCTYPE svg PUBLIC "-//W3C//DTD SVG 1.1//EN" "http://www.w3.org/Graphics/SVG/1.1/DTD/svg11.dtd">
<svg version="1.1" id="圖層_1" xmlns="http://www.w3.org/2000/svg" xmlns:xlink="http://www.w3.org/1999/xlink" x="0px" y="0px"
	 width="297.641px" height="354.33px" viewBox="0 0 297.641 354.33" enable-background="new 0 0 297.641 354.33"
	 xml:space="preserve">
<g id="圖層_2" opacity="0.6">
	<path fill="#FBFBFB" d="M147.979,339.588L54.192,236.054L34.77,202.397l-13.636-87.604L41.57,70.579l36.639-30.166
		c0,0,33.836-15.289,39.208-15.702s52.479-4.132,52.479-4.132l47.521,12.396l31.816,21.9l21.901,47.107l5.371,51.652l-18.595,57.852
		l-42.978,65.703l-42.562,42.975L147.979,339.588z"/>
</g>
<path fill="#D3E7BD" d="M53.78,250.344c-8.129-0.019-14.483-6.337-14.536-14.453c-0.056-8.313,6.474-14.843,14.791-14.795
	c8.125,0.047,14.651,6.661,14.593,14.789C68.566,244.012,62.045,250.362,53.78,250.344z"/>
<path fill="none" d="M231.714,270.874c-0.297,0.281-0.517,0.529-0.672,0.752L231.714,270.874z"/>
<path fill="none" d="M232.191,273.323l-0.479-2.449l-0.672,0.752C230.323,272.631,230.939,273.077,232.191,273.323z"/>
<g>
	<path fill="#7CB35F" d="M93.953,307.046c13.795,14.291,28.323,27.819,43.63,40.521c6.055,5.021,12.058,5.086,18.109,0.064
		c15.334-12.709,29.855-26.281,43.702-40.563l31.646-35.447c0.155-0.223,0.375-0.469,0.672-0.752
		c0.249-0.236,0.441-0.531,0.66-0.803c15.978-19.978,30.346-40.976,41.047-64.313c6.863-14.979,11.984-30.5,13.781-46.926
		c1.808-16.523,0.499-32.93-3.521-49.042c-10.144-40.621-33.59-70.966-71.156-89.654C178.926,3.417,143.545,0.915,107.411,9.978
		C73.858,18.393,46.689,36.571,27.92,65.931C7.707,97.548,1.632,132.26,7.802,169.111c1.967,11.741,5.997,22.956,10.895,33.812
		c2.646,5.861,8.474,8.638,14.56,7.173c5.914-1.423,9.584-6.496,9.466-12.921c-0.051-2.693-1.081-5.082-2.135-7.438
		c-10.479-23.476-12.555-47.741-6.771-72.696c7.562-32.611,25.329-57.801,55.322-73.288c29.342-15.15,60.403-17.461,91.995-8.776
		c64.66,17.774,89.769,81.469,79.19,131.66c-3.979,18.899-12.354,36.022-22.479,52.29c-24.257,38.973-55.653,71.689-89.749,102.025
		c-1.274,1.133-1.972,0.806-2.994-0.143c-2.682-2.467-5.446-4.84-8.143-7.291c-13.549-12.32-26.521-25.228-38.786-38.829
		c-3.124-3.468-6.895-5.155-11.563-4.657c-6.012,0.645-12.014,1.359-18,2.182C62.876,273.03,90.959,303.786,93.953,307.046z"/>
	<path fill="#7CB35F" d="M88.723,261.989c-4.278-4.807-10.669-5.707-16.038-2.486c-5.216,3.127-7.2,9.066-5.164,15.16
		c0.854,2.56,2.554,4.527,4.266,6.463c0.858,0.974,1.687,1.959,2.506,2.949l24.893-8.271
		C96.691,272.606,91.427,265.022,88.723,261.989z"/>
</g>
<path fill="none" stroke="#070001" stroke-width="0.1759" stroke-opacity="0.8" d="M114.567,117.642
	c4.669,0,9.146,1.853,12.447,5.151c3.301,3.305,5.152,7.782,5.152,12.451c0,3.479-1.032,6.88-2.967,9.773
	c-1.936,2.896-4.686,5.15-7.898,6.482c-3.217,1.335-6.755,1.685-10.17,1.007c-3.412-0.679-6.551-2.354-9.013-4.817
	c-2.463-2.463-4.14-5.601-4.817-9.016c-0.68-3.412-0.327-6.95,1.005-10.169c1.332-3.216,3.589-5.965,6.482-7.897
	C107.685,118.674,111.086,117.642,114.567,117.642z M114.567,128.088c-1.896,0-3.716,0.757-5.058,2.098
	c-1.342,1.346-2.097,3.161-2.097,5.063c0,1.414,0.419,2.797,1.205,3.976c0.784,1.175,1.903,2.089,3.212,2.629
	c1.31,0.543,2.744,0.688,4.132,0.413c1.39-0.274,2.661-0.962,3.662-1.962c1.001-0.999,1.686-2.271,1.96-3.659
	c0.274-1.391,0.133-2.827-0.409-4.136c-0.543-1.305-1.455-2.424-2.634-3.213C117.366,128.507,115.982,128.088,114.567,128.088z"/>
<g id="XMLID_1_">
	<g>
		<path d="M216.06,147.625v49.511c0,2.729-2.21,4.949-4.95,4.949c-2.729,0-4.949-2.22-4.949-4.949v-24.761H87.34v24.761
			c0,2.729-2.22,4.949-4.95,4.949c-2.74,0-4.95-2.22-4.95-4.949v-94.07c0-0.9,0.25-1.78,0.71-2.55c0.46-0.761,1.12-1.391,1.91-1.811
			l64.36-34.66c0.72-0.38,1.52-0.58,2.33-0.58c0.81,0,1.609,0.2,2.33,0.58l60.189,33.07c2.3,1.26,3.101,4.16,1.78,6.42
			c-1.271,2.17-4.021,2.94-6.221,1.75l-58.08-31.24l-59.41,31.99v56.44h54.46v-29.71c0-2.62,1.04-5.141,2.9-7
			c1.85-1.86,4.369-2.9,7-2.9h39.609c6.561,0,12.859,2.61,17.5,7.25C213.45,134.755,216.06,141.055,216.06,147.625z M206.16,162.475
			v-14.851c0-3.939-1.57-7.72-4.351-10.5c-2.79-2.79-6.57-4.359-10.5-4.359H151.7v29.71H206.16z"/>
		<path d="M131.9,135.245c0,3.43-1.02,6.78-2.92,9.63c-1.91,2.851-4.609,5.07-7.779,6.38c-3.171,1.311-6.65,1.65-10.011,0.99
			c-3.359-0.67-6.449-2.32-8.87-4.75c-2.43-2.42-4.08-5.51-4.75-8.87c-0.67-3.359-0.319-6.85,0.99-10.01
			c1.311-3.17,3.53-5.87,6.38-7.78c2.851-1.899,6.2-2.92,9.63-2.92c4.591,0,9,1.83,12.25,5.08S131.9,130.655,131.9,135.245z
			 M121.85,136.695c0.29-1.44,0.141-2.94-0.42-4.29c-0.56-1.36-1.52-2.52-2.74-3.34c-1.22-0.811-2.649-1.25-4.12-1.25
			c-1.97,0-3.859,0.78-5.25,2.18c-1.399,1.391-2.18,3.28-2.18,5.25c0,1.47,0.44,2.9,1.25,4.13c0.82,1.221,1.98,2.17,3.34,2.73
			c1.351,0.56,2.851,0.71,4.29,0.42c1.44-0.28,2.76-0.99,3.8-2.03S121.56,138.135,121.85,136.695z"/>
	</g>
	<g>
		<path fill="none" stroke="#000000" stroke-miterlimit="10" d="M114.57,127.815c1.471,0,2.9,0.439,4.12,1.25
			c1.221,0.82,2.181,1.979,2.74,3.34c0.561,1.35,0.71,2.85,0.42,4.29s-0.99,2.76-2.03,3.8s-2.359,1.75-3.8,2.03
			c-1.439,0.29-2.939,0.14-4.29-0.42c-1.359-0.561-2.52-1.51-3.34-2.73c-0.81-1.229-1.25-2.66-1.25-4.13
			c0-1.97,0.78-3.859,2.18-5.25C110.71,128.595,112.6,127.815,114.57,127.815z"/>
		<path fill="none" stroke="#000000" stroke-miterlimit="10" d="M114.57,117.915c-3.43,0-6.779,1.021-9.63,2.92
			c-2.85,1.91-5.069,4.61-6.38,7.78c-1.31,3.16-1.66,6.65-0.99,10.01c0.671,3.36,2.32,6.45,4.75,8.87
			c2.421,2.43,5.511,4.08,8.87,4.75c3.36,0.66,6.84,0.32,10.011-0.99c3.17-1.31,5.869-3.529,7.779-6.38c1.9-2.85,2.92-6.2,2.92-9.63
			c0-4.59-1.83-9-5.08-12.25S119.16,117.915,114.57,117.915z"/>
		<path fill="none" stroke="#000000" stroke-width="5" stroke-miterlimit="10" d="M191.31,122.865H151.7c-2.631,0-5.15,1.04-7,2.9
			c-1.86,1.859-2.9,4.38-2.9,7v29.71H87.34v-56.44l59.41-31.99l58.08,31.24c2.199,1.19,4.949,0.42,6.221-1.75
			c1.319-2.26,0.52-5.16-1.78-6.42l-60.189-33.07c-0.721-0.38-1.521-0.58-2.33-0.58c-0.811,0-1.61,0.2-2.33,0.58l-64.36,34.66
			c-0.79,0.42-1.45,1.05-1.91,1.811c-0.46,0.77-0.71,1.649-0.71,2.55v94.07c0,2.729,2.21,4.949,4.95,4.949
			c2.73,0,4.95-2.22,4.95-4.949v-24.761h118.82v24.761c0,2.729,2.22,4.949,4.949,4.949c2.74,0,4.95-2.22,4.95-4.949v-49.511
			c0-6.569-2.609-12.87-7.25-17.51S197.87,122.865,191.31,122.865z"/>
		<path fill="none" stroke="#000000" stroke-width="5" stroke-miterlimit="10" d="M151.7,162.475v-29.71h39.609
			c3.93,0,7.71,1.569,10.5,4.359c2.779,2.78,4.351,6.561,4.351,10.5v14.851H151.7L151.7,162.475z"/>
	</g>
</g>
</svg>
