<?xml version="1.0" encoding="utf-8"?>
<!-- Generator: Adobe Illustrator 16.0.0, SVG Export Plug-In . SVG Version: 6.00 Build 0)  -->
<!DOCTYPE svg PUBLIC "-//W3C//DTD SVG 1.1//EN" "http://www.w3.org/Graphics/SVG/1.1/DTD/svg11.dtd">
<svg version="1.1" id="圖層_1" xmlns="http://www.w3.org/2000/svg" xmlns:xlink="http://www.w3.org/1999/xlink" x="0px" y="0px"
	 width="297.641px" height="354.33px" viewBox="0 0 297.641 354.33" enable-background="new 0 0 297.641 354.33"
	 xml:space="preserve">
<g id="圖層_2">
	<path fill="#FBFBFB" d="M148.82,339.587L55.033,236.054l-19.422-33.656l-13.636-87.604l20.436-44.215l36.638-30.166
		c0,0,33.836-15.289,39.208-15.702s52.479-4.132,52.479-4.132l47.521,12.396l31.818,21.901l21.901,47.107l5.371,51.653
		l-18.596,57.852l-42.976,65.703l-42.563,42.975L148.82,339.587z"/>
</g>
<path fill="#85BE77" d="M56.28,249.31c-8.129-0.018-14.484-6.336-14.537-14.453c-0.055-8.313,6.474-14.842,14.791-14.795
	c8.125,0.047,14.652,6.662,14.593,14.789C71.066,242.978,64.545,249.328,56.28,249.31z"/>
<path fill="none" d="M234.214,269.84c-0.296,0.281-0.516,0.529-0.671,0.752L234.214,269.84z"/>
<path fill="none" d="M234.691,272.289l-0.479-2.449l-0.671,0.752C232.823,271.597,233.439,272.043,234.691,272.289z"/>
<g>
	<path fill="#2C833A" d="M96.453,306.011c13.795,14.291,28.324,27.82,43.63,40.521c6.056,5.02,12.059,5.086,18.11,0.063
		c15.334-12.709,29.854-26.281,43.702-40.563l31.646-35.447c0.155-0.223,0.375-0.469,0.671-0.752
		c0.249-0.236,0.442-0.531,0.661-0.803c15.978-19.977,30.345-40.975,41.046-64.313c6.863-14.979,11.985-30.5,13.781-46.926
		c1.808-16.524,0.499-32.931-3.521-49.042c-10.145-40.621-33.591-70.966-71.156-89.654C181.423,2.381,146.044-0.122,109.91,8.941
		c-33.553,8.415-60.722,26.593-79.491,55.953c-20.212,31.62-26.287,66.332-20.116,103.183c1.966,11.742,5.995,22.956,10.894,33.813
		c2.646,5.86,8.473,8.637,14.559,7.172c5.914-1.422,9.584-6.496,9.467-12.92c-0.052-2.695-1.081-5.082-2.136-7.438
		c-10.478-23.476-12.555-47.742-6.77-72.697c7.561-32.612,25.329-57.801,55.322-73.288c29.342-15.151,60.402-17.461,91.993-8.777
		c64.661,17.775,89.771,81.468,79.191,131.66c-3.979,18.901-12.354,36.024-22.479,52.292
		c-24.258,38.972-55.653,71.688-89.749,102.024c-1.274,1.133-1.973,0.806-2.994-0.144c-2.683-2.467-5.446-4.84-8.144-7.291
		c-13.549-12.319-26.521-25.228-38.786-38.83c-3.123-3.467-6.894-5.153-11.563-4.655c-6.012,0.646-12.014,1.358-18,2.183
		C65.376,271.996,93.459,302.752,96.453,306.011z"/>
	<path fill="#2C833A" d="M91.223,260.955c-4.278-4.806-10.669-5.707-16.038-2.486c-5.216,3.128-7.2,9.066-5.164,15.16
		c0.854,2.56,2.553,4.527,4.265,6.463c0.859,0.974,1.688,1.959,2.506,2.949l24.894-8.271
		C99.191,271.571,93.927,263.987,91.223,260.955z"/>
</g>
<g>
	<g id="XMLID_1_">
		<g>
			<path fill="#070001" d="M237.28,184.415c0.95,2.54,0.58,4.85-1.11,6.95c-1.689,2.09-3.96,3.14-6.81,3.14
				c-1.62,0-3.11-0.479-4.47-1.43c-1.351-0.95-2.37-2.19-3.04-3.71l-31.48-84.7c-1.09-2.92-2.78-5.17-5.08-6.76
				c-2.3-1.58-5.01-2.38-8.13-2.38c-3.109-0.01-5.85,0.82-8.22,2.47c-2.36,1.66-4.09,3.94-5.18,6.86l-17.46,54.62
				c-1.22,3.56-3.42,6.48-6.6,8.76c-3.18,2.28-6.8,3.43-10.87,3.43c-3.66,0-7.04-0.93-10.15-2.77c-3.12-1.84-5.35-4.41-6.71-7.71
				l-5.48-12.56l-21.73,41.69c-0.68,1.27-1.69,2.279-3.04,3.04c-1.36,0.76-2.78,1.149-4.27,1.149c-3.11,0-5.42-1.21-6.91-3.62
				c-1.48-2.41-1.55-4.89-0.2-7.42l22.15-41.5c1.35-2.54,3.28-4.57,5.79-6.09c2.5-1.52,5.31-2.28,8.42-2.28
				c3.25,0,6.23,0.79,8.94,2.38s4.67,3.84,5.89,6.75l5.48,12.56c0.27,0.77,0.88,1.12,1.83,1.05c0.94-0.06,1.56-0.47,1.82-1.23
				l17.47-54.63c1.9-6.09,5.52-10.98,10.87-14.66c5.351-3.68,11.41-5.52,18.17-5.52c6.641,0,12.561,1.81,17.771,5.42
				c5.22,3.62,8.84,8.34,10.87,14.19L237.28,184.415z"/>
			<path fill="#070001" d="M121.12,79.345c4.74,4.44,7.11,9.83,7.11,16.18c0,6.22-2.37,11.58-7.11,16.08
				c-4.74,4.51-10.49,6.76-17.26,6.76s-12.53-2.25-17.26-6.76c-4.74-4.5-7.11-9.86-7.11-16.08c0-6.35,2.37-11.74,7.11-16.18
				c4.73-4.44,10.49-6.66,17.26-6.66S116.38,74.905,121.12,79.345z M109.65,100.945c1.56-1.47,2.34-3.27,2.33-5.42
				c0-2.15-0.78-3.96-2.34-5.42c-1.55-1.46-3.48-2.19-5.78-2.19s-4.23,0.73-5.79,2.19c-1.55,1.46-2.33,3.27-2.33,5.42
				c-0.01,2.15,0.77,3.96,2.33,5.43c1.57,1.46,3.5,2.19,5.79,2.18C106.16,103.135,108.09,102.405,109.65,100.945z"/>
		</g>
		<g>
		</g>
	</g>
</g>
</svg>
