<?xml version="1.0" encoding="utf-8"?>
<!-- Generator: Adobe Illustrator 16.0.0, SVG Export Plug-In . SVG Version: 6.00 Build 0)  -->
<!DOCTYPE svg PUBLIC "-//W3C//DTD SVG 1.1//EN" "http://www.w3.org/Graphics/SVG/1.1/DTD/svg11.dtd">
<svg version="1.1" id="圖層_1" xmlns="http://www.w3.org/2000/svg" xmlns:xlink="http://www.w3.org/1999/xlink" x="0px" y="0px"
	 width="297.641px" height="354.33px" viewBox="0 0 297.641 354.33" enable-background="new 0 0 297.641 354.33"
	 xml:space="preserve">
<g id="圖層_2" opacity="0.6">
	<path fill="#FBFBFB" d="M148.82,339.588L55.033,236.054l-19.423-33.656l-13.636-87.604l20.437-44.215l36.638-30.166
		c0,0,33.836-15.289,39.208-15.702s52.479-4.132,52.479-4.132l47.521,12.396l31.818,21.9l21.9,47.107l5.371,51.653l-18.596,57.852
		l-42.977,65.703l-42.563,42.975L148.82,339.588z"/>
</g>
<path fill="#85BE77" d="M56.28,249.31c-8.129-0.019-14.483-6.336-14.536-14.453c-0.056-8.313,6.474-14.842,14.791-14.795
	c8.125,0.047,14.651,6.662,14.593,14.789C71.066,242.978,64.545,249.328,56.28,249.31z"/>
<path fill="none" d="M234.214,269.84c-0.296,0.281-0.517,0.529-0.671,0.752L234.214,269.84z"/>
<path fill="none" d="M234.691,272.289l-0.479-2.449l-0.671,0.752C232.823,271.597,233.439,272.043,234.691,272.289z"/>
<g>
	<path fill="#2C833A" d="M96.026,306.011c13.795,14.291,28.323,27.819,43.63,40.521c6.056,5.021,12.059,5.086,18.109,0.063
		c15.334-12.709,29.854-26.281,43.702-40.563l31.646-35.447c0.154-0.223,0.375-0.469,0.671-0.752
		c0.249-0.235,0.441-0.531,0.661-0.803c15.978-19.977,30.345-40.975,41.046-64.313c6.863-14.979,11.984-30.5,13.781-46.926
		c1.808-16.523,0.499-32.931-3.521-49.042c-10.145-40.621-33.591-70.966-71.156-89.653c-33.6-16.715-68.979-19.218-105.112-10.154
		C75.929,17.356,48.76,35.534,29.991,64.894C9.78,96.514,3.704,131.226,9.875,168.077c1.966,11.742,5.995,22.956,10.894,33.813
		c2.646,5.859,8.474,8.637,14.56,7.172c5.914-1.422,9.584-6.496,9.467-12.92c-0.052-2.695-1.081-5.082-2.136-7.438
		c-10.479-23.476-12.555-47.742-6.771-72.697c7.562-32.611,25.329-57.801,55.322-73.287c29.342-15.151,60.402-17.462,91.993-8.777
		c64.661,17.774,89.771,81.468,79.19,131.66c-3.979,18.9-12.354,36.023-22.479,52.292c-24.258,38.972-55.653,71.688-89.749,102.023
		c-1.274,1.134-1.973,0.807-2.994-0.144c-2.683-2.467-5.446-4.84-8.144-7.291c-13.549-12.319-26.521-25.229-38.786-38.83
		c-3.123-3.467-6.895-5.153-11.563-4.655c-6.012,0.646-12.014,1.358-18,2.184C64.948,271.996,93.031,302.753,96.026,306.011z"/>
	<path fill="#2C833A" d="M90.795,260.955c-4.278-4.806-10.669-5.707-16.038-2.485c-5.216,3.128-7.2,9.065-5.164,15.159
		c0.854,2.561,2.554,4.527,4.266,6.463c0.858,0.975,1.688,1.96,2.506,2.949l24.894-8.271
		C98.763,271.571,93.499,263.987,90.795,260.955z"/>
</g>
<g>
	<g id="XMLID_1_">
		<g>
			<path fill="#070001" d="M237.28,184.415c0.95,2.54,0.58,4.851-1.109,6.95c-1.689,2.09-3.96,3.14-6.811,3.14
				c-1.619,0-3.109-0.479-4.47-1.43c-1.351-0.95-2.37-2.189-3.04-3.71l-31.479-84.7c-1.091-2.92-2.78-5.17-5.08-6.76
				c-2.3-1.58-5.011-2.38-8.13-2.38c-3.109-0.01-5.851,0.82-8.221,2.47c-2.359,1.66-4.09,3.94-5.18,6.86l-17.46,54.62
				c-1.22,3.56-3.42,6.479-6.6,8.76c-3.181,2.28-6.801,3.43-10.87,3.43c-3.66,0-7.04-0.93-10.15-2.77
				c-3.12-1.84-5.35-4.41-6.71-7.71l-5.479-12.561l-21.73,41.69c-0.68,1.27-1.69,2.279-3.04,3.04c-1.36,0.76-2.78,1.148-4.27,1.148
				c-3.11,0-5.421-1.21-6.91-3.62c-1.48-2.409-1.55-4.89-0.2-7.42l22.15-41.5c1.35-2.54,3.279-4.569,5.789-6.09
				c2.5-1.52,5.311-2.279,8.421-2.279c3.25,0,6.229,0.789,8.939,2.38c2.71,1.59,4.67,3.84,5.89,6.75l5.48,12.56
				c0.27,0.771,0.88,1.12,1.83,1.05c0.939-0.06,1.56-0.47,1.82-1.229l17.47-54.63c1.899-6.091,5.52-10.98,10.87-14.66
				c5.351-3.681,11.41-5.521,18.17-5.521c6.641,0,12.561,1.811,17.771,5.42c5.221,3.62,8.84,8.341,10.87,14.19L237.28,184.415z"/>
			<path fill="#070001" d="M121.12,79.345c4.739,4.439,7.109,9.829,7.109,16.18c0,6.22-2.37,11.58-7.109,16.08
				c-4.74,4.51-10.49,6.76-17.261,6.76c-6.77,0-12.529-2.25-17.26-6.76c-4.74-4.5-7.11-9.86-7.11-16.08
				c0-6.351,2.37-11.74,7.11-16.18c4.73-4.44,10.49-6.66,17.26-6.66C110.63,72.685,116.38,74.905,121.12,79.345z M109.65,100.945
				c1.561-1.47,2.341-3.271,2.33-5.42c0-2.15-0.779-3.96-2.34-5.42c-1.55-1.46-3.479-2.19-5.78-2.19c-2.3,0-4.229,0.73-5.79,2.19
				c-1.55,1.46-2.329,3.27-2.329,5.42c-0.011,2.149,0.77,3.96,2.329,5.43c1.57,1.46,3.5,2.19,5.79,2.181
				C106.16,103.135,108.09,102.405,109.65,100.945z"/>
		</g>
	</g>
</g>
</svg>
