<svg width="58" height="58" viewBox="0 0 58 58" fill="none" xmlns="http://www.w3.org/2000/svg">
<path d="M43.4998 29C43.4998 27.3977 42.8633 25.861 41.7303 24.7279C40.5972 23.5949 39.0605 22.9584 37.4582 22.9584C35.8558 22.9584 34.3191 23.5949 33.1861 24.7279C32.053 25.861 31.4165 27.3977 31.4165 29" stroke="black" stroke-opacity="0.8" stroke-width="4.83333" stroke-linecap="round"/>
<path d="M14.4998 7.25004V29M20.5415 6.04171V18.125M26.5832 4.83337V18.125M9.6665 10.875L14.4998 10.121M48.3332 4.83337L32.6248 7.28871M9.6665 16.9167L14.4998 16.6146M48.3332 14.5L32.6248 15.4812" stroke="black" stroke-opacity="0.8" stroke-width="4.83333" stroke-linecap="round" stroke-linejoin="round"/>
<path d="M11.8689 29H46.1348C50.0063 29 51.4273 29.8942 50.4606 33.7898C48.7544 40.6604 43.9284 42.3666 39.4672 46.8495C38.3845 47.937 40.0714 49.5489 40.0714 50.7476C40.0714 53.0047 37.9278 53.1667 36.2168 53.1667H21.7893C20.0783 53.1667 17.9323 53.0047 17.9347 50.75C17.9347 49.5755 19.5708 47.8887 18.5389 46.8495C14.0777 42.3666 9.25161 40.6604 7.54544 33.7898C6.57878 29.8966 7.99978 29 11.8713 29H11.8689Z" stroke="black" stroke-opacity="0.8" stroke-width="4.83333" stroke-linejoin="round"/>
</svg>
