<?xml version="1.0" encoding="utf-8"?>
<!-- Generator: Adobe Illustrator 16.0.0, SVG Export Plug-In . SVG Version: 6.00 Build 0)  -->
<!DOCTYPE svg PUBLIC "-//W3C//DTD SVG 1.1//EN" "http://www.w3.org/Graphics/SVG/1.1/DTD/svg11.dtd">
<svg version="1.1" id="圖層_1" xmlns="http://www.w3.org/2000/svg" xmlns:xlink="http://www.w3.org/1999/xlink" x="0px" y="0px"
	 width="297.641px" height="354.33px" viewBox="0 0 297.641 354.33" enable-background="new 0 0 297.641 354.33"
	 xml:space="preserve">
<g id="圖層_2" opacity="0.6">
	<path fill="#FBFBFB" d="M148.82,339.588L55.033,236.054l-19.423-33.656l-13.636-87.604l20.437-44.215l36.638-30.166
		c0,0,33.836-15.289,39.208-15.702s52.479-4.132,52.479-4.132l47.521,12.396l31.818,21.9l21.9,47.107l5.371,51.653l-18.596,57.852
		l-42.977,65.703l-42.563,42.975L148.82,339.588z"/>
</g>
<path fill="#626AA1" d="M55.281,249.54c-8.129-0.018-14.484-6.336-14.537-14.453c-0.055-8.311,6.474-14.84,14.791-14.793
	c8.125,0.047,14.652,6.662,14.593,14.789C70.067,243.21,63.546,249.56,55.281,249.54z"/>
<path fill="none" d="M233.214,270.069c-0.296,0.283-0.514,0.529-0.671,0.752L233.214,270.069z"/>
<path fill="none" d="M233.692,272.519l-0.479-2.449l-0.671,0.753C231.825,271.829,232.44,272.274,233.692,272.519z"/>
<g>
	<path fill="#3C3F8F" d="M95.455,306.241c13.795,14.291,28.324,27.822,43.629,40.521c6.055,5.021,12.058,5.088,18.11,0.066
		c15.334-12.711,29.854-26.28,43.702-40.563l31.646-35.447c0.157-0.223,0.375-0.471,0.671-0.752c0.249-0.237,0.444-0.53,0.661-0.803
		c15.978-19.976,30.346-40.974,41.046-64.313c6.865-14.978,11.987-30.5,13.783-46.926c1.806-16.523,0.499-32.93-3.521-49.042
		c-10.143-40.621-33.591-70.966-71.156-89.654C180.426,2.616,145.045,0.113,108.912,9.177C75.359,17.591,48.19,35.769,29.42,65.129
		C9.208,96.747,3.132,131.458,9.302,168.31c1.966,11.744,5.996,22.955,10.894,33.811c2.646,5.86,8.473,8.64,14.559,7.174
		c5.914-1.424,9.584-6.498,9.466-12.922c-0.051-2.694-1.081-5.082-2.135-7.439c-10.478-23.475-12.555-47.741-6.77-72.696
		c7.561-32.612,25.329-57.801,55.322-73.288c29.342-15.151,60.403-17.461,91.993-8.777c64.66,17.775,89.77,81.469,79.191,131.661
		c-3.979,18.898-12.354,36.021-22.479,52.291c-24.258,38.969-55.653,71.688-89.749,102.023c-1.274,1.135-1.972,0.805-2.994-0.14
		c-2.681-2.468-5.446-4.84-8.142-7.291c-13.549-12.323-26.521-25.228-38.787-38.829c-3.124-3.469-6.894-5.158-11.563-4.658
		c-6.012,0.643-12.014,1.359-18,2.18C64.377,272.226,92.46,302.981,95.455,306.241z"/>
	<path fill="#3C3F8F" d="M90.225,261.185c-4.278-4.804-10.669-5.705-16.038-2.485c-5.216,3.127-7.2,9.067-5.164,15.161
		c0.854,2.558,2.553,4.525,4.265,6.461c0.859,0.974,1.687,1.962,2.506,2.951L100.685,275
		C98.192,271.804,92.929,264.22,90.225,261.185z"/>
</g>
<g>
	<g id="XMLID_1_">
		<g>
			<path fill="none" stroke="#070001" stroke-width="10" stroke-linecap="round" stroke-linejoin="round" d="M148.25,181.805
				c0,3.761-1.49,7.359-4.15,10.021c-2.66,2.66-6.26,4.149-10.02,4.149c-3.761,0-7.36-1.489-10.021-4.149s-4.149-6.26-4.149-10.021"
				/>
			<path fill="none" stroke="#070001" stroke-width="10" stroke-linecap="round" stroke-linejoin="round" d="M158.88,153.455
				c-3.739-0.05-7.3-1.58-9.919-4.25l-4.96-5.67c-5.67-5.67-14.181-5.67-19.84,0l-4.96,5.67c-2.62,2.67-6.19,4.2-9.931,4.25h-3.54
				c-7.52,0-14.729-2.979-20.04-8.3c-5.319-5.32-8.31-12.53-8.31-20.05c0-7.521,2.99-14.73,8.31-20.04
				c5.311-5.32,12.521-8.3,20.04-8.3h56.689c7.521,0,14.729,2.979,20.051,8.3c5.31,5.31,8.3,12.52,8.3,20.04
				c0,7.52-2.99,14.729-8.3,20.05c-5.32,5.31-12.53,8.3-20.051,8.3H158.88z"/>
			<path fill="none" stroke="#070001" stroke-width="10" stroke-linecap="round" stroke-linejoin="round" d="M134.08,195.975
				c0,3.761,1.489,7.359,4.149,10.021c2.65,2.66,6.26,4.15,10.021,4.15h28.35c23.38,0,42.51-19.142,42.51-42.521v-42.52v-56.69
				h-28.34v56.69v42.52c0,3.761-1.49,7.37-4.149,10.021c-2.66,2.66-6.271,4.16-10.021,4.16"/>
			<polyline fill="none" stroke="#070001" stroke-width="10" stroke-linecap="round" stroke-linejoin="round" points="
				190.77,125.105 219.11,125.105 219.12,125.105 			"/>
			<path fill="none" stroke="#070001" stroke-width="10" stroke-linecap="round" stroke-linejoin="round" d="M95.1,202.146
				c1.96,0,3.54-1.58,3.54-3.54s-1.58-3.54-3.54-3.54s-3.54,1.58-3.54,3.54S93.14,202.146,95.1,202.146z"/>
			
				<line fill="none" stroke="#070001" stroke-width="10" stroke-linecap="round" stroke-linejoin="round" x1="84.47" y1="176.255" x2="84.54" y2="176.255"/>
		</g>
	</g>
</g>
</svg>
