<svg width="57" height="40" viewBox="0 0 57 40" fill="none" xmlns="http://www.w3.org/2000/svg">
<path d="M49.925 1.6C49.578 1.108 49.123 0.701 48.588 0.424C48.049 0.143 47.458 0 46.858 0H3.75C2.758 0 1.803 0.396 1.102 1.1C0.399 1.804 0 2.759 0 3.752V32.822H4.815C5.146 34.66 6.112 36.328 7.545 37.531C8.983 38.732 10.796 39.386 12.661 39.386C14.528 39.386 16.343 38.73 17.779 37.531C19.207 36.328 20.176 34.66 20.509 32.822H34.825C35.153 34.66 36.12 36.328 37.555 37.531C38.99 38.73 40.801 39.386 42.667 39.386C44.539 39.386 46.35 38.73 47.78 37.531C49.216 36.328 50.177 34.66 50.51 32.822H56.27V11.549C56.27 10.97 56.092 10.409 55.759 9.933L49.925 1.6ZM19.23 3.752H36.11V15.003H19.23V3.752ZM3.75 3.752H15.475V15.003H3.75V3.752ZM12.661 35.633C11.826 35.633 11.012 35.387 10.315 34.926C9.626 34.463 9.081 33.799 8.767 33.035C8.448 32.256 8.359 31.41 8.523 30.596C8.685 29.772 9.088 29.024 9.682 28.434C10.268 27.84 11.024 27.444 11.84 27.276C12.656 27.116 13.506 27.196 14.279 27.518C15.048 27.836 15.705 28.379 16.172 29.075C16.634 29.761 16.88 30.583 16.88 31.417C16.88 32.534 16.442 33.606 15.644 34.396C14.854 35.188 13.782 35.633 12.661 35.633ZM42.673 35.633C41.838 35.633 41.022 35.387 40.327 34.926C39.633 34.463 39.094 33.799 38.774 33.035C38.456 32.256 38.371 31.41 38.535 30.596C38.7 29.772 39.094 29.024 39.689 28.434C40.28 27.84 41.031 27.444 41.852 27.276C42.663 27.116 43.517 27.196 44.286 27.518C45.06 27.836 45.713 28.379 46.182 29.075C46.647 29.761 46.89 30.583 46.89 31.417C46.89 32.534 46.45 33.606 45.657 34.396C44.863 35.188 43.789 35.633 42.673 35.633ZM52.523 29.075H50.291C49.789 27.44 48.78 26.016 47.406 25.003C46.031 23.985 44.376 23.442 42.673 23.442C40.966 23.442 39.305 23.987 37.94 25.003C36.566 26.017 35.557 27.441 35.055 29.075H20.284C19.782 27.44 18.769 26.016 17.399 25.003C16.025 23.985 14.369 23.442 12.662 23.442C10.954 23.442 9.298 23.987 7.926 25.003C6.554 26.017 5.541 27.441 5.041 29.075H3.751V18.754H52.515V29.075H52.523ZM52.523 15.004H39.858V3.752H46.857L52.523 11.842V15.004Z" fill="#040000"/>
</svg>
