<?xml version="1.0" encoding="utf-8"?>
<!-- Generator: Adobe Illustrator 16.0.0, SVG Export Plug-In . SVG Version: 6.00 Build 0)  -->
<!DOCTYPE svg PUBLIC "-//W3C//DTD SVG 1.1//EN" "http://www.w3.org/Graphics/SVG/1.1/DTD/svg11.dtd">
<svg version="1.1" id="圖層_1" xmlns="http://www.w3.org/2000/svg" xmlns:xlink="http://www.w3.org/1999/xlink" x="0px" y="0px"
	 width="297.641px" height="354.33px" viewBox="0 0 297.641 354.33" enable-background="new 0 0 297.641 354.33"
	 xml:space="preserve">
<g id="圖層_2" opacity="0.6">
	<path fill="#FBFBFB" d="M148.82,339.588L55.033,236.054l-19.423-33.656l-13.636-87.604l20.437-44.215l36.638-30.166
		c0,0,33.836-15.289,39.208-15.702s52.479-4.132,52.479-4.132l47.521,12.396l31.818,21.9l21.9,47.107l5.371,51.653l-18.596,57.852
		l-42.977,65.703l-42.563,42.975L148.82,339.588z"/>
</g>
<path fill="#F8C09B" d="M56.948,250.678c-8.13-0.02-14.484-6.337-14.537-14.452c-0.056-8.313,6.474-14.844,14.791-14.795
	c8.125,0.047,14.651,6.66,14.593,14.788C71.734,244.347,65.213,250.694,56.948,250.678z"/>
<path fill="none" d="M234.881,271.207c-0.296,0.28-0.515,0.528-0.671,0.753L234.881,271.207z"/>
<path fill="none" d="M235.359,273.656l-0.479-2.449l-0.671,0.753C233.491,272.965,234.107,273.41,235.359,273.656z"/>
<g>
	<path fill="#EC671B" d="M97.121,307.38c13.795,14.291,28.323,27.818,43.63,40.521c6.056,5.021,12.059,5.086,18.109,0.064
		c15.334-12.709,29.854-26.281,43.702-40.563l31.646-35.447c0.156-0.223,0.375-0.469,0.671-0.752
		c0.249-0.235,0.442-0.53,0.661-0.803c15.979-19.977,30.347-40.975,41.046-64.313c6.864-14.979,11.985-30.5,13.782-46.927
		c1.809-16.522,0.499-32.931-3.521-49.042c-10.145-40.621-33.592-70.966-71.156-89.654C182.091,3.748,146.712,1.245,110.578,10.31
		c-33.554,8.415-60.723,26.592-79.491,55.953C10.875,97.882,4.8,132.594,10.971,169.444c1.966,11.743,5.994,22.956,10.895,33.813
		c2.646,5.86,8.473,8.638,14.559,7.173c5.914-1.423,9.584-6.496,9.468-12.921c-0.053-2.694-1.081-5.081-2.137-7.438
		c-10.479-23.474-12.555-47.741-6.771-72.696c7.562-32.61,25.329-57.801,55.322-73.288c29.342-15.149,60.401-17.461,91.992-8.775
		c64.66,17.773,89.771,81.467,79.19,131.66c-3.979,18.899-12.354,36.022-22.479,52.292c-24.259,38.971-55.653,71.688-89.749,102.023
		c-1.274,1.135-1.973,0.807-2.994-0.144c-2.683-2.467-5.446-4.84-8.144-7.291c-13.549-12.319-26.521-25.229-38.786-38.83
		c-3.123-3.467-6.895-5.153-11.563-4.655c-6.012,0.646-12.014,1.358-18,2.183C66.044,273.362,94.127,304.119,97.121,307.38z"/>
	<path fill="#EC671B" d="M91.892,262.321c-4.278-4.805-10.669-5.706-16.038-2.484c-5.216,3.127-7.2,9.064-5.164,15.159
		c0.854,2.561,2.554,4.526,4.266,6.463c0.858,0.975,1.688,1.959,2.506,2.949l24.895-8.271
		C99.859,272.938,94.596,265.354,91.892,262.321z"/>
</g>
<g>
	<g id="XMLID_1_">
		<g>
			<path fill="#070001" d="M220.78,111.315v80.99c0,7.431-7.09,13.5-15.75,13.5H94.8c-8.66,0-15.75-6.069-15.75-13.5v-80.99
				c0-7.42,7.09-13.49,15.75-13.49h15.75c0-18.9,17.32-33.75,39.37-33.75c22.04,0,39.37,14.85,39.37,33.75h15.739
				C213.7,97.825,220.78,103.895,220.78,111.315z M205.03,192.315v-80.99H94.8v80.99H205.03z M126.29,97.825h47.25
				c0-11.479-10.239-20.25-23.62-20.25C136.53,77.575,126.29,86.345,126.29,97.825z"/>
			<path fill="#070001" d="M173.54,118.065h15.75c0,18.899-17.33,33.75-39.37,33.75c-22.05,0-39.37-14.851-39.37-33.75h15.74
				c0,11.479,10.239,20.25,23.629,20.25C163.301,138.315,173.54,129.545,173.54,118.065z"/>
		</g>
	</g>
</g>
</svg>
