<svg width="59" height="59" viewBox="0 0 59 59" fill="none" xmlns="http://www.w3.org/2000/svg">
<path d="M46.7083 14.75H41.7917C41.7917 7.86665 36.3833 2.45831 29.5 2.45831C22.6167 2.45831 17.2083 7.86665 17.2083 14.75H12.2917C9.5875 14.75 7.375 16.9625 7.375 19.6666V49.1666C7.375 51.8708 9.5875 54.0833 12.2917 54.0833H46.7083C49.4125 54.0833 51.625 51.8708 51.625 49.1666V19.6666C51.625 16.9625 49.4125 14.75 46.7083 14.75ZM29.5 7.37498C33.6792 7.37498 36.875 10.5708 36.875 14.75H22.125C22.125 10.5708 25.3208 7.37498 29.5 7.37498ZM46.7083 49.1666H12.2917V19.6666H46.7083V49.1666ZM29.5 29.5C25.3208 29.5 22.125 26.3041 22.125 22.125H17.2083C17.2083 29.0083 22.6167 34.4166 29.5 34.4166C36.3833 34.4166 41.7917 29.0083 41.7917 22.125H36.875C36.875 26.3041 33.6792 29.5 29.5 29.5Z" fill="black" fill-opacity="0.8"/>
</svg>
