<svg width="58" height="58" viewBox="0 0 58 58" fill="none" xmlns="http://www.w3.org/2000/svg">
<path d="M29.0002 43.5C29.0002 44.7819 28.4909 46.0113 27.5845 46.9177C26.6781 47.8241 25.4487 48.3333 24.1668 48.3333C22.885 48.3333 21.6556 47.8241 20.7491 46.9177C19.8427 46.0113 19.3335 44.7819 19.3335 43.5M32.6252 33.8333C31.3503 33.8152 30.1342 33.294 29.2418 32.3833L27.5502 30.45C25.6168 28.5167 22.7168 28.5167 20.7835 30.45L19.0918 32.3833C18.1994 33.294 16.9834 33.8152 15.7085 33.8333H14.5002C11.9364 33.8333 9.47765 32.8149 7.6648 31.002C5.85195 29.1892 4.8335 26.7304 4.8335 24.1667C4.8335 21.6029 5.85195 19.1442 7.6648 17.3313C9.47765 15.5184 11.9364 14.5 14.5002 14.5H33.8335C36.3973 14.5 38.856 15.5184 40.6689 17.3313C42.4817 19.1442 43.5002 21.6029 43.5002 24.1667C43.5002 26.7304 42.4817 29.1892 40.6689 31.002C38.856 32.8149 36.3973 33.8333 33.8335 33.8333H32.6252Z" stroke="black" stroke-opacity="0.8" stroke-width="4.83333" stroke-linecap="round" stroke-linejoin="round"/>
<path d="M24.1665 48.3333C24.1665 49.6152 24.6757 50.8446 25.5822 51.751C26.4886 52.6574 27.718 53.1666 28.9998 53.1666H38.6665C46.6415 53.1666 53.1665 46.6416 53.1665 38.6666V4.83331H43.4998V38.6666C43.4998 39.9485 42.9906 41.1779 42.0842 42.0843C41.1778 42.9908 39.9484 43.5 38.6665 43.5M43.4998 24.1666H53.1665" stroke="black" stroke-opacity="0.8" stroke-width="4.83333" stroke-linecap="round" stroke-linejoin="round"/>
<path d="M10.8748 53.1667C11.5422 53.1667 12.0832 52.6257 12.0832 51.9583C12.0832 51.291 11.5422 50.75 10.8748 50.75C10.2075 50.75 9.6665 51.291 9.6665 51.9583C9.6665 52.6257 10.2075 53.1667 10.8748 53.1667Z" stroke="black" stroke-opacity="0.8" stroke-width="4.83333" stroke-linecap="round" stroke-linejoin="round"/>
<path d="M7.25 42.2916H7.27458" stroke="black" stroke-opacity="0.8" stroke-width="4.83333" stroke-linecap="round" stroke-linejoin="round"/>
</svg>
