<svg width="58" height="58" viewBox="0 0 58 58" fill="none" xmlns="http://www.w3.org/2000/svg">
<path d="M9.6665 48.3333V31.0542C7.57206 30.5306 5.84012 29.4229 4.47067 27.7312C3.10123 26.0396 2.4165 24.066 2.4165 21.8104C2.4165 21.1257 2.6485 20.5521 3.1125 20.0897C3.5765 19.6274 4.15006 19.3954 4.83317 19.3937C5.51628 19.3921 6.09064 19.6241 6.55625 20.0897C7.02187 20.5554 7.25306 21.1289 7.24984 21.8104C7.24984 23.0993 7.7235 24.2174 8.67084 25.1647C9.61817 26.1121 10.7355 26.5849 12.0228 26.5833H14.4998V21.3875C12.4054 20.8639 10.6734 19.7562 9.304 18.0646C7.93456 16.3729 7.24984 14.3993 7.24984 12.1437C7.24984 11.459 7.48184 10.8847 7.94584 10.4207C8.40984 9.95666 8.98339 9.72547 9.6665 9.72708C10.3496 9.72869 10.924 9.96069 11.3896 10.4231C11.8552 10.8855 12.0864 11.459 12.0832 12.1437C12.0832 13.4326 12.5568 14.5507 13.5042 15.4981C14.4515 16.4454 15.5688 16.9183 16.8561 16.9167H18.1248L25.1332 7.55208C25.6165 6.90763 26.2005 6.4243 26.8853 6.10208C27.57 5.77986 28.2748 5.61874 28.9998 5.61874C29.7248 5.61874 30.4297 5.77986 31.1144 6.10208C31.7991 6.4243 32.3832 6.90763 32.8665 7.55208L39.8748 16.9167H41.1436C42.4325 16.9167 43.5506 16.4438 44.4979 15.4981C45.4453 14.5524 45.9181 13.4342 45.9165 12.1437C45.9165 11.459 46.1485 10.8855 46.6125 10.4231C47.0765 9.96069 47.6501 9.72788 48.3332 9.72466C49.0163 9.72144 49.5906 9.95344 50.0563 10.4207C50.5219 10.8879 50.7531 11.4614 50.7498 12.1413C50.7498 14.3969 50.0651 16.3705 48.6957 18.0622C47.3262 19.7538 45.5943 20.8623 43.4998 21.3875V26.5833H45.9769C47.2658 26.5833 48.3839 26.1105 49.3313 25.1647C50.2786 24.219 50.7514 23.1009 50.7498 21.8104C50.7498 21.1257 50.9818 20.5521 51.4458 20.0897C51.9098 19.6274 52.4834 19.3954 53.1665 19.3937C53.8496 19.3921 54.424 19.6241 54.8896 20.0897C55.3552 20.5554 55.5864 21.1289 55.5832 21.8104C55.5832 24.066 54.8984 26.0396 53.529 27.7312C52.1596 29.4229 50.4276 30.5306 48.3332 31.0542V48.3333C48.3332 49.6625 47.8603 50.8007 46.9146 51.7481C45.9689 52.6954 44.8306 53.1683 43.4998 53.1667H33.8332C33.1484 53.1667 32.5749 52.9347 32.1125 52.4707C31.6501 52.0067 31.4181 51.4331 31.4165 50.75V43.5C31.4165 42.8153 31.1845 42.2417 30.7205 41.7793C30.2565 41.3169 29.6829 41.0849 28.9998 41.0833C28.3167 41.0817 27.7432 41.3137 27.2792 41.7793C26.8152 42.2449 26.5832 42.8185 26.5832 43.5V50.75C26.5832 51.4347 26.3512 52.0091 25.8872 52.4731C25.4232 52.9371 24.8496 53.1683 24.1665 53.1667H14.4998C13.1707 53.1667 12.0332 52.6938 11.0875 51.7481C10.1418 50.8024 9.66812 49.6641 9.6665 48.3333ZM24.1665 16.9167H33.8332L28.9998 10.4521L24.1665 16.9167ZM19.3332 26.5833H38.6665V21.75H19.3332V26.5833ZM14.4998 48.3333H21.7498V43.5C21.7498 41.4861 22.4547 39.7743 23.8644 38.3646C25.2741 36.9549 26.9859 36.25 28.9998 36.25C31.0137 36.25 32.7255 36.9549 34.1353 38.3646C35.545 39.7743 36.2498 41.4861 36.2498 43.5V48.3333H43.4998V31.4167H14.4998V48.3333Z" fill="black" fill-opacity="0.8"/>
</svg>
