<?xml version="1.0" encoding="utf-8"?>
<!-- Generator: Adobe Illustrator 16.0.0, SVG Export Plug-In . SVG Version: 6.00 Build 0)  -->
<!DOCTYPE svg PUBLIC "-//W3C//DTD SVG 1.1//EN" "http://www.w3.org/Graphics/SVG/1.1/DTD/svg11.dtd">
<svg version="1.1" xmlns="http://www.w3.org/2000/svg" xmlns:xlink="http://www.w3.org/1999/xlink" x="0px" y="0px"
	 width="595.279px" height="595.281px" viewBox="0 0 595.279 595.281" enable-background="new 0 0 595.279 595.281"
	 xml:space="preserve">
<g id="圖層_1">
	<g>
		<circle fill="#389039" cx="318.311" cy="338.671" r="230.229"/>
		<path fill="#2A6834" d="M495.85,474.916c-33.93,67.529-108.845,98.463-167.314,69.086
			c-58.473-29.383-78.366-107.947-44.434-175.486c33.934-67.532,108.844-98.46,167.316-69.083
			C509.888,328.812,529.782,407.378,495.85,474.916z"/>
		
			<ellipse transform="matrix(0.0947 -0.9955 0.9955 0.0947 -209.5277 441.4062)" fill="#2A6834" cx="137.92" cy="335.901" rx="108.904" ry="53.554"/>
		<path fill="#EE762A" d="M194.498,302.468c0,0,52.98-9.647,108.799,40.801c0,0-119.979,166.979-137.431,224.721
			c0,0-12.275,15.885-7.708-17.275C158.157,550.716,170.704,335.38,194.498,302.468z"/>
		<path fill="#389039" d="M302.035,113.981c0,0,26.74-38.571,72.362-52.354c0,0-15.941,56.479-7.708,71.895"/>
		<path fill="#389039" d="M345.175,117.325c0,0,33.846-30.063,64.334-7.973c0,0-29.632,11.998-27.65,19.06"/>
	</g>
	<path fill="#F7F7F7" d="M387.292,561.021c0,0-44.094-105.201-18.186-132.111c0,0,66.907-59.055,100.698,86.131
		C469.804,515.041,441.914,553.873,387.292,561.021z"/>
	<path fill="#F7F7F7" d="M84.276,366.128c0,0,24.033-36.488,39.641-24.926c0,0,13.363,14.768-11.712,103.873
		C112.204,445.076,79.419,404.63,84.276,366.128z"/>
	<path fill="#040000" d="M357,400.146c18.304,2.25,34.968-10.764,37.219-29.068l-66.285-8.15
		C325.682,381.232,338.695,397.894,357,400.146z"/>
	<path fill="#040000" d="M135.479,323.873c12.413,7.219,28.327,3.006,35.543-9.408L126.07,288.33
		C118.853,300.744,123.066,316.656,135.479,323.873z"/>
</g>
<g id="圖層_2">
	<g>
		<path fill="#FF0808" d="M96.789,163.95c-6.198,5.497-12.305,10.911-18.548,16.446c-3.104-5.26-6.112-10.354-9.115-15.453
			c-1.435-2.437-2.795-4.921-4.298-7.313c-1.8-2.868-1.708-2.722,0.438-5.396c6.341-7.901,13.008-15.595,18.702-23.946
			c6.047-8.868,8.458-19.035,6.821-29.829c-1.003-6.613-3.817-12.417-9.543-16.225c-5.351-3.561-11.325-3.508-17.315-1.902
			c-11.339,3.041-18.972,10.352-23.516,20.98c-2.833,6.628-5.401,13.368-8.167,20.248c-7.124-5.089-14.419-10.301-21.973-15.697
			c1.499-4.05,2.872-8.192,4.548-12.209c4.355-10.428,9.653-20.296,17.747-28.401c14.899-14.921,38.667-20.001,57.913-11.999
			c11.61,4.829,19.885,13.263,24.038,25.245c2.907,8.387,2.288,16.951,0.08,25.446c-3.385,13.027-10.472,23.971-19.141,34.017
			c-3.115,3.609-6.301,7.158-9.542,10.654c-0.947,1.019-0.899,1.596,0.009,2.626C89.559,155.363,93.074,159.584,96.789,163.95z"/>
		<path fill="#FF0808" d="M119.909,204.311c-9.848,3.266-19.403,6.433-29.16,9.668c-0.887-2.818-1.758-5.551-2.606-8.289
			c-0.915-2.956-1.878-5.9-2.663-8.891c-0.199-0.759-0.12-2.009,0.365-2.465c5.718-5.361,11.535-10.615,17.332-15.894
			c0.134-0.121,0.313-0.193,0.675-0.414C109.188,186.759,114.493,195.442,119.909,204.311z"/>
	</g>
	<g>
		<path fill="#FF0808" d="M167.735,163.879c-5.215,1.515-10.349,3.009-15.602,4.535c-0.362-3.986-0.714-7.848-1.062-11.709
			c-0.166-1.847-0.274-3.7-0.494-5.538c-0.261-2.205-0.248-2.092,1.774-3.074c5.974-2.902,12.082-5.588,17.798-8.936
			c6.071-3.557,10.351-8.901,12.412-15.753c1.261-4.199,1.223-8.427-1.1-12.291c-2.17-3.61-5.724-5.255-9.723-5.983
			c-7.569-1.381-14.142,0.807-19.817,5.827c-3.537,3.131-6.95,6.402-10.52,9.702c-2.792-5.014-5.649-10.148-8.61-15.465
			c2.024-1.979,4-4.046,6.12-5.955c5.505-4.954,11.413-9.313,18.482-11.842c13.012-4.656,28.517-0.995,37.67,9.146
			c5.523,6.119,8.057,13.435,7.155,21.699c-0.632,5.783-3.403,10.683-7.094,15.094c-5.661,6.767-12.93,11.26-20.884,14.777
			c-2.858,1.264-5.741,2.472-8.642,3.633c-0.847,0.339-0.98,0.693-0.731,1.559C165.863,156.763,166.76,160.25,167.735,163.879z"/>
		<path fill="#FF0808" d="M170.103,194.275c-6.75-0.831-13.298-1.637-19.986-2.459c0.266-1.918,0.518-3.78,0.783-5.64
			c0.289-2.008,0.544-4.021,0.918-6.014c0.095-0.505,0.493-1.224,0.909-1.358c4.891-1.57,9.811-3.05,14.726-4.549
			c0.113-0.036,0.24-0.028,0.517-0.056C168.68,180.869,169.384,187.501,170.103,194.275z"/>
	</g>
</g>
</svg>
