<?xml version="1.0" encoding="utf-8"?>
<!-- Generator: Adobe Illustrator 16.0.0, SVG Export Plug-In . SVG Version: 6.00 Build 0)  -->
<!DOCTYPE svg PUBLIC "-//W3C//DTD SVG 1.1//EN" "http://www.w3.org/Graphics/SVG/1.1/DTD/svg11.dtd">
<svg version="1.1" xmlns="http://www.w3.org/2000/svg" xmlns:xlink="http://www.w3.org/1999/xlink" x="0px" y="0px"
	 width="595.279px" height="595.281px" viewBox="0 0 595.279 595.281" enable-background="new 0 0 595.279 595.281"
	 xml:space="preserve">
<g id="圖層_1">
	<g>
		<path fill="#50AFE4" d="M568.906,306.449c30.816,133.096-91.373,166.745-243.557,201.98
			c-152.182,35.233-276.729,58.707-307.544-74.388C-13.01,300.946,85.379,164.489,237.561,129.255
			C389.745,94.021,538.093,173.353,568.906,306.449z"/>
		<path fill="#50AFE4" d="M39.074,479.111c0,19.929,55.351,69.875,55.351,69.875c54.013,62.129,54.607,28.295,54.607,28.295
			c-24.181-31.233-6.084-98.17-6.084-98.17"/>
		<path fill="#50AFE4" d="M484.021,245.746c0,0,58.463-37.279,61.633-76.652c0,0,28.875-23.13,26.943,59.174
			c0,0,4.572,71.907-2.488,90.505"/>
		
			<ellipse transform="matrix(-0.2256 -0.9742 0.9742 -0.2256 161.4873 397.6989)" fill="#50AFE4" cx="238.814" cy="134.664" rx="49.887" ry="30.915"/>
		<path fill="#001118" d="M140.806,442.274c2.14,9.242-0.749,17.808-6.455,19.128c-5.704,1.32-12.065-5.104-14.204-14.346
			c-2.141-9.246-0.702-11.033,5.001-12.354C130.855,433.381,138.666,433.028,140.806,442.274z"/>
		<path fill="#001118" d="M478.865,362.301c2.141,9.242-0.742,17.807-6.453,19.13c-5.703,1.32-12.063-5.104-14.205-14.346
			c-2.141-9.247,4.629-11.476,10.33-12.796C474.243,352.965,476.726,353.057,478.865,362.301z"/>
		<path fill="#F2F5C5" d="M181.65,534.649c0,0-40.138-25.978-5.46-63.897c0,0,66.795-7.069,135.138-22.893l19.955,61.717
			C331.282,509.576,272.359,524.25,181.65,534.649z"/>
		<path fill="#F2F5C5" d="M463.794,469.665c0,0,25.346-39.345-22.959-60.185c0,0-63.107,23.006-131.447,38.828l9.197,64.207
			C318.585,512.515,377.743,500.191,463.794,469.665z"/>
		<circle fill="#D1D1D1" cx="268.115" cy="243.746" r="11.453"/>
		<circle fill="#D1D1D1" cx="315.372" cy="194.16" r="30.251"/>
		<circle fill="#D1D1D1" cx="187.308" cy="191.321" r="12.506"/>
		<circle fill="#D1D1D1" cx="352.385" cy="267.059" r="10.633"/>
		<circle fill="#D1D1D1" cx="130.476" cy="242.436" r="5.327"/>
		<line fill="none" stroke="#D1D1D1" stroke-miterlimit="10" x1="190.898" y1="468.997" x2="205.668" y2="532.793"/>
		<line fill="none" stroke="#D1D1D1" stroke-miterlimit="10" x1="320.558" y1="445.649" x2="335.148" y2="508.671"/>
		<line fill="none" stroke="#D1D1D1" stroke-miterlimit="10" x1="253.934" y1="459.446" x2="268.467" y2="522.214"/>
		<line fill="none" stroke="#D1D1D1" stroke-miterlimit="10" x1="376.837" y1="430.32" x2="391.624" y2="494.197"/>
		<line fill="none" stroke="#D1D1D1" stroke-miterlimit="10" x1="431.181" y1="413.365" x2="445.675" y2="475.966"/>
		<g>
			<path fill="#D1D1D1" d="M216.94,287.329c-1.909,2.86-3.788,5.676-5.709,8.558c-1.801-1.782-3.546-3.51-5.29-5.24
				c-0.833-0.827-1.642-1.679-2.497-2.481c-1.026-0.96-0.973-0.911-0.394-2.211c1.71-3.841,3.574-7.633,4.979-11.587
				c1.49-4.197,1.385-8.533-0.411-12.691c-1.101-2.548-2.843-4.582-5.544-5.506c-2.523-0.864-4.915-0.213-7.15,1.064
				c-4.23,2.417-6.522,6.157-7.225,10.903c-0.437,2.961-0.757,5.936-1.14,8.99c-3.397-1.29-6.875-2.613-10.478-3.981
				c0.175-1.783,0.288-3.591,0.537-5.382c0.647-4.645,1.732-9.165,4.124-13.271c4.406-7.561,13.41-12.109,21.979-10.93
				c5.17,0.714,9.382,3.223,12.314,7.596c2.051,3.059,2.707,6.562,2.718,10.204c0.017,5.587-1.673,10.727-4.092,15.674
				c-0.87,1.776-1.773,3.538-2.706,5.284c-0.272,0.51-0.192,0.735,0.282,1.054C213.131,284.645,214.987,285.967,216.94,287.329z"/>
			<path fill="#D1D1D1" d="M230.481,301.087c-3.609,2.352-7.11,4.629-10.685,6.959c-0.653-1.037-1.291-2.043-1.92-3.053
				c-0.679-1.09-1.376-2.17-2.007-3.287c-0.16-0.283-0.261-0.793-0.113-1.027c1.729-2.754,3.51-5.478,5.278-8.209
				c0.041-0.063,0.106-0.111,0.228-0.239C224.324,295.173,227.369,298.1,230.481,301.087z"/>
		</g>
	</g>
</g>
<g id="圖層_2">
	<g>
		<g>
			<path fill="#FF0808" d="M432.865,114.501c-7.941-0.997-15.77-1.976-23.77-2.979c1.838-5.608,3.621-11.041,5.408-16.473
				c0.854-2.595,1.789-5.167,2.566-7.785c0.936-3.137,0.887-2.977,4.197-3.124c9.781-0.436,19.619-0.502,29.313-1.694
				c10.297-1.266,19.215-6,26.008-14.072c4.162-4.946,6.582-10.691,5.693-17.277c-0.826-6.156-4.676-10.46-9.664-13.784
				c-9.438-6.293-19.615-7.172-30.229-3.692c-6.619,2.171-13.152,4.604-19.912,6.984c-0.848-8.418-1.717-17.038-2.617-25.965
				c3.896-1.495,7.779-3.14,11.764-4.484c10.35-3.489,20.893-5.936,31.941-5.23c20.334,1.301,39.182,15.316,45.646,34.394
				c3.9,11.51,3.055,22.896-2.996,33.554c-4.234,7.459-10.848,12.472-18.424,16.287c-11.619,5.851-24.084,7.686-36.906,7.799
				c-4.607,0.04-9.215-0.009-13.82-0.133c-1.342-0.038-1.734,0.365-1.9,1.682C434.49,103.773,433.665,109.019,432.865,114.501z"/>
			<path fill="#FF0808" d="M418.308,157.028c-8.65-5.068-17.045-9.984-25.617-15.005c1.48-2.442,2.908-4.817,4.355-7.179
				c1.563-2.549,3.086-5.126,4.756-7.604c0.424-0.628,1.383-1.368,2.023-1.307c7.539,0.732,15.064,1.604,22.596,2.446
				c0.174,0.021,0.34,0.104,0.73,0.227C424.212,138.049,421.292,147.439,418.308,157.028z"/>
		</g>
		<g>
			<path fill="#FF0808" d="M478.165,165.964c-4.426-2.82-8.783-5.595-13.242-8.436c2.662-2.806,5.242-5.524,7.826-8.24
				c1.234-1.298,2.508-2.559,3.705-3.891c1.432-1.596,1.359-1.514,3.361-0.673c5.916,2.487,11.762,5.208,17.84,7.223
				c6.453,2.139,13.064,1.838,19.352-1.037c3.854-1.762,6.898-4.486,8.223-8.637c1.236-3.877,0.166-7.506-1.855-10.875
				c-3.824-6.377-9.605-9.753-16.869-10.671c-4.533-0.571-9.082-0.963-13.756-1.45c1.859-5.225,3.766-10.574,5.738-16.114
				c2.727,0.208,5.488,0.322,8.229,0.645c7.107,0.837,14.039,2.347,20.383,5.865c11.68,6.479,18.91,20.07,17.387,33.183
				c-0.922,7.913-4.615,14.419-11.191,19.035c-4.602,3.229-9.926,4.342-15.482,4.476c-8.523,0.206-16.422-2.206-24.049-5.738
				c-2.738-1.269-5.455-2.591-8.148-3.958c-0.787-0.399-1.129-0.27-1.6,0.463C482.138,160.066,480.181,162.941,478.165,165.964z"/>
			<path fill="#FF0808" d="M457.609,187.069c-3.703-5.43-7.293-10.699-10.963-16.079c1.563-1.031,3.076-2.035,4.596-3.028
				c1.641-1.071,3.266-2.17,4.953-3.169c0.426-0.254,1.201-0.424,1.564-0.207c4.258,2.549,8.471,5.178,12.693,7.79
				c0.098,0.059,0.174,0.157,0.373,0.34C466.435,177.485,462.068,182.226,457.609,187.069z"/>
		</g>
	</g>
</g>
</svg>
