<?xml version="1.0" encoding="utf-8"?>
<!-- Generator: Adobe Illustrator 16.0.0, SVG Export Plug-In . SVG Version: 6.00 Build 0)  -->
<!DOCTYPE svg PUBLIC "-//W3C//DTD SVG 1.1//EN" "http://www.w3.org/Graphics/SVG/1.1/DTD/svg11.dtd">
<svg version="1.1" id="圖層_1" xmlns="http://www.w3.org/2000/svg" xmlns:xlink="http://www.w3.org/1999/xlink" x="0px" y="0px"
	 width="595.28px" height="595.28px" viewBox="0 0 595.28 595.28" enable-background="new 0 0 595.28 595.28" xml:space="preserve">
<g>
	<circle fill="#389039" cx="307.901" cy="302.183" r="223.575"/>
	<path fill="#2A6834" d="M511.213,378.95c-12.568,72.308-73.515,122.108-136.12,111.229
		c-62.609-10.887-103.175-78.327-90.607-150.643c12.57-72.31,73.515-122.106,136.122-111.225
		C483.215,239.194,523.782,306.637,511.213,378.95z"/>
	
		<ellipse transform="matrix(0.9803 -0.1974 0.1974 0.9803 -66.4093 34.4229)" fill="#2A6834" cx="139.446" cy="350.292" rx="52.007" ry="105.758"/>
	<path fill="#EE762A" d="M182.637,303.314c0,0,46.539-23.852,112.6,7.362c0,0-64.617,188.925-64.617,247.504
		c0,0-6.948,18.213-12.018-13.893C218.602,544.288,169.766,340.593,182.637,303.314z"/>
	<path fill="#389039" d="M229.646,97.891c0,0,14.019-43.367,52.556-68.997c0,0,1.049,56.98,13.034,68.997"/>
	<path fill="#389039" d="M270.686,88.879c0,0,23.015-37.455,57.563-25.486c0,0-24.174,19.478-20.348,25.486"/>
</g>
<ellipse fill="#040000" cx="359.441" cy="319.871" rx="6.759" ry="17.688"/>
<ellipse fill="#040000" cx="146.205" cy="319.871" rx="6.759" ry="17.688"/>
<path fill="#F7F7F7" d="M434.493,489.491c0,0-70.544-85.404-54.022-117.697c0,0,45.604-73.692,117.805,51.774
	C498.275,423.568,483.259,467.5,434.493,489.491z"/>
<path fill="#F7F7F7" d="M98.064,393.458c0,0,12.088-40.672,29.845-34.308c0,0,16.572,9.974,18.296,99.85
	C146.205,459,104.366,430.612,98.064,393.458z"/>
</svg>
