<?xml version="1.0" encoding="utf-8"?>
<!-- Generator: Adobe Illustrator 16.0.0, SVG Export Plug-In . SVG Version: 6.00 Build 0)  -->
<!DOCTYPE svg PUBLIC "-//W3C//DTD SVG 1.1//EN" "http://www.w3.org/Graphics/SVG/1.1/DTD/svg11.dtd">
<svg version="1.1" id="圖層_1" xmlns="http://www.w3.org/2000/svg" xmlns:xlink="http://www.w3.org/1999/xlink" x="0px" y="0px"
	 width="595.28px" height="595.28px" viewBox="0 0 595.28 595.28" enable-background="new 0 0 595.28 595.28" xml:space="preserve">
<g>
	<path fill="#50AFE4" d="M542.188,323.648c0,117.793-109.184,122.297-243.871,122.297c-134.686,0-243.871-4.504-243.871-122.297
		c0-117.794,109.185-213.284,243.871-213.284C433.005,110.364,542.188,205.854,542.188,323.648z"/>
	<path fill="#50AFE4" d="M81.88,362.363c0,0-30.682,51.313-64.538,55.017c0,0-20.631,20.631,50.255,16.928
		c0,0,61.505-8.464,79.351,0.444"/>
	<path fill="#50AFE4" d="M513.398,362.363c0,0,30.683,51.313,64.539,55.017c0,0,20.631,20.631-50.256,16.928
		c0,0-61.505-8.464-79.351,0.444"/>
	<ellipse fill="#50AFE4" cx="298.318" cy="115.152" rx="26.655" ry="43.014"/>
	<path fill="#001118" d="M156.09,362.363c0,8.179-4.092,14.812-9.142,14.812c-5.048,0-9.142-6.633-9.142-14.812
		c0-8.184,4.094-14.813,9.142-14.813C151.998,347.551,156.09,354.18,156.09,362.363z"/>
	<path fill="#001118" d="M457.473,362.363c0,8.179-4.091,14.812-9.142,14.812c-5.048,0-9.142-6.633-9.142-14.812
		c0-8.184,4.094-14.813,9.142-14.813C453.382,347.551,457.473,354.18,457.473,362.363z"/>
	<path fill="#F2F5C5" d="M172.51,440.023c0,0-54.936-55.442,7.84-54.737c0,0,57.483,7.053,117.968,7.053l4.761,55.723
		C303.078,448.062,250.728,448.93,172.51,440.023z"/>
	<path fill="#F2F5C5" d="M422.149,440.309c0,0,55.196-55.728-7.579-55.022c0,0-57.484,7.053-117.968,7.053l-4.762,55.723
		C291.841,448.062,343.93,449.215,422.149,440.309z"/>
	<circle fill="#D1D1D1" cx="254.815" cy="250.162" r="27.81"/>
	<circle fill="#D1D1D1" cx="301.716" cy="212.479" r="9.875"/>
	<circle fill="#D1D1D1" cx="351.056" cy="180.018" r="26.083"/>
	<circle fill="#D1D1D1" cx="244.033" cy="152.727" r="10.783"/>
	<circle fill="#D1D1D1" cx="367.97" cy="248.451" r="9.168"/>
	<circle fill="#D1D1D1" cx="186.354" cy="184.611" r="4.593"/>
	<line fill="none" stroke="#D1D1D1" stroke-miterlimit="10" x1="193.046" y1="386.673" x2="193.046" y2="443.136"/>
	<line fill="none" stroke="#D1D1D1" stroke-miterlimit="10" x1="306.5" y1="392.278" x2="306.5" y2="448.054"/>
	<line fill="none" stroke="#D1D1D1" stroke-miterlimit="10" x1="247.855" y1="390.909" x2="247.855" y2="446.462"/>
	<line fill="none" stroke="#D1D1D1" stroke-miterlimit="10" x1="356.756" y1="390.347" x2="356.756" y2="446.88"/>
	<line fill="none" stroke="#D1D1D1" stroke-miterlimit="10" x1="405.705" y1="386.673" x2="405.705" y2="442.077"/>
</g>
</svg>
