<?xml version="1.0" encoding="utf-8"?>
<!-- Generator: Adobe Illustrator 16.0.0, SVG Export Plug-In . SVG Version: 6.00 Build 0)  -->
<!DOCTYPE svg PUBLIC "-//W3C//DTD SVG 1.1//EN" "http://www.w3.org/Graphics/SVG/1.1/DTD/svg11.dtd">
<svg version="1.1" id="圖層_1" xmlns="http://www.w3.org/2000/svg" xmlns:xlink="http://www.w3.org/1999/xlink" x="0px" y="0px"
	 width="595.28px" height="595.28px" viewBox="0 0 595.28 595.28" enable-background="new 0 0 595.28 595.28" xml:space="preserve">
<g>
	<path fill="#EA8B1F" d="M479.551,408.068c0,26.582,21.555,48.131,48.135,48.131c26.582,0,48.137-21.549,48.137-48.131
		c0-26.584-21.555-48.135-48.137-48.135C501.105,359.934,479.551,381.484,479.551,408.068z"/>
	<path fill="#EA8B1F" d="M475.266,339.449c0,21.48,17.415,38.896,38.893,38.896c21.485,0,38.897-17.416,38.897-38.896
		c0-21.482-17.412-38.902-38.897-38.902C492.681,300.547,475.266,317.967,475.266,339.449z"/>
	<path fill="#EA8B1F" d="M438.7,459.748c0,22.27,18.057,40.32,40.319,40.32c22.273,0,40.324-18.051,40.324-40.32
		c0-22.271-18.051-40.322-40.324-40.322C456.757,419.426,438.7,437.477,438.7,459.748z"/>
	<path fill="#EA8B1F" d="M121.464,407.754c0,26.58-21.55,48.131-48.132,48.131c-26.583,0-48.133-21.551-48.133-48.131
		c0-26.586,21.55-48.135,48.133-48.135C99.915,359.619,121.464,381.168,121.464,407.754z"/>
	<path fill="#EA8B1F" d="M125.756,339.133c0,21.482-17.416,38.893-38.899,38.893c-21.481,0-38.896-17.41-38.896-38.893
		c0-21.486,17.415-38.898,38.896-38.898C108.34,300.234,125.756,317.646,125.756,339.133z"/>
	<path fill="#EA8B1F" d="M162.318,459.434c0,22.268-18.054,40.32-40.322,40.32c-22.27,0-40.322-18.053-40.322-40.32
		c0-22.271,18.053-40.324,40.322-40.324C144.264,419.109,162.318,437.162,162.318,459.434z"/>
	<ellipse fill="#F0D45C" cx="298.783" cy="284.96" rx="218.865" ry="208.446"/>
	<path fill="#F0D45C" d="M291.185,407.748c0,37.9-45.742,68.621-102.165,68.621c-56.422,0-102.163-30.721-102.163-68.621
		c0-37.895,45.741-68.615,102.163-68.615C245.443,339.133,291.185,369.854,291.185,407.748z"/>
	<path fill="#F0D45C" d="M510.49,407.748c0,37.9-45.012,68.621-100.533,68.621c-55.522,0-100.534-30.721-100.534-68.621
		c0-37.895,45.012-68.615,100.534-68.615C465.479,339.133,510.49,369.854,510.49,407.748z"/>
	<g>
		<path fill="#EA8B1F" d="M419.255,92.259c0.009-0.009,46.342-42.327,79.733,11.455c0,0,38.801,63.02-7.684,52.078
			c-15.568-4.688-31.183-9.376-47.181-12.374c-7.871-1.475-15.852-2.575-23.854-2.932c-9.49-0.423-23.765,5.46-28.452-5.845
			c-3.489-8.413-1.811-15.604,4.034-22.469C402.606,104.239,411.662,99.19,419.255,92.259z"/>
	</g>
	<g>
		<path fill="#EA8B1F" d="M83.68,107.747c0.005-0.012,35.04-52.076,80.184-7.702c0,0,52.586,52.076,4.83,52.421
			c-16.229-0.88-32.513-1.749-48.763-0.882c-7.997,0.425-16.012,1.24-23.876,2.785c-9.32,1.83-21.797,10.917-29.025,1.038
			c-5.379-7.352-5.444-14.733-1.384-22.787C70.334,123.317,77.942,116.274,83.68,107.747z"/>
	</g>
	<ellipse fill="#272828" cx="306.56" cy="395.369" rx="10.463" ry="5.697"/>
	<path fill="#EA8B1F" d="M233.312,289.822c0.718,9.07-15.49,17.75-36.201,19.387c-20.711,1.639-38.081-4.387-38.799-13.451
		c-0.718-9.064,15.49-17.746,36.201-19.386C215.224,274.735,232.594,280.757,233.312,289.822z"/>
	<path fill="#EA8B1F" d="M439.346,292.896c-0.366,9.086-17.489,15.778-38.248,14.946s-37.292-8.877-36.926-17.964
		c0.361-9.088,17.488-15.782,38.247-14.948C423.178,275.763,439.707,283.807,439.346,292.896z"/>
	<ellipse fill="#272828" cx="208.468" cy="353.699" rx="5.523" ry="10.387"/>
	<ellipse fill="#272828" cx="407.28" cy="353.699" rx="5.524" ry="10.387"/>
</g>
</svg>
