<?xml version="1.0" encoding="utf-8"?>
<!-- Generator: Adobe Illustrator 16.0.0, SVG Export Plug-In . SVG Version: 6.00 Build 0)  -->
<!DOCTYPE svg PUBLIC "-//W3C//DTD SVG 1.1//EN" "http://www.w3.org/Graphics/SVG/1.1/DTD/svg11.dtd">
<svg version="1.1" xmlns="http://www.w3.org/2000/svg" xmlns:xlink="http://www.w3.org/1999/xlink" x="0px" y="0px"
	 width="595.279px" height="595.281px" viewBox="0 0 595.279 595.281" enable-background="new 0 0 595.279 595.281"
	 xml:space="preserve">
<g id="圖層_1">
	<path fill="#EA8B1F" d="M481.657,399.941c5.548,25.996,31.125,42.572,57.119,37.024c25.997-5.548,42.58-31.12,37.032-57.116
		c-5.548-25.999-31.126-42.576-57.123-37.028C492.691,348.369,476.11,373.942,481.657,399.941z"/>
	<path fill="#EA8B1F" d="M463.146,333.726c4.483,21.009,25.149,34.406,46.154,29.924c21.012-4.483,34.405-25.15,29.923-46.157
		c-4.483-21.01-25.147-34.413-46.16-29.929C472.059,292.046,458.662,312.717,463.146,333.726z"/>
	<path fill="#EA8B1F" d="M452.49,459.008c4.647,21.778,26.075,35.664,47.847,31.017c21.782-4.647,35.669-26.068,31.021-47.848
		c-4.648-21.78-26.068-35.667-47.852-31.018C461.736,415.805,447.843,437.227,452.49,459.008z"/>
	<path fill="#EA8B1F" d="M131.39,474.366c5.547,25.995-11.03,51.568-37.027,57.116c-25.998,5.548-51.571-11.03-57.118-37.026
		c-5.549-26,11.029-51.572,37.027-57.12C100.27,431.788,125.842,448.366,131.39,474.366z"/>
	<path fill="#EA8B1F" d="M121.266,406.36c4.483,21.01-8.916,41.672-29.926,46.155c-21.007,4.483-41.672-8.908-46.156-29.92
		s8.914-41.675,29.921-46.158C96.115,371.953,116.782,385.346,121.266,406.36z"/>
	<path fill="#EA8B1F" d="M182.129,516.381c4.648,21.779-9.241,43.2-31.018,47.848c-21.78,4.647-43.203-9.24-47.85-31.018
		c-4.647-21.779,9.24-43.202,31.019-47.851C156.057,480.712,177.481,494.6,182.129,516.381z"/>
	
		<ellipse transform="matrix(-0.2087 -0.978 0.978 -0.2087 1.4089 637.9042)" fill="#F0D45C" cx="258.774" cy="318.382" rx="208.446" ry="218.865"/>
	<path fill="#F0D45C" d="M297.372,438.939c7.909,37.066-30.414,76.656-85.595,88.432c-55.179,11.775-106.324-8.723-114.234-45.788
		c-7.908-37.06,30.414-76.65,85.594-88.426C238.317,381.381,289.463,401.88,297.372,438.939z"/>
	<path fill="#F0D45C" d="M509.231,393.729c7.909,37.066-29.699,76.504-83.998,88.091c-54.299,11.588-104.73-9.063-112.641-46.129
		c-7.908-37.06,29.7-76.497,83.999-88.085C450.892,336.019,501.323,356.67,509.231,393.729z"/>
	<g>
		<path fill="#EA8B1F" d="M356.781,103.669c0.006-0.01,36.487-51.066,80.367-5.438c0,0,51.099,53.535,3.354,52.535
			c-16.204-1.335-32.454-2.662-48.726-2.255c-8.005,0.2-16.04,0.79-23.94,2.11c-9.37,1.567-22.102,10.3-29.046,0.222
			c-5.168-7.5-5.027-14.882-0.743-22.816C342.997,118.861,350.8,112.033,356.781,103.669z"/>
	</g>
	<g>
		<path fill="#EA8B1F" d="M31.827,188.851c0.002-0.013,23.4-58.242,76.81-24.267c0,0,62.297,39.954,15.664,50.258
			c-16.055,2.527-32.162,5.075-47.873,9.314c-7.732,2.084-15.4,4.554-22.769,7.707c-8.733,3.735-19.039,15.226-28.169,7.073
			c-6.795-6.068-8.398-13.273-6.109-21.997C22.024,206.863,27.994,198.388,31.827,188.851z"/>
	</g>
	
		<ellipse transform="matrix(-0.2087 -0.978 0.978 -0.2087 -39.8135 815.034)" fill="#272828" cx="309.825" cy="423.624" rx="5.697" ry="10.463"/>
	<path fill="#EA8B1F" d="M204.596,335.947c5.612,7.162,1.523,30.504-14.831,43.316c-16.353,12.815-38.779,10.244-44.388,3.088
		c-5.608-7.157,15.026-8.093,31.379-20.907C193.11,348.63,198.988,328.791,204.596,335.947z"/>
	<path fill="#EA8B1F" d="M417.388,252.137c1.538,8.962-17.361-0.72-37.836,2.798c-20.477,3.519-34.774,18.902-36.313,9.939
		c-1.544-8.963,14.418-26.712,34.896-30.229C398.609,231.127,415.844,243.173,417.388,252.137z"/>
	
		<ellipse transform="matrix(-0.2087 -0.978 0.978 -0.2087 -146.4409 688.1984)" fill="#272828" cx="205.197" cy="403.343" rx="10.387" ry="5.524"/>
	
		<ellipse transform="matrix(-0.2088 -0.978 0.978 -0.2088 129.1805 828.2191)" fill="#272828" cx="399.631" cy="361.852" rx="10.387" ry="5.525"/>
</g>
<g id="圖層_2">
	<g>
		<path fill="#FF0808" d="M462.464,162.901c-6.85-0.858-13.597-1.703-20.495-2.567c1.586-4.836,3.12-9.521,4.661-14.204
			c0.736-2.238,1.543-4.455,2.214-6.712c0.806-2.704,0.765-2.566,3.619-2.693c8.434-0.375,16.915-0.433,25.274-1.46
			c8.877-1.091,16.567-5.173,22.424-12.134c3.588-4.265,5.674-9.218,4.909-14.896c-0.714-5.308-4.032-9.019-8.332-11.885
			c-8.139-5.426-16.913-6.184-26.065-3.184c-5.707,1.872-11.339,3.97-17.167,6.022c-0.731-7.258-1.48-14.691-2.257-22.388
			c3.359-1.289,6.707-2.708,10.144-3.867c8.923-3.008,18.014-5.119,27.539-4.509c17.533,1.122,33.784,13.206,39.358,29.655
			c3.361,9.924,2.633,19.742-2.584,28.931c-3.652,6.432-9.354,10.753-15.886,14.042c-10.017,5.045-20.765,6.627-31.82,6.725
			c-3.973,0.035-7.946-0.008-11.917-0.115c-1.158-0.032-1.493,0.314-1.639,1.45C463.864,153.652,463.155,158.175,462.464,162.901z"
			/>
		<path fill="#FF0808" d="M449.912,199.57c-7.46-4.37-14.696-8.609-22.088-12.938c1.276-2.105,2.508-4.153,3.756-6.188
			c1.348-2.199,2.661-4.421,4.102-6.557c0.365-0.542,1.191-1.18,1.744-1.127c6.5,0.631,12.988,1.384,19.48,2.11
			c0.149,0.017,0.294,0.089,0.631,0.195C455.004,183.206,452.486,191.303,449.912,199.57z"/>
	</g>
	<g>
		<path fill="#FF0808" d="M501.524,207.275c-3.816-2.431-7.575-4.825-11.419-7.273c2.296-2.419,4.52-4.763,6.746-7.105
			c1.064-1.119,2.165-2.206,3.195-3.355c1.236-1.375,1.173-1.305,2.899-0.58c5.102,2.145,10.142,4.49,15.382,6.228
			c5.564,1.845,11.264,1.585,16.687-0.894c3.322-1.52,5.947-3.868,7.089-7.446c1.066-3.344,0.143-6.473-1.601-9.377
			c-3.298-5.499-8.282-8.409-14.546-9.201c-3.905-0.492-7.83-0.83-11.858-1.25c1.604-4.505,3.246-9.117,4.946-13.894
			c2.352,0.179,4.732,0.278,7.094,0.556c6.129,0.722,12.106,2.023,17.577,5.057c10.07,5.585,16.305,17.304,14.99,28.611
			c-0.793,6.822-3.979,12.433-9.649,16.412c-3.968,2.785-8.559,3.745-13.35,3.86c-7.35,0.177-14.16-1.902-20.735-4.947
			c-2.362-1.094-4.704-2.234-7.026-3.412c-0.678-0.345-0.973-0.233-1.378,0.399C504.948,202.188,503.259,204.668,501.524,207.275z"
			/>
		<path fill="#FF0808" d="M483.798,225.472c-3.192-4.681-6.289-9.224-9.452-13.862c1.348-0.889,2.651-1.755,3.962-2.611
			c1.415-0.924,2.816-1.872,4.27-2.733c0.368-0.218,1.037-0.365,1.35-0.178c3.673,2.198,7.305,4.464,10.946,6.717
			c0.084,0.052,0.149,0.135,0.319,0.293C491.407,217.208,487.643,221.297,483.798,225.472z"/>
	</g>
</g>
</svg>
