<?xml version="1.0" encoding="utf-8"?>
<!-- Generator: Adobe Illustrator 16.0.0, SVG Export Plug-In . SVG Version: 6.00 Build 0)  -->
<!DOCTYPE svg PUBLIC "-//W3C//DTD SVG 1.1//EN" "http://www.w3.org/Graphics/SVG/1.1/DTD/svg11.dtd">
<svg version="1.1" id="圖層_1" xmlns="http://www.w3.org/2000/svg" xmlns:xlink="http://www.w3.org/1999/xlink" x="0px" y="0px"
	 width="595.279px" height="595.279px" viewBox="0 0 595.279 595.279" enable-background="new 0 0 595.279 595.279"
	 xml:space="preserve">
<circle fill="#E98A1F" cx="530.073" cy="445.387" r="48.524"/>
<path fill="#E98A1F" d="M477.224,376.21c0,21.656,17.556,39.214,39.214,39.214c21.66,0,39.213-17.558,39.213-39.214
	c0-21.659-17.553-39.216-39.213-39.216C494.78,336.994,477.224,354.551,477.224,376.21z"/>
<path fill="#E98A1F" d="M440.366,497.489c0,22.449,18.204,40.649,40.648,40.649c22.449,0,40.651-18.2,40.651-40.649
	c0-22.45-18.202-40.653-40.651-40.653C458.57,456.836,440.366,475.039,440.366,497.489z"/>
<circle fill="#E98A1F" cx="72.028" cy="445.069" r="48.523"/>
<path fill="#E98A1F" d="M124.878,375.892c0,21.656-17.557,39.208-39.216,39.208c-21.656,0-39.211-17.552-39.211-39.208
	c0-21.66,17.555-39.217,39.211-39.217C107.321,336.676,124.878,354.232,124.878,375.892z"/>
<path fill="#E98A1F" d="M161.736,497.172c0,22.449-18.198,40.647-40.647,40.647c-22.452,0-40.651-18.198-40.651-40.647
	c0-22.452,18.2-40.655,40.651-40.655C143.537,456.516,161.736,474.719,161.736,497.172z"/>
<path fill="#EFD45C" d="M519.956,321.275c0,116.063-98.783,210.145-220.645,210.145c-121.859,0-220.645-94.082-220.645-210.145
	c0-116.053,98.786-210.135,220.645-210.135C421.173,111.14,519.956,205.222,519.956,321.275z"/>
<path fill="#EFD45C" d="M291.649,445.065c0,38.211-46.112,69.179-102.992,69.179c-56.881,0-102.995-30.968-102.995-69.179
	c0-38.205,46.113-69.173,102.995-69.173C245.537,375.892,291.649,406.86,291.649,445.065z"/>
<path fill="#EFD45C" d="M512.735,445.065c0,38.211-45.373,69.179-101.349,69.179c-55.972,0-101.351-30.968-101.351-69.179
	c0-38.205,45.379-69.173,101.351-69.173C467.362,375.892,512.735,406.86,512.735,445.065z"/>
<linearGradient id="SVGID_1_" gradientUnits="userSpaceOnUse" x1="306.0369" y1="600.6277" x2="294.3251" y2="115.567">
	<stop  offset="0.2263" style="stop-color:#FFFFFF;stop-opacity:0"/>
	<stop  offset="1" style="stop-color:#FF7878"/>
</linearGradient>
<path fill="url(#SVGID_1_)" d="M519.956,322.083c0,116.063-98.783,210.145-220.645,210.145
	c-121.859,0-220.645-94.082-220.645-210.145c0-116.053,98.786-210.135,220.645-210.135
	C421.173,111.948,519.956,206.03,519.956,322.083z"/>
<g>
	<path fill="#E98A1F" d="M420.76,127.01c0.007-0.01,46.723-42.672,80.384,11.546c0,0,39.113,63.535-7.75,52.501
		c-15.69-4.726-31.436-9.452-47.559-12.472c-7.935-1.49-15.979-2.596-24.054-2.956c-9.565-0.428-23.953,5.505-28.685-5.893
		c-3.517-8.483-1.82-15.731,4.072-22.652C403.977,139.088,413.108,133.997,420.76,127.01z"/>
</g>
<g>
	<path fill="#E98A1F" d="M82.461,142.623c0.004-0.009,35.321-52.499,80.833-7.764c0,0,53.012,52.5,4.868,52.846
		c-16.358-0.885-32.777-1.761-49.158-0.889c-8.062,0.428-16.141,1.249-24.07,2.808c-9.396,1.844-21.974,11.006-29.261,1.047
		c-5.422-7.41-5.486-14.852-1.397-22.971C69.007,158.323,76.674,151.223,82.461,142.623z"/>
</g>
<ellipse fill="#262727" cx="307.15" cy="432.585" rx="10.549" ry="5.744"/>
<path fill="#E98A1F" d="M441.016,329.274c-0.368,9.161-17.631,15.911-38.561,15.073c-20.928-0.844-37.594-8.95-37.229-18.111
	c0.368-9.161,18.121-0.414,39.049,0.425C425.21,327.5,441.381,320.113,441.016,329.274z"/>
<path fill="#262727" d="M414.363,376.142c-2.831,8.714-9.957,14.21-15.915,12.272c-5.959-1.936-8.492-10.569-5.66-19.284
	s4.829,1.57,10.788,3.506C409.534,374.572,417.195,367.427,414.363,376.142z"/>
<path fill="#E98A1F" d="M157.604,329.274c0.368,9.161,17.631,15.911,38.561,15.073c20.928-0.844,37.594-8.95,37.23-18.111
	c-0.368-9.161-18.121-0.414-39.049,0.425C173.412,327.5,157.24,320.113,157.604,329.274z"/>
<path fill="#262727" d="M184.258,376.142c2.831,8.714,9.957,14.21,15.915,12.272c5.959-1.936,8.492-10.569,5.661-19.284
	s-4.83,1.57-10.788,3.506C189.087,374.572,181.426,367.427,184.258,376.142z"/>
<path fill="#92F4F1" d="M486.233,158.674c0,0,76.333-21.197,55.527-42.897C520.958,94.076,486.233,158.674,486.233,158.674z"/>
<path fill="#92F4F1" d="M495.181,179.998c0,0,77.417,16.821,69.123-12.075C556.01,139.028,495.181,179.998,495.181,179.998z"/>
<path fill="#92F4F1" d="M467.955,135.821c0,0,68.413-39.946,42.766-55.63C485.074,64.507,467.955,135.821,467.955,135.821z"/>
<path fill="#92F4F1" d="M101.921,238.783c0,0-38.717-69.116-54.856-43.753C30.925,220.392,101.921,238.783,101.921,238.783z"/>
<path fill="#92F4F1" d="M89.049,255.424c0,0-63.771-47.002-68.016-17.242C16.786,267.943,89.049,255.424,89.049,255.424z"/>
<path fill-rule="evenodd" clip-rule="evenodd" fill="#9B9B9B" d="M215.773,515.345c14.5,2.327,23.425,14.374,21.769,28.561
	c-1.479,12.673-13.477,22.273-26.702,21.367c-13.35-0.912-23.581-12.201-23.151-25.803c0.085-2.742,0.814-5.513,1.587-8.172
	c0.949-3.278,0.817-6.294-1.094-9.162c-16.668-25.002-33.348-49.995-49.993-75.013c-2.03-3.05-4.832-4.512-8.415-4.724
	c-18.25-1.077-31.104-17.994-27.127-35.695c0.157-0.699,0.226-1.5,0.622-2.046c0.604-0.836,1.375-1.92,2.232-2.086
	c0.681-0.131,1.861,0.774,2.367,1.524c2.732,4.037,5.313,8.175,7.962,12.266c2.309,3.568,5.066,4.414,9.052,2.837
	c5.421-2.145,10.204-5.286,14.447-9.26c3.218-3.014,3.591-5.917,1.236-9.6c-2.583-4.041-5.271-8.017-7.745-12.123
	c-0.526-0.875-0.755-2.409-0.328-3.223c0.327-0.622,1.956-0.926,2.923-0.789c18.929,2.703,30.132,22.21,22.956,40.001
	c-1.414,3.506-1.116,6.673,0.834,9.802c15.38,24.689,30.818,49.346,46.079,74.108C207.97,512.471,211.096,515.503,215.773,515.345z
	 M212.502,526.341c-0.424,0.139-1.135,0.226-1.684,0.572c-3.238,2.037-6.467,4.095-9.624,6.257
	c-0.524,0.358-0.968,1.268-0.953,1.912c0.084,3.821,0.256,7.645,0.55,11.457c0.052,0.692,0.642,1.615,1.25,1.951
	c3.276,1.812,6.604,3.536,9.989,5.13c0.698,0.328,1.896,0.265,2.56-0.131c3.151-1.874,6.245-3.854,9.241-5.964
	c0.696-0.49,1.312-1.639,1.306-2.48c-0.022-3.661-0.251-7.324-0.496-10.979c-0.042-0.628-0.346-1.531-0.814-1.789
	C220.196,530.281,216.495,528.413,212.502,526.341z"/>
<ellipse fill="#EFD45C" cx="183.65" cy="518.733" rx="24.492" ry="21.246"/>
</svg>
