<?xml version="1.0" encoding="utf-8"?>
<!-- Generator: Adobe Illustrator 16.0.0, SVG Export Plug-In . SVG Version: 6.00 Build 0)  -->
<!DOCTYPE svg PUBLIC "-//W3C//DTD SVG 1.1//EN" "http://www.w3.org/Graphics/SVG/1.1/DTD/svg11.dtd">
<svg version="1.1" xmlns="http://www.w3.org/2000/svg" xmlns:xlink="http://www.w3.org/1999/xlink" x="0px" y="0px"
	 width="595.28px" height="841.89px" viewBox="0 0 595.28 841.89" enable-background="new 0 0 595.28 841.89" xml:space="preserve">
<g id="圖層_3">
	<g>
		<path fill="#E8CE5D" d="M110.359,422.027l-22.474-85.592v-55.946l17.533-45.426c0,0,14.982-24.228,15.46-24.387
			s8.316-7.538,8.316-7.538l22.446-4.097l8.925,2.072l11.816,1.116l7.607-1.116l5.76-4.462l0.957-8.081l-7.492-13.915l-3.484-5.008
			l-0.813-0.728l11.469-6.617l12.034-5.885l15.78-6.25l15.62-4.361l15.7-3.347l42.956-4.343l44.35,4.901l46.383,10.976
			l28.803,11.004l-5.678,9.598l-3.76,7.273l1.371,6.814l6.519,5.14l20.801,2.152l16.975,4.304l16.258,28.81l15.182,48.773
			l0.957,66.705l-10.281,51.523l8.847-0.957l10.878,5.469l2.869,6.724l2.869,18.051l-8.607,28.81l-25.701,13.269l-47.578,33.233
			l-21.397,19.963l-19.313,27.973l4.25,13.15l12.313,37.775l15.78,49.61l16.896,50.846l7.014,23.271l7.49,19.604l5.102,17.533
			l0.797,16.735l-4.464,9.245l-3.825,0.638l-9.085-6.057l-17.474-10.182l-9.954-5.002l-34.098,7.811l-49.729,4.662l-49.729-7.013
			l-15.638-3.115l-2.772,4.211l-16.261,17.035l-7.229,1.016l-10.699-16.915l-8.428-35.385l-4.642-33.95l1.115-43.035l8.448-44.629
			l3.666-35.863l3.347-27.573l-1.17-1.515l-8.553-6.056l-21.119-13.069l-30.284-11.238l-36.42-10.36l-10.042-2.47l-20.88-19.207
			l-9.085-18.967l5.021-23.271l7.73-6.694l14.744,1.754l6.057-2.789L110.359,422.027z"/>
		<path fill="#E08725" d="M92.986,208.764l7.173,1.435l18.17-3.347l13.944-4.274l14.754-2.693h12.743l16.577,3.143
			c0,0,5.26-2.938,6.216-3.143c0.957-0.205,3.534-6.155,3.534-6.155l-1.769-9.578l-9.097-13.407l-2.848-3.42l-4.106-3.882
			l-4.402-3.649l-8.328-5.618l-9.723-2.63l-13.628,0.479l-15.142,7.81l-14.823,14.903l-10.679,15.381l-3.108,7.332v6.137
			l1.993,4.064L92.986,208.764z"/>
		<path fill="#E08725" d="M406.505,191.869l14.664,1.913l19.286,4.808l13.389,5.871l7.491,4.463l8.288,5.26l10.839,2.869
			c0,0,6.216,0.638,6.694,0.957c0.478,0.318,3.666-3.507,3.666-3.507l0.996-4.781v-9.245l-5.141-13.548l-8.447-16.185l-9.164-10.274
			l-13.946-8.448l-12.991-2.311l-12.688,2.998l-14.13,8.12l-8.807,7.591l-6.559,6.694l-1.371,6.754l0.896,6.754l4.423,3.706
			L406.505,191.869z"/>
		<path fill="#E08725" d="M366.977,296.269h10.839l6.789,1.913l6.121,2.339l9.085,4.674l5.101,3.188h5.738
			c0,0,3.799-1.753,3.812-2.869c0.014-1.116,1.448-10.998,1.448-10.998l-3.666-7.969l-19.445-20.083l-16.417-4.623l-11.477,2.602
			l-10.156,7.228l-1.16,8.5l2.072,6.057l5.101,7.013L366.977,296.269z"/>
		<path fill="#E08725" d="M148.932,303.92c0.637,0,6.216-1.275,6.216-1.275l11.157-5.579c0,0,11.954-3.347,12.751-3.347
			c0.797,0,14.026-1.434,14.026-1.434s4.782-3.193,5.101-4.306s5.42-10.198,5.42-10.198l1.434-6.854l-2.55-5.26l-10.201-6.056
			l-10.52-2.869l-11.636,2.391l-12.113,9.085l-12.911,15.46l-1.913,4.301v7.972l0.696,4.622L148.932,303.92z"/>
		<polyline fill="#E08725" points="375.584,568.904 376.234,567.97 377.178,567.271 380.017,564.552 389.161,558.216 
			401.504,551.641 421.408,544.837 431.688,543.881 441.73,543.881 453.366,545.315 459.661,546.271 454.401,548.663 
			461.495,551.373 475.68,558.784 495.922,572.651 514.89,591.857 528.597,611.701 535.53,630.031 538.081,641.029 544.935,657.128 
			534.256,652.665 530.271,647.803 529.872,659.996 526.127,688.049 521.902,706.777 521.902,711.878 527.641,728.215 
			539.355,742.959 537.283,746.624 515.526,740.647 515.368,743.994 520.549,759.296 492.495,757.145 470.978,752.921 
			458.626,746.387 445.476,741.127 430.947,737.599 422.601,713.743 413.119,684.145 401.165,646.688 391.522,616.244 
			384.19,595.125 376.301,570.021 375.584,569.224 		"/>
		<path fill="#E08725" d="M404.433,505.349l14.465,11.595l12.433,5.619l11.117,1.674l9.085-1.913c0,0,6.814-5.021,7.173-5.26
			s6.575-6.336,6.575-6.336l7.411-16.258l15.66-0.956l14.703-6.814l7.531-9.922l2.511-12.521l-3.586-18.32l-6.336-15.182
			l4.184-23.072l-1.793-14.704l-7.411-14.464l-9.086-6.216l-14.695-3.695l-4.909,27.604l8.009,0.359l8.249,4.901l6.097,10.4
			l-2.032,22.833l-7.053,19.604l-19.247,9.324l-31.798,20.203L404.433,505.349z"/>
		<polygon fill="#E08725" points="150.286,521.168 119.146,512.31 100.579,505.946 92.069,500.208 78.083,480.962 74.975,458.607 
			84.343,442.162 94.289,441.112 103.904,441.632 108.318,414.253 91.617,377.935 81.311,379.231 70.99,381.622 59.076,391.425 
			55.011,401.466 53.337,416.799 55.848,432.667 58.119,441.513 52.142,457.771 50.469,469.725 50.469,480.125 54.533,491.003 
			61.228,497.697 73.859,502.838 90.515,503.196 97.688,516.824 103.187,523.758 113.228,530.691 123.27,532.006 131.997,531.408 
			142.875,526.746 		"/>
	</g>
</g>
<g id="圖層_4">
	<g>
		<path opacity="0.2" fill="#434244" d="M268.309,422.027c0,0,11.8-11.954,29.493,0C297.801,422.027,282.09,401.466,268.309,422.027
			z"/>
		<path opacity="0.2" fill="#434244" d="M474.245,406.088c0,0-8.925,33.791-91.17,110.298c0,0,61.523-56.743,96.59-65.031
			C479.665,451.355,499.429,406.088,474.245,406.088z"/>
		<path opacity="0.2" fill="#434244" d="M169.539,406.021c0,0-9.689,8.01,5.852,6.868c0,0,13.628,2.444,17.453,9.139
			c0,0,7.172-0.717,0-10.042L169.539,406.021z"/>
		<path opacity="0.2" fill="#434244" d="M366.816,411.324c0,0-8.049,8.509,1.515,7.694c0,0,13.628-7.302,19.127-3.819
			c0,0,9.266,1.816,4.304-6.187"/>
		<path opacity="0.2" fill="#434244" d="M393.095,765.404l26.958,13.656l11.646,11.26l3.227-5.02l2.324-4.814
			c0,0-27.062-17.544-32.41-18.969L393.095,765.404z"/>
		<path opacity="0.2" fill="#434244" d="M89.213,441.648c0,0,29.686,64.323,48.721,67.087c0,0,72.524,28.053,73.559,47.817
			l-8.565,67.702l-7.203,45.621l1.493,51.689l8.673,43.454l11.26,23.078l6.854,2.299l12.273-9.265l8.512-13.336l-17.458-6.688
			c0,0,5.2,10.221,4.901,11.775c0,0-6.754,13.986-14.883-0.837c0,0-11.596-97.547,4.662-132.931
			c16.258-35.385,65.611-102.02,92.047-104.241l-43.752-0.239l-9.344-0.438l-4.603-0.318l-6.634-0.638l-35.843-4.703l-23.909-5.977
			l-31.798-12.193l-29.408-19.964L110,462.552l-3.228-18.768l-13.867-4.304L89.213,441.648z"/>
		<path opacity="0.2" fill="#434244" d="M103.904,181.387c0,0-5.928,22.415,36.71,9.924
			C140.614,191.311,69.954,227.887,103.904,181.387z"/>
		<path opacity="0.2" fill="#434244" d="M417.736,164.461c0,0-31.474,25.433,12.996,24.109
			C430.732,188.57,404.741,185.188,417.736,164.461z"/>
		<path opacity="0.2" fill="#434244" d="M150.286,285.111c0,0-7.689,26.404,22.097,2.867
			C172.383,287.979,146.253,299.839,150.286,285.111z"/>
		<path opacity="0.2" fill="#434244" d="M358.051,276.211c0,0,0.319,17.817,25.024,16.308
			C383.075,292.519,357.307,282.956,358.051,276.211z"/>
		<path opacity="0.2" fill="#434244" d="M65.831,440.436c0,0-9.504,25.464,10.311,19.15l1.543,23.967l19.463,22.841
			c0,0,15.585,5.309,16.718,4.414c1.133-0.894,30.387,8.644,30.387,8.644l6.033,1.717l-14.452,8.596c0,0-9.925,2.373-10.293,2.242
			c-0.367-0.131-13.837-2.367-13.837-2.367l-12.582-9.706l-8.436-16.411l-22.426-2.962l-7.392-3.221l-7.412-9.215l-4.064-16.248
			l8.727-30.363l-3.72-18.005l-1.062-15.945C53.337,407.563,61.108,438.524,65.831,440.436z"/>
		<path opacity="0.2" fill="#434244" d="M62.303,400.6c0,0,0.957-17.065,25.343-17.782C87.646,382.817,66.368,392.56,62.303,400.6z"
			/>
		<path opacity="0.2" fill="#434244" d="M406.298,506.844l30.005-25.944l35.778-20.969l10.963-6.492l7.009-21.743
			c0,0-12.747,57.762,21.108,42.217l-7.629,12.159l-8.794,6.337l-20.014,1.982l-1.913-0.16l-6.493,14.22l-9.165,9.74l-11.915,6.046
			l-15.229-2.271l-14.604-6.694L406.298,506.844z"/>
		<path opacity="0.2" fill="#434244" d="M380.072,582.024c0,0,70.264,175.041,130.832,163.246c0,0-8.925-16.258-2.23-40.805
			c0,0,15.829,37.836,25.766,32.307l8.98,9.068l-20.857-3.261l-8.15-3.686l4.479,15.506l0.262,4.788l-33.376-3.363l-14.878-3.981
			l-13.29-5.864l-17.15-6.071l-9.177-1.434l-9.624-27.676l-9.813-29.843l-13.176-37.891l-9.537-31.803L380.072,582.024z"/>
		<path opacity="0.2" fill="#434244" d="M407.063,555.556c0,0,28.909-10.948,41.855-10.26l8.865,0.691l-7.446,3.748l13.731,2.982
			C464.068,552.718,434.079,548.503,407.063,555.556z"/>
		<path opacity="0.2" fill="#434244" d="M514.053,597.396c0,0,8.488,11.954,17.215,46.502c0,0-1.017,4.529-1.021,4.66
			c-0.004,0.131,1.021,18.292,1.021,18.292l-5.993,24.98C525.274,691.83,526.246,611.979,514.053,597.396z"/>
		<path opacity="0.2" fill="#434244" d="M445.316,556.632c0,0,23.653-3.597,53.076,27.854
			C498.393,584.485,465.16,559.262,445.316,556.632z"/>
	</g>
</g>
<g id="圖層_1">
	<g>
		<path fill="#893822" d="M124.545,204.301c0,0-78.26,70.45-21.836,217.248c0,0-28.212,108.066,175.01,113.326
			c0,0-189.355-0.479-160.665-116.195c0,0-71.566-142.335,20.242-217.567L124.545,204.301z"/>
		<path fill="#893822" d="M93.942,183.262c0,0-32.834,44.948,32.515,23.589c0,0,23.59-9.882,47.498-1.913
			c0,0,26.096-2.55,6.035-31.24c0,0,13.729,30.921-5.716,26.14c0,0-19.445-7.65-53.874,4.463c0,0-47.18,17.852-23.909-19.126
			c0,0,30.603-55.468,72.363-21.04C168.855,164.135,136.659,122.375,93.942,183.262z"/>
		<path fill="#893822" d="M184.338,188.015c0,0-9.5-23.269-25.322-30.51l1.227-1.088c0,0,15.741,12.979,19.748,17.282l5.76,14.316
			l-1.325,0.555"/>
		<path fill="#893822" d="M174.285,170.743c0,0,81.447-66.626,234.462-3.508l3.77-2.774c0,0-125.713-63.763-238.231,3.896V170.743z"
			/>
		<g>
			<path fill="#893822" d="M490.501,192.443c0,0,21.984,51.139-36.955,15.744c0,0-20.792-14.895-45.876-12.459
				c0,0-24.869-8.306,1.085-31.799c0,0-20.281,27.081-0.259,26.756c0,0,20.662-3.12,51.522,16.367c0,0,42.01,27.925,27.571-13.312
				c0,0-17.459-60.896-65.847-36.649C421.743,157.09,462.441,123.563,490.501,192.443z"/>
			<path fill="#893822" d="M401.322,176.915c0,0,14.451-20.563,31.49-24.093l-0.952-1.335c0,0-18.24,9.141-23.105,12.442
				l-8.809,12.671l1.168,0.836"/>
		</g>
		<path fill="#893822" d="M444.657,198.692c-2.462-0.573-4.585,1.467-7.541,1.23c68.826,71.583,18.498,200.283,18.498,200.283
			c0.267,0.753,0.521,1.502,0.768,2.248c4.96-2.718,10.171-5.28,15.601-7.584C498.54,291.491,466.427,225.575,444.657,198.692z"/>
		<path fill="#893822" d="M337.011,537.744c0,0,96.591-156.839,142.495-143.451c0,0,28.689,2.869,4.781,60.25
			c0,0-94.678,46.86-122.411,111.892c0,0,13.639-68.856,120.146-112.37c0,0,23.305-53.077-9.211-56.424
			C472.811,397.641,425.473,407.682,337.011,537.744z"/>
		<path fill="#893822" d="M227.342,572.327c0.166,0.373,0.337,0.743,0.488,1.12C227.83,573.447,227.682,573.052,227.342,572.327z"/>
		<path fill="#893822" d="M208.935,549.735c-16.458-14.383-46.236-31.653-98.735-40.682c0,0-55.468-29.009-21.996-62.8
			c0,0,8.426-8.36,18.489,3.188l-0.957-6.058c0,0-27.733-28.688-34.747,25.185c0,0,1.275,36.022,48.454,45.904
			c0,0,58.852,12.74,90.697,37.579c0.033-0.373,0.065-0.742,0.097-1.108L208.935,549.735z"/>
		<path fill="#893822" d="M210.242,550.897c-0.426-0.385-0.861-0.772-1.307-1.162l1.303,1.209
			C210.239,550.929,210.241,550.913,210.242,550.897z"/>
		<path fill="#893822" d="M221.996,787.321c0,0-28.435-14.796-25.088-118.559c0,0,8.23-43.441,15.749-114.667
			c-0.82-0.688-1.654-1.371-2.515-2.043c-2.408,27.498-7.491,74.318-16.836,116.683c0,0-6.216,92.765,27.255,126.236
			c0,0,10.998,0.709,24.865-27.981C245.426,766.99,229.712,787.276,221.996,787.321z"/>
		<path fill="#893822" d="M212.743,553.268c0.001-0.011,0.002-0.022,0.004-0.033c-0.795-0.768-1.631-1.548-2.505-2.337
			c-0.001,0.016-0.003,0.031-0.004,0.047L212.743,553.268z"/>
		<path fill="#893822" d="M212.743,553.268l-2.505-2.323c-0.031,0.366-0.064,0.735-0.097,1.108c0.861,0.672,1.695,1.354,2.515,2.043
			C212.685,553.819,212.714,553.545,212.743,553.268z"/>
		<path fill="#893822" d="M370.628,549.735c0,0,57.394,180.553,68.552,207.011c0,0,5.419,24.546-6.057,34.747
			c0,0-14.822-12.748-40.962-26.456c0,0,33.63,13.067,39.368,20.718c0,0,11.476-5.739,3.507-30.284l-65.814-203.418L370.628,549.735
			z"/>
		<path fill="#893822" d="M225.833,760.412c0,0,78.738,35.065,181.066,0C406.899,760.412,322.104,809.186,225.833,760.412z"/>
		<path fill="#893822" d="M374.627,568.759"/>
		<path fill="#893822" d="M375.584,568.759c0,0,27.414-35.477,76.188-24.957c0,0,7.971,2.072,11.796,0.638
			c0,0-4.304,4.304-6.694,4.304c0,0,67.74,22.792,80.65,87.823c0,0,8.767,23.59,11.636,24.864c0,0-8.289-0.318-18.489-10.52
			c0,0,5.737,9.245-7.97,54.512c0,0-1.274,33.472,33.472,43.673c0,0-23.271,1.912-39.848-6.376c0,0,4.144,14.345,8.926,17.692
			c0,0-32.834,3.029-55.786-6.854c0,0-27.558-15.813-36.89-14.601l-1.364-2.613c0,0,34.566,9.415,40.167,14.663
			c0,0,43.127,8.398,46.223,5.738c0,0-4.463-13.707-6.057-21.995c0,0,20.721,13.069,25.82,8.288c0,0-20.084-14.983-16.896-42.398
			c0,0,15.621-30.603,4.464-79.376c0,0,9.245,34.429,17.214,33.472c0,0-16.259-49.729-23.59-55.467c0,0-42.437-59.167-88.62-48.93
			c0,0,19.127-3.986,26.14-3.35C456.075,546.99,419.735,533.467,375.584,568.759z"/>
		<ellipse fill="#893822" cx="282.166" cy="427.386" rx="13.856" ry="8.368"/>
		<g>
			<path fill="#893822" d="M153.839,305.809c8.755-10.431,29.871-10.634,29.871-10.634c8.736,0.562,13.107-3.37,13.107-3.37
				c15.742-16.204,5.357-27.359,5.354-27.363c0.104,1.142,0.16,1.422-0.177,2.967c0.422,0.778,1.072,2.226,1.222,3.141
				c0.537,3.287,0.125,5.703-1.251,8.676c-0.343,0.744-0.799,1.408-1.247,2.089c-2.322,3.524-5.319,7.125-9.655,8.042
				c-3.39,1.613-7.626,1.023-11.239,1.651c-4.111,0.716-8.405,2.417-12.229,4.046c-4.685,1.996-9.354,4.31-13.656,7.038
				c-12.025,3.846-9.907-18.202-9.907-18.202C132.503,310.163,153.839,305.809,153.839,305.809z"/>
			<path fill="#893822" d="M198.067,264.02c1.546,0.775,2.897,1.9,3.845,3.307c1.105,1.118,1.691,1.887,1.691,1.887l-1.433-4.771
				c-30.106-28.582-58.138,19.448-58.138,19.448l-0.142,4.089C168.694,250.325,188.799,257.251,198.067,264.02z"/>
		</g>
		<g>
			<path fill="#893822" d="M414.319,288.432c0,0,2.118,22.048-9.907,18.202c-4.302-2.729-8.971-5.042-13.655-7.038
				c-3.825-1.63-8.119-3.331-12.23-4.047c-3.611-0.628-7.849-0.038-11.237-1.651c-4.337-0.917-7.333-4.519-9.655-8.042
				c-0.448-0.682-0.903-1.346-1.247-2.089c-1.375-2.973-1.788-5.389-1.252-8.676c0.149-0.915,0.8-2.363,1.222-3.141
				c-0.336-1.545-0.28-1.825-0.176-2.967c-0.004,0.004-10.388,11.159,5.354,27.363c0,0,4.371,3.931,13.106,3.37
				c0,0,21.116,0.203,29.871,10.633C404.512,310.349,425.848,314.703,414.319,288.432z"/>
			<path fill="#893822" d="M414.461,292.519l-0.142-4.089c0,0-28.032-48.03-58.139-19.448l-1.433,4.771c0,0,0.586-0.769,1.69-1.886
				c0.949-1.408,2.3-2.532,3.846-3.307C369.552,261.792,389.656,254.865,414.461,292.519z"/>
		</g>
		<path fill="#893822" d="M183.871,399.853c7.488,1.579,11.829,11.063,10.875,15.587c-0.953,4.522-5.592-3.55-13.081-5.128
			c-7.489-1.579-14.991,3.934-14.038-0.588C168.582,405.199,176.381,398.273,183.871,399.853z"/>
		<path fill="#893822" d="M377.596,400.769c7.531-1.36,15.126,5.79,15.948,10.339c0.821,4.548-6.518-1.181-14.049,0.179
			c-7.532,1.36-12.403,9.293-13.226,4.746C365.449,411.482,370.064,402.128,377.596,400.769z"/>
		<path fill="#893822" d="M91.133,501.657c0,0-61.278,9.695-31.895-61.001c0,0-22.262-62.544,33.813-60.966l0.035-1.602
			c0,0-57.565-8.443-35.966,64.118c0,0-34.125,63.122,33.33,63.02c0,0,14.903,50.659,62.22,16.242l-4.389-1.502
			C134.369,531.257,107.953,544.504,91.133,501.657z"/>
		<path fill="#893822" d="M466.545,370.682c55.997-3.353,35.726,59.865,35.726,59.865c31.606,69.73-29.949,61.979-29.949,61.979
			c-21.77,61.074-66.101,11.507-66.101,11.507l-4.747,2.655c56.554,47.413,71.644-10.616,71.644-10.616
			c67.426-2.032,31.32-64.043,31.32-64.043c19.292-73.208-37.979-62.947-37.979-62.947L466.545,370.682z"/>
	</g>
</g>
<g id="圖層_5">
	<g>
		<circle fill-rule="evenodd" clip-rule="evenodd" fill="#E61C16" cx="551.23" cy="422.027" r="9.306"/>
		<circle fill-rule="evenodd" clip-rule="evenodd" fill="#E61C16" cx="509.697" cy="364.389" r="6.694"/>
		<circle fill-rule="evenodd" clip-rule="evenodd" fill="#E61C16" cx="532.312" cy="450.963" r="4.007"/>
		<circle fill-rule="evenodd" clip-rule="evenodd" fill="#E61C16" cx="78.129" cy="503.005" r="13.381"/>
		<circle fill-rule="evenodd" clip-rule="evenodd" fill="#E61C16" cx="80.334" cy="392.979" r="5.36"/>
		<circle fill-rule="evenodd" clip-rule="evenodd" fill="#1F4C9F" cx="37.97" cy="391.218" r="5.074"/>
		<circle fill-rule="evenodd" clip-rule="evenodd" fill="#1F4C9F" cx="43.442" cy="446.956" r="12.041"/>
		<circle fill-rule="evenodd" clip-rule="evenodd" fill="#1F4C9F" cx="476.949" cy="423.218" r="5.094"/>
		<circle fill-rule="evenodd" clip-rule="evenodd" fill="#1F4C9F" cx="482.042" cy="364.389" r="11.497"/>
		<circle fill-rule="evenodd" clip-rule="evenodd" fill="#EFEA3A" cx="548.083" cy="383.834" r="3.148"/>
		<circle fill-rule="evenodd" clip-rule="evenodd" fill="#EFEA3A" cx="50.469" cy="480.4" r="7.027"/>
		<circle fill-rule="evenodd" clip-rule="evenodd" fill="#EFEA3A" cx="32.179" cy="473.373" r="3.586"/>
		<circle fill-rule="evenodd" clip-rule="evenodd" fill="#EFEA3A" cx="70.99" cy="419.018" r="11.365"/>
		<circle fill-rule="evenodd" clip-rule="evenodd" fill="#E61C16" cx="513.097" cy="408.211" r="8.297"/>
		<circle fill-rule="evenodd" clip-rule="evenodd" fill="#EFEA3A" cx="463.799" cy="402.569" r="4.23"/>
		<circle fill-rule="evenodd" clip-rule="evenodd" fill="#EFEA3A" cx="539.276" cy="367" r="13.864"/>
		<circle fill-rule="evenodd" clip-rule="evenodd" fill="#E61C16" cx="28.593" cy="418.124" r="8.927"/>
		<circle fill-rule="evenodd" clip-rule="evenodd" fill="#E61C16" cx="68.081" cy="258.892" r="17.613"/>
		<circle fill-rule="evenodd" clip-rule="evenodd" fill="#E61C16" cx="59.275" cy="154.452" r="8.806"/>
		<circle fill-rule="evenodd" clip-rule="evenodd" fill="#E61C16" cx="247.071" cy="111.416" r="21.238"/>
		<circle fill-rule="evenodd" clip-rule="evenodd" fill="#E61C16" cx="352.544" cy="116.907" r="5.491"/>
		<circle fill-rule="evenodd" clip-rule="evenodd" fill="#E61C16" cx="501.148" cy="109.305" r="19.126"/>
		<circle fill-rule="evenodd" clip-rule="evenodd" fill="#E61C16" cx="492.923" cy="270.327" r="5.884"/>
		<circle fill-rule="evenodd" clip-rule="evenodd" fill="#E61C16" cx="557.407" cy="233.14" r="12.472"/>
		<circle fill-rule="evenodd" clip-rule="evenodd" fill="#1F4C9F" cx="61.731" cy="349.2" r="13.243"/>
		<circle fill-rule="evenodd" clip-rule="evenodd" fill="#1F4C9F" cx="37.222" cy="204.411" r="5.821"/>
		<circle fill-rule="evenodd" clip-rule="evenodd" fill="#1F4C9F" cx="121.823" cy="117.421" r="14.811"/>
		<circle fill-rule="evenodd" clip-rule="evenodd" fill="#1F4C9F" cx="177.138" cy="89.206" r="2.853"/>
		<circle fill-rule="evenodd" clip-rule="evenodd" fill="#1F4C9F" cx="315.015" cy="144.186" r="11.955"/>
		<circle fill-rule="evenodd" clip-rule="evenodd" fill="#1F4C9F" cx="422.597" cy="117.44" r="8.136"/>
		<circle fill-rule="evenodd" clip-rule="evenodd" fill="#1F4C9F" cx="539.87" cy="168.012" r="3.55"/>
		<circle fill-rule="evenodd" clip-rule="evenodd" fill="#EFEA3A" cx="50.469" cy="304.771" r="7.027"/>
		<circle fill-rule="evenodd" clip-rule="evenodd" fill="#EFEA3A" cx="89.144" cy="199.635" r="11.015"/>
		<circle fill-rule="evenodd" clip-rule="evenodd" fill="#EFEA3A" cx="61.122" cy="106.238" r="3.627"/>
		<circle fill-rule="evenodd" clip-rule="evenodd" fill="#EFEA3A" cx="202.232" cy="144.598" r="7.356"/>
		<circle fill-rule="evenodd" clip-rule="evenodd" fill="#EFEA3A" cx="316.647" cy="108.827" r="2.589"/>
		<circle fill-rule="evenodd" clip-rule="evenodd" fill="#EFEA3A" cx="397.267" cy="106.4" r="17.194"/>
		<circle fill-rule="evenodd" clip-rule="evenodd" fill="#EFEA3A" cx="504.19" cy="162.214" r="5.797"/>
		<circle fill-rule="evenodd" clip-rule="evenodd" fill="#EFEA3A" cx="517.878" cy="222.81" r="4.782"/>
		<circle fill-rule="evenodd" clip-rule="evenodd" fill="#EFEA3A" cx="461.739" cy="296.565" r="3.956"/>
		<circle fill-rule="evenodd" clip-rule="evenodd" fill="#EFEA3A" cx="565.949" cy="320.797" r="14.718"/>
		<circle fill-rule="evenodd" clip-rule="evenodd" fill="#1F4C9F" cx="510.526" cy="312.655" r="12.134"/>
	</g>
</g>
</svg>
