<?xml version="1.0" encoding="utf-8"?>
<!-- Generator: Adobe Illustrator 16.0.0, SVG Export Plug-In . SVG Version: 6.00 Build 0)  -->
<!DOCTYPE svg PUBLIC "-//W3C//DTD SVG 1.1//EN" "http://www.w3.org/Graphics/SVG/1.1/DTD/svg11.dtd">
<svg version="1.1" id="圖層_1" xmlns="http://www.w3.org/2000/svg" xmlns:xlink="http://www.w3.org/1999/xlink" x="0px" y="0px"
	 width="198.43px" height="198.43px" viewBox="0 0 198.43 198.43" enable-background="new 0 0 198.43 198.43" xml:space="preserve">
<g opacity="0.25">
	<path fill-rule="evenodd" clip-rule="evenodd" fill="#E94A48" d="M121.233,81.099c0.384-0.978,0.736-1.968,1.16-2.927
		c0.866-1.962,1.892-3.862,2.62-5.871c0.564-1.554-0.048-2.755-1.706-3.403c-1.712-0.67-2.877-0.021-3.514,1.464
		c-1.128,2.632-1.957,5.395-3.157,7.989c-0.534,1.152-1.667,2.027-2.528,3.028c-0.058-1.303-0.335-2.642-0.12-3.897
		c0.294-1.709,1.052-3.334,1.443-5.034c0.373-1.62-0.294-3.126-1.941-3.213c-0.797-0.04-2.22,1.298-2.414,2.211
		c-0.728,3.418-0.996,6.93-1.581,10.382c-0.249,1.468-0.631,3.009-1.381,4.259c-0.469,0.78-1.764,1.496-2.643,1.446
		c-0.594-0.034-1.565-1.446-1.577-2.252c-0.036-2.848,0.116-5.719,0.472-8.547c1.21-9.643,2.335-19.303,3.89-28.893
		c1.086-6.698,3.033-13.234,6.729-19.052c3.096-4.871,7.272-8.306,13.302-8.629c1.313-0.069,2.909,0.317,3.953,1.074
		c2.656,1.923,5.315,2.179,8.041,0.574c3.327-1.959,6.868-2.439,10.602-2.07c2.636,0.26,4.809,1.388,5.859,3.91
		c1.373,3.297,3.95,5.084,7.116,6.303c1.411,0.542,2.811,1.138,4.161,1.815c3.802,1.903,5.794,5.108,5.603,9.268
		c-0.192,4.155,1.267,7.313,4.037,10.306c7.608,8.221,6.749,17.146-2.14,23.828c-2.036,1.532-4.11,3.105-6.386,4.208
		c-8.247,3.994-16.519,7.95-24.916,11.613c-5.216,2.275-10.615,4.177-16.049,5.881c-2.116,0.664-4.647,0.77-6.803,0.291
		c-1.531-0.341-3.367-1.854-3.905-3.281c-0.41-1.086,0.626-3.285,1.691-4.238c2.113-1.89,4.742-3.19,7.061-4.868
		c2.116-1.531,4.209-3.129,6.104-4.92c0.999-0.943,2.006-2.441,0.646-3.791c-1.324-1.314-3.082-1.407-4.59-0.227
		c-1.439,1.127-2.685,2.495-4.054,3.715c-0.79,0.703-1.656,1.321-2.488,1.979C121.632,81.386,121.433,81.242,121.233,81.099z"/>
	<path fill-rule="evenodd" clip-rule="evenodd" fill="#E94A48" d="M103.667,124.844c0.518,0.802,1.226,1.539,1.521,2.414
		c2.44,7.244,4.638,14.573,7.255,21.749c1.469,4.024,3.868,7.709,5.332,11.734c1.18,3.241,2.042,6.741,2.231,10.171
		c0.315,5.731-3.14,9.235-8.933,9.688c-2.293,0.18-4.611,0.029-6.878,0.029c-1.988,5.305-4.454,10.138-9.602,12.938
		c-3.502,1.905-7.159,2.012-10.843,0.572c-1.557-0.608-3.131-1.243-4.555-2.103c-3.764-2.274-7.676-2.869-12.114-2.592
		c-5.247,0.328-9.72-2.373-13.163-6.225c-1.069-1.194-1.529-3.427-1.394-5.112c0.392-4.84-1.471-8.143-5.753-10.228
		c-0.354-0.172-0.664-0.439-0.991-0.667c-5.427-3.777-7.107-7.854-4.76-14.016c1.566-4.111,3.824-8.073,6.381-11.669
		c5.403-7.594,11.943-14.161,19.988-18.993c2.695-1.619,5.705-2.807,8.705-3.78c1.395-0.451,3.434-0.438,4.593,0.293
		c1.444,0.912,2.613,2.646,3.289,4.277c0.729,1.762-0.846,2.89-2.186,3.809c-1.183,0.81-2.492,1.448-3.606,2.338
		c-2.395,1.914-2.685,5.464-0.708,7.41c1.941,1.911,5.663,1.666,7.396-0.723c1.105-1.523,1.804-3.348,2.645-5.058
		c0.575-1.172,1.371-2.253,2.696-1.469c0.439,0.261,0.335,1.81,0.133,2.689c-0.245,1.067-1.176,2.035-1.221,3.071
		c-0.048,1.105,0.284,2.807,1.016,3.204c0.752,0.406,2.528-0.112,3.243-0.834c1.076-1.084,1.61-2.703,2.395-4.083
		c0.468-0.824,0.974-1.626,1.463-2.437C99.384,129.11,101.525,126.978,103.667,124.844z"/>
	<path fill-rule="evenodd" clip-rule="evenodd" fill="#E94A48" d="M62.441,96.179c-1.691-0.128-3.383-0.313-5.077-0.37
		c-1.49-0.049-3.56-0.342-3.689,1.614c-0.101,1.507,0.704,3.39,1.728,4.562c0.896,1.026,2.688,1.239,4.027,1.926
		c0.774,0.397,1.434,1.02,2.145,1.541c-0.793,0.523-1.523,1.242-2.396,1.526c-1.351,0.44-2.817,0.512-4.2,0.871
		c-2.271,0.592-3.061,1.978-2.427,4.101c0.63,2.1,2.178,2.546,3.948,1.758c2.534-1.129,4.99-2.454,7.409-3.818
		c2.775-1.566,5.411-3.39,8.241-4.843c0.888-0.455,2.205-0.076,3.325-0.079c-0.066,1.188,0.27,2.628-0.283,3.508
		c-1.175,1.866-2.659,3.605-4.285,5.104c-7.971,7.348-15.975,14.662-24.081,21.859c-4.658,4.136-9.925,7.236-16.285,7.968
		c-4.543,0.523-8.263-1.67-9.917-5.903c-0.515-1.318-1.287-1.701-2.582-1.36c-4.118,1.082-8.838-2.298-9.044-6.569
		c-0.063-1.331,0.069-2.729,0.42-4.014c0.999-3.671,0.139-6.766-2.011-9.885C1.836,107.583,0.8,98.67,3.867,89.441
		c1.89-5.688,5.73-9.96,11.479-12.101c5.074-1.889,10.131-4.031,15.389-5.18c13.298-2.905,25.231,0.874,36.064,8.632
		c1.861,1.334,3.587,2.966,5.031,4.739c1.223,1.503,2.268,3.323,2.771,5.172c0.313,1.143-0.232,2.847-1.006,3.804
		c-0.341,0.421-2.402-0.093-3.339-0.706c-1.924-1.26-3.569-2.935-5.418-4.32c-1.392-1.041-2.823-2.234-4.428-2.706
		c-0.954-0.28-2.542,0.427-3.374,1.198c-1.093,1.014-0.6,2.394,0.484,3.337c1.02,0.888,2.147,1.65,3.22,2.478
		c0.664,0.512,1.314,1.043,1.971,1.565C62.621,95.629,62.531,95.904,62.441,96.179z"/>
	<path fill-rule="evenodd" clip-rule="evenodd" fill="#E94A48" d="M127.658,100.885c0.739-0.183,1.504-0.594,2.215-0.514
		c5.708,0.645,11.098-0.537,16.308-2.735c6.834-2.884,13.669-5.728,21.193-6.286c9.135-0.678,17.527,0.768,23.814,8.253
		c3.352,3.99,5.543,8.479,4.525,13.809c-0.368,1.932-1.463,3.862-2.664,5.467c-1.878,2.512-2.14,4.887-0.985,7.793
		c2.725,6.859-1.516,14.274-8.746,15.616c-5.064,0.94-6.074,1.928-6.704,7.396c-0.489,4.25-1.906,8.04-4.677,11.297
		c-2.397,2.819-5.391,4.508-9.174,4.272c-1.025-0.064-2.015-0.71-3.021-1.088c-1.151-1.099-2.327-2.172-3.45-3.297
		c-11.865-11.895-23.723-23.797-35.583-35.695c-0.313-1.346-1.241-3.604-0.834-3.878c1.763-1.188,2.294,0.943,3.097,1.897
		c1.327,1.576,2.38,3.382,3.591,5.061c0.462,0.641,0.935,1.465,1.594,1.729c1.002,0.403,2.335,0.78,3.208,0.412
		c0.532-0.225,0.844-1.985,0.58-2.853c-0.453-1.489-1.414-2.828-2.195-4.213c-0.655-1.161-1.358-2.296-1.706-3.924
		c0.626,0.288,1.296,0.509,1.871,0.878c1.474,0.944,2.812,2.166,4.388,2.86c0.891,0.392,2.144-0.038,3.233-0.099
		c-0.221-0.928-0.202-2.025-0.714-2.746c-1.005-1.42-2.424-2.544-3.438-3.959c-0.587-0.819-0.716-1.967-1.051-2.967
		c0.956-0.213,1.902-0.511,2.87-0.62c1.648-0.188,3.357-0.063,4.948-0.449c0.929-0.226,2.439-1.332,2.354-1.794
		c-0.199-1.07-0.996-2.482-1.928-2.886c-4.001-1.738-8.051-3.501-12.598-3.188c-0.79,0.055-1.603,0.045-2.376-0.094
		c-0.207-0.038-0.309-0.662-0.461-1.014C125.979,102.517,126.818,101.701,127.658,100.885z"/>
	<path fill-rule="evenodd" clip-rule="evenodd" fill="#E94A48" d="M47.854,30.787c0-1.117-0.063-2.237,0.012-3.349
		c0.249-3.77,1.729-6.838,5.412-8.3c4.701-1.865,8.069-5.055,10.865-9.255c3.206-4.82,9.313-6.59,14.863-4.918
		c1.446,0.436,2.851,1.195,4.32,1.333c1.745,0.162,3.689,0.217,5.286-0.381c8.767-3.281,21.048,3.632,22.067,12.864
		c0.314,2.835-0.283,5.894-1.042,8.691c-0.891,3.285-2.038,6.614-3.733,9.544c-4.914,8.49-6.646,17.625-6.548,27.279
		c0.019,1.802-0.333,3.667-0.874,5.39c-0.311,0.985-1.348,1.743-2.057,2.604c-0.778-0.906-2.054-1.719-2.242-2.733
		c-0.521-2.802-0.576-5.689-0.839-8.541c-0.247-2.687-0.394-5.393-0.834-8.048c-0.288-1.735-1.198-3.17-3.399-2.869
		c-2.53,0.348-4.264,1.905-4.183,4.092c0.053,1.408,0.482,2.808,0.798,4.199c0.246,1.083,0.721,2.132,0.835,3.223
		c0.195,1.856-0.724,2.495-2.483,1.83c-0.817-0.31-1.554-0.874-2.388-1.085c-0.764-0.192-2.22-0.283-2.308-0.038
		c-0.311,0.865-0.506,2.076-0.111,2.82c0.57,1.076,1.613,1.957,2.596,2.747c2.171,1.745,4.48,3.323,6.622,5.105
		c0.571,0.476,1.211,1.702,0.98,2.124c-0.385,0.703-1.472,1.467-2.221,1.427c-1.367-0.074-2.86-0.465-4.02-1.178
		c-1.955-1.204-3.817-2.63-5.498-4.198c-6.351-5.923-12.666-11.884-18.89-17.938c-4.972-4.836-9.139-10.247-10.664-17.226
		c-0.37-1.697-0.407-3.465-0.598-5.201C47.672,30.798,47.762,30.792,47.854,30.787z"/>
	<path fill-rule="evenodd" clip-rule="evenodd" fill="#E94A48" d="M120.71,125.173c11.86,11.898,23.718,23.801,35.583,35.695
		c1.123,1.125,2.299,2.198,3.45,3.297c-0.648-0.045-1.392,0.101-1.929-0.166c-2.352-1.168-4.622-2.497-6.96-3.691
		c-2.942-1.502-5.915-1.857-8.819,0.115c-6.381,4.334-10.903,1.923-14.776-2.737c-2.067-2.487-3.869-5.253-5.442-8.086
		c-4.399-7.928-8.639-15.945-12.893-23.953c-0.815-1.537-2.343-2.975-1.181-5.006c1.191-1.149,2.382-2.3,3.573-3.449
		c1.905-0.067,3.558,1.463,4.283,4.113c0.605,2.211,0.992,4.486,1.684,6.667c0.465,1.465,0.558,3.986,2.718,3.447
		c2.058-0.514,0.734-2.661,0.654-4.135C120.618,126.583,120.688,125.877,120.71,125.173z"/>
	<path fill-rule="evenodd" clip-rule="evenodd" fill="#E94A48" d="M25.034,49.514c10.611,0.764,19.701,3.986,28.228,8.926
		c11.955,6.924,22.178,16.104,32.503,25.134c4.855,4.247,9.565,8.663,14.25,13.099c1.136,1.075,2.005,2.475,2.817,3.832
		c0.81,1.352,1.35,3.14-0.216,4.063c-1.078,0.638-3.196,0.879-4.077,0.237c-3.258-2.377-6.304-5.083-9.232-7.87
		c-6.981-6.643-13.67-13.604-20.811-20.068C58.13,67.48,45.738,61.771,32.391,57.92c-3.889-1.122-7.655-2.686-11.421-4.188
		c-0.766-0.307-1.275-1.254-1.904-1.906c0.74-0.522,1.412-1.257,2.234-1.522C22.724,49.842,24.24,49.67,25.034,49.514z"/>
	<path fill-rule="evenodd" clip-rule="evenodd" fill="#E94A48" d="M103.667,124.844c-2.142,2.134-4.283,4.267-6.424,6.401
		c-1.108-2.366-0.181-8.426,1.698-9.875c0.717-0.553,2.486-1.026,2.676-0.758C102.51,121.875,103.021,123.407,103.667,124.844z"/>
	<path fill-rule="evenodd" clip-rule="evenodd" fill="#E94A48" d="M22.842,59.495c0.002,1.967-1.291,3.337-3.199,3.385
		c-2.009,0.052-3.49-1.369-3.489-3.35c0-2.006,1.443-3.419,3.452-3.38C21.498,56.186,22.84,57.571,22.842,59.495z"/>
	<path fill-rule="evenodd" clip-rule="evenodd" fill="#E94A48" d="M21.207,40.451c-0.004,1.733-1.573,3.685-2.981,3.704
		c-1.859,0.026-4.009-2.058-3.725-3.862c0.252-1.592,1.193-2.732,3.054-2.692C19.811,37.649,21.209,38.723,21.207,40.451z"/>
	<path fill-rule="evenodd" clip-rule="evenodd" fill="#E94A48" d="M38.062,49.733c-0.723-0.969-2.019-1.952-1.997-2.904
		c0.02-0.854,1.439-2.256,2.336-2.335c0.789-0.069,2.312,1.288,2.411,2.144c0.109,0.937-1.041,2.021-1.643,3.04
		C38.8,49.696,38.432,49.716,38.062,49.733z"/>
	<path fill-rule="evenodd" clip-rule="evenodd" fill="#E94A48" d="M9.064,43.328c1.246,1.602,2.601,2.596,2.493,3.393
		c-0.13,0.968-1.394,2.283-2.355,2.47c-0.683,0.132-2.326-1.32-2.372-2.13C6.776,46.086,7.964,45.044,9.064,43.328z"/>
	<path fill-rule="evenodd" clip-rule="evenodd" fill="#E94A48" d="M11.6,54.763c-1.396,1.042-2.509,2.334-2.98,2.132
		c-1.155-0.495-2.014-1.68-2.99-2.588c0.887-0.756,1.826-2.167,2.646-2.102C9.281,52.285,10.188,53.602,11.6,54.763z"/>
	<path fill-rule="evenodd" clip-rule="evenodd" fill="#E94A48" d="M30.832,44.932c-1.448,0.93-2.405,2.012-3.078,1.857
		c-0.82-0.189-1.402-1.416-2.087-2.193c0.757-0.618,1.501-1.701,2.276-1.724C28.699,42.851,29.486,43.912,30.832,44.932z"/>
	<path fill-rule="evenodd" clip-rule="evenodd" fill="#E94A48" d="M28.563,59.509c0.923,1.334,1.953,2.191,1.818,2.783
		c-0.183,0.799-1.202,1.83-1.975,1.933c-0.577,0.076-1.856-1.148-1.864-1.806C26.532,61.646,27.56,60.861,28.563,59.509z"/>
	<path fill-rule="evenodd" clip-rule="evenodd" fill="#E94A48" d="M111.316,117.191c-1.191,1.149-2.382,2.3-3.573,3.449
		c0.149-1.067-0.023-2.376,0.541-3.134c0.556-0.745,1.859-0.933,2.835-1.364C111.186,116.492,111.251,116.842,111.316,117.191z"/>
	<path fill-rule="evenodd" clip-rule="evenodd" fill="#E94A48" d="M127.658,100.885c-0.84,0.816-1.679,1.632-2.515,2.444
		c-1.318,0.896-1.789,0.27-1.575-1.017C123.805,100.896,126.209,100.116,127.658,100.885z"/>
	<path fill-rule="evenodd" clip-rule="evenodd" fill="#E94A48" d="M21.034,44.275c0.626,1.044,1.26,1.64,1.241,2.215
		c-0.016,0.461-0.965,1.342-1.247,1.251c-0.6-0.193-1.37-0.856-1.438-1.404C19.53,45.843,20.313,45.244,21.034,44.275z"/>
	<path fill-rule="evenodd" clip-rule="evenodd" fill="#E94A48" d="M33.03,40.253c0.68,1.022,1.433,1.659,1.369,2.2
		c-0.06,0.51-0.94,1.19-1.534,1.274c-0.374,0.053-1.26-0.872-1.238-1.325C31.654,41.802,32.346,41.234,33.03,40.253z"/>
	<path fill-rule="evenodd" clip-rule="evenodd" fill="#E94A48" d="M13.853,60.457c-1.032,0.613-1.646,1.259-2.227,1.232
		c-0.444-0.021-1.255-0.981-1.173-1.368c0.123-0.581,0.865-1.396,1.383-1.424C12.353,58.87,12.915,59.687,13.853,60.457z"/>
	<path fill-rule="evenodd" clip-rule="evenodd" fill="#E94A48" d="M36.278,64.184c-0.993,0.661-1.629,1.414-2.15,1.342
		c-0.554-0.077-0.998-0.937-1.49-1.455c0.531-0.471,1.036-1.272,1.603-1.318C34.758,62.71,35.343,63.484,36.278,64.184z"/>
	<path fill-rule="evenodd" clip-rule="evenodd" fill="#E94A48" d="M15.902,48.66c0.779,1,1.557,1.563,1.519,2.068
		c-0.037,0.528-0.785,1.233-1.36,1.407c-0.317,0.096-1.265-0.716-1.3-1.167C14.716,50.396,15.31,49.775,15.902,48.66z"/>
	<path fill-rule="evenodd" clip-rule="evenodd" fill="#E94A48" d="M10.922,39.427c0.556,0.913,1.105,1.438,1.127,1.983
		c0.016,0.387-0.684,0.802-1.064,1.203c-0.496-0.525-1.111-0.991-1.414-1.609C9.477,40.813,10.234,40.204,10.922,39.427z"/>
</g>
<g>
</g>
<g>
</g>
<g>
</g>
<g>
</g>
<g>
</g>
<g>
</g>
</svg>
