<?xml version="1.0" encoding="utf-8"?>
<!-- Generator: Adobe Illustrator 16.0.0, SVG Export Plug-In . SVG Version: 6.00 Build 0)  -->
<!DOCTYPE svg PUBLIC "-//W3C//DTD SVG 1.1//EN" "http://www.w3.org/Graphics/SVG/1.1/DTD/svg11.dtd">
<svg version="1.1" id="圖層_1" xmlns="http://www.w3.org/2000/svg" xmlns:xlink="http://www.w3.org/1999/xlink" x="0px" y="0px"
	 width="595.279px" height="595.279px" viewBox="0 0 595.279 595.279" enable-background="new 0 0 595.279 595.279"
	 xml:space="preserve">
<circle fill="#E98A1F" cx="530.561" cy="385.063" r="49.719"/>
<path fill="#E98A1F" d="M476.411,314.182c0,22.189,17.988,40.18,40.18,40.18c22.193,0,40.178-17.99,40.178-40.18
	c0-22.192-17.984-40.182-40.178-40.182C494.399,274.001,476.411,291.99,476.411,314.182z"/>
<path fill="#E98A1F" d="M438.645,438.448c0,23.002,18.652,41.649,41.648,41.649c23.002,0,41.652-18.647,41.652-41.649
	c0-23.003-18.65-41.654-41.652-41.654C457.298,396.794,438.645,415.445,438.645,438.448z"/>
<circle fill="#E98A1F" cx="61.238" cy="384.737" r="49.718"/>
<path fill="#E98A1F" d="M115.389,313.857c0,22.189-17.989,40.173-40.181,40.173c-22.189,0-40.176-17.983-40.176-40.173
	c0-22.193,17.987-40.183,40.176-40.183C97.4,273.675,115.389,291.664,115.389,313.857z"/>
<path fill="#E98A1F" d="M153.155,438.123c0,23.002-18.646,41.647-41.648,41.647c-23.004,0-41.652-18.646-41.652-41.647
	c0-23.005,18.648-41.656,41.652-41.656C134.508,396.467,153.155,415.118,153.155,438.123z"/>
<path fill="#EFD45C" d="M520.194,257.895c0,118.92-101.215,215.318-226.077,215.318c-124.859,0-226.077-96.398-226.077-215.318
	c0-118.91,101.218-215.309,226.077-215.309C418.979,42.587,520.194,138.985,520.194,257.895z"/>
<path fill="#EFD45C" d="M286.266,384.733c0,39.151-47.247,70.882-105.528,70.882c-58.282,0-105.53-31.73-105.53-70.882
	c0-39.146,47.249-70.876,105.53-70.876C239.019,313.857,286.266,345.588,286.266,384.733z"/>
<path fill="#EFD45C" d="M512.796,384.733c0,39.151-46.49,70.882-103.844,70.882c-57.35,0-103.846-31.73-103.846-70.882
	c0-39.146,46.496-70.876,103.846-70.876C466.305,313.857,512.796,345.588,512.796,384.733z"/>
<g>
	<path fill="#E98A1F" d="M418.555,58.847c0.008-0.01,47.873-43.722,82.363,11.831c0,0,40.076,65.099-7.941,53.794
		c-16.076-4.842-32.209-9.685-48.729-12.779c-8.131-1.526-16.373-2.66-24.646-3.028c-9.801-0.439-24.543,5.641-29.391-6.038
		c-3.604-8.692-1.865-16.119,4.172-23.209C401.36,71.222,410.716,66.007,418.555,58.847z"/>
</g>
<g>
	<path fill="#E98A1F" d="M71.928,74.845c0.004-0.009,36.191-53.791,82.823-7.955c0,0,54.317,53.793,4.988,54.147
		c-16.761-0.907-33.584-1.804-50.369-0.911c-8.26,0.439-16.539,1.28-24.663,2.877c-9.627,1.89-22.515,11.277-29.981,1.073
		c-5.555-7.592-5.622-15.217-1.432-23.536C58.142,90.931,65.998,83.656,71.928,74.845z"/>
</g>
<ellipse fill="#262727" cx="302.149" cy="371.945" rx="10.809" ry="5.886"/>
<path fill="#E98A1F" d="M226.487,262.922c0.742,9.369-16,18.33-37.392,20.021c-21.396,1.695-39.338-4.525-40.079-13.894
	c-0.742-9.363,16.001-18.33,37.396-20.021C207.802,247.337,225.744,253.559,226.487,262.922z"/>
<path fill="#E98A1F" d="M439.311,266.092c-0.377,9.387-18.064,16.303-39.51,15.444c-21.443-0.865-38.52-9.171-38.146-18.558
	c0.377-9.387,18.064-16.302,39.508-15.442C422.612,248.395,439.684,256.705,439.311,266.092z"/>
<path fill="#262727" d="M217.539,331.109c0,5.121-9.004-3.827-20.11-3.827c-11.109,0-20.114,8.948-20.114,3.827
	s9.004-16.931,20.114-16.931C208.535,314.178,217.539,325.988,217.539,331.109z"/>
<path fill="#262727" d="M420.594,331.109c0,5.121-9.008-3.827-20.113-3.827s-20.109,8.948-20.109,3.827s9.004-16.931,20.109-16.931
	S420.594,325.988,420.594,331.109z"/>
<path fill-rule="evenodd" clip-rule="evenodd" fill="#AAAAAA" d="M363.737,365.869c1.184-2.371,2.367-4.742,3.553-7.114
	c0.242-0.18,0.563-0.312,0.709-0.553c4.232-6.869,10.02-12.049,17.133-15.774c12.119-6.351,24.758-7.303,37.494-2.518
	c11.65,4.38,20.504,12.175,25.846,23.674c0.633,1.369,0.594,3.622,2.09,3.925c1.457,0.293,2.426-1.695,3.551-2.709
	c3.209-2.894,7.066-4.755,10.643-7.065v-0.014c0.961-0.288,1.947-0.506,2.885-0.877c6.846-2.724,13.914-3.506,21.234-2.698
	c3.615,0.4,6.967,2.009,10.639,2.025c3.355,1.678,6.707,3.349,10.064,5.026c-0.174,0.354-1.826-0.027-0.561,1.019
	c1.016,0.829,2.146,1.527,3.246,2.248c5.182,3.418,8.809,8.27,11.861,13.493c2.314,3.947,3.693,8.344,4.771,12.832
	c1.729,7.214,1.008,14.304-0.662,21.382c-0.492,2.094-1.102,4.161-1.662,6.237c-1.045,2.095-2.092,4.193-3.139,6.288
	c-1.748,2.067-3.416,4.203-5.244,6.196c-9.986,10.83-22.449,15.695-37.072,14.984c-4.939-0.238-4.816-0.479-3.869,4.354
	c3.35,17.038-1.352,31.692-13.92,43.509c-9.582,9.013-21.27,12.904-34.477,12.082c-9.059-0.563-17.186-3.657-24.32-9.128
	c-12.773-9.803-18.797-22.897-18.281-38.969c0.127-3.994,0.244-3.99-3.506-2.735c-17.77,5.94-35.555,11.848-53.299,17.843
	c-3.002,1.013-6.201,1.559-8.914,3.353l0.006,0.032c-0.209,0.062-0.42,0.128-0.629,0.185l-0.037-0.027
	c-0.822-0.266-1.525,0.174-2.248,0.412c-15.208,5.055-30.41,10.125-45.614,15.2c-0.651,0.218-1.382,0.34-1.768,1.028
	c0,0,0.003-0.006,0.004-0.006c-3.402,0.421-6.548,1.733-9.706,2.92c-5.5,2.069-5.477,2.146-3.023,7.511
	c0.032,0.068,0.107,0.114,0.163,0.168l-0.002-0.005c0.855,3.441,1.871,6.836,3.352,10.069v-0.009
	c0.829,3.452,1.907,6.819,3.37,10.061v-0.005c0.829,3.452,1.859,6.835,3.368,10.06l0,0c0.715,4.229,1.302,8.316-0.907,12.477
	c-3.057,5.768-7.727,8.765-14.055,8.678c-6.598-0.085-11.234-3.529-13.859-9.663c-1.354-3.151-2.387-6.411-3.478-9.645
	c-2.875-8.572-5.707-17.153-8.57-25.721c-0.309-0.928-0.445-2.199-1.871-1.923c-1.329,0.254-2.821,0.215-3.819,1.413h0.009
	c-0.542-0.213-0.958-0.057-1.265,0.426c0,0,0.008,0,0.009,0c-3.507,0.661-6.924,1.594-10.068,3.342h0.002
	c-3.458,0.8-6.933,1.566-10.062,3.35h0.001c-3.229,1.018-6.425,2.154-9.695,3.01c-2.156,0.56-2.378,1.489-1.698,3.482
	c3.92,11.501,7.811,23.015,11.516,34.586c3.31,10.322-4.987,20.784-15.809,20.145c-0.77-0.043-1.535-0.297-2.285,0.082
	c-2.096-1.047-4.192-2.093-6.289-3.139c-2.946-3.374-5.064-7.139-6.465-11.458c-5.289-16.327-10.78-32.586-16.225-48.862
	c-1.366-4.08-2.324-8.194-1.837-12.543c0.069-0.609,0.187-1.285-0.65-1.533c0.138-0.278,0.278-0.56,0.417-0.836
	c0.672-0.014,0.692-0.352,0.419-0.841c0.837-1.672,1.676-3.352,2.512-5.029c2.323-2.127,4.408-4.65,7.261-6.005
	c7.693-3.665,15.969-5.805,24.007-8.515c7.14-2.407,14.345-4.698,21.526-7.003c7.074-2.277,14.104-4.753,21.15-7.159
	c10.997-3.753,22.033-7.389,33.053-11.059c19.531-6.518,39.036-13.111,58.61-19.509c16.967-5.543,33.762-11.577,50.578-17.555
	c3.824-1.361,3.746-1.196,1.191-4.318c-8.727-10.664-11.938-22.855-9.963-36.485C361.659,372.493,362.884,369.238,363.737,365.869z
	 M447.505,467.688c5.055-8.298,0.377-19.264-6.596-23.05c-9.377-5.086-19.861-1.159-24.1,6.936
	c-4.686,8.953-1.283,18.92,7.539,23.738C432.028,479.504,444.059,476.479,447.505,467.688z M398.44,398.385
	c9.652,5.372,19.654,0.864,23.777-7.372c4.561-9.112,1.049-18.662-7.34-23.142c-9.373-5.018-19.557-1.065-23.813,7.561
	C386.589,384.503,390.204,394.052,398.44,398.385z M476.569,415.828c10.244,4.825,19.543-0.336,24.342-9.063
	c3.551-6.472-0.957-19.31-7.289-22.285c-11.24-5.28-20.805-1.651-25.535,7.785C464.057,400.302,467.118,411.836,476.569,415.828z"/>
<ellipse fill="#EFD45C" cx="212.844" cy="467.154" rx="25.095" ry="21.77"/>
<path fill="#EFD45C" d="M405.468,467.152c0,12.023-11.232,21.768-25.096,21.768c-13.855,0-25.094-9.744-25.094-21.768
	c0-12.022,11.238-21.769,25.094-21.769C394.235,445.384,405.468,455.13,405.468,467.152z"/>
</svg>
