<?xml version="1.0" encoding="utf-8"?>
<!-- Generator: Adobe Illustrator 16.0.0, SVG Export Plug-In . SVG Version: 6.00 Build 0)  -->
<!DOCTYPE svg PUBLIC "-//W3C//DTD SVG 1.1//EN" "http://www.w3.org/Graphics/SVG/1.1/DTD/svg11.dtd">
<svg version="1.1" id="圖層_2" xmlns="http://www.w3.org/2000/svg" xmlns:xlink="http://www.w3.org/1999/xlink" x="0px" y="0px"
	 width="595.28px" height="841.89px" viewBox="0 0 595.28 841.89" enable-background="new 0 0 595.28 841.89" xml:space="preserve">
<path fill="#FFFFFF" d="M389.053,310.138c0,52.598-42.645,95.221-95.238,95.221c-52.593,0-95.229-42.623-95.229-95.221
	c0-52.589,42.635-95.229,95.229-95.229C346.408,214.909,389.053,257.549,389.053,310.138z"/>
<path fill="#FFFFFF" d="M480.657,126.147c0,7.308-5.918,13.216-13.218,13.216c-7.307,0-13.215-5.909-13.215-13.216
	c0-7.289,5.908-13.216,13.215-13.216C474.739,112.932,480.657,118.858,480.657,126.147z"/>
<path fill="#FFFFFF" d="M519.445,161.581c0,12.264-9.945,22.218-22.203,22.218c-12.273,0-22.228-9.954-22.228-22.218
	c0-12.268,9.954-22.217,22.228-22.217C509.5,139.364,519.445,149.313,519.445,161.581z"/>
<path fill="#FFFFFF" d="M96.918,155.968c-0.833,2.3-4.929,5.232-6.456,7.114c-6.41,7.832-11.467,16.746-16.069,25.719
	c-37.588,73.348-37.481,151.624-14.491,229.458c3.801,12.854,8.397,25.467,13.566,37.817c1.72,4.124,19.649,37.754,18.099,39.492
	c0.005,0-2.426-37.947-5.479-87.695c-2.414-39.36-5.217-86.105-7.51-127.287C76.459,242.522,80.719,200.063,96.918,155.968z"/>
<path fill="#FFFFFF" d="M94.378,152.948c0,0-12.646-65.06-89.394-36.004C4.984,116.944,45.737,116.944,94.378,152.948z"/>
<path fill="#FFFFFF" d="M82.372,158.636c0,0-30.325-46.11-83.384,18.32C-1.012,176.956,57.108,151.687,82.372,158.636z"/>
<path fill="#FFFFFF" d="M78.58,164.315c0,0-36.64-5.679-44.858,27.169L78.58,164.315z"/>
<path fill="#FFFFFF" d="M103.854,152.948c0,0,37.615-66.229,103.452-26.801C207.306,126.147,150.594,134.629,103.854,152.948z"/>
<path fill="#FFFFFF" d="M103.854,159.805c0,0,65.667-34.021,94.732,24.104L103.854,159.805z"/>
<path fill="#FFFFFF" d="M103.854,166.91l6.304,43.523C110.158,210.434,139.807,176.265,103.854,166.91z"/>
<path fill="#FFFFFF" d="M94.005,101.546l6.313,43.533C100.319,145.08,129.955,110.897,94.005,101.546z"/>
<g>
	<path fill="#FFFFFF" d="M368.599,91.368c-9.134-2.521-18.289-5.007-27.404-7.603c-1.619-0.46-3.18-1.297-4.62-2.2
		c-1.463-0.92-1.38-2.282,0.068-3.24c0.76-0.496,1.616-0.846,2.454-1.251c3.764-1.831,7.672-2.112,11.716-1.03
		c21.021,5.632,42.056,11.224,63.086,16.833c0.409,0.111,0.832,0.212,1.262,0.239c2.59,0.185,4.872-0.736,7.03-2.057
		c4.092-2.513,8.137-5.085,12.245-7.574c0.673-0.41,1.603-0.819,2.318-0.69c1.935,0.332,3.826,0.953,5.827,1.491
		c-3.238,4.57-6.484,9.135-9.838,13.875c1.72-0.497,3.226-0.92,4.854-1.39c-0.262,0.801-0.479,1.413-0.668,2.025
		c-0.193,0.649-0.391,1.298-0.533,1.961c-0.069,0.299-0.088,0.667,0.023,0.948c0.367,0.985,0.18,1.56-0.86,1.794
		c-1.151,0.267-2.343,0.47-3.525,0.506c-10.98,0.304-21.767-1.196-32.426-3.682c-5.511-1.288-10.986-2.779-16.474-4.178
		c-0.184-0.047-0.399-0.056-0.63-0.083c-0.23,1.091-0.952,1.39-1.928,1.335c-1.735-0.101-3.508-0.023-5.209-0.332
		c-1.759-0.313-3.479-0.92-5.168-1.546c-0.971-0.359-1.142-1.017-0.871-2.039c0.14-0.557,0.291-1.119,0.479-1.79
		C369.348,91.561,368.972,91.469,368.599,91.368z M411.905,96.471c2.334-0.341,4.602-0.824,6.463-2.793
		c-0.397,0.033-0.601,0.074-0.821,0.065c-1.298-0.046-2.659,0.12-3.888-0.203c-20.98-5.541-41.941-11.154-62.919-16.736
		c-3.038-0.801-6.103-0.99-9.141,0.105c-0.147,0.055-0.303,0.157-0.561,0.286c0.427,0.202,0.754,0.358,1.076,0.515
		c-0.479,1.123-0.479,1.123-1.57,0.645c-0.427-0.18-0.961-0.562-1.282-0.433c-0.931,0.358-1.818,0.865-2.638,1.445
		c-0.548,0.387-0.34,1.008,0.114,1.339c1.456,1.035,2.836,2.021,4.889,1.827c2.291-0.216,4.661-0.064,6.962,0.253
		c8.259,1.127,16.193,3.667,24.184,5.904c2.149,0.607,4.316,1.316,6.312,2.282c2.991,1.445,6.251,2.007,9.315,3.148
		c0.055,0.019,0.088,0.074,0.325,0.281c-0.785,0.244-1.431,0.46-2.231,0.704c1.279,0.349,2.471,0.893,3.665,0.92
		c1.31,0.037,2.622-0.405,3.938-0.625c0.363-0.065,0.764-0.157,1.104-0.065c4.901,1.372,9.903,1.74,14.966,1.335
		c0.413-0.037,0.818-0.23,1.44-0.414C411.583,96.231,411.768,96.484,411.905,96.471z M421.941,103.009
		c0.273-1.026,0.549-2.024,0.834-3.128c-0.331-0.184-0.722-0.396-1.104-0.599c1.224,0.341,1.602-0.497,2.13-1.343
		c3.612-5.729,8.657-9.452,15.339-10.87c0.303-0.055,0.63-0.23,0.819-0.46c0.46-0.534,0.833-1.131,1.232-1.712
		c0.027-0.041,0.027-0.11,0.027-0.184c-1.518-0.415-3.036-0.897-4.583-1.179c-0.525-0.092-1.207,0.24-1.706,0.543
		c-3.954,2.402-7.903,4.791-11.769,7.317c-0.965,0.625-1.701,1.656-2.402,2.613c-1.849,2.513-2.719,5.458-3.607,8.596
		C418.858,102.752,420.372,102.881,421.941,103.009z M371.631,89.702c-0.765,0.23-1.832,3.948-1.325,5.025
		C370.77,92.951,371.207,91.331,371.631,89.702z M381.155,96.494c0.654-0.406,1.128-2.043,0.788-2.937
		C381.653,94.644,381.405,95.55,381.155,96.494z"/>
	<path fill="#FFFFFF" d="M410.167,96.669c-5.063,0.405-10.064,0.037-14.966-1.335c-0.34-0.092-0.74,0-1.104,0.065
		c-1.316,0.221-2.629,0.662-3.938,0.625c-1.194-0.028-2.386-0.571-3.665-0.92c0.801-0.244,1.446-0.46,2.231-0.704
		c-0.237-0.207-0.271-0.262-0.325-0.281c-3.064-1.141-6.324-1.703-9.315-3.148c-1.995-0.966-4.162-1.675-6.312-2.282
		c-7.99-2.237-15.925-4.777-24.184-5.904c-2.301-0.317-4.671-0.469-6.962-0.253c-2.053,0.193-3.433-0.792-4.889-1.827
		c-0.454-0.331-0.662-0.952-0.114-1.339c0.819-0.58,1.707-1.086,2.638-1.445c0.321-0.129,0.855,0.253,1.282,0.433
		c1.091,0.478,1.091,0.478,1.57-0.645c-0.322-0.157-0.649-0.313-1.076-0.515c0.258-0.129,0.413-0.23,0.561-0.286
		c3.038-1.095,6.103-0.907,9.141-0.105c20.978,5.582,41.938,11.195,62.919,16.736c1.229,0.323,2.59,0.157,3.888,0.203
		c0.221,0.009,0.424-0.032,0.821-0.065c-1.861,1.97-4.129,2.453-6.463,2.793c-0.138,0.014-0.322-0.239-0.298-0.216
		C410.985,96.438,410.58,96.632,410.167,96.669z M343.579,78.013c-0.833-0.322-1.346-0.074-1.604,0.838
		C342.736,78.943,343.376,78.961,343.579,78.013z"/>
	<path fill="#FFFFFF" d="M417.151,102.605c1.707,0.147,3.221,0.276,4.79,0.404c0.273-1.026,0.549-2.024,0.834-3.128
		c-0.331-0.184-0.722-0.396-1.104-0.599c1.224,0.341,1.602-0.497,2.13-1.343c3.612-5.729,8.657-9.452,15.339-10.87
		c0.303-0.055,0.63-0.23,0.819-0.46c0.46-0.534,0.833-1.131,1.232-1.712c0.027-0.041,0.027-0.11,0.027-0.184
		c-1.518-0.415-3.036-0.897-4.583-1.179c-0.525-0.092-1.207,0.24-1.706,0.543c-3.954,2.402-7.903,4.791-11.769,7.317
		c-0.965,0.625-1.701,1.656-2.402,2.613C418.91,96.522,418.04,99.467,417.151,102.605z"/>
	<path fill="#FFFFFF" d="M370.306,94.727c0.464-1.776,0.901-3.396,1.325-5.025C370.866,89.932,369.799,93.649,370.306,94.727z"/>
	<path fill="#FFFFFF" d="M381.943,93.558c-0.29,1.086-0.538,1.993-0.788,2.937C381.81,96.088,382.283,94.451,381.943,93.558z"/>
</g>
<path fill="#FFFFFF" d="M145.338,596.734c35.553,58.913,83.455,126.775,147.965,203.491v1.96c0.271-0.322,0.547-0.645,0.815-0.976
	c0.275,0.331,0.546,0.653,0.818,0.976v-1.96c120.729-143.595,183.32-256.161,215.584-337.068
	c-75.429,48.838-168.593,57.482-168.593,57.482C241.39,534.487,180.833,567.255,145.338,596.734z"/>
<path fill="#FFFFFF" d="M48.289,367.384c0,0,12.458,113.479,91.058,215.474c0,0,81.408-69.243,205.859-77.665
	c0,0,291.238-24.768,176.498-298.247c2.787,6.644,4.366,14.25,5.985,21.222c4.086,17.602,5.864,35.698,5.112,53.759
	c-0.985,23.666-5.986,47.352-14.502,69.449c-10.502,27.25-27.376,50.977-50.944,68.442c-34.059,25.238-76.272,37.522-116.468,49.069
	c-20.209,5.806-40.232,6.084-61.032,8.955c-24.922,3.44-50.092,7.963-73.836,16.478c-12.148,4.355-24.202,9.599-34.564,17.424
	c0,0-47.625-16.751-87.076-145.356"/>
<path fill="#FFFFFF" d="M78.58,244.617c0,0-3.175,185.405,102.875,267.125l-13.724,19.339l-55.929-41.172L70.513,378.87
	L62.93,272.821L78.58,244.617z"/>
<path fill="#FFFFFF" d="M94.005,300.893c0,0,12.543,132.25,104.581,209.603l18.426-11.229
	C217.012,499.266,130.068,443.099,94.005,300.893z"/>
</svg>
