<svg width="69" height="69" viewBox="0 0 69 69" fill="none" xmlns="http://www.w3.org/2000/svg">
<path fill-rule="evenodd" clip-rule="evenodd" d="M51.7502 12.88C47.1752 8.30506 40.9702 5.73486 34.5002 5.73486C28.0302 5.73486 21.8251 8.30506 17.2502 12.88C12.6752 17.455 10.105 23.66 10.105 30.13C10.105 36.6001 12.6752 42.8051 17.2502 47.38L32.4014 62.56C32.6687 62.8295 32.9867 63.0434 33.337 63.1894C33.6874 63.3353 34.0631 63.4105 34.4427 63.4105C34.8222 63.4105 35.198 63.3353 35.5483 63.1894C35.8987 63.0434 36.2166 62.8295 36.4839 62.56L51.7502 47.2363C56.306 42.6803 58.8655 36.5012 58.8655 30.0582C58.8655 23.6151 56.306 17.436 51.7502 12.88ZM34.5002 56.3213L47.6389 43.125C50.2346 40.527 52.0018 37.2176 52.717 33.6154C53.4323 30.0131 53.0635 26.2797 51.6573 22.887C50.2511 19.4943 47.8706 16.5947 44.8167 14.5547C41.7629 12.5146 38.1727 11.4258 34.5002 11.4258C30.8276 11.4258 27.2375 12.5146 24.1836 14.5547C21.1297 16.5947 18.7492 19.4943 17.343 22.887C15.9368 26.2797 15.568 30.0131 16.2833 33.6154C16.9985 37.2176 18.7657 40.527 21.3614 43.125L34.5002 56.3213Z" fill="black"/>
<path fill-rule="evenodd" clip-rule="evenodd" d="M51.7502 12.88C47.1752 8.30506 40.9702 5.73486 34.5002 5.73486C28.0302 5.73486 21.8251 8.30506 17.2502 12.88C12.6752 17.455 10.105 23.66 10.105 30.13C10.105 36.6001 12.6752 42.8051 17.2502 47.38L32.4014 62.56C32.6687 62.8295 32.9867 63.0434 33.337 63.1894C33.6874 63.3353 34.0631 63.4105 34.4427 63.4105C34.8222 63.4105 35.198 63.3353 35.5483 63.1894C35.8987 63.0434 36.2166 62.8295 36.4839 62.56L51.7502 47.2363C56.306 42.6803 58.8655 36.5012 58.8655 30.0582C58.8655 23.6151 56.306 17.436 51.7502 12.88ZM34.5002 56.3213L47.6389 43.125C50.2346 40.527 52.0018 37.2176 52.717 33.6154C53.4323 30.0131 53.0635 26.2797 51.6573 22.887C50.2511 19.4943 47.8706 16.5947 44.8167 14.5547C41.7629 12.5146 38.1727 11.4258 34.5002 11.4258C30.8276 11.4258 27.2375 12.5146 24.1836 14.5547C21.1297 16.5947 18.7492 19.4943 17.343 22.887C15.9368 26.2797 15.568 30.0131 16.2833 33.6154C16.9985 37.2176 18.7657 40.527 21.3614 43.125L34.5002 56.3213Z" fill="black"/>
<path fill-rule="evenodd" clip-rule="evenodd" d="M25.8752 21.3038C23.5542 23.6319 22.2509 26.7852 22.2509 30.0725C22.2509 33.3599 23.5542 36.5132 25.8752 38.8413C27.5995 40.5686 29.7955 41.7482 32.1877 42.2321C34.5798 42.716 37.0617 42.4827 39.3217 41.5615C41.5818 40.6403 43.5196 39.0721 44.8918 37.0538C46.264 35.0354 47.0097 32.6568 47.0352 30.2163C47.0481 28.5868 46.7342 26.9712 46.112 25.465C45.4898 23.9589 44.5719 22.5928 43.4127 21.4475C42.2732 20.282 40.9145 19.3532 39.4148 18.7148C37.915 18.0763 36.3038 17.7407 34.6738 17.7274C33.0439 17.714 31.4274 18.0231 29.9173 18.6369C28.4073 19.2507 27.0336 20.157 25.8752 21.3038ZM35.2854 36.7203C36.8295 36.5583 38.2694 35.8649 39.3589 34.7588H39.2152C40.4988 33.5327 41.2433 31.8472 41.2852 30.0725C41.2885 28.52 40.7525 27.0144 39.7686 25.8133C38.7848 24.6122 37.4143 23.7902 35.8915 23.4877C34.3686 23.1852 32.788 23.4211 31.4198 24.155C30.0517 24.889 28.9809 26.0754 28.3907 27.5114C27.8004 28.9474 27.7273 30.5438 28.1838 32.0278C28.6403 33.5117 29.5981 34.791 30.8935 35.647C32.1888 36.5029 33.7413 36.8823 35.2854 36.7203Z" fill="black"/>
<path fill-rule="evenodd" clip-rule="evenodd" d="M25.8752 21.3038C23.5542 23.6319 22.2509 26.7852 22.2509 30.0725C22.2509 33.3599 23.5542 36.5132 25.8752 38.8413C27.5995 40.5686 29.7955 41.7482 32.1877 42.2321C34.5798 42.716 37.0617 42.4827 39.3217 41.5615C41.5818 40.6403 43.5196 39.0721 44.8918 37.0538C46.264 35.0354 47.0097 32.6568 47.0352 30.2163C47.0481 28.5868 46.7342 26.9712 46.112 25.465C45.4898 23.9589 44.5719 22.5928 43.4127 21.4475C42.2732 20.282 40.9145 19.3532 39.4148 18.7148C37.915 18.0763 36.3038 17.7407 34.6738 17.7274C33.0439 17.714 31.4274 18.0231 29.9173 18.6369C28.4073 19.2507 27.0336 20.157 25.8752 21.3038ZM35.2854 36.7203C36.8295 36.5583 38.2694 35.8649 39.3589 34.7588H39.2152C40.4988 33.5327 41.2433 31.8472 41.2852 30.0725C41.2885 28.52 40.7525 27.0144 39.7686 25.8133C38.7848 24.6122 37.4143 23.7902 35.8915 23.4877C34.3686 23.1852 32.788 23.4211 31.4198 24.155C30.0517 24.889 28.9809 26.0754 28.3907 27.5114C27.8004 28.9474 27.7273 30.5438 28.1838 32.0278C28.6403 33.5117 29.5981 34.791 30.8935 35.647C32.1888 36.5029 33.7413 36.8823 35.2854 36.7203Z" fill="black"/>
<path d="M39.3589 34.7588C38.2694 35.8649 36.8295 36.5583 35.2854 36.7203C33.7413 36.8823 32.1888 36.5029 30.8935 35.647C29.5981 34.791 28.6403 33.5117 28.1838 32.0278C27.7273 30.5438 27.8004 28.9474 28.3907 27.5114C28.9809 26.0754 30.0517 24.889 31.4198 24.155C32.788 23.4211 34.3686 23.1852 35.8915 23.4877C37.4143 23.7902 38.7848 24.6122 39.7686 25.8133C40.7525 27.0144 41.2885 28.52 41.2852 30.0725C41.2433 31.8472 40.4988 33.5327 39.2152 34.7588H39.3589Z" fill="black"/>
<path d="M39.3589 34.7588C38.2694 35.8649 36.8295 36.5583 35.2854 36.7203C33.7413 36.8823 32.1888 36.5029 30.8935 35.647C29.5981 34.791 28.6403 33.5117 28.1838 32.0278C27.7273 30.5438 27.8004 28.9474 28.3907 27.5114C28.9809 26.0754 30.0517 24.889 31.4198 24.155C32.788 23.4211 34.3686 23.1852 35.8915 23.4877C37.4143 23.7902 38.7848 24.6122 39.7686 25.8133C40.7525 27.0144 41.2885 28.52 41.2852 30.0725C41.2433 31.8472 40.4988 33.5327 39.2152 34.7588H39.3589Z" fill="white"/>
<path fill-rule="evenodd" clip-rule="evenodd" d="M47.6389 43.125L34.5002 56.3213L21.3614 43.125C18.7657 40.527 16.9985 37.2176 16.2833 33.6154C15.568 30.0131 15.9368 26.2797 17.343 22.887C18.7492 19.4943 21.1297 16.5947 24.1836 14.5547C27.2375 12.5146 30.8276 11.4258 34.5002 11.4258C38.1727 11.4258 41.7629 12.5146 44.8167 14.5547C47.8706 16.5947 50.2511 19.4943 51.6573 22.887C53.0635 26.2797 53.4323 30.0131 52.717 33.6154C52.0018 37.2176 50.2346 40.527 47.6389 43.125ZM22.2509 30.0725C22.2509 26.7852 23.5542 23.6319 25.8752 21.3038C27.0336 20.157 28.4073 19.2507 29.9173 18.6369C31.4274 18.0231 33.0439 17.714 34.6738 17.7274C36.3038 17.7407 37.915 18.0763 39.4148 18.7148C40.9145 19.3532 42.2732 20.282 43.4127 21.4475C44.5719 22.5928 45.4898 23.9589 46.112 25.465C46.7342 26.9712 47.0481 28.5868 47.0352 30.2163C47.0097 32.6568 46.264 35.0354 44.8918 37.0538C43.5196 39.0721 41.5818 40.6403 39.3217 41.5615C37.0617 42.4827 34.5798 42.716 32.1877 42.2321C29.7955 41.7482 27.5995 40.5686 25.8752 38.8413C23.5542 36.5132 22.2509 33.3599 22.2509 30.0725Z" fill="black"/>
<path fill-rule="evenodd" clip-rule="evenodd" d="M47.6389 43.125L34.5002 56.3213L21.3614 43.125C18.7657 40.527 16.9985 37.2176 16.2833 33.6154C15.568 30.0131 15.9368 26.2797 17.343 22.887C18.7492 19.4943 21.1297 16.5947 24.1836 14.5547C27.2375 12.5146 30.8276 11.4258 34.5002 11.4258C38.1727 11.4258 41.7629 12.5146 44.8167 14.5547C47.8706 16.5947 50.2511 19.4943 51.6573 22.887C53.0635 26.2797 53.4323 30.0131 52.717 33.6154C52.0018 37.2176 50.2346 40.527 47.6389 43.125ZM22.2509 30.0725C22.2509 26.7852 23.5542 23.6319 25.8752 21.3038C27.0336 20.157 28.4073 19.2507 29.9173 18.6369C31.4274 18.0231 33.0439 17.714 34.6738 17.7274C36.3038 17.7407 37.915 18.0763 39.4148 18.7148C40.9145 19.3532 42.2732 20.282 43.4127 21.4475C44.5719 22.5928 45.4898 23.9589 46.112 25.465C46.7342 26.9712 47.0481 28.5868 47.0352 30.2163C47.0097 32.6568 46.264 35.0354 44.8918 37.0538C43.5196 39.0721 41.5818 40.6403 39.3217 41.5615C37.0617 42.4827 34.5798 42.716 32.1877 42.2321C29.7955 41.7482 27.5995 40.5686 25.8752 38.8413C23.5542 36.5132 22.2509 33.3599 22.2509 30.0725Z" fill="white"/>
</svg>
