<?xml version="1.0" encoding="utf-8"?>
<!-- Generator: Adobe Illustrator 16.0.0, SVG Export Plug-In . SVG Version: 6.00 Build 0)  -->
<!DOCTYPE svg PUBLIC "-//W3C//DTD SVG 1.1//EN" "http://www.w3.org/Graphics/SVG/1.1/DTD/svg11.dtd">
<svg version="1.1" id="圖層_1" xmlns="http://www.w3.org/2000/svg" xmlns:xlink="http://www.w3.org/1999/xlink" x="0px" y="0px"
	 width="595.28px" height="841.89px" viewBox="0 0 595.28 841.89" enable-background="new 0 0 595.28 841.89" xml:space="preserve">
<g>
	<path fill="#F0D45C" d="M237.75,543.667l-0.066,0.59l-2.767,24.494l-5.583,40.916l-6.667,31.499l-7,37.167V715.5l9.583,25.25
		l17.25,24c0,0,12,18.75,11.75,19.5s9.25,19.625,9.25,19.625l4.125,9.5l3.875,9.5c0,0,3.25-0.125,3.625,0s3.125-1.348,3.125-1.348
		l1.375-10.027l3.563-10.531l2.875-4.469l20.219-0.063l25.219-2.604l12.962-3.279l3.621,7.227l5.947,13.886l3.554,8.667l4.083-4.167
		L369,799.001l6.75-25.5l5.25-39.5l-0.322-23.126L369,671.25l-12.75-26L349,627l-3.083-21.083l2-31.333l2.333-9.75l36.918-32.25
		l30.207-11.709l30.75-19.625l18.25-33.375l-1.625-27l1.625-20.5l-46.25-24.5l-64.375-35.238l-52.625-32.387l-36.75-33.125
		l-34.5-40.375L209.625,222l-11.25-24.25l-10.618-24.259l-29.329,15.278l3.197,12.106l0.379,4.953l-17.754,7.732l-22.965,6.425
		L110.125,222c0,0-15.625,22.75-16,22.75S83.25,272.875,83.25,272.875l-6,26.625l-3.25,31v45.875l3.625,36.375l4.75,24.375
		c0,0-4.5,16.875-4.5,17.25s6.25,25.25,6.25,25.25L91.375,492l25.25,22.875l18.322,8.875l28.428,9l33.875,7.375l26.5,3.542H237.75z"
		/>
	<path fill="#EA8B1F" d="M234.875,756L228,770.125l-13.875,13.75l-8,10.75l-4.25,9.5L195,792.516L184.75,808.5l-11.25,12.75
		l-6.25-17.75l-3.25-5.719l-1.188,5.281l-2.313,5.125l-2.522,3.188l-1.915-10.188l-3.75-8.813l-8-11.625l-6.375-5.563l-16.313-5.313
		l-11.438-9.563L98,741.125L93.938,731l-3.563,12.563l-0.688,0.938l-4.313-12.75l-5-24.313l-1-14.688l1.438-17.125l5.25-21.875
		l10.813-21.813l16.5-18.125l15.875-11.188l-8.625-2.875l-4.938-2.313L127,594.563l10.313-4.5l11.938-8.875l13.438-10.625
		l19.438-8.688l10.625-3.688H205l11.313,3.5c0,0,6.5,4.313,6.563,4.5s7,7.813,7,7.813l3.91,3.05l-1.847,16.7l-6.75,34.063
		l-6.375,28.438l-5.125,20.188l-0.375,31.188l9.438,31.625L234.875,756z"/>
	<polygon fill="#EA8B1F" points="412.553,523.553 422.25,532.583 440.667,540.25 456.75,541.417 469.917,534.417 478.833,522.167 
		483.917,508.917 500.25,506.583 514.75,499.75 520.833,491.465 523.333,481.167 522.583,468.333 518.25,454.333 512.25,441.083 
		514.916,423.416 514.166,407.583 511.5,398.75 489.167,426.25 467.247,418.833 463.75,435.916 465.5,463.666 458.416,486.916 
		443.833,505.333 415.833,521.75 	"/>
	<path fill="#EA8B1F" d="M74.247,378.851l-15.33-0.601l-14.5,5.25l-8.833,7.333l-5.417,15.5l-0.583,14.583l1.917,17.25v3.25
		l-7.167,16.916l-3.5,19.584l1.833,11l6.917,10.5l11.5,6L50,508.166h10.75l3.083,9.25l5,8.917l7.417,8.75l8.5,4.917l9.75,1.5
		c0,0,12-2.084,12.417-2.167s14.75-6.667,14.75-6.667l10.076-9.821l-24.909-16.262L85.417,484.75l-6.583-32.916l3.147-16.73
		l-5.693-35.769L74.247,378.851z"/>
	<path fill="#EA8B1F" d="M81,210.125c-0.375,0,4.125,6.75,4.125,6.75l9.375,5h13.875l18.666-3.5l20.933-6.437l13.987-6.684
		l-0.8-6.139l-3.533-12.083L144.5,169l-15.5-7.625L116.875,164c0,0-13.75,11.375-14.125,12s-15.875,20.25-15.875,20.25l-5.897,8.25
		L81,210.125z"/>
	<path fill="#EA8B1F" d="M158.625,285.375l16.125,5.875l18.75,1.625h6.375c0,0,4.625,5.5,4.5,7.375s-2.816,8.875-3.158,9.5
		s-6.717,5.917-6.717,5.917L174,323l-18.625,1L142,316.625l-8.125-13L136,293.25l3.75-5c0,0,7-3.625,7.5-3.75s6.375-1.5,6.75-1.5
		S158.625,285.375,158.625,285.375z"/>
	<path fill="#DB4945" d="M180.932,146.661l11.958,40.193l18.446,37.667l25.123,38.667l50.667,52.667l29.611,20.883l55.563,33.077
		l65.577,35.585l50.583,22.788l46.833-56.167l9.828-12.004l-18.079-30.746l15.75,3.25l14.001-0.833l19.916-9l10.917-14.667
		l7.25-16.917l1.5-7.667l-7.417-19.833l-11.333-11.917l-7-4.167l-10.334-3.083l-10.833,0.083l-5,0.5l1.25-6.667l-2.25-12.917
		l-6.916-13.417l-8.251-12.811l-10.333-9.939l-7.416-5.583l-16.667-11l-16.833-13.917l-24.834-23.333l-10.666-14.25l-12.834-14.5
		l-11.666-8l-16.97-3.167l-9.864,2.917l-7-17.167l-14.583-18.333l-17.75-12l-21.167-7.167h-11.333c0,0-18.417,11.5-18.5,11.75
		c-0.084,0.25-10.084,14.167-10.084,14.167l-5.25,10.833l-5.083,17.083l-24.917-17l-29.083,26.75l-37.333,34.5L180.932,146.661z"/>
	<polygon fill="#418CCB" points="185.154,147.698 210.75,213.56 237.943,258.794 270.812,298.896 308.607,328.737 304.641,281.172 
		313,224.333 330.5,185.75 355.25,158.169 319.5,165.75 278.99,166.75 238.75,163.25 206.023,155.98 	"/>
	<path fill="#418CCB" d="M313.25,328.737l53.25-6.487l47.75-11.133c0,0,39-17.117,41.25-18.117s26.154-23.353,26.154-23.353
		L475,303.5l-5,40.75l5.5,47.25l11.252,31.27L446.3,409.195l-69.885-37.247l-64.167-38.376L313.25,328.737z"/>
	<g>
		<g>
			<path fill="#FFFFFF" d="M193,175.5c18.796,0.44,16.755,26.048,25.222,37.862c10.861,15.153,35.686,22.204,53.175,17.251
				c12.329-3.491,26.106-23.031,11.291-32.321c-6.863-4.304-16.107-2.285-18.49,5.802c-2.634,8.94,7.484,14.363,14.397,9.398
				c2.594-1.862,0.102-6.202-2.523-4.317c-5.144,3.693-9.598-1.874-5.644-6.546c2.773-3.276,8.879-1.086,11.479,1.289
				c4.564,4.17,0.944,11.886-2.156,15.697c-10.12,12.441-31.259,7.633-43.502,1.667c-6.409-3.124-12.367-7.588-15.886-13.884
				c-2.965-5.306-4.22-11.512-5.96-17.284c-3.296-10.934-9.082-19.326-21.403-19.615C189.774,170.424,189.781,175.425,193,175.5
				L193,175.5z"/>
		</g>
	</g>
	<g>
		<g>
			<path fill="#FFFFFF" d="M194.667,185.167c5.853-0.496,7.042,9.522,7.854,13.685c1.244,6.379,2.823,12.501,5.309,18.536
				c2.791,6.771,6.634,13.397,12.403,18.047c6.05,4.877,14.009,7.262,21.506,8.718c16.154,3.138,35.254,3.687,49.741-5.03
				c5.741-3.454,14.521-20.33,2.854-21.29c-3.215-0.265-3.19,4.738,0,5c2.895,0.238-2.907,9.98-4.04,11.09
				c-5.677,5.561-16.32,6.85-23.79,6.958c-14.269,0.206-29.747-0.583-42.073-8.548c-10.217-6.602-14.673-21.677-16.748-32.976
				c-1.278-6.96-3.368-20.007-13.017-19.19C191.479,180.437,191.452,185.439,194.667,185.167L194.667,185.167z"/>
		</g>
	</g>
	<g>
		<g>
			<path fill="#FFFFFF" d="M247.333,191.5c3.224,0,3.224-5,0-5S244.109,191.5,247.333,191.5L247.333,191.5z"/>
		</g>
	</g>
	<g>
		<g>
			<path fill="#FFFFFF" d="M286,189.833c3.224,0,3.224-5,0-5S282.776,189.833,286,189.833L286,189.833z"/>
		</g>
	</g>
	<g>
		<g>
			<path fill="#FFFFFF" d="M257.665,279.589c-4.006-0.885-4.078-7.73-3.999-10.922c0.147-5.995,5.068-8.939,10.193-10.596
				c3.644-1.178,9.608-2.383,12.875,0.267c1.805,1.464,1.473,4.21-0.604,4.997c-0.364,0.138-3.91,0.544-3.719-0.336
				c0.684-3.143-4.136-4.479-4.821-1.329c-1.543,7.087,8.028,8.322,12.439,5.193c3.072-2.18,3.358-6.089,2.063-9.357
				c-1.516-3.826-5.434-5.109-9.174-5.559c-9.108-1.094-20.656,3.657-23.661,12.723c-2.028,6.118-0.392,18.09,7.08,19.742
				C259.478,285.105,260.813,280.285,257.665,279.589L257.665,279.589z"/>
		</g>
	</g>
	<g>
		<g>
			<path fill="#FFFFFF" d="M352.826,354.262c2.762-5.162,11.304-5.96,16.458-6.564c7.546-0.884,15.07-0.687,22.462,1.18
				c14.642,3.696,30.068,17.459,45.878,10.521c10.145-4.452,14.363-23.333,2.843-28.291c-5.088-2.189-10.947-1.834-13.878,3.241
				c-2.569,4.448-1.452,9.815,3.413,11.729c3.005,1.182,4.295-3.655,1.33-4.821c-2.546-1.001-0.353-5.584,1.311-6.219
				c2.618-1,7.342,0.464,8.791,2.879c2.979,4.966-0.46,12.074-4.066,15.624c-4.758,4.683-13.43,2.444-18.968,0.753
				c-6.077-1.854-11.631-5.136-17.479-7.574c-10.171-4.241-20.781-5.135-31.637-4.021c-7.019,0.72-17.06,2.097-20.776,9.041
				C346.987,354.58,351.304,357.105,352.826,354.262L352.826,354.262z"/>
		</g>
	</g>
	<g>
		<g>
			<path fill="#FFFFFF" d="M362.102,362.435c2.961-2.701,8.982-1.953,12.656-1.824c5.603,0.197,11.144,0.805,16.62,2.017
				c10.171,2.25,19.532,7.02,29.676,9.279c13.417,2.988,32.748,2.441,34.446-14.907c0.314-3.209-4.688-3.179-5,0
				c-1.65,16.859-26.688,11.3-37.047,7.499c-10.805-3.966-21.502-7.624-33.053-8.524c-6.675-0.521-16.396-2.035-21.834,2.925
				C356.18,361.077,359.726,364.603,362.102,362.435L362.102,362.435z"/>
		</g>
	</g>
	<g>
		<g>
			<path fill="#FFFFFF" d="M431.102,398.566c-3.184-3.44-2.997-10.214,1.081-12.679c3.362-2.032,8.015-2.127,11.817-2.387
				c2.769-0.189,10.494-0.637,9.804,3.966c-0.243,1.626-2.397,2.67-3.729,3.197c-0.533,0.19-1.077,0.341-1.631,0.454
				c-1.965,0.47-0.703-0.502-1.032,0.881c0.746-3.135-4.075-4.465-4.822-1.329c-1.667,7,7.278,5.659,11.032,3.854
				c6.399-3.077,7.098-12.197,0.007-14.914c-7.012-2.686-17.374-1.258-23.969,1.961c-7.395,3.608-7.113,15.106-2.093,20.531
				C429.761,404.472,433.288,400.928,431.102,398.566L431.102,398.566z"/>
		</g>
	</g>
	<g>
		<g>
			<path fill="#FFFFFF" d="M411.334,331.833c3.225,0,3.225-5,0-5S408.109,331.833,411.334,331.833L411.334,331.833z"/>
		</g>
	</g>
	<g>
		<g>
			<path fill="#FFFFFF" d="M439,320.5c3.225,0,3.225-5,0-5S435.775,320.5,439,320.5L439,320.5z"/>
		</g>
	</g>
	<path fill="#F5EA29" d="M288.571,104.98c0,0,11.066-66.444,57.283-55.347l-4.443-4.154h-7.826c0,0-40.513,3.25-47.013,56.25
		L288.571,104.98z"/>
	<path fill="#F5EA29" d="M361.57,155.98c0,0,2.672-15.69,11.084-30.578c7.865-13.92,20.75-27.139,41.166-26.172l-14.053-2.5
		l-13.947,3.5l-11.5,11.75l-9.125,16.625l-5.75,17.25l-1.75,7.25L361.57,155.98z"/>
	<path fill="#F5EA29" d="M479.57,267.647c0,0,56.918-3.667,64.584-25.5v3.477l-1.834,4.731l-11.563,9.563
		c0,0-13.688,5.188-13.938,5.375s-20.938,4.375-20.938,4.375l-12.813,1.625L479.57,267.647z"/>
	<polyline fill="#F5EA29" points="422.242,206.393 474.713,158.581 477.293,161.005 425.91,207.727 	"/>
	<path fill="#F5EA29" d="M521.07,322.23c0,0,62.25,7.375,74.625-38.313l-1.5,9.438c0,0-17.375,36.5-70.875,31.5"/>
	<path fill="#F5EA29" d="M185.967,143.323c0,0,25.415,119.657,143.135,193.657l110.719,62.25l53,22.25l-4,5l-30.498-10.25
		l-32-16.251l-36.668-20.499l-58.648-33.363c0,0-42.185-25.303-41.185-25.303s-34.333-35.912-34.333-35.912l-22.531-25.577
		l-32.106-54.345l-14.993-38.994l-5.149-17.307L185.967,143.323z"/>
	<path fill="#F5EA29" d="M313.035,326.209C292.25,200.271,361.57,155.98,361.57,155.98l-3.875-2.875
		c-79.458,61.625-49.875,173.104-49.875,173.104"/>
	<path fill="#F5EA29" d="M479.57,267.647"/>
	<path fill="#F5EA29" d="M311.82,330.146c0,0,141.334-6,171.334-60.333l-3.584-2.167c0,0-25.773,49.524-167.762,57.679"/>
	<path fill="#F5EA29" d="M481.469,272.629c0,0-33.506,92.245,4.352,153.851l7-5c0,0-41-40-7.5-147.5l-3.666-4.333L481.469,272.629z"
		/>
	<path fill="#F5EA29" d="M185.154,146.146c0,0,96.75,38.25,172.541,6.958l3.875,2.875c0,0-74.416,36.936-176.416-8.282"/>
</g>
<path opacity="0.2" fill="#444344" d="M131.743,216.929c0,0-50.173,142.446-10.458,211.258c0,0-29.785,91.727,106.215,114.27
	l-39.032-4.244l-31.343-6.046l-35.456-14.849l-25.502-17.484c0,0-18.667-34.5-18.333-35s3.844-31.64,3.844-31.64l-8.23-53.527
	L74,325.729l4.667-40.063l12.917-34.773l17.916-29.229L131.743,216.929z"/>
<polygon opacity="0.2" fill="#444344" points="237.684,544.257 252.75,544.257 279.032,543.667 236.272,556.752 "/>
<path opacity="0.2" fill="#444344" d="M235.284,565.504l1.997,22.246l4.056,41.711l7.914,54.923l3.749,20.175L268,726.25h9.5l7-3
	c0,0,31.786,59.98,59.28,67.188l-26.563,4.871l-19.343,1.155l-11.812,0.036l-2.875,4.469l-2.438,13.083l-3.882,8.177l-3.118,1.396
	l-5.122-4.757L257.5,788.875l-17.968-28.254l-9.271-12.898l-14.636-32.349v-27.443c0,0,5.038-39.935,5.056-40.015
	s6.569-29.416,6.569-29.416l6.125-37.625L235.284,565.504z"/>
<path opacity="0.2" fill="#444344" d="M249.096,649.801c0,0,13.237,83.2,36.57,64.533
	C285.667,714.334,260.859,758.935,249.096,649.801z"/>
<path opacity="0.2" fill="#444344" d="M99,186.153c0,0-8.776,40.031,52.112,18.189C151.112,204.342,58.5,242.807,99,186.153z"/>
<path opacity="0.2" fill="#444344" d="M252.28,433.194c0,0,9.784-6.306,26.752,0C279.032,433.194,266.561,416.889,252.28,433.194z"
	/>
<path opacity="0.2" fill="#444344" d="M163.927,418.5c0,0-6.177,18.75,7.573,20c0,0,5.437-2.977,3.887-13.047L163.927,418.5z"/>
<path opacity="0.2" fill="#444344" d="M346.28,422.77c0,0-2.53,9.73,2.97,17.23c0,0,9.061-0.25,8.53-16L346.28,422.77z"/>
<polyline opacity="0.2" fill="#444344" points="344.583,790.25 354.03,787.25 362.125,813.666 359.667,819.251 357.14,819.251 
	351,804.251 344.583,790.575 "/>
<polygon opacity="0.2" fill="#444344" points="349.282,565.504 353.581,555.134 409.399,507.823 371.678,548.208 351.667,564.667 
	"/>
<path opacity="0.2" fill="#444344" d="M387,529.667c1.689,0.328,32.552-10.098,32.552-10.098l17.306-10.146l21.559-22.507
	c0,0,5.895-15.268,6.927-17.154s-0.593-28.887-0.593-28.887s0.067-12.52,0.519-12.375s5.378-10.328,5.378-10.328l-19.18-5.423
	L456.344,424v22.334c0,0-8.677,17.333-9.677,18.333s-40,47.333-40,47.333L387,529.667z"/>
<path opacity="0.2" fill="#444344" d="M36.667,445.667c0,0-30.35,63.039,33.825,52.52c0,0,0.175,50.163,42.841,31.488l12.439-7.515
	l-14.439-9.826c0,0-32.471,21.334-35.046-20.869C76.288,491.465,20.59,510.201,36.667,445.667z"/>
<path opacity="0.2" fill="#444344" d="M55.334,383.005c0,0-20.667,9.328-18.667,23.328
	C36.667,406.333,33.334,404.344,55.334,383.005z"/>
<path opacity="0.2" fill="#444344" d="M90.375,743.563c0,0-9.375-53.896,10.292-89.229c0,0,18,116.668,72,112.334
	c0,0,42.536-9.922,42.958-46L234.875,756l-5.249,10.785l-13.053,14.664l-8.298,10.287l-7.025,13.514L195,792.516l-12.406,18.428
	l-8.719,10.307l-8.75-23.469l-3.27,7.403l-3.468,5.674l-2.012-8.983l-6.25-12.375L139.5,776.25l-8.875-2.75l-15.704-9.229
	l-12.796-15.021L94,732L90.375,743.563z"/>
<path opacity="0.2" fill="#444344" d="M120.625,599.75c0,0,0.74,0.051,1.982,0.091c4.945,0.159,17.848,0.155,23.643-3.841
	c0,0-46.065,28.561-64.408,69.405l9.648-22.604l9.599-15.492L118.5,610l13.243-8L120.625,599.75z"/>
<path opacity="0.2" fill="#444344" d="M436.857,509.423c0,0,30.886,25.273,44.848,5.259l-11.788,19.735l-11.882,6.316l-16.604,0.684
	l-17.905-11.153l-14.127-6.297L436.857,509.423z"/>
<path opacity="0.2" fill="#444344" d="M252.28,93.197c0,0-69.443,199.47,234.472,318.303l10.941,4.25l-9.234,12.438l-124.006-63.043
	L294.605,324l-62.73-69.25l-15.281-22.136l-34.573-72.484L252.28,93.197z"/>
<path opacity="0.2" fill="#444344" d="M335.097,48.399c0,0-48.622,2.561-46.526,56.581l13.861,9.562l9.816,6.125l19.753,11.932
	C332.001,132.599,296.526,67.798,335.097,48.399z"/>
<path opacity="0.2" fill="#444344" d="M413.82,99.23c0,0-57.729,9.982-40.274,66.043l18.493,11.353l5.736,6.528l11.887,7.645
	l17.505,18.702C427.167,209.5,354.307,119.46,413.82,99.23z"/>
<path opacity="0.2" fill="#444344" d="M545.163,244.158c0,0-38.86,54.175,0.989,88.175h-8.985l-10.126-3.062l-12.624-17.688
	l-12.208-15.532l-14.174-19.463l-4.965-5.296c0,0,13.483-1.582,14.623-1.646s25.474-6.397,25.474-6.397l12.583-6.53l6.078-5.958
	L545.163,244.158z"/>
<g>
	<g>
		<path fill="#8D3922" d="M280.28,543.5c0,0-71,10.5-142.5-16.5c0,0-84.5-27-60.5-91c0,0-28.668-156.837,31.832-215.337l6.668-0.163
			c0,0-35,35.5-38.5,95.5c0,0-7,65,9.5,120C86.78,436,43.78,546.5,280.28,543.5z"/>
		<path fill="#8D3922" d="M237.114,543.667c0,0-8.5,71.5-16.667,93.333c0,0-32.5,89.999,16.667,124.333c0,0,29.167,45,33.167,63
			c0,0,8.999,4.666,10.333-9s5.667-18.666,5.667-18.666s-5.5,0.583-9,23.583c0,0-1.75,4-4.75,0.5S254.28,770,238.78,755
			c0,0-37-28.5-13.5-116.5c0,0,13-71.416,13.5-94.833H237.114z"/>
		<path fill="#8D3922" d="M275.78,795.75c0,0,40.25,8.25,78.25-8.5C354.03,787.25,323.53,797.75,275.78,795.75z"/>
		<path fill="#8D3922" d="M343.78,790.438c0,0,10.25,20.063,12.5,30.813c0,0,4.75,3,9.5-10.75c0,0,44-82.166-11.75-173.499
			c0,0-15.583-33.334,0-82.667c0,0-21.75,35.666,0,94.666c0,0,46.25,67.5,11.75,152.5c0,0-3.868,16.352-7.333,15.667
			c0,0-4.255-14.125-13.211-26.479L343.78,790.438z"/>
		<path fill="#8D3922" d="M329.28,540.5c0,0,89-142,125-123c0,0,49.072,15.357-103.714,149.679l0.048-3.846
			c0,0,129.166-107.833,102.666-141.833C453.28,421.5,421.78,410.5,329.28,540.5z"/>
		<path fill="#8D3922" d="M237.28,586c0,0,5.28,152.5,37.64,145c0,0,49.36,13.334-15.973-176.666c0,0,54.613,171.334,15.973,172
			C274.92,726.334,248.28,737,237.28,586z"/>
		<path fill="#8D3922" d="M232.965,574.631c0,0-28.935-47.381-92.185,12.119c0,0-21.25,15.25-32.25,6c0,0,11,11.5,19.25,9.75
			c0,0-51.75,24-49,97.25c0,0,2.5,28.75,11,47c0,0,4-7,4.5-11.75c0,0,9.5,37.25,44.75,41.5c0,0,25.75,25.5,15.25,40
			c0,0,9.75-11.25,10.5-14.5s8,17.453,8,23.102c0,0,17-19.602,21.75-29.102c0,0,4,11.75,7.25,13.75c0,0,3.5-15.75,17.167-29.083
			c0,0,12.333-10.666,18.333-22.666l-4.333-0.667c0,0-8,16.999-19.333,25.333c0,0-10.118,12.524-12,18.667l-6.667-12.667
			c0,0-17.972,28.066-20.333,30.334c0,0-7.5-20.334-13.667-30.834c0,0,4.666,12.667-1.667,20.5c0,0-8.933-31.577-24.5-35.334
			c0,0-48.666-11.832-41.833-80.666c0,0-4.167,24.833-1.5,39.833c0,0-0.757,9.929-1.833,10.667c0,0-10.667-35.001-9.667-50.334
			c0,0-2.333-67.833,58.667-92.833c0,0-13.583,3.25-19.583-2.25c0,0,14.5-2.75,25.5-11.25c0,0,58.75-55.5,88.75-5.75
			L232.965,574.631z"/>
		<path fill="#8D3922" d="M73.614,378c0,0-59.333-13.444-42.667,63.945c0,0-40.667,63.056,29.667,68.389c0,0,13,61.334,74.333,14.5
			l-4.833-3c0,0-48.667,49.666-68.5-15.167c0,0-64.667,5.166-28.333-66.167c0,0-18.166-67,40.167-60.833L73.614,378z"/>
		<path fill="#8D3922" d="M513.399,442.62c4.945-22.964,3.856-36.538-1.045-46.229c-0.571,0.95-1.489,1.472-2.365,2.187
			c8.457,18.092,1.077,42.598,1.077,42.598c36.333,71.332-28.333,66.166-28.333,66.166c-19.834,64.834-68.5,15.168-68.5,15.168
			l-4.834,3c61.333,46.834,74.334-14.5,74.334-14.5C554.066,505.676,513.399,442.62,513.399,442.62z"/>
		<path fill="#8D3922" d="M470.646,418.172c-2.595,0.116-5.161-0.64-7.104-2.427c-1.361,6.81-3.01,13.605-5.005,20.255
			c0,0,25.611,65.867-71.562,94.51c-0.761,1.713-1.964,3.208-3.592,4.265c7.979-2.164,16.06-4.718,24.153-7.774c0,0,84.5-27,60.5-91
			C468.037,436,469.252,429.303,470.646,418.172z"/>
	</g>
	<ellipse fill="#8D3922" cx="265.037" cy="441.944" rx="14.49" ry="8.75"/>
	<ellipse fill="#8D3922" cx="352.03" cy="424" rx="5.75" ry="12.5"/>
	<ellipse fill="#8D3922" cx="169.677" cy="424" rx="5.75" ry="12.5"/>
	<path fill="#8D3922" d="M198.28,290.667c-13.333,5-32.667-5.667-32.667-5.667c-7.667-5-13.667-3.667-13.667-3.667
		c-22.664,6.667-18.94,22.162-18.939,22.167c0.492-1.094,0.586-1.378,1.686-2.612c0.015-0.925,0.168-2.578,0.502-3.487
		c1.2-3.27,2.818-5.258,5.598-7.258c0.695-0.5,1.451-0.872,2.209-1.262c3.925-2.016,8.505-3.755,12.925-2.361
		c3.916,0.272,7.471,2.987,11.083,4.271c4.112,1.46,8.896,2.118,13.217,2.599c5.292,0.59,10.732,0.883,16.053,0.61
		c12.927,2.677-0.333,21.667-0.333,21.667C219.947,297.667,198.28,290.667,198.28,290.667z"/>
	<path fill="#8D3922" d="M136.528,305.994c-1.01-1.5-1.663-3.219-1.803-4.987c-0.432-1.587-0.57-2.587-0.57-2.587l-1.147,5.081
		c12.728,41.5,62.939,12.167,62.939,12.167l2.23-3.651C156.238,333.56,141.489,316.92,136.528,305.994z"/>
	<path fill="#8D3922" d="M163.902,204.5c-3.364-12.187-6.534-19.134-13.202-29.906c-2.584-4.176-6.69-9.011-10.936-11.566
		c-1.055-0.635-2.206-1.178-3.39-1.529c-4.469-1.326-8.603-1.851-13.165-0.838c-9.637,2.138-17.467,9.764-24.055,16.675
		c-7.353,7.714-12.86,16.604-18.875,25.331c-0.018,0.026-9.64,14.008,18.333,21.667l13.979-0.239l2.909-4.657
		c0,0-31.554,8.896-32.554-14.771c0,0,29.667-46.333,48.667-41.333c0,0,26.446,9.922,29.779,42.922L163.902,204.5z"/>
	<path fill="#8D3922" d="M115.148,219.531c0,0,27.897-5.078,46.73-14.245l2.023-0.787c0,0,3.725,6.454-51.982,18.12"/>
	<path fill="#8D3922" d="M179.28,148c0,0,16.5,104,122.5,184.5c0,0,149.5,92.5,188,98.5l57.833-74l-62,67
		c0,0-32.667-8.209-182-98.271c0,0-105.333-81.396-120-182.062L179.28,148z"/>
	<path fill="#8D3922" d="M159.114,192.232c0,0,11.333-8.398,30-15.898l-3.5-7.333c0,0-17.504,7.668-29.502,18.167L159.114,192.232z"
		/>
	<path fill="#8D3922" d="M179.28,148c0,0,30.49-37.083,75.469-69.417l2.651,2.057c0,0-71.287,62.193-74.454,69.86"/>
	<path fill="#8D3922" d="M252.28,82.75c0,0,98,61.75,147,102.75c0,0,89.436,74.273,144.968,175.137l3.365-3.637
		c0,0-81.501-120.5-147.667-174.5c0,0-110.666-82.5-144.666-103.167"/>
	<path fill="#8D3922" d="M356.886,153.047c0,0,19.395-91.047,72.395-48.547c0,0,58.5,69,83.5,78.5c0,0,91.391,79.299-28.305,89.149
		L482.281,270c0,0,65.667-6.333,61.5-29.167c0,0,3.333-29.167-33.667-56.167c-24.018-14.957-48.015-33.646-65.816-55.674
		c-3.325-4.114-6.507-8.34-9.773-12.501c-4.204-5.356-9.551-13.558-16.265-16.052c-3.773-1.401-8.585-1.157-12.563-1.719
		c-14.324-2.022-24.56,5.876-32.734,17.225c-7.95,11.036-11.56,25.276-14.27,38.406"/>
	<path fill="#8D3922" d="M278.99,94.968c0,0,15.001-82.968,77.896-41.968c0,0,26.74,15.08,34.317,42.79l-2.185,5.459
		c0,0-11.488-50.499-65.738-56.999c0,0-33,6.25-43,54.75l-1.29-3"/>
	<path fill="#8D3922" d="M529.463,331.229c0,0,54.817,18.271,67.817-47.229c0,0-7.901-48.685-52.117-39.842l-1.73,2.057
		c0,0,39.181-12.382,52.015,37.785c0,0-11.03,61.389-68.182,44.194v3.139L529.463,331.229z"/>
</g>
<path fill="#8D3922" d="M193.273,314.42c0,0,5.452-1.075,7.943-9.393l-1.728,7.782c0,0-3.343,3.156-5.666,4.007
	s-0.1,0.051-0.1,0.051l-0.565-2.393"/>
</svg>
