<?xml version="1.0" encoding="utf-8"?>
<!-- Generator: Adobe Illustrator 16.0.0, SVG Export Plug-In . SVG Version: 6.00 Build 0)  -->
<!DOCTYPE svg PUBLIC "-//W3C//DTD SVG 1.1//EN" "http://www.w3.org/Graphics/SVG/1.1/DTD/svg11.dtd">
<svg version="1.1" xmlns="http://www.w3.org/2000/svg" xmlns:xlink="http://www.w3.org/1999/xlink" x="0px" y="0px"
	 width="841.89px" height="425.2px" viewBox="0 0 841.89 425.2" enable-background="new 0 0 841.89 425.2" xml:space="preserve">
<g id="圖層_1" display="none">
	
		<image display="inline" overflow="visible" opacity="0.5" width="1536" height="2048" xlink:href="../../Downloads/67408bfd-60be-45f0-9003-0f5ac80a6395.jpg"  transform="matrix(0.004 -0.3441 0.4379 0.005 -13.4673 451.7217)">
	</image>
</g>
<g id="圖層_5">
	<rect fill="#EDEBB2" width="841.89" height="425.199"/>
</g>
<g id="圖層_4">
	<polyline fill="#E8CE5D" points="132.667,425.2 126.667,404.333 122.333,369.333 127.5,319.609 152.667,289.333 184.536,264.5 
		202.699,257.805 204.667,252.167 220.333,234 248.125,209.375 287.25,187.625 327.125,173.875 359.25,167.25 378.5,164.75 
		401.5,163.375 427,164.75 458.75,167.625 487.75,172.875 528.25,182.375 572.191,199.831 609.25,223.625 633.644,246.5 
		648.66,266.854 648.66,268.023 655.583,271 681.917,284.417 708.667,303.5 726.75,330 731,351.666 728.25,386 709.583,425.2 
		136,425.199 	"/>
	<path fill="#E08724" d="M129.75,425.2h-65L53,414.25l-12-30.5c0,0-1.5-17.859,0-20.055s17.5-21.445,17.5-21.445L82,330.5
		l3.042-32.5L97.5,277.25l16.25-12.75l22.25-5h26.5l23.5,5l-29.5,19.75l-21,27l-10.195,29.482L121.25,377l8.75,38.927L129.75,425.2z
		"/>
	<path fill="#E08724" d="M708.667,425.199h62.666l12-16.199L795,385.166l-2.667-21.471l-13.166-17.862l-16.667-12l-9.667-3.5
		l-0.999-20L745.5,286l-17.333-17.668l-24.5-8.331c0,0-20.834-0.332-21.334,0s-28.666,3.332-28.666,3.332L647.833,265l0.827,3.023
		l1.507,0.853l6.25,2.208l13.041,5.667l19.584,10.708l22.292,18.875l13.417,20.084c0,0,8.083,27.333,7.833,27.333
		s-8.666,38.5-8.666,38.5l-8.917,22.166L708.667,425.199z"/>
	<path fill="#E08724" d="M267.688,195.25l-12.188-8.625c0,0-11.625-0.25-12.25,0s-17.875,7.75-18.375,8s-14.625,12.375-15,12.625
		s-4.5,5.875-4.5,5.875l0.625,4.75l5.875,4.125l6.625,1.875l7.601,1.546l2.649,0.141l12.875-11.124l16.938-11.313l10.015-5.945
		L267.688,195.25z"/>
	<path fill="#E08724" d="M572.063,200.25c0.129-0.419,6.313-7.063,6.313-7.063s6.875-4.188,7.188-4.25s10.375-1.875,11.125-1.813
		S612,192.188,612,192.188l11.75,7.5l11.875,9.625c0,0,0.938,4.25,0.688,4.563s-4.125,5.875-4.375,6s-10.688,3.563-10.938,3.563
		s-8.188,1.182-8.188,1.182l-18.688-12.432L572.063,200.25z"/>
	<path fill="#51A6D6" d="M0,266.625v-135.75l10.25-1.75l14.5,2.5l11.035,3l14.59,7.563L61,148.938c0,0,11,11.125,11.188,11.25
		s5.612,3.099,5.612,3.099l0.701,0.964l9.188-4.563l22-11.688l30.063-17.375L165.625,114l27.001-17.75l16.499-12.75l21.125-16.875
		l19.125-17.964L264.5,32.125l4.875-5.625l-7.244-26.375H370.75l7.75,12l11.25,25l5.5,29.125l1,22.75l-2.125,21.5l-5.375,24.875
		l-12.193,29.752L336.75,171.5l-29.5,8.5l-33.125,13.375l-4.29,2.618l-14.585-8.118l-14.875-0.375l-16.31,7.885l-15.506,13.602
		l-2.872,6.638l3.438,5.751l6.368,1.774l7.33,1.729l5.319,0.668l-18.356,20.808l-5.12,5.938l-3.417,7.333l-15.25,5l-24.625-5.25
		l-36.875,0.25l-16.75,7.75L90.375,283.75L79.5,285.375L60.125,283.5l-16.75-2.125l-17.625-4.5L0,266.625z"/>
	<polygon fill="#EEF1C3" points="0,130.875 0,0 262.641,0 267.25,21.625 268.192,27.173 253.288,45.625 237.015,60.625 
		215.791,78.458 191.125,96.375 161.174,117.063 126.977,138.177 88.25,158.75 77.375,164 63.125,150.875 46.069,139.566 
		26,132.125 	"/>
	<path fill="#D1D1D1" d="M247.333,185.917c0,0,6.25,1.083,6.583,1.25s9.667,4.833,9.667,4.833l4.32,3.718l11.538-4.489l15.976-6.887
		c0,0,14.148-5.008,14.437-5.091s18.563-6.333,18.563-6.333l6.25-1.75c0,0,1.417-5.75,1.417-6.083s-2.083-7.649-3.167-8.366
		s-9.417-5.634-9.667-5.634s-13-2.458-13-2.458l-12.875,0.563l-7.813,1.688l-11.125,4.063l-13.125,8.438
		c0,0-8.625,8.843-8.813,8.796s-7.563,9.255-7.563,9.255L247.333,185.917z"/>
	<path fill="#D1D1D1" d="M245.708,137.957c-0.083,0.418,1.521,3.168,1.625,3.293s3.604,2,3.792,2.063S257.53,144,257.859,144
		s8.079-0.5,8.704-0.625s2.375-0.813,2.375-0.813s0.188-2.875,0.313-3.375s0.5-3.438,0.25-3.75s-2.063-2-3.25-2.125
		s-4.313-1.438-5.563-1.625s-4.75-0.875-5.875-0.688s-7.188,2.563-7.188,2.563l-1.313,1.813L245.708,137.957z"/>
	<path fill="#D1D1D1" d="M187.072,206.038c0,0,6.553-1.6,6.74-1.663s5.375-3.313,5.875-3.813s9-8.25,9-8.25l7.438-10.886
		l6.625-8.552l4.625-7.5c0,0-6.5-7.188-6.688-7.188s-6.875-1.375-8-1.375s-9.813,1.188-9.938,1.375s-10.875,11.438-11.063,11.563
		s-7.625,12.875-7.625,12.875l-3.563,11.438l-0.813,5.563l3.563,5.327L187.072,206.038z"/>
	<path fill="#E3732D" d="M621.5,132.625c0.375,0.125,9.75-0.5,10.625,0s13.75-3,14.125-3S661.875,123,661.875,123l14-7.625
		L711.5,95.122l2.875-3.372l3.5-16.904c0,0-0.125-13.971,0-14.471S713.75,49.75,713.75,49.75l-2.25-4.5
		c0,0-17.625-6.499-18.125-6.437s-16.125-0.688-16.5-0.688s-11.75,2.97-11.75,2.97S658.5,52.625,658.375,53s-16,25.25-16,25.25
		l-14.75,26.875l-5.375,15.625l-2,10.027L621.5,132.625z"/>
	<path fill="#398B39" d="M715.618,89.375l10.132-3.976l21.125-5.524l15.625-3.75l10.75-1.875l22.375-3.375l30-3.5h16.265V0H677.625
		L676.5,9.5L673.365,26l-3.49,9.423l-1.812,4.452l10.604-1.75c0,0,5.083-1.25,5.583-1.25s8.332,1.938,8.729,1.938
		S704.625,41.5,705,41.625s8.125,4.625,8.125,4.625l3.75,7.375l1.003,12.25l-0.503,13.25L715.618,89.375z"/>
	<path fill="#398B39" d="M423.242,46.71c0,0-1.023,17.124-1.216,17.624c-0.193,0.5,0,22.5,0,22.5l2.844,23.5L433.667,140
		l14.587,26.193l21.146,3.36l16.934,2.618L504,175.667l20.381,5.8l23.718,8.792l18.148,7.21l4.622,0.777l7.506-5.059
		c0,0,12.445-6.607,13.459-6.064s11.75-0.876,12.375,0s16.041,8.543,16.041,8.543l13.394,12.04c0,0,2.543,4.396,2.608,4.893
		s-4.272,6.4-4.929,6.567s-5.866,2.867-5.866,2.867l-7.535,1.832l-5.109,0.753l3.688,3.714l12.417,13.001l11.333,14.12
		c0,0,6.666,9.63,6.583,9.88s19.395-3.366,19.395-3.366l15.773-3.301l-17.668-15.893l8.834-1.774l19.083-1.917l22.5-1.5l23.667,0.25
		l25.083,1.501l23.583,3.333l35.314,8.41l19.492,6.09v-91.583l-20.473,0.583L801,167.75l-21.417,2.75l-14.166,3.583l-19.244,6
		l-10.34,4.833l-11.5,6.75l-2.25,3.333l0.584,2.333l4.833,0.167l31.5,1l-12.827,2.083L731,204l-30.167,9.333l-24,9.167l-17.5,8.167
		l-4.25,4.417l-6.5-9.084l-7.833-13l-5.167-18.917l-0.166-20.333l5.083-21.333l11.917-25.585l-11.834,3.251
		c0,0-13.166,3.917-13.416,3.917s-6.417-3.167-6.417-3.167l4.089-17.61l7.076-16.556l-27.082,11.917L570.25,117l-24.333,1.5
		l-29.75-1.75L483.5,106.333l-24.417-15.667l-20.75-23L427,51.5L423.242,46.71z"/>
	<path fill="#296533" d="M434,0l-7.333,22.688L423.5,45.167l7.764,12.415l13.546,17.264l23.747,21.9l31.11,16.088l24.166,5.667
		l37.834,1c0,0,28.833-5.667,29.333-6s40.915-16.833,40.915-16.833l15.323-26.046c0,0,15.929-24.912,16.596-25.933
		s5.229-5.875,5.229-5.875L673.365,26l4.26-26H434z"/>
	<path fill="#296533" d="M664.333,242.774L683,258.667l17.833,1.187L718.5,262.5c0,0,7.333,6.167,7.833,6.5s8.09,2.647,8.09,2.647
		l8.827-1.46l29.313-4.841l19.313-4.784l25.563-8.875l3.438-1.854l-25.375-5.896l-33.199-4.676l-22.377-1.339h-26.861l-17.239,0.922
		l-17.562,1.644L663.75,242L664.333,242.774z"/>
	<path fill="#296533" d="M655.84,234.297l-8.606-10.537l-5.858-8.261l-2.981-10.6l-2.811-10.815v-21.247l9.406-30.712l8.485-15.5
		l33.174-17.375l26.371-15.91l2.599-3.965l29.237-8.972l25.905-5.719L792.75,70.5l38.125-2.5l11.015-0.625v98.208l-22.952,0.479
		l-19.625,1.438l-20.813,3.063L761.75,175l-17,5.875c0,0-13.563,7.007-13.75,6.878s-8,4.747-8,4.747s-0.62,3.687-0.572,3.877
		s2.385,1.373,2.697,1.435s10.25-0.063,10.25-0.063l26.25,0.875l-23.188,3.813l-20.75,5.5l-17.375,5.375l-21.875,8.375
		l-14.688,6.563l-6.313,3.688L655.84,234.297z"/>
	<path fill="#F7F7F7" d="M769.418,172.583l10-1.417l16.744-3.204l15.016-1.003l18.323-0.96h12.389l0.111-74.333
		c0,0-37.251,12.5-37.667,12.75s-23.833,13.666-24.083,13.833s-13.417,9.917-13.417,9.917l-7.5,13.75c0,0-1.082,9.416-1.166,10.083
		s1.25,7.667,1.25,8s5.416,8.833,5.416,8.833L769.418,172.583z"/>
	<path fill="#F7F7F7" d="M553.167,0c0,0,5.334,12.25,5.584,12.667s10.833,8.917,11.083,9.083s14.583,1.75,14.583,1.75
		s13.751-1.083,15.334-1.167s17.082-4.75,17.416-4.75S635.751,10,635.751,10l16.75-10H553.167z"/>
</g>
<g id="圖層_7">
	<path opacity="0.2" fill="#878787" d="M211.25,425.2c0,0-8.741-39.308,15.75-48.45c0,0-9.25,38.9,42.75,48.45H211.25z"/>
	<path opacity="0.2" fill="#878787" d="M553.5,379.25c0,0-20.25,17.648-23.75,45.949L562,425.2
		C562,425.2,540.25,406.75,553.5,379.25z"/>
	<path opacity="0.2" fill="#878787" d="M408.263,257.207c0,0-16.763-4.207,4.987-12.707c0,0,16.75-2.951,34.5-1.726
		c0,0,38,7.257,12.5,13.491"/>
	<path opacity="0.2" fill="#878787" d="M204.667,252.292c0,0,50.083-13.608,81.333-2.45c0,0-37.602-7.732-83.301,7.963
		L204.667,252.292z"/>
	<path opacity="0.2" fill="#878787" d="M646.501,267.5c0,0-25.001-9.836-55.501-10.293c0,0,37.369-2.695,55.833,8.127L646.501,267.5
		z"/>
	<path opacity="0.2" fill="#878787" d="M85,336.6c0,0-61,27.801-12,88.601h35.333C108.333,425.2,44.333,386.532,85,336.6z"/>
	<path opacity="0.2" fill="#878787" d="M122.333,269.667c0,0-39.667,10-29,46.333C93.333,316,92,285.667,122.333,269.667z"/>
	<path opacity="0.2" fill="#878787" d="M687.116,285.375c0,0,69.217,38.074,61.884,116.85c0,0,11.333,22.441,27,19.108l-2.069,3.867
		h-64.348L731,375.667c0,0,1.001-22,1.334-23S726,329.333,726,329.333l-18.666-26L687.116,285.375z"/>
	<path opacity="0.2" fill="#878787" d="M693.334,265.347c0,0,37.999,0.895,43.666,28.94C737,294.287,720.001,271.36,693.334,265.347
		z"/>
	<path opacity="0.2" fill="#878787" d="M0,130.875l12.983-1.279l20.057,2.529c0,0,146.96-61.875,187.46-132L0,0V130.875z"/>
	<path opacity="0.2" fill="#878787" d="M358,13c0,0,32.5,75.657-10,154.829l20.667-1.802C368.667,166.027,414,60.5,358,13z"/>
	<path opacity="0.2" fill="#878787" d="M452.5,0.125c0,0-32.5,81.125,6.25,167.5l25.113,4.546c0,0-30.271-108.171,16.183-172.171
		L452.5,0.125z"/>
	<path opacity="0.2" fill="#878787" d="M669.063,237.923c0,0,96.437-39.923,143.937-37.923c0,0-47.027-9.119-74.264-2.81
		l21.014,1.56c0,0-25.166,4.708-25.327,4.751s-31.806,9.098-31.806,9.098l-38.867,15.65l-10.786,7.772l-2.402,7.848L669.063,237.923
		z"/>
	<path opacity="0.2" fill="#878787" d="M710.25,236.022c0,0,84.029-8.522,131.64,16.478l0.111-8.939
		C842.001,243.561,772.75,222.795,710.25,236.022z"/>
</g>
<g id="圖層_6">
	<path opacity="0.2" fill="#FFFFFF" d="M348,334.666c0,42.158-46.113,7.935-102.997,7.935s-102.997,34.224-102.997-7.935
		s46.113-76.334,102.997-76.334S348,292.508,348,334.666z"/>
	<path opacity="0.2" fill="#FFFFFF" d="M704.756,354.566c-5.373,41.814-46.748,1.993-103.167-5.256
		c-56.42-7.249-106.52,20.818-101.146-20.996s55.466-69.835,111.886-62.585C668.747,272.979,710.129,312.752,704.756,354.566z"/>
	<ellipse opacity="0.2" fill="#FFFFFF" cx="61.187" cy="179.425" rx="18.788" ry="18.699"/>
	<ellipse opacity="0.2" fill="#FFFFFF" cx="294.317" cy="26" rx="18.788" ry="18.699"/>
	<polygon opacity="0.2" fill="#FFFFFF" points="629,126.832 708.25,90.667 704,58.5 	"/>
</g>
<g id="圖層_2">
	<path fill="#893822" d="M127,425.2c0,0-58.5-161.2,124-177.2c0,0-167,13.066-115,177.2H127z"/>
	<path fill="#893822" d="M620.667,260.001c0,0,167.333,35.732,83.333,165.199h8.667C712.667,425.2,801.334,303.335,620.667,260.001z
		"/>
	<path fill="#893822" d="M200.188,257.794c0,0,45.813-92.127,202.813-95.127c0,0,196.438-1.003,246.553,105.665l-3.052-0.832
		c0,0-51.501-99.167-242.834-102.5c0,0-134.333-4.332-201.333,93.334L200.188,257.794z"/>
	<path fill="#893822" d="M200.188,425.2c0,0-17.521-66.533,65.146-61.2c0,0,57.333-0.267,65.333,61.2h-7.333c0,0-2.667-59.2-66-57.2
		c0,0-61.333-8.933-52,57.2H200.188z"/>
	<path fill="#893822" d="M648,425.199c0,0,17.521-66.533-65.146-61.199c0,0-57.333-0.268-65.333,61.199h7.333
		c0,0,2.667-59.199,66-57.199c0,0,61.334-8.934,52.001,57.199H648z"/>
	<path fill="#893822" d="M188.777,261.979c0,0-115.446-34.645-109.446,66.688c0,0-84,30.399-18.667,96.533h5.333
		c0,0-60.667-62.532,20-93.866c0,0-14.515-94.67,99.076-63.002L188.777,261.979z"/>
	<path fill="#893822" d="M645.818,261.979c0,0,115.445-34.645,109.445,66.688c0,0,84,30.399,18.667,96.533h-5.333
		c0,0,60.666-62.532-20-93.866c0,0,14.515-94.67-99.076-63.002L645.818,261.979z"/>
	<path fill="#893822" d="M270.939,197.45c0,0-21.939-36.783-66.272,12.884c0,0-9.802,18.036,26.766,14.851
		c0,0-34.433-3.185-20.099-16.518c0,0,30.667-35.667,55.667-11.667L270.939,197.45z"/>
	<path fill="#893822" d="M569.622,200.349c0,0,18.729-38.517,67.13,7.195c0,0,11.301,17.135-25.404,17.075
		c0,0,34.036-6.104,18.62-18.169c0,0-33.593-32.925-56.458-6.884L569.622,200.349z"/>
	<ellipse fill="#893822" cx="434.25" cy="254" rx="30.75" ry="6.001"/>
	<path fill="#893822" d="M266.92,235.695c0,0.001,2.668,10,26,6.667c4.156,0,8.387,0.521,12.438,1.417
		c6.91,1.531,16.942,8.01,23.212,1.08c5.341-5.901,1.311-14.883-1.983-20.665c-1.953-3.429-6.859-6.231-10.028-8.226
		c-7.948-5.002-16.56-7.162-25.577-3.641C283.556,215.229,264.147,225.3,266.92,235.695z"/>
	<path fill="#893822" d="M583.162,240.695c0,0-2.668,10-26,6.666c-4.155,0-8.387,0.521-12.438,1.418
		c-6.91,1.531-16.941,8.01-23.212,1.08c-5.341-5.902-1.311-14.883,1.982-20.666c1.953-3.429,6.859-6.23,10.028-8.225
		c7.947-5.002,16.561-7.163,25.576-3.641C566.527,220.229,585.936,230.299,583.162,240.695z"/>
	<path fill="#893822" d="M368.667,0c0,0,54.788,59.803,5.394,166.568l4.211-2.643c0,0,48.395-81.259-5.605-163.926H368.667z"/>
	<path fill="#893822" d="M0,264.5c0,0,45,23.5,92,18v5c0,0-60.5-1.336-92-19.168V264.5z"/>
	<path fill="#893822" d="M0,204.952c0,0,58.333-7.382,67.333,0c0,0,57-17.285-13.667-62.618c0,0-27.667-18.667-53.667-14.667V134
		c0,0,45.667-13.333,85.667,44c0,0,5,18.667-17,23c0,0-43.333-6.333-68.667,1.667V204.952z"/>
	<path fill="#893822" d="M328.017,0h-3.958c-7.609,19.699-11.497,40.165-11.497,40.165c-11.285,19.376-27.292,8.551-27.292,8.551
		C271.926,30.369,265.816,13.892,263.644,0h-3.027c0.71,4.232,1.399,6.819,1.399,6.819c19.754,81.601,54.715,33.376,54.715,33.376
		C314.513,34.195,321.381,15.563,328.017,0z"/>
	<line fill="#893822" x1="324.058" y1="0" x2="328.017" y2="0"/>
	<line fill="#893822" x1="260.617" y1="0" x2="263.644" y2="0"/>
	<path fill="#893822" d="M430,0c0,0-29.376,99.757,15.646,165.212l3.604,1.356c0,0-49.361-71.901-11.306-166.568H430z"/>
	<path fill="#893822" d="M841.89,258.667c0,0-76.89-34.999-190.89-13.333c0,0-5-9.333,15.333-19c0,0,70.333-31.001,97-27.334
		c0,0-22.371-1.27-41.019-0.301c0,0-6.147-3.532,3.02-8.699c0,0,36.111-26.333,116.556-25.167v1.667c0,0-79.056-2.467-117.056,26.1
		c0,0-3.833,3.734,0.667,4.067l46.333,1.833c0,0-48.666,1.833-106,30c0,0-12.834,5-13.167,15c0,0,102.945-20.969,189.223,12.766
		V258.667z"/>
	<path fill="#893822" d="M729,270.334c0,0,42.501-1,90.667-20.5l3.333,1c0,0-41.833,17.332-92.833,21.166L729,270.334z"/>
	<path fill="#893822" d="M75.074,164.527c0,0,147.127-72.485,195.193-141.84l0.672,3.178c0,0-44.485,65.524-194.545,140.163
		L75.074,164.527z"/>
	<polygon fill="#893822" points="198.635,0 251,48.502 253.288,43.328 203.473,0 	"/>
	<polygon fill="#893822" points="89.056,0 188.777,97.071 192.626,94.358 92,0 	"/>
	<polygon fill="#893822" points="124.604,137.679 0,19 0,22.688 121.325,139.566 	"/>
	<path fill="#893822" d="M280.218,69.341c0,0,16.225,5.13,33.233-7.131c0,0,11.273-6.034,15.507,3.126
		c0,0,5.502,27.584-19.847,25.588c0,0-35.013-0.706-36.438-16.619C272.674,74.306,275.384,68.468,280.218,69.341z"/>
	<path fill="#893822" d="M113.96,175.712c0,0-0.228,17.015-17.212,29.31c0,0-9.271,8.806-1.905,15.703
		c0,0,24.458,13.891,30.529-10.801c0,0,10.331-33.462-4.328-39.814C121.044,170.11,114.65,170.849,113.96,175.712z"/>
	<path fill="#893822" d="M715.618,94.423c0,0-84.09,51.994-97.025,40.166c0,0-9.034-12.841,45.004-93.494l2.793,2.863
		c0,0-48.231,68.704-42.279,87.694c0,0,17.1,3.924,89.414-39.377L715.618,94.423z"/>
	<path fill="#893822" d="M715.618,94.423c0,0,11.021-35.205-2.176-49.925c0,0-28.707-18.211-50.229-3.039l2.793,2.863
		c0,0,16.378-13.416,44.904,2.646c0,0,10.452,9.944,2.23,45.672L715.618,94.423z"/>
	<path fill="#893822" d="M422.026,44.002c0,0,51.349,127.218,206.161,56.608l3.136-6.252c0,0-135.653,78.832-208.988-53.263
		L422.026,44.002z"/>
	<path fill="#893822" d="M649.553,129.407c0,0-39.496,62.138,5.976,106.616l0.806-2.522c0,0-44.666-37-0.806-106.668
		L649.553,129.407z"/>
	<path fill="#893822" d="M662.794,243.27c0,0,18.957,15.397,19.207,15.397s2.666,0,2.666,0l-18.7-15.893L662.794,243.27z"/>
	<path fill="#893822" d="M715.618,90.667c0,0,54.494-22.667,126.271-20.667v-6c0,0-86.987,7.767-126.271,24.717"/>
	<path fill="#893822" d="M668.063,38.813c0,0,8.604-23.146,8.271-38.813h2.333c0,0-0.667,16.626-8.667,38.813H668.063z"/>
	<circle fill="#893822" cx="570.622" cy="51.346" r="23.5"/>
	<circle fill="#893822" cx="729" cy="162.667" r="23.5"/>
	<path fill="#893822" d="M551.173,0c0,0,8.495,58.5,105.161,0h-6.781c0,0-82.553,49.5-94.053,0H551.173z"/>
	<path fill="#893822" d="M767.459,172.837c0,0-56.18-42.403,74.431-84.12v6.405c0,0-117.962,32.079-70.426,76.729L767.459,172.837z"
		/>
	<path fill="none" stroke="#893822" stroke-width="2" stroke-miterlimit="10" d="M179.33,199.385c0,0,5.636-33.813,26.685-41.764
		c0,0,15.111-4.864,21.601,7.978C227.616,165.599,192.867,225.939,179.33,199.385z"/>
	<path fill="none" stroke="#893822" stroke-width="2" stroke-miterlimit="10" d="M246.227,134.573c0,0,11.605-7.364,23.3,0.614
		c0,0,2.101,7.405-2.458,8.22C267.069,143.407,241.811,148.891,246.227,134.573z"/>
	<path fill="#893822" d="M249.312,184.414c0,0,21.938-43.414,70.688-33.414c0,0,18.75,2.75,13.75,21l3.75-0.75
		c0,0,7.75-17.991-16.25-21.746c0,0-45.498-12.676-75.874,34.91H249.312z"/>
	<g>
	</g>
	<g>
	</g>
	<g>
	</g>
	<g>
	</g>
	<g>
	</g>
	<g>
	</g>
</g>
</svg>
