<?xml version="1.0" encoding="utf-8"?>
<!-- Generator: Adobe Illustrator 16.0.0, SVG Export Plug-In . SVG Version: 6.00 Build 0)  -->
<!DOCTYPE svg PUBLIC "-//W3C//DTD SVG 1.1//EN" "http://www.w3.org/Graphics/SVG/1.1/DTD/svg11.dtd">
<svg version="1.1" id="圖層_1" xmlns="http://www.w3.org/2000/svg" xmlns:xlink="http://www.w3.org/1999/xlink" x="0px" y="0px"
	 width="841.89px" height="425.2px" viewBox="0 0 841.89 425.2" enable-background="new 0 0 841.89 425.2" xml:space="preserve">
<g>
	<g id="圖層_1_1_">
		<g>
			<path fill="#52A6D6" d="M247.428,108.866c16.043,42.796-23.012,59.301-71.947,77.645c-48.934,18.343-89.217,31.577-105.259-11.22
				c-16.043-42.797,10.622-92.36,59.556-110.703C178.713,46.245,231.387,66.067,247.428,108.866z"/>
			<path fill="#52A6D6" d="M79.248,189.31c0.873,6.609,21.416,20.754,21.416,20.754c20.632,18.244,19.35,6.996,19.35,6.996
				c-9.386-9.3-6.313-32.294-6.313-32.294"/>
			<path fill="#52A6D6" d="M216.619,92.444c0,0,17.761-14.921,17.09-28.119c0,0,8.565-8.935,11.525,18.448
				c0,0,4.662,23.65,3.133,30.128"/>
			
				<ellipse transform="matrix(-0.9364 0.351 -0.351 -0.9364 275.8352 82.6539)" fill="#52A6D6" cx="130.426" cy="66.328" rx="10.342" ry="16.689"/>
			<path fill="#001117" d="M111.379,172.641c1.113,2.972,0.53,5.939-1.304,6.627c-1.835,0.687-4.226-1.165-5.339-4.137
				c-1.115-2.974-0.715-3.628,1.118-4.317C107.689,170.126,110.265,169.668,111.379,172.641z"/>
			<path fill="#001117" d="M220.007,131.329c1.114,2.971,0.533,5.938-1.303,6.627c-1.834,0.688-4.225-1.166-5.339-4.138
				c-1.114-2.973,1.033-4.007,2.867-4.695C218.066,128.435,218.894,128.356,220.007,131.329z"/>
			<path fill="#EEF1C4" d="M128.967,201.494c0,0-14.45-6.862-4.606-20.955c0,0,21.844-5.266,43.821-13.505l9.318,19.598
				C177.5,186.632,158.599,194.077,128.967,201.494z"/>
			<path fill="#EEF1C4" d="M219.705,167.598c0,0,6.686-14.159-10.248-18.957c0,0-19.925,10.39-41.9,18.627l5.859,20.893
				C173.417,188.162,192.499,181.487,219.705,167.598z"/>
			<circle fill="#D1D1D1" cx="144.921" cy="101.225" r="3.832"/>
			<circle fill="#D1D1D1" cx="158.426" cy="82.712" r="10.12"/>
			<circle fill="#D1D1D1" cx="115.826" cy="87.372" r="4.184"/>
			<circle fill="#D1D1D1" cx="173.89" cy="105.271" r="3.557"/>
			<circle fill="#D1D1D1" cx="99.211" cy="106.811" r="1.782"/>
			<line fill="none" stroke="#D1D1D1" stroke-miterlimit="10" x1="129.163" y1="179.313" x2="136.852" y2="199.827"/>
			<line fill="none" stroke="#D1D1D1" stroke-miterlimit="10" x1="171.146" y1="165.898" x2="178.743" y2="186.163"/>
			<line fill="none" stroke="#D1D1D1" stroke-miterlimit="10" x1="149.652" y1="173.388" x2="157.218" y2="193.571"/>
			<line fill="none" stroke="#D1D1D1" stroke-miterlimit="10" x1="189.142" y1="158.351" x2="196.841" y2="178.892"/>
			<line fill="none" stroke="#D1D1D1" stroke-miterlimit="10" x1="206.425" y1="150.352" x2="213.971" y2="170.48"/>
			<g>
				<path fill="#D1D1D1" d="M129.853,117.919c-0.508,1.032-1.008,2.048-1.519,3.089c-0.676-0.513-1.329-1.009-1.984-1.507
					c-0.313-0.238-0.619-0.486-0.937-0.713c-0.383-0.273-0.363-0.26-0.228-0.717c0.399-1.349,0.853-2.687,1.145-4.06
					c0.311-1.457,0.085-2.892-0.691-4.192c-0.477-0.797-1.144-1.396-2.08-1.583c-0.875-0.176-1.64,0.144-2.325,0.665
					c-1.298,0.986-1.894,2.328-1.919,3.933c-0.016,1.001,0.008,2.002,0.014,3.032c-1.183-0.279-2.395-0.565-3.649-0.862
					c-0.02-0.6-0.062-1.203-0.057-1.809c0.011-1.569,0.173-3.115,0.787-4.581c1.131-2.701,3.918-4.604,6.812-4.587
					c1.746,0.011,3.253,0.659,4.416,1.98c0.814,0.925,1.185,2.059,1.348,3.266c0.25,1.853-0.086,3.632-0.671,5.377
					c-0.211,0.627-0.433,1.252-0.667,1.871c-0.067,0.182-0.031,0.254,0.14,0.338C128.473,117.196,129.146,117.552,129.853,117.919z"
					/>
				<path fill="#D1D1D1" d="M134.946,121.891c-1.094,0.938-2.155,1.847-3.24,2.774c-0.261-0.313-0.518-0.621-0.77-0.929
					c-0.273-0.331-0.551-0.658-0.81-1.001c-0.065-0.087-0.122-0.252-0.083-0.336c0.453-0.989,0.925-1.97,1.392-2.953
					c0.01-0.023,0.031-0.042,0.065-0.088C132.646,120.198,133.783,121.036,134.946,121.891z"/>
			</g>
		</g>
	</g>
	<g id="圖層_2">
		<g>
			<g>
				<path fill="#E7251D" d="M193.911,51.152c-2.677,0.016-5.316,0.034-8.014,0.051c0.364-1.941,0.717-3.821,1.073-5.7
					c0.17-0.899,0.367-1.792,0.51-2.695c0.174-1.081,0.164-1.027,1.256-1.22c3.225-0.572,6.485-1.023,9.648-1.844
					c3.36-0.87,6.111-2.831,8.011-5.804c1.163-1.824,1.716-3.835,1.132-5.979c-0.543-2.006-2.008-3.265-3.809-4.15
					c-3.405-1.674-6.819-1.521-10.187,0.097c-2.101,1.01-4.161,2.103-6.299,3.188c-0.649-2.755-1.315-5.576-2.004-8.497
					c1.227-0.667,2.443-1.382,3.705-2.003c3.281-1.609,6.671-2.882,10.365-3.131c6.802-0.458,13.667,3.366,16.645,9.411
					c1.797,3.648,2.015,7.461,0.474,11.26c-1.079,2.66-3.052,4.612-5.398,6.208c-3.598,2.45-7.652,3.603-11.899,4.202
					c-1.527,0.215-3.057,0.4-4.591,0.56c-0.446,0.046-0.558,0.197-0.557,0.641C193.981,47.522,193.936,49.298,193.911,51.152z"/>
				<path fill="#E7251D" d="M190.943,65.893c-3.091-1.303-6.09-2.565-9.153-3.856c0.384-0.875,0.754-1.725,1.13-2.572
					c0.408-0.914,0.8-1.834,1.246-2.73c0.112-0.227,0.399-0.514,0.614-0.521c2.532-0.087,5.065-0.128,7.601-0.178
					c0.058-0.001,0.118,0.02,0.251,0.043C192.071,59.34,191.513,62.583,190.943,65.893z"/>
			</g>
			<g>
				<path fill="#E7251D" d="M211.187,66.238c-1.591-0.741-3.157-1.472-4.761-2.218c0.76-1.047,1.496-2.063,2.235-3.075
					c0.353-0.485,0.721-0.958,1.059-1.454c0.406-0.592,0.385-0.561,1.085-0.368c2.071,0.564,4.129,1.211,6.233,1.614
					c2.234,0.428,4.414,0.038,6.374-1.191c1.201-0.753,2.091-1.789,2.35-3.225c0.24-1.339-0.273-2.496-1.091-3.525
					c-1.547-1.948-3.613-2.814-6.063-2.801c-1.528,0.01-3.054,0.079-4.626,0.121c0.388-1.814,0.787-3.672,1.199-5.596
					c0.913-0.05,1.834-0.133,2.757-0.146c2.394-0.033,4.759,0.165,7.017,1.054c4.158,1.637,7.15,5.829,7.218,10.246
					c0.04,2.664-0.899,4.984-2.878,6.803c-1.386,1.272-3.103,1.875-4.939,2.162c-2.818,0.439-5.544-0.014-8.228-0.851
					c-0.963-0.301-1.922-0.622-2.875-0.957c-0.279-0.099-0.387-0.041-0.511,0.223C212.247,64.108,211.724,65.147,211.187,66.238z"/>
				<path fill="#E7251D" d="M205.293,74.138c-1.467-1.64-2.888-3.229-4.34-4.854c0.472-0.41,0.931-0.81,1.392-1.205
					c0.497-0.427,0.987-0.863,1.504-1.268c0.129-0.104,0.379-0.194,0.509-0.138c1.523,0.659,3.036,1.347,4.55,2.03
					c0.036,0.015,0.065,0.043,0.139,0.096C207.801,70.572,206.56,72.336,205.293,74.138z"/>
			</g>
		</g>
	</g>
</g>
<g>
	<g id="圖層_1_2_">
		<path fill="#E08826" d="M523.338,288.551c5.533,14.295,21.609,21.395,35.902,15.861c14.295-5.535,21.4-21.609,15.865-35.902
			c-5.533-14.295-21.611-21.396-35.904-15.863S517.805,274.254,523.338,288.551z"/>
		<path fill="#E08826" d="M506.748,252.541c4.473,11.553,17.463,17.293,29.012,12.82c11.555-4.471,17.291-17.461,12.82-29.012
			c-4.473-11.553-17.463-17.297-29.016-12.822C508.016,227.998,502.275,240.99,506.748,252.541z"/>
		<path fill="#E08826" d="M512.127,324.846c4.637,11.975,18.105,17.922,30.076,13.287c11.977-4.635,17.928-18.102,13.291-30.076
			s-18.102-17.924-30.078-13.287C513.445,299.402,507.492,312.869,512.127,324.846z"/>
		<path fill="#E08826" d="M330.71,362.926c5.534,14.293-1.568,30.367-15.863,35.902c-14.294,5.533-30.37-1.568-35.903-15.863
			c-5.535-14.297,1.568-30.371,15.863-35.904C309.103,341.527,325.176,348.629,330.71,362.926z"/>
		<path fill="#E08826" d="M318.733,325.131c4.472,11.553-1.269,24.541-12.822,29.012c-11.55,4.473-24.54-1.264-29.012-12.816
			c-4.473-11.555,1.268-24.543,12.818-29.014C301.27,307.84,314.26,313.576,318.733,325.131z"/>
		<path fill="#E08826" d="M363.437,382.211c4.637,11.975-1.314,25.441-13.288,30.076c-11.976,4.635-25.442-1.313-30.077-13.289
			c-4.636-11.975,1.313-25.439,13.289-30.078C345.335,364.285,358.801,370.236,363.437,382.211z"/>
		
			<ellipse transform="matrix(-0.9326 0.361 -0.361 -0.9326 846.5034 366.817)" fill="#E8CE5E" cx="388.99" cy="262.474" rx="126.209" ry="120.2"/>
		<path fill="#E8CE5E" d="M421.976,327.59c7.89,20.381-10.313,46.424-40.654,58.17c-30.34,11.744-61.333,4.748-69.222-15.633
			c-7.888-20.377,10.313-46.42,40.655-58.166C383.095,300.215,414.087,307.213,421.976,327.59z"/>
		<path fill="#E8CE5E" d="M538.469,282.494c7.891,20.381-9.92,46.271-39.775,57.83c-29.859,11.559-60.459,4.406-68.348-15.973
			c-7.89-20.377,9.918-46.268,39.775-57.826C499.98,254.967,530.58,262.117,538.469,282.494z"/>
		<g>
			<path fill="#E08826" d="M425.169,131.276c0.003-0.006,16.108-32.408,45.261-10.438c0,0,33.986,25.811,6.711,29.604
				c-9.35,0.72-18.725,1.45-27.949,3.168c-4.541,0.845-9.063,1.915-13.439,3.388c-5.19,1.749-11.642,7.884-16.517,2.781
				c-3.627-3.798-4.221-8.015-2.508-12.923C418.71,141.185,422.528,136.585,425.169,131.276z"/>
		</g>
		<g>
			<path fill="#E08826" d="M247.939,209.463c0-0.007,8.001-35.298,41.515-20.833c0,0,39.119,17.056,13.51,27.183
				c-8.911,2.905-17.848,5.827-26.405,9.678c-4.212,1.893-8.352,3.998-12.26,6.467c-4.631,2.926-9.449,10.41-15.392,6.602
				c-4.424-2.834-5.995-6.789-5.488-11.965C244.004,220.613,246.628,215.243,247.939,209.463z"/>
		</g>
		
			<ellipse transform="matrix(-0.9325 0.3611 -0.3611 -0.9325 941.2089 459.6016)" fill="#272828" cx="427.669" cy="317.728" rx="6.034" ry="3.285"/>
		<path fill="#E08826" d="M359.745,277.428c3.849,3.564,3.653,17.229-4.487,26.018s-21.144,9.375-24.991,5.813
			c-3.846-3.563,7.816-5.98,15.956-14.77C354.363,285.699,355.897,273.865,359.745,277.428z"/>
		<path fill="#E08826" d="M473.242,210.269c1.693,4.963-9.953,1.178-21.287,5.052c-11.338,3.873-18.074,13.939-19.768,8.977
			c-1.698-4.964,5.768-16.527,17.105-20.4C460.629,200.023,471.543,205.307,473.242,210.269z"/>
		
			<ellipse transform="matrix(-0.9325 0.3612 -0.3612 -0.9325 821.8084 477.8962)" fill="#272828" cx="366.247" cy="315.742" rx="3.185" ry="5.99"/>
		
			<ellipse transform="matrix(-0.9326 0.361 -0.361 -0.9326 1013.4353 359.3732)" fill="#272828" cx="473.151" cy="274.344" rx="3.187" ry="5.99"/>
	</g>
	<g id="圖層_2_1_">
		<g>
			<path fill="#E7251D" d="M490.754,155.344c-3.979,0.138-7.898,0.273-11.902,0.412c0.459-2.898,0.906-5.707,1.354-8.513
				c0.215-1.341,0.473-2.678,0.648-4.024c0.213-1.613,0.201-1.531,1.814-1.864c4.768-0.984,9.592-1.792,14.256-3.14
				c4.955-1.433,8.961-4.459,11.658-8.958c1.652-2.756,2.389-5.767,1.436-8.93c-0.893-2.957-3.121-4.767-5.83-6.006
				c-5.131-2.345-10.195-1.976-15.131,0.569c-3.08,1.587-6.094,3.296-9.225,4.997c-1.078-4.065-2.186-8.229-3.33-12.541
				c1.795-1.041,3.57-2.154,5.422-3.128c4.805-2.528,9.789-4.561,15.268-5.083c10.086-0.963,20.441,4.433,25.119,13.288
				c2.818,5.344,3.301,11,1.17,16.708c-1.49,3.996-4.344,6.978-7.762,9.447c-5.242,3.787-11.217,5.67-17.502,6.736
				c-2.258,0.383-4.523,0.721-6.795,1.022c-0.662,0.089-0.822,0.315-0.801,0.976C490.705,149.951,490.715,152.59,490.754,155.344z"
				/>
			<path fill="#E7251D" d="M486.957,177.369c-4.646-1.807-9.154-3.559-13.758-5.348c0.535-1.316,1.047-2.594,1.572-3.867
				c0.568-1.375,1.111-2.76,1.738-4.107c0.158-0.342,0.568-0.781,0.889-0.801c3.76-0.235,7.521-0.399,11.283-0.578
				c0.088-0.004,0.176,0.024,0.379,0.053C488.361,167.586,487.668,172.427,486.957,177.369z"/>
		</g>
		<g>
			<path fill="#E7251D" d="M517.045,177.041c-2.395-1.036-4.754-2.055-7.164-3.097c1.086-1.588,2.137-3.125,3.191-4.663
				c0.504-0.734,1.031-1.453,1.512-2.202c0.578-0.895,0.549-0.85,1.598-0.595c3.102,0.755,6.186,1.63,9.326,2.141
				c3.338,0.542,6.559-0.126,9.42-2.034c1.754-1.169,3.033-2.745,3.355-4.887c0.303-2.001-0.51-3.698-1.768-5.193
				c-2.381-2.83-5.484-4.031-9.123-3.909c-2.268,0.076-4.533,0.243-6.865,0.372c0.502-2.711,1.016-5.487,1.547-8.363
				c1.355-0.112,2.719-0.273,4.09-0.331c3.557-0.149,7.076,0.045,10.471,1.272c6.242,2.26,10.863,8.364,11.146,14.921
				c0.172,3.956-1.129,7.441-3.994,10.226c-2.004,1.948-4.531,2.914-7.248,3.417c-4.168,0.773-8.234,0.21-12.256-0.922
				c-1.445-0.407-2.883-0.842-4.313-1.3c-0.418-0.134-0.576-0.044-0.748,0.353C518.531,173.831,517.795,175.397,517.045,177.041z"/>
			<path fill="#E7251D" d="M508.617,189.02c-2.246-2.374-4.424-4.678-6.648-7.029c0.686-0.629,1.348-1.241,2.018-1.849
				c0.721-0.655,1.432-1.323,2.18-1.946c0.191-0.157,0.559-0.303,0.754-0.225c2.291,0.916,4.566,1.875,6.846,2.824
				c0.053,0.021,0.096,0.063,0.207,0.138C512.193,183.62,510.424,186.292,508.617,189.02z"/>
		</g>
	</g>
</g>
<g>
	<g id="圖層_1_3_">
		<g>
			<circle fill="#3A8B39" cx="663.875" cy="142.966" r="86.659"/>
			<path fill="#2A6633" d="M730.702,194.248c-12.771,25.419-40.97,37.063-62.977,26.004c-22.011-11.059-29.498-40.631-16.727-66.053
				c12.774-25.419,40.969-37.061,62.979-26.003C735.985,139.255,743.473,168.827,730.702,194.248z"/>
			
				<ellipse transform="matrix(-0.9955 -0.0947 0.0947 -0.9955 1175.8386 339.6509)" fill="#2A6633" cx="595.978" cy="141.929" rx="20.158" ry="40.991"/>
			<path fill="#E3732E" d="M617.272,129.339c0,0,19.941-3.631,40.952,15.358c0,0-45.161,62.851-51.729,84.584
				c0,0-4.62,5.979-2.901-6.503C603.593,222.78,608.315,141.727,617.272,129.339z"/>
			<path fill="#3A8B39" d="M657.748,58.392c0,0,10.066-14.518,27.238-19.706c0,0-6,21.258-2.901,27.061"/>
			<path fill="#3A8B39" d="M673.987,59.651c0,0,12.739-11.316,24.216-3.002c0,0-11.154,4.517-10.407,7.175"/>
		</g>
		<path fill="#F7F7F7" d="M689.84,226.658c0,0-16.596-39.598-6.846-49.727c0,0,25.186-22.228,37.904,32.42
			C720.898,209.352,710.399,223.967,689.84,226.658z"/>
		<path fill="#F7F7F7" d="M575.784,153.301c0,0,9.046-13.734,14.921-9.383c0,0,5.03,5.559-4.408,39.099
			C586.297,183.017,573.955,167.792,575.784,153.301z"/>
		<path fill="#070001" d="M678.438,166.105c6.89,0.846,13.162-4.052,14.01-10.942l-24.95-3.067
			C666.649,158.985,671.549,165.257,678.438,166.105z"/>
		<path fill="#070001" d="M595.057,137.395c4.674,2.718,10.663,1.132,13.379-3.541l-16.919-9.838
			C588.8,128.689,590.386,134.679,595.057,137.395z"/>
	</g>
	<g id="圖層_2_2_">
		<g>
			<path fill="#E7251D" d="M580.494,77.2c-2.333,2.069-4.631,4.107-6.98,6.19c-1.17-1.98-2.302-3.897-3.432-5.817
				c-0.54-0.917-1.052-1.852-1.617-2.751c-0.679-1.08-0.644-1.025,0.164-2.032c2.387-2.974,4.896-5.87,7.04-9.013
				c2.275-3.338,3.183-7.165,2.567-11.227c-0.378-2.49-1.438-4.675-3.592-6.108c-2.015-1.34-4.264-1.32-6.518-0.716
				c-4.269,1.145-7.143,3.897-8.852,7.897c-1.067,2.495-2.034,5.032-3.075,7.622c-2.681-1.916-5.427-3.877-8.27-5.909
				c0.563-1.523,1.08-3.083,1.712-4.596c1.639-3.924,3.633-7.639,6.68-10.689c5.607-5.617,14.554-7.529,21.799-4.517
				c4.369,1.817,7.484,4.993,9.048,9.502c1.094,3.157,0.86,6.381,0.03,9.579c-1.274,4.903-3.941,9.023-7.204,12.804
				c-1.174,1.358-2.373,2.693-3.592,4.01c-0.356,0.383-0.34,0.601,0.002,0.988C577.773,73.968,579.097,75.557,580.494,77.2z"/>
			<path fill="#E7251D" d="M589.196,92.392c-3.706,1.229-7.303,2.421-10.975,3.639c-0.335-1.061-0.662-2.089-0.982-3.12
				c-0.343-1.113-0.706-2.22-1.002-3.346c-0.075-0.286-0.046-0.756,0.138-0.927c2.151-2.019,4.341-3.996,6.524-5.982
				c0.05-0.046,0.117-0.074,0.254-0.157C585.161,85.785,587.158,89.054,589.196,92.392z"/>
		</g>
		<g>
			<path fill="#E7251D" d="M607.198,77.173c-1.962,0.57-3.896,1.133-5.872,1.707c-0.136-1.5-0.269-2.955-0.4-4.408
				c-0.063-0.695-0.103-1.393-0.186-2.084c-0.099-0.83-0.094-0.788,0.668-1.158c2.249-1.091,4.547-2.103,6.698-3.363
				c2.285-1.339,3.896-3.35,4.673-5.929c0.475-1.581,0.46-3.172-0.414-4.627c-0.816-1.358-2.154-1.977-3.66-2.251
				c-2.849-0.521-5.323,0.303-7.46,2.192c-1.33,1.179-2.615,2.411-3.958,3.652c-1.053-1.887-2.127-3.82-3.242-5.821
				c0.762-0.745,1.507-1.523,2.304-2.241c2.072-1.865,4.297-3.506,6.957-4.458c4.897-1.752,10.733-0.375,14.18,3.443
				c2.079,2.303,3.032,5.057,2.692,8.167c-0.238,2.177-1.28,4.022-2.67,5.682c-2.131,2.547-4.866,4.238-7.86,5.561
				c-1.076,0.476-2.162,0.932-3.253,1.368c-0.319,0.128-0.369,0.26-0.275,0.587C606.493,74.495,606.831,75.808,607.198,77.173z"/>
			<path fill="#E7251D" d="M608.09,88.614c-2.54-0.313-5.005-0.616-7.523-0.925c0.101-0.723,0.195-1.422,0.295-2.123
				c0.109-0.756,0.205-1.514,0.346-2.264c0.036-0.19,0.186-0.461,0.343-0.511c1.841-0.591,3.692-1.148,5.543-1.712
				c0.043-0.013,0.09-0.011,0.194-0.021C607.554,83.568,607.818,86.065,608.09,88.614z"/>
		</g>
	</g>
</g>
<g>
</g>
<g>
</g>
<g>
</g>
<g>
</g>
<g>
</g>
<g>
</g>
</svg>
