<?xml version="1.0" encoding="utf-8"?>
<!-- Generator: Adobe Illustrator 16.0.0, SVG Export Plug-In . SVG Version: 6.00 Build 0)  -->
<!DOCTYPE svg PUBLIC "-//W3C//DTD SVG 1.1//EN" "http://www.w3.org/Graphics/SVG/1.1/DTD/svg11.dtd">
<svg version="1.1" id="圖層_1" xmlns="http://www.w3.org/2000/svg" xmlns:xlink="http://www.w3.org/1999/xlink" x="0px" y="0px"
	 width="566.93px" height="453.54px" viewBox="0 0 566.93 453.54" enable-background="new 0 0 566.93 453.54" xml:space="preserve">
<g>
	<path fill="#FBFBFC" d="M9.938,446.387c-1.442-0.08-2.93,0.257-4.354,0.593c-0.464,0.109-0.962,0.76-1.145,1.275
		c-0.523,1.474-0.793,3.046-1.365,4.498c-0.197,0.497-0.624,0.903-1.042,1.312h11.361c0.285-0.805,0.522-1.372,0.681-1.957
		C15.097,448.385,14.31,446.624,9.938,446.387z"/>
	<g>
		<path fill="#FBFBFC" d="M411.992,0c-0.835,4.251-1.732,5.463-4.4,5.521c-0.94,0.021-1.89-0.418-3.021-0.692
			c-1.012,1.176-2.26,2.622-3.003,3.485c-0.674,2.45-1.038,4.361-1.739,6.133c-0.57,1.44-1.555,2.712-2.348,4.063
			c-3.265,5.561-5.566,5.015-11.507,4.584c-1.134-0.082-2.507-1.33-3.169-2.416c-1.111-1.811-2.457-1.819-3.955-1.101
			c-1.158,0.554-2.146,1.474-3.197,2.252c-2.81,2.086-5.51,4.351-8.453,6.225c-2.676,1.703-5.751,1.601-8.734,0.815
			c-2.242-0.589-4.741,1.038-4.289,2.99c0.44,1.902,1.517,3.747,0.126,5.691c-1.899,2.654-3.96,5.295-7.226,6.02
			c-2.669,0.592-5.53,0.759-8.242,0.474c-1.17-0.124-2.6-1.664-3.165-2.911c-1.044-2.302-2.597-3.199-4.942-3.314
			c-4.571-0.226-5.871-1.648-6.155-6.177c-0.04-0.646-0.75-1.573-1.355-1.792c-1.204-0.437-2.551-0.642-3.832-0.63
			c-1.371,0.013-2.813,0.258-1.658,2.372c0.184,0.336-0.317,1.397-0.773,1.694c-1.829,1.191-3.866,2.066-5.642,3.328
			c-3.704,2.637-5.414,2.403-8.064-1.404c-0.369-0.532-0.783-1.033-1.198-1.579c-1.229,0.346-2.383,0.669-4.372,1.231
			c1.053,1.105,1.668,2.118,2.559,2.605c1.7,0.929,2.721,3.185,2.173,5.557c-0.578,2.491-2.352,3.947-4.473,4.938
			c-0.444,0.208-1.471-0.357-1.961-0.845c-1.393-1.39-2.593-2.978-3.972-4.386c-1.247-1.274-2.599-1.559-4.43-0.802
			c-1.656,0.686-3.602,0.871-5.419,0.879c-1.992,0.011-3.259,0.661-3.91,2.601c-0.787,2.346-1.486,4.749-2.561,6.958
			c-0.565,1.16-1.737,2.581-2.838,2.792c-2.907,0.556-3.761,2.812-5.266,5.3c1.737,0.256,3.305,0.22,4.646,0.764
			c1.308,0.529,2.53,1.51,3.522,2.554c0.998,1.05,1.601,2.472,2.485,3.646c2.097,2.782,3.42,5.834,3.33,9.389
			c-0.077,3.035-1.423,4.82-4.337,5.484c-2.861,0.65-5.762,1.162-8.673,1.529c-0.766,0.096-1.623-0.572-2.957-1.542
			c-1.05,1.746-2.287,3.407-3.108,5.258c-1.271,2.855-2.244,5.847-3.387,8.762c-0.128,0.327-0.504,0.644-0.837,0.783
			c-2.405,1.005-4.801,2.053-7.26,2.907c-2.375,0.825-4.822,1.432-7.495,2.21c-0.182,1.176-0.232,2.248-2.547,2.356
			c-1.752,0.082-3.367,2.586-5.107,3.927c-0.433,0.334-1.122,0.469-1.687,0.454c-0.633-0.016-1.25-0.37-1.89-0.466
			c-4.186-0.636-5.18,0.092-5.916,4.271c-1.061,6.015-3.715,8.657-9.47,9.68c-0.754,0.135-1.532,0.906-2.03,1.585
			c-0.622,0.849-1.04,1.879-1.415,2.882c-0.525,1.392-1.475,2.831,0.607,3.962c0.529,0.287,0.768,1.451,0.818,2.234
			c0.082,1.269-0.102,2.556-0.191,4.132c-0.598,0.029-1.293,0.03-1.979,0.108c-0.645,0.074-1.624,0.029-1.834,0.399
			c-0.274,0.484-0.176,1.511,0.178,1.981c1.712,2.283,1.088,5.068,0.036,6.76c-1.204,1.941-3.755,3.312-6.003,4.192
			c-1.561,0.613-3.868,1.523-5.256-1.168c-0.249-0.482-2.35-0.353-3.401,0.038c-2.909,1.078-5.711,1.303-8.844,0.891
			c-2.531-0.333-4.586-0.198-6.053-2.952c-0.599-1.124-2.798-1.594-4.358-1.921c-3.384-0.708-6.028-2.378-7.968-5.261
			c-2.279-3.388-5.052-5.107-9.159-3.028c-1.212,0.614-2.739,0.574-3.983,1.142c-0.86,0.391-1.486,1.31-2.31,2.079
			c1.946-0.249,3.331-0.658,4.675-0.54c1.833,0.161,1.951,1.407,0.762,2.528c-1.044,0.987-2.325,1.76-3.601,2.435
			c-1.281,0.678-2.683,1.118-3.713,1.533c0,2.17,0,3.989,0,5.807c-0.657-0.136-1.315-0.271-2.125-0.439
			c-1.396,1.012-1.458,4.71-4.847,2.659c-1.233,2.44-2.645,3.768-5.647,3.444c-2.021-0.217-4.219,1.263-6.335,1.991
			c-0.146,0.051-0.395,0.19-0.387,0.256c0.576,3.781-5.44,3.249-4.665,7.318c0.094,0.494-1.377,1.431-2.244,1.955
			c-6.534,3.944-13.124,2.252-19.55-0.186c-2.897-1.099-3.24-3.453-1.013-6.004c-1.856-2.771-3.784-5.679-5.741-8.567
			c-1.612-2.378-3.275-4.724-4.893-7.099c-2.352-3.45-3.016-3.613-6.884-2.644c-1.438,0.361-3.079,0.354-4.54,0.067
			c-2.63-0.514-5.196-1.365-7.746-2.063c-2.292,2.82-2.518,4.797-0.218,7.809c2.4,3.143,3.627,6.182,1.581,10.005
			c-0.465,0.869-0.295,2.113-0.336,3.187c-0.228,6.049-0.542,12.099-0.581,18.148c-0.012,1.903,0.598,3.854,1.176,5.702
			c0.436,1.396,1.598,2.595-0.627,3.592c-0.714,0.321-1.025,1.564-1.54,2.414c4.651,0.927,4.636,0.926,4.328,5.947
			c-0.085,1.397-0.174,2.815-0.038,4.199c0.173,1.769,0.545,3.232,2.323,4.518c1.737,1.259,2.714,3.652,3.917,5.617
			c1.12,1.827,2.085,3.751,3.137,5.622c1.197,2.126,3.041,4.21-0.042,6.397c2.248,1.791,4.33,3.23,6.163,4.953
			c3.162,2.962,5.749,6.312,6.27,10.907c0.689,6.092,4.573,10.684,7.409,15.759c0.421,0.754,1.222,1.743,1.917,1.804
			c2.43,0.222,2.304,1.478,2.055,3.396c-0.153,1.185,0.62,2.49,1.055,4.013c2.133,0,4.301,0,6.469,0
			c0.073,0.257,0.146,0.515,0.22,0.771c-0.682,0.632-1.316,1.33-2.055,1.88c-2.685,2-3.002,3.386-1.966,6.594
			c1.085,3.368,2.491,6.794,2.681,10.256c0.215,3.878,2.128,7.355,2.026,11.132c-0.086,3.233-1.119,6.435-1.285,9.673
			c-0.203,3.909-0.006,7.85,0.205,11.767c0.034,0.608,0.98,1.294,1.643,1.724c2.874,1.878,3.51,4.868,3.472,7.9
			c-0.031,2.302,0.85,3.146,2.809,3.901c2.185,0.842,4.16,2.251,6.609,3.627c0.186-1.534,0.184-2.757,0.521-3.876
			c0.247-0.822,1.061-2.196,1.413-2.137c1.542,0.278,3.039,0.932,4.443,1.656c0.126,0.064-0.309,1.833-0.847,2.518
			c-1.528,1.949-1.423,4.037-0.984,6.261c0.203,1.03,0.351,2.1,0.318,3.146c-0.113,3.517,2.224,6.3,5.625,6.341
			c1.471,0.018,1.932,0.599,1.752,1.929c-0.55,4.088-1.121,8.174-1.689,12.26c-0.021,0.159-0.207,0.354-0.159,0.459
			c1.829,3.909-0.297,7.391-1.024,11.063c-0.461,2.322-1.229,3.101-3.384,2.171c-0.448-0.192-0.843-0.502-1.27-0.746
			c-2.243-1.293-3.882-0.368-3.915,2.208c-0.067,5.106-0.896,5.868-6.026,5.787c-1.823-0.031-4.234-1.307-4.765,2.021
			c-0.032,0.194-1.053,0.481-1.457,0.32c-2.585-1.04-2.892,0.857-2.896,2.506c-0.006,1.666-0.577,1.929-1.892,1.44
			c-1.817-0.677-3.068-0.053-4.163,1.499c-2.244,3.182-6.279,4.259-10.05,2.901c-0.536-0.192-1.704-0.104-1.743,0.059
			c-0.262,1.091-0.454,2.253-0.354,3.361c0.098,1.056,0.58,2.074,0.892,3.11c-1.459,0.248-2.974,0.872-4.368,0.662
			c-2.162-0.324-2.903,0.341-2.725,2.441c0.146,1.736,0.284,3.271-2.39,3.053c-1.036-0.084-2.333,1.007-3.24,1.856
			c-2.045,1.924-2.995,1.531-4.849-0.333c-1.356-1.358-3.716-2.122-5.695-2.274c-1.643-0.13-3.632,0.669-5.02,1.686
			c-1.939,1.419-3.672,1.266-5.732,0.671c-3.574-1.032-3.835-0.809-4.386,2.877c-0.25,1.676-0.238,3.519-2.818,2.787
			c-0.278-0.077-0.875,0.228-1.003,0.508c-2.186,4.687-7.058,6.49-10.346,9.979c-1.175,1.248-2.44,2.465-3.349,3.901
			c-2.069,3.277-5.154,4.932-8.595,6.205c-2.648,0.979-3.861-0.898-4.772-2.07c-2.618,0.616-4.855,1.052-7.025,1.712
			c-0.704,0.214-1.233,1.019-1.865,1.577c1.39,0.801,3.351,1.313,3.476,2.118c0.371,2.401,0.375,4.996-0.144,7.363
			c-0.528,2.407-1.827,4.639-2.798,6.938h169.991c-0.385-0.378-0.793-0.751-0.839-1.165c-0.561-4.941,1.427-7.612,6.176-8.537
			c0-0.914-0.04-1.825,0.018-2.729c0.03-0.474,0.165-1.31,0.368-1.347c2.895-0.543,1.928-2.875,2.334-4.675
			c0.265-1.179,0.996-2.771,1.936-3.173c3.101-1.327,2.685-3.978,3.039-6.479c0.18-1.275,1.165-2.479,1.189-3.727
			c0.082-4.051,3.483-3.367,5.695-4.368c0.576-0.259,1.227-0.344,1.817-0.503c1.463-5.263,2.34-5.968,6.193-4.687
			c0.599-3.465,3.058-3.443,5.737-2.982c0.389,0.066,1.082,0.155,1.155,0c1.378-2.932,5.396-3.874,5.509-7.869
			c0.046-1.566,1.141-3.098,1.731-4.655c0.138-0.361,0.243-0.77,0.224-1.148c-0.113-2.398-0.243-4.798-0.416-7.192
			c-0.157-2.194-1.042-3.858-3.075-4.969c-5.83-3.184-5.217-6.282-2.147-11.775c-0.954-0.302-1.852-0.586-2.746-0.873
			c-1.475-0.473-1.969-2.374-0.98-3.507c1.911-2.19,3.771-4.43,5.959-7.014c0.712,0.107,2.156,1.12,3.228-1.024
			c0.588-1.17,3.82-0.177,4.414,1.178c0.762,1.725,3.388,2.207,4.803,1.05c0.421-0.344,1.341-0.181,2.005-0.071
			c1.273,0.204,2.52,0.577,3.793,0.795c0.461,0.077,0.967-0.165,1.45-0.146c3.657,0.147,3.604,0.151,3.958-3.379
			c0.088-0.879,0.653-1.709,1.113-2.842c-0.676-0.916-1.634-2.115-2.486-3.389c-1.093-1.635,0.41-4.13,2.603-4.562
			c2.553-0.504,5.1-1.052,7.608-1.738c0.757-0.206,1.361-0.956,2.055-1.427c0.372-0.253,0.785-0.636,1.178-0.632
			c2.543,0.023,5.086,0.107,7.624,0.235c1.134,0.059,2.318,0.078,3.377,0.436c4.444,1.497,5.988,0.461,6.438-4.335
			c0.094-0.976,0.597-1.913,1.011-3.166c-0.452-0.372-1.186-0.977-2.051-1.691c-1.381,0.938-2.715,1.847-4.131-0.313
			c-0.412-0.626-2.256-0.412-3.433-0.359c-1.247,0.057-2.093-0.029-3.169-1.085c-0.971-0.948-2.915-0.907-4.449-1.205
			c-0.446-0.087-0.965,0.274-1.434,0.229c-1.134-0.103-2.659,1.397-3.332-0.655c-0.594-1.81-0.784-3.621,1.232-4.795
			c0.209-0.123,0.383-0.304,0.692-0.551c-0.228-1.225-0.601-2.505-0.658-3.8c-0.046-0.981,0.266-2.826,0.497-2.838
			c1.243-0.068,3.142-0.113,3.634,0.634c1.071,1.625,2.185,1.296,3.512,0.987c1.53-0.359,2.917-0.512,3.612,1.442
			c0.138,0.385,0.863,0.665,1.369,0.783c3.97,0.942,7.955,1.819,11.93,2.745c3.264,0.76,6.561-0.881,7.963-4.042
			c-0.563-0.764-1.323-1.473-1.691-2.354c-1.198-2.854-0.176-5.118,2.842-5.868c3.854-0.959,7.486-0.479,10.314,2.746
			c0.76,0.863,1.321,1.94,2.172,2.683c0.896,0.783,2.183,1.961,3.031,1.765c1.561-0.359,3.169-1.315,3.203-3.529
			c0.012-0.805,0.483-1.603,0.91-2.904c2.43,2.367,4.437,4.418,6.557,6.345c1.138,1.034,2.467,1.851,3.704,2.771
			c0.371,0.274,1.013,0.545,1.043,0.863c0.217,2.345,2.15,3.12,3.587,4.428c2.545,2.319,4.882,4.872,7.365,7.267
			c0.714,0.687,1.652,1.129,2.428,1.759c1.303,1.062,2.806,1.993,3.788,3.313c2.528,3.396,4.631,7.144,8.597,9.15
			c0.455,0.228,0.969,0.847,1.015,1.329c0.247,2.671,2.222,3.291,4.23,4.109c2.822,1.15,5.658,2.076,7.499,5.147
			c0.787,1.316,3.591,1.394,5.482,2.016c1.399,0.463,2.796,0.952,4.221,1.324c0.891,0.229,1.848,0.19,2.742,0.41
			c0.937,0.228,2.254,0.338,2.67,0.983c1.143,1.778,1.961,3.788,2.793,5.754c0.948,2.245,5.238,4.265,7.538,3.503
			c0.837-0.278,1.823-0.731,2.577-0.518c3.043,0.879,3.085-1.264,3.541-3.232c0.524-2.257,1.229-4.471,1.857-6.7
			c0.335-0.063,0.672-0.121,1.008-0.183c-0.679-0.533-1.661-0.928-1.973-1.628c-0.598-1.347-1.517-3.193-1.042-4.247
			c0.952-2.101,0.207-3.747-0.716-5.151c-1.105-1.677-0.753-2.624,0.899-3.798c-0.652-0.159-1.064-0.33-1.481-0.35
			c-3.156-0.137-3.116-0.121-2.668-3.464c0.182-1.371,0.861-2.883-1.233-3.734c-0.458-0.188-0.398-2.208-0.188-3.309
			c0.092-0.484,1.164-1.112,1.773-1.089c1.104,0.043,2.284,0.343,3.276,0.852c3.328,1.713,6.586,3.567,9.873,5.355
			c0.492,0.269,1.023,0.467,2.078,0.938c-0.241-1.186-0.261-2.029-0.59-2.723c-0.67-1.415-1.491-2.757-2.278-4.109
			c-0.286-0.492-0.583-1.238-1.002-1.346c-2.637-0.674-3.452-2.809-4.067-4.965c-2.926,0.222-5.753,0.718-8.543,0.559
			c-2.221-0.129-4.431-0.949-6.57-1.686c-0.76-0.261-1.775-1.116-1.859-1.804c-0.341-2.778-2.604-3.309-4.422-4.457
			c-1.3-0.818-2.47-1.851-3.701-2.78c-0.713-0.536-1.482-1.568-2.141-1.503c-3.12,0.312-2.949-1.683-2.731-3.897
			c-0.624-0.093-1.256-0.398-1.672-0.213c-2.709,1.229-4.071-0.615-5.766-2.217c-1.108-1.048-2.764-1.477-4.117-2.286
			c-1.396-0.835-2.704-1.825-4.085-2.691c-1.415-0.891-2.83-1.805-4.32-2.551c-2.476-1.24-5.028-2.327-7.51-3.554
			c-0.43-0.21-0.689-0.791-0.996-1.227c-1.783-2.542-3.941-4.76-4.655-8.078c-0.381-1.762-2.084-3.232-3.183-4.839
			c-0.184-0.27-0.267-0.725-0.504-0.818c-3.125-1.265-1.57-3.796-1.643-6.2c-3.78-0.127-6.86-1.919-9.187-5.045
			c-2.622-3.521-3.125-7.444-1.733-11.518c0.416-1.215,1.511-2.439,2.62-3.102c1.784-1.063,2.019-2.339,1.53-4.156
			c-1.289-4.808-0.117-7.63,4.126-10.287c0.962-0.601,1.869-1.277,3.086-2.113c-1.044-1.679-1.829-3.317-2.943-4.679
			c-3.379-4.125-6.865-8.16-10.374-12.17c-0.354-0.404-1.14-0.506-1.744-0.581c-3.27-0.418-6.115-1.732-8.521-4.01
			c-2.389-2.258-4.846-4.45-7.084-6.852c-0.904-0.969-1.578-2.359-1.861-3.667c-0.353-1.633-1.128-2.134-2.646-2.208
			c-4.4-0.21-8.185-1.832-11.444-4.946c-1.057-1.009-2.719-1.412-4.155-1.95c-2.778-1.042-5.433-2.118-6.947-5.049
			c-0.423-0.819-1.754-1.101-2.518-1.801c-3.353-3.063-5.676-6.87-6.991-11.197c-0.339-1.113,0.142-2.842,0.854-3.842
			c1.176-1.652,0.691-2.15-0.937-2.444c-0.32-0.059-0.661-0.162-0.969-0.106c-5.056,0.91-8.608-2.188-12.365-4.748
			c-0.328-0.223-0.68-0.454-1.051-0.553c-2.405-0.639-2.913-2.226-0.996-3.909c1.18-1.034,2.798-1.554,4.196-2.293
			c0.417-2.281,0.747-4.658,1.341-6.967c0.159-0.622,1.133-1.486,1.706-1.465c3.621,0.137,7.384-0.173,10.025,3.355
			c0.839,1.122,2.114,0.835,2.905-0.646c0.421-0.781,1.214-1.354,1.838-2.021c1.813-1.93,3.902-3.669,5.348-5.848
			c1.235-1.86,0.71-3.902-1.154-5.517c-1.979-1.712-1.792-3.173,0.555-4.005c2.141-0.759,3.405-2.228,4.248-4.171
			c0.982-2.27,1.913-4.572,2.706-6.917c0.566-1.68,1.505-2.685,3.278-2.862c0.808-0.082,1.61-0.263,2.411-0.419
			c1.888-0.368,3.893-0.429,4.393-3.053c0.14-0.734,1.102-1.415,1.825-1.908c3.251-2.215,6.545-4.369,9.849-6.503
			c0.678-0.438,1.441-0.78,2.206-1.034c2.543-0.841,5.104-1.624,7.662-2.422c3.199-0.999,4.086-0.583,5.44,2.454
			c0.921,2.073,2.655,2.742,4.722,2.485c1.695-0.21,3.413-0.498,5.029-1.037c6.19-2.067,12.254-0.901,18.269,0.714
			c1.339,0.359,2.758,1.196,3.677,2.235c4.048,4.572,9.234,6.336,15.04,6.598c2.555,0.114,5.151-0.375,7.682-0.117
			c2.013,0.206,3.98,1.054,5.915,1.768c1.399,0.517,2.65,1.586,4.073,1.874c3.844,0.776,4.898,1.813,6.132,5.693
			c0.312,0.99,1.768,1.719,2.832,2.324c1.612,0.917,3.334,1.635,5.023,2.402c0.349,0.157,0.911,0.358,1.124,0.197
			c1.961-1.49,3.649-0.326,5.457,0.388c4.38,1.725,8.559,0.915,12.365-1.603c3.025-2.001,6.26-2.766,9.769-2.501
			c0.693,0.053,1.819,0.492,1.938,0.965c0.502,1.955,1.909,2.561,3.541,2.995c2.042,0.546,3.75,1.438,4.763,3.53
			c0.273,0.566,1.691,1.144,2.17,0.896c0.817-0.422,1.515-1.414,1.855-2.324c0.188-0.5-0.285-1.501-0.755-1.966
			c-1.915-1.887-4.036-3.309-6.758-4.048c-2.796-0.761-4.604-6.944-3.065-9.416c0.275-0.441,0.881-0.688,1.363-0.974
			c1.901-1.13,3.767-2.342,5.737-3.333c2.74-1.381,3.669-3.835,4.173-6.613c0.297-1.637-0.424-2.479-2.007-2.15
			c-1.644,0.343-2.15-0.448-2.534-1.844c-0.85-3.11-1.817-6.188-2.738-9.277c-0.354-1.186-0.331-1.981,1.209-2.332
			c1.828-0.418,3.573-1.215,5.64-1.949c-0.043-0.382-0.02-1.207-0.243-1.953c-0.843-2.792-0.408-5.211,1.698-7.301
			c0.435-0.433,0.502-1.236,0.919-1.703c0.464-0.519,1.084-1.073,1.722-1.206c1.017-0.213,2.11-0.012,3.156-0.132
			c1.742-0.2,3.161-0.048,3.052,2.612c1.115-0.8,1.867-1.567,2.777-1.947c1.722-0.718,3.492-1.641,4.223,1.47
			c0.306,1.296,1.714,2.327,2.223,3.815c1.389,0.683,2.861,2.074,4.154,1.921c4.647-0.55,9.314-1.327,13.829-2.566
			c7.448-2.043,14.725-4.729,22.189-6.691c2.814-0.741,4.303-2.667,5.837-4.558c2.318-2.86,4.416-5.578,8.644-5.14
			c2.758,0.286,4.067-1.165,4.615-3.953c0.502-2.558,1.387-5.038,1.913-7.592c0.131-0.628-0.404-1.451-0.758-2.116
			c-0.916-1.71-2.112-3.298-2.794-5.095c-0.626-1.652-0.902-3.326-2.877-3.974c-0.415-0.136-0.865-0.999-0.852-1.516
			c0.096-3.894,0.243-7.789,0.503-11.673c0.109-1.638,3.911-4.157,5.755-4.201c2.256-0.052,4.502-0.407,6.756-0.441
			c1.546-0.022,2.116-0.836,1.946-2.141c-0.898-6.82,3.368-9,9.617-8.975c2.655,0.011,4.977,0.218,7.01,2.616
			c0.876,1.03,3.497,0.829,5.292,0.694c3.227-0.244,6.427-0.86,9.638-1.32V0H411.992z"/>
	</g>
	<path fill="#040000" d="M195.114,454.486c0.04-0.142,0.075-0.281,0.107-0.422h-0.505
		C194.859,454.203,194.999,454.343,195.114,454.486z"/>
	<path fill="#040000" d="M551.987,30.485c-2.034-2.398-4.354-2.606-7.011-2.616c-6.249-0.026-10.514,2.155-9.617,8.975
		c0.172,1.304-0.4,2.117-1.945,2.141c-2.254,0.034-4.501,0.39-6.755,0.441c-1.844,0.043-5.646,2.564-5.754,4.201
		c-0.261,3.885-0.41,7.78-0.506,11.673c-0.014,0.518,0.437,1.379,0.853,1.516c1.976,0.648,2.25,2.322,2.876,3.974
		c0.678,1.795,1.881,3.384,2.794,5.095c0.356,0.664,0.889,1.488,0.759,2.116c-0.527,2.554-1.412,5.034-1.913,7.592
		c-0.546,2.788-1.859,4.238-4.615,3.953c-4.23-0.439-6.325,2.28-8.646,5.14c-1.532,1.89-3.021,3.817-5.835,4.558
		c-7.465,1.963-14.741,4.648-22.19,6.691c-4.514,1.239-9.177,2.015-13.826,2.565c-1.295,0.153-2.768-1.238-4.156-1.921
		c-0.507-1.489-1.916-2.519-2.221-3.816c-0.729-3.11-2.503-2.187-4.225-1.469c-0.909,0.379-1.66,1.146-2.776,1.947
		c0.106-2.661-1.313-2.812-3.051-2.612c-1.046,0.119-2.143-0.082-3.16,0.131c-0.634,0.133-1.256,0.688-1.72,1.206
		c-0.417,0.467-0.482,1.271-0.919,1.703c-2.106,2.091-2.541,4.51-1.698,7.301c0.226,0.747,0.201,1.571,0.243,1.953
		c-2.063,0.734-3.811,1.532-5.64,1.949c-1.54,0.353-1.564,1.147-1.209,2.333c0.922,3.089,1.891,6.167,2.741,9.277
		c0.381,1.396,0.888,2.187,2.531,1.844c1.582-0.33,2.304,0.513,2.007,2.15c-0.504,2.779-1.431,5.232-4.173,6.614
		c-1.973,0.992-3.834,2.202-5.737,3.333c-0.48,0.286-1.086,0.534-1.361,0.975c-1.54,2.471,0.266,8.655,3.063,9.416
		c2.72,0.74,4.842,2.16,6.759,4.048c0.471,0.465,0.941,1.466,0.756,1.966c-0.343,0.91-1.042,1.902-1.859,2.324
		c-0.477,0.248-1.892-0.331-2.168-0.896c-1.015-2.091-2.719-2.984-4.763-3.529c-1.629-0.436-3.041-1.041-3.538-2.996
		c-0.121-0.473-1.247-0.913-1.938-0.964c-3.51-0.265-6.744,0.5-9.771,2.501c-3.809,2.518-7.987,3.329-12.362,1.604
		c-1.812-0.714-3.499-1.878-5.46-0.388c-0.213,0.161-0.775-0.041-1.122-0.197c-1.693-0.768-3.413-1.485-5.023-2.402
		c-1.064-0.605-2.52-1.333-2.836-2.324c-1.231-3.88-2.288-4.917-6.13-5.693c-1.423-0.288-2.673-1.357-4.071-1.874
		c-1.938-0.713-3.904-1.562-5.917-1.768c-2.529-0.259-5.127,0.231-7.681,0.117c-5.807-0.261-10.992-2.025-15.041-6.598
		c-0.919-1.039-2.34-1.876-3.675-2.235c-6.017-1.615-12.075-2.78-18.271-0.714c-1.614,0.54-3.332,0.827-5.03,1.037
		c-2.064,0.257-3.8-0.413-4.721-2.485c-1.354-3.038-2.24-3.453-5.44-2.454c-2.557,0.798-5.119,1.582-7.66,2.422
		c-0.766,0.254-1.53,0.597-2.208,1.034c-3.303,2.135-6.597,4.289-9.849,6.503c-0.724,0.494-1.686,1.174-1.825,1.908
		c-0.5,2.625-2.507,2.687-4.393,3.054c-0.801,0.156-1.604,0.337-2.411,0.419c-1.773,0.177-2.714,1.183-3.28,2.862
		c-0.791,2.344-1.722,4.647-2.704,6.917c-0.841,1.944-2.106,3.414-4.248,4.171c-2.348,0.832-2.533,2.293-0.555,4.005
		c1.863,1.614,2.39,3.657,1.155,5.517c-1.448,2.179-3.535,3.918-5.346,5.848c-0.626,0.667-1.421,1.241-1.838,2.021
		c-0.795,1.481-2.066,1.768-2.907,0.646c-2.639-3.528-6.402-3.219-10.025-3.356c-0.573-0.021-1.547,0.844-1.707,1.466
		c-0.594,2.308-0.923,4.686-1.34,6.967c-1.398,0.739-3.016,1.259-4.196,2.293c-1.919,1.683-1.409,3.271,0.996,3.91
		c0.374,0.098,0.724,0.33,1.05,0.552c3.759,2.56,7.311,5.658,12.367,4.748c0.309-0.055,0.649,0.048,0.971,0.106
		c1.626,0.295,2.11,0.793,0.935,2.444c-0.712,1-1.193,2.729-0.854,3.842c1.316,4.328,3.641,8.134,6.992,11.198
		c0.766,0.699,2.095,0.981,2.518,1.8c1.517,2.931,4.171,4.008,6.949,5.05c1.437,0.538,3.097,0.941,4.152,1.95
		c3.261,3.112,7.047,4.735,11.445,4.945c1.519,0.074,2.296,0.576,2.646,2.208c0.283,1.309,0.962,2.699,1.861,3.667
		c2.239,2.403,4.697,4.595,7.084,6.852c2.407,2.276,5.255,3.591,8.521,4.009c0.605,0.077,1.393,0.179,1.744,0.581
		c3.509,4.012,6.996,8.047,10.374,12.172c1.116,1.361,1.899,3,2.943,4.681c-1.212,0.834-2.124,1.513-3.083,2.111
		c-4.246,2.659-5.418,5.479-4.127,10.289c0.486,1.817,0.255,3.089-1.532,4.156c-1.108,0.662-2.204,1.885-2.621,3.101
		c-1.393,4.072-0.887,7.997,1.734,11.515c2.329,3.13,5.406,4.92,9.187,5.045c0.07,2.406-1.486,4.938,1.643,6.202
		c0.237,0.096,0.322,0.551,0.504,0.816c1.1,1.608,2.804,3.079,3.183,4.843c0.716,3.316,2.871,5.536,4.655,8.078
		c0.307,0.434,0.567,1.015,0.994,1.223c2.483,1.229,5.038,2.313,7.513,3.554c1.491,0.748,2.904,1.66,4.321,2.553
		c1.379,0.866,2.688,1.854,4.085,2.69c1.353,0.809,3.007,1.237,4.117,2.287c1.693,1.599,3.055,3.445,5.765,2.217
		c0.415-0.188,1.047,0.118,1.674,0.209c-0.221,2.219-0.392,4.213,2.73,3.897c0.658-0.062,1.429,0.969,2.139,1.503
		c1.233,0.934,2.403,1.964,3.702,2.782c1.817,1.145,4.08,1.679,4.423,4.457c0.085,0.686,1.098,1.541,1.858,1.802
		c2.141,0.736,4.351,1.559,6.57,1.686c2.792,0.161,5.616-0.337,8.542-0.559c0.615,2.158,1.431,4.293,4.067,4.965
		c0.422,0.107,0.717,0.854,1.002,1.346c0.789,1.353,1.61,2.696,2.278,4.109c0.328,0.693,0.347,1.537,0.592,2.725
		c-1.057-0.476-1.585-0.672-2.077-0.938c-3.292-1.788-6.548-3.645-9.876-5.357c-0.99-0.509-2.17-0.809-3.276-0.852
		c-0.607-0.021-1.682,0.604-1.773,1.091c-0.211,1.099-0.266,3.122,0.188,3.307c2.096,0.852,1.415,2.363,1.231,3.734
		c-0.448,3.345-0.486,3.331,2.672,3.466c0.417,0.018,0.827,0.188,1.48,0.348c-1.655,1.178-2.004,2.121-0.9,3.798
		c0.923,1.406,1.668,3.049,0.716,5.153c-0.475,1.052,0.442,2.898,1.042,4.25c0.311,0.695,1.295,1.094,1.973,1.625
		c-0.335,0.06-0.672,0.12-1.008,0.181c-0.628,2.233-1.33,4.447-1.855,6.704c-0.457,1.967-0.502,4.109-3.543,3.23
		c-0.752-0.22-1.738,0.235-2.577,0.516c-2.298,0.766-6.588-1.254-7.537-3.501c-0.833-1.97-1.653-3.976-2.794-5.754
		c-0.416-0.647-1.733-0.758-2.67-0.985c-0.895-0.216-1.852-0.179-2.74-0.41c-1.425-0.372-2.82-0.861-4.223-1.324
		c-1.894-0.622-4.695-0.699-5.482-2.014c-1.842-3.071-4.677-3.999-7.497-5.147c-2.013-0.82-3.985-1.438-4.232-4.111
		c-0.046-0.48-0.557-1.098-1.015-1.329c-3.968-2.007-6.066-5.754-8.595-9.15c-0.982-1.319-2.487-2.251-3.791-3.311
		c-0.776-0.629-1.714-1.072-2.427-1.761c-2.479-2.395-4.818-4.947-7.363-7.266c-1.438-1.309-3.372-2.084-3.588-4.427
		c-0.029-0.318-0.675-0.591-1.044-0.865c-1.239-0.921-2.566-1.735-3.702-2.77c-2.117-1.929-4.127-3.979-6.559-6.347
		c-0.425,1.302-0.898,2.1-0.909,2.904c-0.031,2.214-1.644,3.17-3.204,3.529c-0.847,0.196-2.135-0.981-3.031-1.765
		c-0.851-0.74-1.409-1.815-2.17-2.681c-2.83-3.225-6.465-3.707-10.316-2.744c-3.018,0.75-4.038,3.011-2.842,5.866
		c0.37,0.881,1.128,1.59,1.689,2.354c-1.397,3.161-4.699,4.802-7.961,4.042c-3.976-0.926-7.958-1.803-11.93-2.743
		c-0.503-0.12-1.23-0.4-1.369-0.785c-0.693-1.954-2.082-1.802-3.611-1.442c-1.327,0.311-2.44,0.638-3.512-0.985
		c-0.492-0.749-2.392-0.702-3.633-0.636c-0.231,0.014-0.543,1.854-0.499,2.84c0.06,1.295,0.43,2.573,0.658,3.798
		c-0.308,0.247-0.482,0.43-0.692,0.551c-2.016,1.176-1.824,2.987-1.232,4.795c0.675,2.055,2.198,0.555,3.332,0.657
		c0.469,0.043,0.988-0.318,1.435-0.231c1.534,0.3,3.478,0.257,4.448,1.207c1.078,1.054,1.925,1.14,3.169,1.085
		c1.177-0.055,3.021-0.269,3.433,0.357c1.415,2.162,2.751,1.254,4.13,0.315c0.865,0.713,1.6,1.317,2.051,1.691
		c-0.413,1.251-0.919,2.188-1.011,3.164c-0.45,4.796-1.995,5.832-6.437,4.337c-1.059-0.357-2.246-0.379-3.379-0.438
		c-2.539-0.126-5.082-0.21-7.624-0.235c-0.391-0.004-0.806,0.379-1.178,0.632c-0.693,0.473-1.297,1.221-2.055,1.429
		c-2.508,0.687-5.056,1.234-7.608,1.736c-2.193,0.432-3.696,2.929-2.603,4.562c0.85,1.273,1.81,2.473,2.485,3.391
		c-0.458,1.133-1.022,1.963-1.11,2.84c-0.356,3.53-0.303,3.526-3.96,3.381c-0.48-0.021-0.986,0.225-1.45,0.144
		c-1.273-0.216-2.52-0.589-3.792-0.793c-0.667-0.109-1.585-0.269-2.007,0.071c-1.415,1.159-4.041,0.677-4.801-1.049
		c-0.596-1.354-3.828-2.347-4.414-1.177c-1.074,2.145-2.517,1.13-3.23,1.024c-2.187,2.582-4.046,4.821-5.959,7.014
		c-0.988,1.131-0.492,3.034,0.98,3.503c0.896,0.288,1.792,0.571,2.746,0.877c-3.07,5.493-3.683,8.592,2.148,11.773
		c2.031,1.108,2.918,2.772,3.073,4.967c0.172,2.395,0.302,4.794,0.416,7.196c0.021,0.379-0.088,0.787-0.224,1.145
		c-0.592,1.558-1.687,3.091-1.731,4.659c-0.113,3.997-4.13,4.936-5.509,7.869c-0.073,0.151-0.764,0.064-1.155,0
		c-2.677-0.465-5.138-0.48-5.737,2.979c-3.854-1.279-4.73-0.572-6.193,4.687c-0.59,0.159-1.241,0.244-1.817,0.507
		c-2.212,0.999-5.613,0.312-5.695,4.366c-0.025,1.248-1.011,2.451-1.191,3.729c-0.351,2.501,0.063,5.151-3.037,6.477
		c-0.94,0.402-1.672,1.996-1.938,3.173c-0.404,1.802,0.563,4.134-2.334,4.675c-0.201,0.037-0.335,0.875-0.366,1.349
		c-0.058,0.9-0.017,1.812-0.017,2.726c-4.751,0.929-6.737,3.596-6.176,8.537c0.048,0.414,0.456,0.787,0.839,1.165h0.503
		c0.636-2.737-0.058-5.377,2.66-6.594c1.285,0.375,2.633,0.734,3.873,0.505c0.323-0.062,0.308-1.965,0.458-3.019
		c0.163-1.154-0.073-2.842,0.584-3.357c1.53-1.203,1.951-2.579,1.802-4.313c-0.196-2.305,0.689-3.627,3.041-3.92
		c0.542-0.064,1.423-0.563,1.473-0.955c0.286-2.239,0.079-4.579,0.613-6.737c0.429-1.729,1.318-3.771,2.656-4.72
		c1.333-0.942,3.478-0.771,5.278-0.942c1.091-0.104,2.261-0.165,1.498-1.613c-1.026-1.944,0.08-3.048,1.139-4.561
		c0.712,0.56,1.275,1.353,1.825,1.347c0.84-0.02,2.401-0.593,2.399-0.925c-0.014-3.466,2.07-2.796,4.182-2.5
		c0.847,0.116,2.034-0.02,2.603-0.552c1.337-1.25,2.514-2.728,3.531-4.267c0.837-1.264,1.561-2.694,1.944-4.158
		c0.389-1.485,0.115-3.159,2.063-3.795c0.279-0.091,0.454-0.989,0.429-1.502c-0.126-2.394-0.37-4.778-0.511-7.171
		c-0.228-3.852-1.4-6.927-5.17-8.813c-3.42-1.713-3.376-3.441-0.517-7.035c1.281-1.611,1.375-2.7-0.379-3.831
		c-0.743-0.48-1.578-0.813-2.315-1.184c0.136-2.498,3.146-3.157,3.502-4.407c0.852-2.979,4.542-0.814,4.686-3.104
		c0.902,0.651,1.777,1.773,2.788,1.919c2.296,0.332,4.378,1.849,6.98,0.894c1.471-0.54,3.359-0.275,4.977,0.045
		c2.667,0.531,5.155-0.832,5.714-3.478c0.144-0.679,0.261-1.362,0.402-2.12c0.992,0.404,1.716,0.699,2.439,0.995
		c0.257-0.098,0.513-0.192,0.77-0.288c-0.375-1.464-0.417-3.155-1.205-4.333c-1.08-1.607-2.725-2.824-4.544-4.616
		c1.364-0.416,1.869-0.591,2.388-0.726c3.434-0.892,6.833-1.998,10.316-2.604c3.87-0.681,7.787-1.888,11.723,0.12
		c1.98,1.009,4.749-0.13,5.98-2.01c0.275-0.422,0.684-0.83,1.124-1.058c2.327-1.203,2.447-2.14,0.299-3.856
		c0.233-0.311,0.494-0.606,0.699-0.938c1.084-1.756,1.294-3.073-0.908-4.409c-1.832-1.113-3.45-1.696-5.649-1.947
		c-2.754-0.315-5.94,0.287-8.385-2.104c-0.646-0.634-2.183-0.434-3.309-0.43c-1.191,0.004-2.38,0.231-4.336,0.445
		c1.284-1.621,2.667-2.62,2.887-3.837c0.264-1.45-0.471-3.087-0.771-4.643c2.101,2.973,4.753,0.957,6.578,1.136
		c1.074,0.896,1.781,1.941,2.685,2.171c4.191,1.05,8.45,1.819,12.661,2.798c2.438,0.567,4.809,1.286,6.691-1.202
		c0.17-0.225,0.566-0.301,0.873-0.389c2.985-0.838,3.974-4.023,2.005-6.49c-1.598-2.002-1.013-3.97,1.461-4.341
		c3.029-0.457,5.889,0.006,7.961,2.673c0.857,1.106,1.654,2.267,2.571,3.324c1.817,2.107,3.507,2.344,5.82,0.791
		c0.879-0.589,1.704-1.299,2.418-2.082c1.367-1.49,2.507-1.067,3.66,0.231c2.505,2.828,4.942,5.725,7.56,8.44
		c2.389,2.477,4.976,4.749,7.471,7.116c1.722,1.631,2.718,4.135,5.684,4.261c0.765,0.033,1.57,1.311,2.188,2.148
		c1.514,2.043,2.881,4.194,4.396,6.234c1.696,2.281,5.496,2.884,5.226,6.795c-0.019,0.288,0.809,0.743,1.31,0.939
		c1.973,0.781,3.989,1.45,5.96,2.233c2.156,0.857,4.272,1.806,3.985,4.455c5.235,1.472,10.247,2.881,14.707,4.135
		c0.563,0.956,0.901,1.633,1.332,2.233c0.621,0.873,1.293,1.709,1.977,2.537c1.072,1.306,1.938,3.24,3.302,3.737
		c2.478,0.902,5.067,2.92,7.997,0.838c0.461-0.328,1.455-0.058,2.145,0.145c1.714,0.505,2.672-0.231,3.146-1.811
		c0.354-1.184,0.789-2.381,0.883-3.592c0.18-2.261,0.907-4.096,2.648-5.636c2.118-1.873,1.981-2.004-0.602-3.044
		c-1.603-0.646-2.926-1.776-2.256-3.79c0.775-2.325,2.256-4.555,0.109-6.918c-0.102-0.105,0.142-0.598,0.297-0.867
		c1.26-2.251-0.393-2.967-1.925-3.621c-0.705-0.302-1.547-0.269-2.286-0.38c-0.261-2.54,1.553-5.438-1.827-7.194
		c1.096,0.021,2.037,0.137,2.826,0.551c3.317,1.741,6.574,3.588,9.874,5.361c1.298,0.695,3.016,1.696,3.886,0.014
		c0.634-1.229,0.503-3.187,0.048-4.598c-0.565-1.763-1.795-3.314-2.781-4.93c-0.331-0.542-0.737-1.356-1.208-1.437
		c-2.334-0.395-2.868-2.171-3.362-4.059c-0.406-1.563-1.124-2.078-2.844-1.438c-4.037,1.503-8.168,1.489-12.229-0.047
		c-1.158-0.438-2.2-0.954-1.993-2.663c0.068-0.575-0.688-1.472-1.289-1.878c-3.129-2.12-6.333-4.131-9.51-6.178
		c0.117-0.23,0.235-0.464,0.353-0.693c0.393-0.076,0.831-0.064,1.172-0.243c0.883-0.463,1.728-1.009,2.585-1.521
		c-0.877-0.398-1.729-0.886-2.641-1.182c-4.563-1.479-10.222,0.359-13.645-4.687c-0.349-0.515-1.288-0.616-2.073-0.96
		c0.748-2.123-0.324-2.418-2.092-2.216c-0.688,0.077-1.479-0.176-2.137-0.471c-1.748-0.785-3.439-1.703-5.173-2.521
		c-2.896-1.368-5.674-2.61-7.854-5.389c-1.427-1.817-3.172-3.056-2.951-5.682c0.03-0.369-0.729-0.781-1.065-1.223
		c-0.931-1.225-1.85-2.461-2.734-3.721c-0.509-0.727-0.798-1.687-1.443-2.237c-1.046-0.89-1.098-1.472-0.267-2.636
		c1.421-1.982,0.576-3.697-1.806-3.76c-3.639-0.097-6.401-1.663-8.505-4.612c-2.539-3.56-2.326-9.352,0.444-11.331
		c3.24-2.313,3.487-3.009,2.423-6.821c-0.783-2.805-0.132-4.954,2.137-6.751c0.769-0.606,1.651-1.064,2.473-1.607
		c3.043-2.016,3.38-3.011,1.449-6.033c-1.595-2.492-3.414-4.854-5.295-7.138c-2.135-2.594-4.649-4.892-6.589-7.618
		c-0.837-1.18-1.473-1.675-2.812-1.721c-3.143-0.107-5.869-1.339-8.145-3.542c-1.714-1.658-3.251-3.528-5.1-5.009
		c-1.884-1.511-3.288-3.163-3.621-5.637c-0.235-1.733-1.168-2.548-2.995-2.504c-3.441,0.084-6.802-0.69-9.404-2.959
		c-2.43-2.122-5.084-3.394-8.067-4.406c-1.576-0.534-3.191-1.815-4.106-3.218c-0.703-1.078-1.015-2.003-2.463-2.219
		c-0.697-0.103-1.47-0.82-1.897-1.471c-1.789-2.749-3.499-5.555-5.159-8.386c-0.756-1.291-0.452-2.378,0.613-3.557
		c0.571-0.63,0.739-2.072,0.475-2.958c-0.833-2.789-3.344-1.99-5.347-2.249c-1.415-0.184-2.999-0.083-4.2-0.714
		c-2.685-1.407-5.18-3.19-8.28-5.155c1.532-0.559,2.46-1.072,3.438-1.214c1.646-0.238,2.106-1.091,2.135-2.693
		c0.026-1.636,0.358-3.283,0.716-4.889c0.111-0.505,0.776-1.297,1.128-1.266c2.627,0.228,5.391-0.06,7.338,2.527
		c1.676,2.224,4.667,1.834,6.12-0.534c0.366-0.595,0.803-1.291,1.385-1.581c2.854-1.428,4.703-3.754,6.026-6.59
		c1.524-3.266,0.649-6.065-2.078-8.548c4.039-1.153,5.791-4.23,6.62-7.483c1.243-4.874,3.729-7.518,8.812-7.481
		c1.359,0.01,2.366-0.617,2.633-2.329c0.142-0.9,0.99-1.902,1.79-2.45c5.723-3.914,11.467-7.748,18.334-9.48
		c2.206-0.557,3.176-0.094,3.762,1.965c0.158,0.563,0.482,1.307,0.937,1.519c2.604,1.226,5.231,1.959,8.194,0.983
		c2.309-0.76,4.803-0.924,7.183-1.488c4.872-1.153,9.295,1.078,13.91,1.827c0.634,0.104,1.287,0.743,1.733,1.3
		c2.459,3.079,5.672,4.969,9.345,6.029c4.541,1.31,9.123,2.169,13.914,1.352c1.508-0.258,3.618-0.281,4.637,0.58
		c2.187,1.851,4.521,2.726,7.229,3.214c2.157,0.39,3.449,1.715,2.843,4.267c-0.105,0.437,0.387,1.441,0.724,1.502
		c4.479,0.801,7.708,6.006,13.029,3.844c0.219-0.088,0.598,0.204,0.891,0.343c5.626,2.684,10.841,1.61,16.096-1.356
		c2.104-1.188,4.729-1.463,7.15-2.01c0.461-0.104,1.112,0.4,1.603,0.734c1.492,1.016,2.938,2.095,4.412,3.135
		c1.096,0.77,2.65,1.27,3.219,2.324c1.128,2.094,2.76,2.598,4.697,2.195c2.598-0.54,3.022-2.84,3.622-5.07
		c0.574-2.129-0.651-2.499-2.101-3.112c-0.776-0.328-1.267-1.288-2.002-1.785c-0.907-0.613-1.886-1.271-2.922-1.507
		c-3.232-0.735-3.798-1.5-4.135-4.82c-0.216-2.111,0.818-2.906,2.391-3.717c4.433-2.284,8.6-4.732,9.305-10.584
		c0.271-2.277-0.779-3.817-2.283-3.992c-2.659-0.309-2.945-1.998-3.412-3.908c-0.295-1.203-0.695-2.381-1.04-3.573
		c-0.67-2.328,0.249-3.599,2.622-3.626c4.144-0.049,4.144-0.049,3.374-4.321c-0.073-0.408-0.149-0.815-0.231-1.22
		c-0.414-2.072,1.033-6.152,2.866-6.803c1.352-0.48,3.165-1.48,4.4,0.865c0.86,1.632,2.337,1.903,3.764,0.256
		c0.549-0.633,1.352-1.039,2.202-1.667c0.951,1.505,2.183,2.692,2.438,4.066c0.263,1.415,0.261,2.396,1.987,2.347
		c0.267-0.007,0.527,0.629,0.831,0.926c0.414,0.406,0.879,1.118,1.297,1.099c2.423-0.113,4.935-0.035,7.23-0.694
		c8.681-2.489,17.289-5.24,25.926-7.883c1.089-0.333,2.179-0.744,3.299-0.894c4.479-0.601,7.925-2.399,10.117-6.813
		c0.773-1.557,3.304-2.955,5.113-3.063c2.593-0.156,4.787-0.812,6.84-2.204c0.486-0.329,0.763-1.121,0.935-1.756
		c0.356-1.308,0.576-2.655,0.851-3.985c0.496-2.415,1.038-4.82,1.434-7.251c0.062-0.398-0.423-1.085-0.832-1.332
		c-2.168-1.3-2.971-3.373-3.541-5.703c-0.267-1.083-0.689-2.551-1.494-2.988c-2.294-1.247-1.915-3.159-1.784-5.104
		c0.101-1.571,0.285-3.139,0.343-4.711c0.136-3.822,1.698-5.174,5.407-5.055c2.239,0.072,4.537-0.081,6.724-0.541
		c2.319-0.489,2.281-2.662,2.511-4.584c0.191-1.598,0.128-3.611,1.044-4.661c2.152-2.463,5.371-1.901,8.292-1.929
		c1.815-0.018,3.153,0.664,3.691,2.592c0.088,0.319,0.567,0.744,0.873,0.75c2.155,0.042,4.33,0.137,6.473-0.073
		c3.063-0.3,6.104-0.846,9.152-1.286v-1.99c-3.212,0.459-6.411,1.076-9.639,1.32C555.482,31.314,552.86,31.516,551.987,30.485z"/>
	<path fill="#040000" d="M1.532,454.58c0.155-0.177,0.326-0.348,0.5-0.517H0.869C1.091,454.236,1.311,454.407,1.532,454.58z"/>
	<path fill="#040000" d="M13.367,454.139c3.979,0,7.688,0,11.326,0c0.011-0.025,0.021-0.051,0.033-0.074H13.394
		C13.385,454.09,13.376,454.111,13.367,454.139z"/>
	<path fill="#040000" d="M27.668,439.764c-0.125-0.805-2.086-1.317-3.476-2.118c0.634-0.559,1.164-1.363,1.865-1.577
		c2.17-0.66,4.407-1.094,7.025-1.712c0.912,1.172,2.125,3.05,4.772,2.07c3.441-1.273,6.525-2.928,8.596-6.205
		c0.908-1.437,2.173-2.653,3.348-3.901c3.288-3.491,8.159-5.293,10.346-9.979c0.13-0.28,0.727-0.586,1.003-0.508
		c2.58,0.731,2.567-1.111,2.818-2.787c0.551-3.686,0.811-3.907,4.386-2.877c2.061,0.595,3.793,0.748,5.732-0.671
		c1.388-1.017,3.377-1.815,5.02-1.686c1.979,0.152,4.34,0.916,5.694,2.274c1.855,1.864,2.804,2.257,4.851,0.333
		c0.908-0.85,2.202-1.94,3.238-1.856c2.675,0.218,2.538-1.316,2.39-3.053c-0.178-2.101,0.563-2.766,2.725-2.441
		c1.395,0.21,2.909-0.414,4.37-0.662c-0.312-1.036-0.796-2.053-0.892-3.11c-0.102-1.108,0.092-2.271,0.352-3.361
		c0.041-0.163,1.208-0.251,1.743-0.059c3.771,1.359,7.808,0.282,10.052-2.901c1.093-1.552,2.346-2.176,4.161-1.499
		c1.316,0.488,1.886,0.226,1.892-1.44c0.006-1.646,0.312-3.546,2.897-2.506c0.402,0.161,1.425-0.126,1.456-0.32
		c0.532-3.326,2.941-2.053,4.766-2.021c5.13,0.081,5.959-0.681,6.024-5.787c0.035-2.576,1.674-3.501,3.917-2.208
		c0.425,0.244,0.821,0.554,1.268,0.746c2.156,0.931,2.922,0.151,3.384-2.171c0.729-3.672,2.855-7.153,1.026-11.063
		c-0.05-0.104,0.136-0.3,0.159-0.459c0.569-4.086,1.138-8.172,1.689-12.26c0.18-1.33-0.284-1.913-1.752-1.929
		c-3.403-0.041-5.739-2.824-5.626-6.341c0.034-1.046-0.115-2.115-0.318-3.146c-0.438-2.224-0.543-4.312,0.984-6.261
		c0.538-0.685,0.973-2.453,0.849-2.518c-1.408-0.725-2.903-1.378-4.445-1.656c-0.351-0.062-1.164,1.313-1.411,2.137
		c-0.337,1.119-0.335,2.342-0.521,3.876c-2.451-1.378-4.424-2.787-6.609-3.627c-1.961-0.755-2.84-1.599-2.811-3.901
		c0.04-3.032-0.597-6.022-3.47-7.9c-0.665-0.432-1.611-1.113-1.643-1.724c-0.213-3.921-0.41-7.859-0.207-11.767
		c0.167-3.238,1.201-6.439,1.287-9.673c0.102-3.776-1.813-7.254-2.026-11.132c-0.191-3.462-1.595-6.888-2.683-10.256
		c-1.036-3.208-0.718-4.594,1.968-6.594c0.739-0.55,1.372-1.248,2.055-1.88c-0.075-0.257-0.147-0.515-0.22-0.771
		c-2.168,0-4.337,0-6.471,0c-0.433-1.522-1.207-2.83-1.055-4.013c0.25-1.918,0.375-3.174-2.053-3.394
		c-0.697-0.064-1.496-1.054-1.918-1.806c-2.836-5.073-6.72-9.667-7.409-15.759c-0.519-4.596-3.106-7.945-6.268-10.907
		c-1.833-1.723-3.917-3.163-6.163-4.953c3.081-2.186,1.239-4.271,0.042-6.397c-1.053-1.87-2.018-3.793-3.137-5.622
		c-1.205-1.963-2.177-4.358-3.918-5.617c-1.777-1.286-2.148-2.748-2.322-4.517c-0.137-1.386-0.049-2.803,0.038-4.2
		c0.308-5.021,0.323-5.02-4.328-5.947c0.513-0.85,0.826-2.093,1.54-2.414c2.225-0.997,1.062-2.197,0.627-3.592
		c-0.577-1.847-1.187-3.799-1.176-5.702c0.04-6.051,0.351-12.101,0.581-18.149c0.041-1.075-0.129-2.318,0.336-3.187
		c2.046-3.823,0.82-6.862-1.581-10.005c-2.302-3.012-2.074-4.988,0.219-7.809c2.551,0.699,5.117,1.55,7.745,2.063
		c1.463,0.287,3.102,0.293,4.542-0.067c3.867-0.97,4.531-0.807,6.884,2.644c1.618,2.375,3.281,4.72,4.893,7.099
		c1.957,2.887,3.885,5.795,5.739,8.566c-2.227,2.551-1.882,4.905,1.013,6.004c6.429,2.438,13.016,4.131,19.55,0.186
		c0.869-0.523,2.338-1.462,2.244-1.955c-0.775-4.069,5.243-3.537,4.667-7.318c-0.01-0.065,0.239-0.205,0.385-0.256
		c2.116-0.729,4.316-2.208,6.337-1.991c3,0.323,4.414-1.005,5.647-3.444c3.388,2.051,3.451-1.647,4.845-2.66
		c0.812,0.168,1.469,0.303,2.125,0.439c0-1.818,0-3.637,0-5.807c1.032-0.415,2.432-0.855,3.713-1.533
		c1.277-0.675,2.556-1.449,3.602-2.435c1.187-1.121,1.07-2.366-0.764-2.528c-1.34-0.118-2.727,0.291-4.673,0.54
		c0.824-0.77,1.45-1.689,2.308-2.079c1.247-0.567,2.773-0.527,3.985-1.142c4.105-2.078,6.88-0.359,9.159,3.028
		c1.94,2.883,4.584,4.553,7.966,5.262c1.561,0.328,3.761,0.796,4.358,1.921c1.467,2.754,3.522,2.619,6.053,2.952
		c3.133,0.412,5.935,0.187,8.846-0.891c1.049-0.389,3.15-0.519,3.399-0.038c1.39,2.691,3.698,1.781,5.258,1.168
		c2.247-0.881,4.799-2.252,6.003-4.192c1.052-1.69,1.676-4.476-0.038-6.76c-0.353-0.472-0.452-1.498-0.176-1.981
		c0.209-0.371,1.189-0.326,1.833-0.4c0.686-0.078,1.381-0.078,1.979-0.108c0.09-1.577,0.274-2.864,0.193-4.132
		c-0.052-0.782-0.291-1.948-0.818-2.234c-2.083-1.131-1.132-2.571-0.607-3.962c0.377-1.001,0.793-2.033,1.413-2.882
		c0.5-0.679,1.275-1.45,2.032-1.584c5.753-1.023,8.407-3.666,9.468-9.681c0.737-4.18,1.731-4.908,5.916-4.271
		c0.64,0.097,1.256,0.45,1.89,0.466c0.567,0.015,1.254-0.12,1.689-0.454c1.739-1.34,3.353-3.845,5.105-3.927
		c2.315-0.107,2.367-1.18,2.549-2.356c2.671-0.777,5.119-1.385,7.495-2.21c2.459-0.854,4.853-1.903,7.26-2.908
		c0.333-0.139,0.708-0.457,0.837-0.783c1.143-2.917,2.116-5.907,3.385-8.763c0.824-1.85,2.061-3.511,3.11-5.257
		c1.332,0.97,2.188,1.638,2.957,1.542c2.909-0.367,5.81-0.878,8.671-1.529c2.916-0.664,4.26-2.448,4.339-5.484
		c0.09-3.555-1.235-6.607-3.332-9.389c-0.885-1.175-1.488-2.597-2.483-3.647c-0.992-1.045-2.214-2.024-3.524-2.554
		c-1.338-0.543-2.909-0.508-4.644-0.764c1.505-2.488,2.359-4.744,5.264-5.3c1.101-0.211,2.273-1.633,2.838-2.792
		c1.076-2.209,1.775-4.612,2.563-6.959c0.65-1.939,1.918-2.59,3.91-2.601c1.817-0.009,3.763-0.193,5.417-0.88
		c1.829-0.756,3.181-0.473,4.432,0.802c1.377,1.408,2.577,2.996,3.972,4.386c0.488,0.488,1.515,1.054,1.961,0.845
		c2.118-0.992,3.895-2.447,4.473-4.938c0.55-2.372-0.473-4.627-2.173-5.557c-0.891-0.488-1.506-1.5-2.561-2.605
		c1.991-0.561,3.143-0.885,4.372-1.231c0.417,0.546,0.831,1.048,1.2,1.579c2.648,3.808,4.356,4.041,8.063,1.405
		c1.777-1.262,3.813-2.137,5.642-3.329c0.456-0.296,0.959-1.357,0.775-1.693c-1.154-2.114,0.287-2.36,1.656-2.372
		c1.287-0.011,2.634,0.193,3.834,0.63c0.604,0.219,1.315,1.145,1.355,1.792c0.284,4.528,1.584,5.951,6.155,6.177
		c2.346,0.115,3.896,1.012,4.94,3.314c0.565,1.247,1.995,2.788,3.165,2.911c2.714,0.287,5.577,0.12,8.244-0.474
		c3.266-0.724,5.326-3.367,7.224-6.02c1.393-1.944,0.316-3.789-0.124-5.69c-0.454-1.952,2.047-3.58,4.287-2.99
		c2.985,0.785,6.063,0.887,8.734-0.815c2.943-1.874,5.644-4.139,8.456-6.225c1.046-0.779,2.036-1.698,3.194-2.252
		c1.498-0.718,2.846-0.71,3.955,1.101c0.664,1.086,2.037,2.334,3.169,2.416c5.944,0.43,8.244,0.974,11.509-4.585
		c0.793-1.351,1.775-2.623,2.348-4.063c0.703-1.772,1.065-3.683,1.739-6.133c0.743-0.863,1.989-2.309,3.003-3.485
		c1.132,0.274,2.079,0.713,3.02,0.692c2.67-0.059,3.567-1.27,4.4-5.521h-1.961c-0.812,2.689-1.451,3.245-4.46,2.385
		c-1.981-0.567-2.474,0.213-3.257,1.711c-0.529,1.012-1.859,1.557-2.676,2.46c-0.475,0.529-0.812,1.328-0.897,2.044
		c-0.151,1.27,0.335,2.762-0.159,3.819c-1.146,2.453-2.528,4.849-4.157,6.998c-2.35,3.095-8.28,2.753-10.36-0.407
		c-1.094-1.662-2.788-2.403-4.438-1.658c-2.171,0.98-4.105,2.525-6.104,3.879c-2.696,1.826-5.301,3.801-8.077,5.493
		c-0.733,0.448-2.648,0.418-2.815,0.047c-0.791-1.746-2.013-1.155-3.125-0.883c-1.341,0.327-2.641,0.84-3.941,1.325
		c-3.479,1.297-4.132,2.46-2.966,6.01c0.626,1.905,0.17,3.235-1.008,4.739c-2.782,3.547-6.425,4.499-10.658,4.37
		c-1.843-0.057-3.106-0.382-3.748-2.336c-0.911-2.783-3.073-3.904-5.837-4.11c-4.466-0.333-4.682-0.661-4.763-5.258
		c-0.013-0.772-0.614-2.014-1.204-2.207c-1.921-0.626-3.952-1.056-5.965-1.203c-2.323-0.169-3.892,0.994-4.265,3.495
		c-0.062,0.43-0.153,1.016-0.444,1.223c-1.793,1.277-3.662,2.439-5.472,3.69c-1.589,1.099-2.88,0.989-3.862-0.799
		c-1.347-2.444-2.794-4.572-6.011-2.51c-0.42,0.27-1.144-0.006-1.686,0.137c-0.429,0.113-0.946,0.388-1.149,0.75
		c-0.936,1.664,0.466,5.625,2.26,6.069c2.112,0.521,2.052,2.126,1.58,3.448c-0.448,1.261-1.63,2.252-2.535,3.423
		c-1.604-1.778-2.806-3.247-4.148-4.567c-2.031-1.995-4.233-2.854-7.079-1.364c-1.201,0.627-2.825,0.655-4.234,0.572
		c-2.794-0.167-4.749,0.878-5.762,3.549c-0.848,2.237-1.517,4.547-2.436,6.751c-0.358,0.855-1.105,2.045-1.815,2.158
		c-3.152,0.498-4.548,2.75-5.993,5.211c-1.381,2.353-1.179,3.991,1.413,3.936c4.896-0.106,7.047,3.021,8.979,6.484
		c1.291,2.311,2.229,4.923,2.797,7.52c0.452,2.068-0.743,3.653-2.995,4.075c-1.926,0.359-3.841,0.782-5.777,1.073
		c-0.582,0.087-1.22-0.149-1.821-0.288c-0.909-0.208-1.887-0.814-2.695-0.628c-2.969,0.684-4.662,2.896-5.554,5.697
		c-1.578,4.95-3.173,9.563-8.987,11.333c-3.464,1.055-6.783,2.261-10.439,2.177c-3.364-0.078-3.299-0.063-3.077,3.393
		c0.037,0.546-1.113,1.714-1.235,1.649c-1.905-0.992-2.485,0.115-2.677,1.805c-0.739-0.074-1.296-0.134-1.855-0.187
		c-5.85-0.537-7.08,0.396-8.046,6.111c-0.86,5.071-3.453,7.422-8.485,7.896c-0.824,0.077-1.929,0.536-2.323,1.183
		c-0.89,1.458-1.555,3.102-2.059,4.75c-0.705,2.313-1.896,4.778,0.837,6.732c0.247,0.177,0.134,0.874,0.188,1.337
		c-0.743,0.038-1.44-0.123-1.925,0.132c-1.583,0.83-2.35,3.695-1.66,5.445c0.314,0.804,0.398,1.7,0.636,2.54
		c0.798,2.837-1.564,3.704-3.054,5.14c-1.503,1.451-3.064,1.686-4.788,0.436c-1.812-1.313-3.759-1.444-5.818-0.702
		c-1.149,0.415-2.325,1.16-3.468,1.12c-2.679-0.094-6.123,0.357-7.834-1.117c-2.375-2.042-4.841-3.155-7.599-4.124
		c-1.44-0.507-3.068-0.932-4.151-1.915c-2.114-1.919-4.079-4.077-5.768-6.391c-0.898-1.232-1.651-1.294-2.854-0.96
		c-3.146,0.873-6.31,1.685-9.464,2.531c-2.757,0.741-3.935,2.866-3.345,6.019c0.716,0.139,1.434,0.278,2.2,0.426
		c-1.777,1.244-3.288,3.129-4.975,3.305c-3.208,0.334-2.206,2.677-1.676,3.628c0.835,1.497,0.178,1.996-0.642,2.566
		c-1.076-0.002-2.721-0.095-2.957,0.444c-1.034,2.39-2.687,2.164-4.473,1.499c-2.308,3.048-2.304,3.139-5.94,3.27
		c-1.641,0.06-1.996,1.078-2.76,2.235c-1.597,2.42-4.086,4.223-4.843,7.244c-0.012,0.051-0.146,0.063-0.212,0.107
		c-5.988,4.03-12.07,2.151-18.087,0.146c-0.469-0.156-0.592-1.684-0.688-2.594c-0.081-0.767,0.448-1.75,0.138-2.315
		c-1.62-2.947-3.355-5.837-5.188-8.655c-1.203-1.852-2.652-3.538-3.962-5.321c-1.12-1.525-2.097-3.167-3.316-4.6
		c-1.396-1.64-3.338-2.32-5.326-1.472c-2.7,1.153-5.222,0.829-7.845-0.111c-1.688-0.605-3.42-1.197-5.18-1.432
		c-0.794-0.105-2.055,0.428-2.503,1.09c-2.505,3.7-2.373,6.339,0.608,10.377c1.71,2.315,2.627,4.473,1.01,7.257
		c-0.496,0.854-0.433,2.091-0.474,3.16c-0.256,6.546-0.49,13.092-0.675,19.64c-0.035,1.227-0.2,2.681,0.35,3.649
		c1.265,2.224,0.891,3.802-0.712,5.672c-0.704,0.82-0.625,2.459-0.561,3.71c0.011,0.221,1.7,0.382,2.624,0.514
		c0.633,0.091,1.279,0.087,1.972,0.128c0,3.464,0.124,6.823-0.051,10.166c-0.092,1.777-0.506,3.283,2.124,3.144
		c0.544-0.029,1.293,0.946,1.693,1.615c2.362,3.963,4.651,7.974,6.915,11.879c-2.158,3.472-2.001,4.131,0.99,6.193
		c4.987,3.433,9.223,7.483,10.035,13.977c0.766,6.117,4.763,10.607,7.528,15.714c0.45,0.834,1.405,1.372,2.02,2.134
		c0.561,0.698,1.038,1.483,1.45,2.286c1.17,2.28-0.193,6.745,5.276,5.241c-2.43,3.143-2.164,5.899-1.066,8.9
		c1.513,4.137,3.33,8.291,1.986,12.933c-0.115,0.398,0.327,1.042,0.643,1.474c1.695,2.327,1.791,4.973,1.465,7.665
		c-0.452,3.733-1.082,7.444-1.476,11.185c-0.163,1.543-0.063,3.149,0.184,4.681c0.311,1.911,0.309,4.44,1.49,5.519
		c2.595,2.378,3.474,5.42,3.947,8.446c0.469,3.015,1.89,4.313,4.493,5.087c0.672,0.2,1.475,1.142,1.58,1.841
		c0.191,1.277,0.592,1.53,1.752,1.211c0.655-0.181,1.396-0.048,2.099-0.05c1.338-0.002,2.675,0,4.016,0
		c-0.76,1.199-1.693,2.646,0.293,3.971c0.264,0.175,0.189,0.902,0.235,1.376c0.104,1.093-0.004,2.247,0.309,3.272
		c1.051,3.452,2.89,6.157,7.348,6.131c-0.714,4.161-1.394,7.882-1.961,11.618c-0.151,1.009,0.04,2.07,0.1,3.106
		c0.071,1.286,0.484,2.657,0.178,3.839c-0.467,1.804-1.425,3.479-2.21,5.291c-0.383-0.224-0.929-0.571-1.496-0.873
		c-3.367-1.78-6.281-0.114-6.452,4.067c-0.155,3.817-0.222,4.092-4.004,3.943c-2.267-0.089-4.824-1.236-6.182,1.849
		c-0.061,0.137-0.467,0.224-0.672,0.169c-2.679-0.697-2.962,1.686-4.246,3.047c-1.256,1.329-3.803,1.44-4.986,2.803
		c-2.599,2.993-5.044,4.023-8.853,2.716c-2.48-0.85-4.025,0.087-4.276,2.766c-0.151,1.613-0.027,3.25-0.027,5.006
		c-3.366-2.6-6.599,0.202-6.415,4.109c-1.998,1.24-3.857,2.395-5.776,3.586c-4.268-3.876-9.502-4.354-14.805-1.315
		c-0.769,0.438-1.892,0.756-2.696,0.536c-5.229-1.403-6.947-1.888-7.927,4.086c-1.749,1.58-2.95,2.628-4.11,3.721
		c-1.644,1.549-3.264,3.126-4.885,4.702c-2.636,2.562-5.573,4.889-7.798,7.777c-1.903,2.473-4.077,4.202-6.824,5.398
		c-1.436,0.626-2.556,0.634-3.547-0.908c-1.173-1.823-2.635-1.621-4.429-0.548c-1.304,0.777-3.077,1.399-4.498,1.174
		c-1.996-0.314-2.901,0.041-2.833,2.196c-1.502-0.075-2.803-0.231-4.095-0.169c-0.656,0.031-1.294,0.455-1.941,0.702
		c0.398,0.552,0.683,1.39,1.214,1.609c2.437,1.003,4.944,1.833,7.562,2.771c0.654,4.017-0.205,7.642-2.956,12.023
		c-2.117-0.152-4.216-0.302-7.119-0.51c1.229-2.325,2.226-4.212,3.413-6.455c-1.849-0.231-3.476-0.02-4.65-0.661
		c-3.294-1.802-6.562-0.646-9.835-0.339c-0.666,0.063-1.683,0.615-1.84,1.151c-0.763,2.581-1.287,5.236-1.896,7.864h1.165
		c0.418-0.408,0.844-0.814,1.042-1.312c0.573-1.452,0.841-3.024,1.365-4.5c0.183-0.514,0.681-1.164,1.146-1.273
		c1.423-0.336,2.913-0.673,4.354-0.595c4.372,0.239,5.16,2,4.138,5.721c-0.161,0.587-0.396,1.154-0.682,1.958h11.334
		c0.971-2.298,2.268-4.531,2.798-6.937C28.042,444.76,28.038,442.165,27.668,439.764z"/>
	<g enable-background="new    ">
		<path fill="#040000" d="M140.934,324.938c-0.954,0-1.806-0.222-2.561-0.663c-0.754-0.443-1.348-1.079-1.781-1.911
			c-0.433-0.83-0.649-1.831-0.649-3.003c0-1.176,0.216-2.181,0.653-3.013c0.435-0.834,1.032-1.474,1.789-1.915
			s1.606-0.663,2.549-0.663c0.613,0,1.184,0.088,1.714,0.263c0.529,0.175,0.996,0.43,1.404,0.766
			c0.406,0.337,0.739,0.745,1.001,1.225c0.26,0.48,0.431,1.026,0.513,1.639h-2.219c-0.052-0.301-0.147-0.569-0.288-0.809
			c-0.14-0.239-0.31-0.439-0.517-0.604c-0.205-0.165-0.44-0.29-0.703-0.375c-0.264-0.086-0.551-0.128-0.862-0.128
			c-0.565,0-1.059,0.144-1.484,0.429c-0.423,0.288-0.751,0.7-0.98,1.236c-0.23,0.537-0.345,1.187-0.345,1.95
			c0,0.771,0.115,1.429,0.349,1.965c0.231,0.537,0.557,0.943,0.98,1.223c0.421,0.274,0.913,0.414,1.478,0.414
			c0.307,0,0.592-0.044,0.856-0.132c0.263-0.088,0.498-0.212,0.707-0.375c0.208-0.163,0.381-0.361,0.521-0.601
			c0.138-0.237,0.238-0.508,0.293-0.809h2.22c-0.067,0.53-0.222,1.028-0.463,1.494c-0.243,0.467-0.563,0.881-0.963,1.242
			c-0.398,0.362-0.868,0.646-1.408,0.85C142.201,324.837,141.598,324.938,140.934,324.938z"/>
		<path fill="#040000" d="M149.178,320.164v4.622h-2.141v-10.862h2.11v4.841h-0.222c0.216-0.681,0.54-1.207,0.973-1.582
			c0.433-0.374,0.99-0.563,1.67-0.563c0.552,0,1.03,0.123,1.442,0.366c0.412,0.242,0.732,0.593,0.959,1.049
			c0.226,0.457,0.341,1.007,0.341,1.646v5.103h-2.146v-4.714c0-0.513-0.126-0.907-0.381-1.193c-0.253-0.283-0.607-0.426-1.063-0.426
			c-0.301,0-0.569,0.066-0.799,0.2c-0.233,0.135-0.416,0.327-0.547,0.58C149.243,319.483,149.178,319.795,149.178,320.164z"/>
		<path fill="#040000" d="M158.326,324.938c-0.508,0-0.961-0.09-1.366-0.269c-0.402-0.181-0.716-0.449-0.948-0.807
			c-0.23-0.355-0.345-0.801-0.345-1.332c0-0.45,0.081-0.828,0.243-1.129c0.163-0.302,0.387-0.544,0.668-0.729
			c0.283-0.184,0.605-0.325,0.965-0.418c0.362-0.096,0.741-0.162,1.14-0.202c0.465-0.047,0.837-0.094,1.12-0.135
			c0.284-0.041,0.488-0.104,0.619-0.192c0.128-0.087,0.193-0.22,0.193-0.395v-0.037c0-0.222-0.05-0.414-0.147-0.571
			s-0.239-0.278-0.427-0.363c-0.186-0.086-0.414-0.129-0.682-0.129c-0.273,0-0.511,0.043-0.716,0.129
			c-0.203,0.085-0.368,0.198-0.494,0.342c-0.128,0.144-0.216,0.306-0.27,0.484l-1.975-0.255c0.109-0.484,0.32-0.9,0.632-1.246
			c0.312-0.346,0.708-0.608,1.193-0.791c0.482-0.183,1.034-0.272,1.651-0.272c0.45,0,0.879,0.053,1.283,0.159
			c0.404,0.107,0.764,0.272,1.08,0.496s0.565,0.508,0.743,0.85c0.18,0.342,0.27,0.752,0.27,1.227v5.431h-2.047v-1.121h-0.065
			c-0.128,0.253-0.301,0.477-0.511,0.667c-0.214,0.192-0.469,0.342-0.766,0.446C159.07,324.886,158.722,324.938,158.326,324.938z
			 M158.929,323.414c0.341,0,0.636-0.066,0.891-0.204c0.252-0.136,0.452-0.316,0.595-0.546c0.144-0.228,0.216-0.484,0.216-0.771
			v-0.854c-0.067,0.039-0.161,0.077-0.281,0.116c-0.119,0.039-0.255,0.074-0.408,0.104c-0.153,0.028-0.309,0.056-0.463,0.079
			c-0.157,0.025-0.299,0.047-0.429,0.066c-0.258,0.039-0.488,0.101-0.689,0.185c-0.201,0.086-0.356,0.2-0.465,0.344
			c-0.111,0.145-0.165,0.321-0.165,0.537c0,0.202,0.05,0.377,0.153,0.517c0.103,0.143,0.245,0.247,0.425,0.321
			C158.486,323.377,158.695,323.414,158.929,323.414z"/>
		<path fill="#040000" d="M168.58,316.737v1.672h-4.811v-1.672H168.58z M164.924,314.764h2.141v7.64
			c0,0.257,0.056,0.445,0.168,0.563c0.113,0.119,0.301,0.179,0.563,0.179c0.098,0,0.22-0.008,0.37-0.024
			c0.151-0.018,0.268-0.033,0.349-0.047l0.237,1.654c-0.216,0.052-0.44,0.091-0.674,0.112c-0.236,0.021-0.461,0.033-0.684,0.033
			c-0.812,0-1.429-0.19-1.844-0.573c-0.417-0.381-0.625-0.939-0.625-1.674v-7.863H164.924z"/>
		<path fill="#040000" d="M172.25,324.938c-0.508,0-0.961-0.09-1.364-0.269c-0.404-0.181-0.718-0.449-0.948-0.807
			c-0.23-0.355-0.347-0.801-0.347-1.332c0-0.45,0.083-0.828,0.245-1.129c0.163-0.302,0.385-0.544,0.668-0.729
			c0.281-0.184,0.603-0.325,0.965-0.418c0.36-0.096,0.739-0.162,1.138-0.202c0.465-0.047,0.839-0.094,1.122-0.135
			c0.282-0.041,0.486-0.104,0.617-0.192c0.13-0.087,0.193-0.22,0.193-0.395v-0.037c0-0.222-0.048-0.414-0.146-0.571
			c-0.1-0.157-0.241-0.278-0.429-0.363c-0.186-0.086-0.414-0.129-0.682-0.129c-0.272,0-0.511,0.043-0.714,0.129
			c-0.205,0.085-0.37,0.198-0.496,0.342s-0.216,0.306-0.27,0.484l-1.975-0.255c0.111-0.484,0.322-0.9,0.634-1.246
			c0.311-0.346,0.709-0.608,1.191-0.791c0.484-0.183,1.034-0.272,1.652-0.272c0.45,0,0.877,0.053,1.283,0.159
			c0.402,0.107,0.764,0.272,1.08,0.496s0.563,0.508,0.743,0.85c0.18,0.342,0.268,0.752,0.268,1.227v5.431h-2.045v-1.121h-0.065
			c-0.13,0.253-0.301,0.477-0.513,0.667c-0.214,0.192-0.469,0.342-0.764,0.446C172.994,324.886,172.647,324.938,172.25,324.938z
			 M172.853,323.414c0.341,0,0.638-0.066,0.891-0.204c0.254-0.136,0.452-0.316,0.595-0.546c0.146-0.228,0.216-0.484,0.216-0.771
			v-0.854c-0.067,0.039-0.161,0.077-0.279,0.116c-0.121,0.039-0.257,0.074-0.41,0.104c-0.153,0.028-0.309,0.056-0.463,0.079
			c-0.155,0.025-0.299,0.047-0.427,0.066c-0.258,0.039-0.488,0.101-0.689,0.185c-0.201,0.086-0.358,0.2-0.467,0.344
			c-0.109,0.145-0.165,0.321-0.165,0.537c0,0.202,0.052,0.377,0.153,0.517c0.103,0.143,0.245,0.247,0.425,0.321
			C172.41,323.377,172.619,323.414,172.853,323.414z"/>
		<path fill="#040000" d="M180.58,320.164v4.622h-2.139v-8.047h2.04l0.027,2.025h-0.178c0.214-0.681,0.538-1.207,0.973-1.58
			c0.433-0.376,0.99-0.563,1.67-0.563c0.55,0,1.03,0.121,1.442,0.364c0.412,0.242,0.731,0.595,0.956,1.051
			c0.224,0.457,0.337,1.005,0.337,1.646v5.103h-2.141v-4.716c0-0.511-0.126-0.907-0.379-1.191c-0.254-0.283-0.609-0.428-1.063-0.428
			c-0.303,0-0.569,0.066-0.801,0.202c-0.231,0.133-0.416,0.325-0.545,0.58C180.646,319.483,180.58,319.795,180.58,320.164z"/>
	</g>
	<g enable-background="new    ">
		<path fill="#040000" d="M372.465,43.89c-0.949,0-1.8-0.222-2.556-0.664c-0.757-0.442-1.354-1.079-1.791-1.91
			c-0.438-0.832-0.658-1.833-0.658-3.004c0-1.176,0.22-2.181,0.658-3.014c0.437-0.833,1.034-1.471,1.791-1.914
			c0.756-0.442,1.608-0.663,2.556-0.663c0.946,0,1.801,0.221,2.553,0.663c0.755,0.442,1.351,1.08,1.789,1.914
			s0.657,1.838,0.657,3.014c0,1.171-0.219,2.174-0.657,3.007s-1.034,1.47-1.789,1.91C374.266,43.669,373.413,43.89,372.465,43.89z
			 M372.465,41.915c0.554,0,1.042-0.14,1.458-0.415c0.417-0.278,0.739-0.685,0.973-1.223c0.231-0.536,0.349-1.191,0.349-1.964
			c0-0.777-0.117-1.437-0.349-1.975c-0.233-0.541-0.556-0.948-0.973-1.224c-0.418-0.278-0.904-0.416-1.458-0.416
			c-0.551,0-1.035,0.14-1.453,0.419c-0.419,0.279-0.745,0.688-0.977,1.224c-0.233,0.538-0.349,1.194-0.349,1.972
			c0,0.772,0.115,1.427,0.349,1.961c0.231,0.535,0.558,0.941,0.977,1.221C371.43,41.774,371.916,41.915,372.465,41.915z"/>
		<path fill="#040000" d="M381.109,39.114v4.622h-2.139v-8.047h2.039l0.029,2.026h-0.181c0.215-0.681,0.54-1.207,0.973-1.582
			c0.432-0.374,0.99-0.561,1.67-0.561c0.55,0,1.032,0.122,1.444,0.364c0.412,0.243,0.729,0.593,0.953,1.05
			c0.227,0.457,0.34,1.006,0.34,1.647v5.103h-2.142v-4.715c0-0.512-0.126-0.908-0.381-1.192c-0.253-0.283-0.607-0.427-1.063-0.427
			c-0.301,0-0.569,0.066-0.801,0.201c-0.231,0.133-0.414,0.326-0.546,0.579C381.177,38.435,381.109,38.746,381.109,39.114z"/>
		<path fill="#040000" d="M390.145,39.114v4.622h-2.141v-8.047h2.039l0.028,2.026h-0.18c0.217-0.681,0.54-1.207,0.973-1.582
			c0.435-0.374,0.99-0.561,1.67-0.561c0.552,0,1.032,0.122,1.444,0.364c0.411,0.243,0.729,0.593,0.955,1.05
			c0.227,0.457,0.337,1.006,0.337,1.647v5.103h-2.139v-4.715c0-0.512-0.128-0.908-0.381-1.192c-0.255-0.283-0.609-0.427-1.063-0.427
			c-0.302,0-0.568,0.066-0.8,0.201c-0.232,0.133-0.416,0.326-0.546,0.579S390.145,38.746,390.145,39.114z"/>
		<path fill="#040000" d="M399.292,43.89c-0.507,0-0.959-0.091-1.363-0.27c-0.402-0.179-0.718-0.448-0.948-0.806
			c-0.229-0.356-0.345-0.8-0.345-1.331c0-0.451,0.081-0.828,0.244-1.13c0.162-0.301,0.387-0.544,0.668-0.729
			c0.283-0.184,0.604-0.324,0.965-0.419c0.362-0.096,0.741-0.161,1.14-0.201c0.463-0.047,0.837-0.093,1.12-0.134
			c0.281-0.042,0.488-0.105,0.617-0.193c0.13-0.088,0.193-0.219,0.193-0.395v-0.036c0-0.223-0.048-0.414-0.146-0.572
			c-0.1-0.158-0.242-0.279-0.43-0.364c-0.186-0.085-0.413-0.128-0.682-0.128c-0.271,0-0.511,0.042-0.714,0.128
			c-0.203,0.084-0.37,0.199-0.496,0.342c-0.127,0.145-0.217,0.306-0.269,0.485l-1.976-0.255c0.11-0.485,0.321-0.901,0.634-1.247
			c0.31-0.345,0.708-0.608,1.19-0.791c0.485-0.182,1.034-0.272,1.653-0.272c0.45,0,0.877,0.053,1.283,0.16
			c0.401,0.106,0.762,0.272,1.08,0.496c0.315,0.224,0.563,0.507,0.742,0.85c0.181,0.343,0.271,0.753,0.271,1.228v5.431h-2.047
			v-1.123h-0.065c-0.128,0.253-0.301,0.476-0.512,0.667c-0.214,0.192-0.469,0.342-0.766,0.447
			C400.039,43.835,399.692,43.89,399.292,43.89z M399.897,42.366c0.341,0,0.638-0.067,0.891-0.204
			c0.255-0.136,0.452-0.317,0.596-0.546s0.216-0.485,0.216-0.773v-0.852c-0.066,0.039-0.16,0.077-0.279,0.116
			c-0.121,0.039-0.257,0.073-0.41,0.103s-0.308,0.057-0.463,0.08c-0.155,0.024-0.299,0.046-0.43,0.065
			c-0.258,0.039-0.488,0.102-0.688,0.186c-0.201,0.085-0.354,0.199-0.468,0.344c-0.109,0.144-0.165,0.321-0.165,0.536
			c0,0.204,0.052,0.377,0.155,0.519c0.102,0.141,0.243,0.246,0.424,0.32C399.455,42.33,399.662,42.366,399.897,42.366z"/>
	</g>
	<g enable-background="new    ">
		<path fill="#040000" d="M109.116,250.64v-10.862h2.196v2.975l-0.028,2.764l0.028,1.085v4.039H109.116L109.116,250.64z
			 M110.73,248.228v-2.194c0.226-0.379,0.448-0.735,0.668-1.067s0.456-0.665,0.705-0.995c0.249-0.331,0.529-0.687,0.841-1.065
			l2.62-3.128h2.679l-4.518,5.301l-0.18-0.052L110.73,248.228z M115.772,250.64l-3.181-4.906l1.371-1.67l4.387,6.574h-2.578V250.64z
			"/>
		<path fill="#040000" d="M121.79,250.794c-0.507,0-0.961-0.092-1.363-0.271c-0.404-0.179-0.718-0.447-0.948-0.807
			c-0.229-0.355-0.347-0.799-0.347-1.33c0-0.451,0.083-0.828,0.245-1.129c0.163-0.302,0.385-0.545,0.667-0.729
			c0.284-0.185,0.605-0.324,0.967-0.42c0.36-0.095,0.739-0.161,1.137-0.2c0.465-0.048,0.837-0.093,1.121-0.134
			c0.283-0.043,0.488-0.104,0.618-0.194c0.13-0.088,0.194-0.218,0.194-0.393v-0.037c0-0.224-0.048-0.414-0.146-0.571
			c-0.099-0.159-0.241-0.28-0.429-0.365c-0.186-0.086-0.414-0.127-0.682-0.127c-0.272,0-0.511,0.041-0.714,0.127
			c-0.205,0.085-0.37,0.2-0.496,0.344s-0.216,0.305-0.27,0.484l-1.974-0.255c0.111-0.486,0.322-0.902,0.632-1.248
			c0.312-0.344,0.71-0.606,1.193-0.791c0.483-0.181,1.034-0.272,1.653-0.272c0.45,0,0.877,0.055,1.281,0.159
			c0.404,0.107,0.766,0.272,1.082,0.496c0.316,0.226,0.563,0.507,0.743,0.852c0.178,0.342,0.268,0.752,0.268,1.227v5.431h-2.045
			v-1.123h-0.065c-0.13,0.253-0.3,0.476-0.513,0.667c-0.214,0.192-0.469,0.344-0.764,0.448
			C122.535,250.739,122.188,250.794,121.79,250.794z M122.395,249.27c0.339,0,0.636-0.068,0.891-0.204
			c0.253-0.136,0.452-0.316,0.596-0.546s0.216-0.486,0.216-0.774v-0.851c-0.067,0.038-0.161,0.077-0.282,0.116
			c-0.119,0.039-0.254,0.072-0.408,0.101c-0.153,0.031-0.308,0.059-0.465,0.08c-0.155,0.025-0.297,0.047-0.427,0.066
			c-0.258,0.039-0.488,0.101-0.689,0.187c-0.201,0.085-0.356,0.198-0.466,0.344c-0.111,0.143-0.165,0.321-0.165,0.535
			c0,0.204,0.05,0.377,0.153,0.519c0.104,0.14,0.243,0.247,0.425,0.32C121.952,249.232,122.159,249.27,122.395,249.27z"/>
		<path fill="#040000" d="M130.918,250.778c-0.628,0-1.188-0.162-1.682-0.488c-0.494-0.324-0.883-0.797-1.166-1.413
			c-0.286-0.618-0.429-1.368-0.429-2.253c0-0.898,0.147-1.656,0.438-2.271c0.293-0.614,0.686-1.081,1.178-1.399
			c0.494-0.319,1.042-0.477,1.645-0.477c0.427,0,0.787,0.07,1.084,0.212c0.297,0.14,0.542,0.317,0.735,0.534
			c0.195,0.216,0.347,0.439,0.456,0.675h0.058v-4.119h2.141v10.86h-2.11v-1.272h-0.081c-0.109,0.23-0.264,0.456-0.463,0.672
			c-0.199,0.218-0.444,0.395-0.739,0.533C131.69,250.708,131.334,250.778,130.918,250.778z M131.55,249.028
			c0.368,0,0.682-0.101,0.94-0.303c0.259-0.2,0.456-0.48,0.596-0.842c0.14-0.36,0.209-0.781,0.209-1.268s-0.069-0.908-0.205-1.266
			c-0.138-0.357-0.335-0.634-0.596-0.83c-0.26-0.198-0.576-0.295-0.944-0.295c-0.364,0-0.674,0.099-0.931,0.299
			c-0.257,0.198-0.45,0.477-0.582,0.838c-0.132,0.359-0.197,0.777-0.197,1.254c0,0.48,0.067,0.902,0.197,1.266
			c0.132,0.361,0.325,0.644,0.582,0.846C130.876,248.928,131.187,249.028,131.55,249.028z"/>
		<path fill="#040000" d="M140.734,250.8c-0.808,0-1.507-0.17-2.093-0.51c-0.586-0.34-1.04-0.822-1.358-1.444
			s-0.477-1.351-0.477-2.192c0-0.832,0.159-1.56,0.473-2.184c0.316-0.624,0.762-1.113,1.337-1.465
			c0.574-0.353,1.247-0.529,2.016-0.529c0.533,0,1.026,0.088,1.48,0.263c0.456,0.175,0.854,0.434,1.195,0.777
			c0.343,0.342,0.609,0.768,0.797,1.283c0.189,0.511,0.283,1.102,0.283,1.772v0.606h-6.727v-1.37h5.688l-1,0.355
			c0-0.418-0.063-0.779-0.193-1.087c-0.13-0.307-0.32-0.542-0.571-0.711c-0.25-0.167-0.561-0.251-0.931-0.251
			c-0.368,0-0.682,0.086-0.94,0.255c-0.257,0.171-0.456,0.404-0.592,0.699c-0.138,0.298-0.205,0.638-0.205,1.021v0.962
			c0,0.453,0.077,0.836,0.23,1.152c0.153,0.315,0.37,0.554,0.649,0.718c0.28,0.163,0.607,0.244,0.98,0.244
			c0.255,0,0.487-0.038,0.693-0.112c0.209-0.076,0.385-0.185,0.532-0.328c0.146-0.145,0.257-0.319,0.333-0.529l1.947,0.284
			c-0.125,0.469-0.348,0.875-0.672,1.223s-0.728,0.616-1.212,0.809C141.91,250.704,141.357,250.8,140.734,250.8z"/>
		<path fill="#040000" d="M147.929,246.02v4.62h-2.139v-8.047h2.04l0.027,2.027h-0.178c0.214-0.681,0.538-1.207,0.973-1.583
			c0.433-0.373,0.99-0.56,1.67-0.56c0.55,0,1.03,0.121,1.442,0.363c0.412,0.243,0.731,0.593,0.956,1.05s0.337,1.007,0.337,1.646
			v5.103h-2.141v-4.714c0-0.513-0.126-0.907-0.379-1.193c-0.254-0.283-0.609-0.426-1.063-0.426c-0.303,0-0.569,0.066-0.801,0.2
			c-0.231,0.135-0.416,0.327-0.545,0.579C147.996,245.339,147.929,245.648,147.929,246.02z"/>
		<path fill="#040000" d="M157.079,250.794c-0.507,0-0.961-0.092-1.363-0.271c-0.404-0.179-0.718-0.447-0.95-0.807
			c-0.228-0.355-0.345-0.799-0.345-1.33c0-0.451,0.082-0.828,0.245-1.129c0.163-0.302,0.385-0.545,0.667-0.729
			c0.283-0.185,0.605-0.324,0.967-0.42c0.36-0.095,0.739-0.161,1.138-0.2c0.465-0.048,0.837-0.093,1.12-0.134
			c0.284-0.043,0.488-0.104,0.619-0.194c0.128-0.088,0.193-0.218,0.193-0.393v-0.037c0-0.224-0.048-0.414-0.147-0.571
			c-0.098-0.159-0.239-0.28-0.427-0.365c-0.186-0.086-0.414-0.127-0.682-0.127c-0.272,0-0.511,0.041-0.714,0.127
			c-0.205,0.085-0.37,0.2-0.496,0.344c-0.126,0.144-0.217,0.305-0.27,0.484l-1.975-0.255c0.109-0.486,0.322-0.902,0.632-1.248
			c0.313-0.344,0.71-0.606,1.193-0.791c0.482-0.181,1.034-0.272,1.652-0.272c0.45,0,0.877,0.055,1.281,0.159
			c0.404,0.107,0.766,0.272,1.082,0.496c0.314,0.226,0.563,0.507,0.743,0.852c0.178,0.342,0.268,0.752,0.268,1.227v5.431h-2.047
			v-1.123H159.4c-0.13,0.253-0.303,0.476-0.513,0.667c-0.215,0.192-0.469,0.344-0.764,0.448
			C157.824,250.739,157.477,250.794,157.079,250.794z M157.682,249.27c0.341,0,0.636-0.068,0.89-0.204
			c0.255-0.136,0.452-0.316,0.596-0.546c0.146-0.229,0.216-0.486,0.216-0.774v-0.851c-0.067,0.038-0.161,0.077-0.279,0.116
			c-0.121,0.039-0.257,0.072-0.41,0.101c-0.153,0.031-0.308,0.059-0.463,0.08c-0.157,0.025-0.298,0.047-0.427,0.066
			c-0.261,0.039-0.488,0.101-0.689,0.187c-0.201,0.085-0.358,0.198-0.467,0.344c-0.109,0.143-0.165,0.321-0.165,0.535
			c0,0.204,0.052,0.377,0.153,0.519c0.104,0.14,0.245,0.247,0.425,0.32C157.24,249.232,157.448,249.27,157.682,249.27z"/>
	</g>
	<g>
		<ellipse fill="#040000" cx="386.238" cy="53.018" rx="4.249" ry="4.312"/>
		<ellipse fill="#FFFFFF" cx="386.238" cy="53.018" rx="1.75" ry="1.775"/>
	</g>
	<g>
		<ellipse fill="#040000" cx="130.503" cy="258.325" rx="4.247" ry="4.313"/>
		<ellipse fill="#FFFFFF" cx="130.503" cy="258.325" rx="1.748" ry="1.776"/>
	</g>
	<g>
		<ellipse fill="#040000" cx="157.213" cy="335.955" rx="4.25" ry="4.313"/>
		<ellipse fill="#FFFFFF" cx="157.213" cy="335.955" rx="1.75" ry="1.775"/>
	</g>
	<g>
		<path fill="#040000" d="M220.338,312.387c-0.948,0-1.8-0.222-2.556-0.664c-0.757-0.441-1.354-1.078-1.792-1.909
			s-0.657-1.832-0.657-3.004c0-1.176,0.219-2.181,0.657-3.014s1.035-1.472,1.792-1.913c0.756-0.442,1.608-0.664,2.556-0.664
			c0.948,0,1.799,0.222,2.553,0.664c0.754,0.441,1.35,1.08,1.788,1.913s0.657,1.838,0.657,3.014c0,1.172-0.219,2.174-0.657,3.008
			c-0.438,0.833-1.034,1.47-1.788,1.909C222.137,312.167,221.286,312.387,220.338,312.387z M220.338,310.411
			c0.556,0,1.042-0.139,1.458-0.416c0.417-0.276,0.741-0.684,0.973-1.221c0.232-0.537,0.348-1.191,0.348-1.965
			c0-0.777-0.116-1.436-0.348-1.975c-0.232-0.54-0.557-0.948-0.973-1.225c-0.417-0.277-0.902-0.416-1.458-0.416
			c-0.55,0-1.035,0.14-1.454,0.419c-0.419,0.28-0.745,0.688-0.977,1.225c-0.232,0.537-0.348,1.194-0.348,1.972
			c0,0.773,0.116,1.427,0.348,1.961c0.232,0.535,0.558,0.942,0.977,1.222S219.788,310.411,220.338,310.411z"/>
		<path fill="#040000" d="M226.844,312.233v-10.861h2.14v10.861H226.844z M228.783,309.886v-2.609h0.309l2.628-3.091h2.492
			l-3.461,4.039h-0.503L228.783,309.886z M231.842,312.233l-2.406-3.521l1.429-1.546l3.497,5.066H231.842z"/>
		<path fill="#040000" d="M236.345,303.144c-0.33,0-0.611-0.109-0.844-0.328c-0.232-0.219-0.348-0.486-0.348-0.802
			c0-0.316,0.116-0.583,0.348-0.802c0.232-0.219,0.514-0.328,0.844-0.328c0.331,0,0.61,0.109,0.84,0.328s0.345,0.485,0.345,0.802
			c0,0.315-0.115,0.583-0.345,0.802S236.675,303.144,236.345,303.144z M235.275,312.233v-8.048h2.14v8.048H235.275z"/>
		<path fill="#040000" d="M241.322,307.612v4.621h-2.14v-8.048h2.04l0.029,2.026h-0.18c0.215-0.68,0.54-1.207,0.973-1.581
			c0.433-0.375,0.99-0.562,1.669-0.562c0.551,0,1.032,0.121,1.443,0.364s0.73,0.593,0.955,1.05s0.338,1.006,0.338,1.647v5.103h-2.14
			v-4.716c0-0.511-0.127-0.908-0.381-1.192c-0.253-0.284-0.608-0.427-1.063-0.427c-0.302,0-0.569,0.067-0.801,0.201
			c-0.232,0.134-0.414,0.326-0.546,0.579S241.322,307.242,241.322,307.612z"/>
		<path fill="#040000" d="M250.47,312.387c-0.507,0-0.962-0.09-1.364-0.27c-0.402-0.18-0.718-0.448-0.948-0.806
			c-0.229-0.357-0.345-0.801-0.345-1.331c0-0.451,0.082-0.828,0.244-1.129c0.163-0.302,0.386-0.545,0.668-0.729
			c0.283-0.185,0.604-0.324,0.966-0.419s0.741-0.162,1.138-0.2c0.464-0.049,0.838-0.094,1.121-0.136
			c0.282-0.041,0.488-0.105,0.617-0.192c0.129-0.088,0.194-0.219,0.194-0.394v-0.037c0-0.224-0.049-0.414-0.147-0.572
			c-0.098-0.157-0.241-0.279-0.427-0.364s-0.414-0.128-0.682-0.128c-0.273,0-0.511,0.043-0.715,0.128
			c-0.203,0.085-0.369,0.199-0.495,0.343c-0.127,0.144-0.217,0.305-0.27,0.484l-1.975-0.255c0.11-0.485,0.32-0.901,0.632-1.246
			c0.311-0.346,0.708-0.609,1.192-0.791c0.483-0.183,1.034-0.273,1.652-0.273c0.45,0,0.877,0.054,1.282,0.16
			c0.405,0.107,0.765,0.272,1.081,0.496c0.316,0.224,0.563,0.506,0.743,0.849c0.179,0.343,0.269,0.752,0.269,1.229v5.431h-2.046
			v-1.123h-0.065c-0.129,0.253-0.3,0.476-0.513,0.667c-0.213,0.192-0.468,0.342-0.765,0.449
			C251.214,312.333,250.868,312.387,250.47,312.387z M251.073,310.863c0.34,0,0.637-0.068,0.891-0.204
			c0.254-0.137,0.453-0.318,0.596-0.547s0.215-0.486,0.215-0.772v-0.854c-0.067,0.039-0.161,0.078-0.28,0.117
			s-0.256,0.072-0.409,0.102s-0.308,0.056-0.463,0.08c-0.155,0.024-0.298,0.047-0.427,0.066c-0.258,0.038-0.488,0.101-0.689,0.186
			c-0.201,0.085-0.357,0.199-0.467,0.343c-0.11,0.144-0.166,0.321-0.166,0.535c0,0.204,0.052,0.377,0.154,0.518
			c0.103,0.142,0.245,0.248,0.424,0.321C250.632,310.826,250.839,310.863,251.073,310.863z"/>
		<path fill="#040000" d="M258.334,312.233l-2.363-8.048h2.248l0.697,2.938c0.125,0.545,0.255,1.129,0.392,1.754
			c0.136,0.624,0.264,1.299,0.384,2.022h-0.258c0.129-0.715,0.267-1.385,0.413-2.012c0.146-0.627,0.286-1.215,0.42-1.765
			l0.732-2.938h1.968l0.711,2.938c0.129,0.55,0.267,1.137,0.413,1.761c0.146,0.625,0.284,1.297,0.413,2.016h-0.251
			c0.12-0.715,0.244-1.384,0.374-2.008c0.129-0.625,0.256-1.214,0.381-1.769l0.696-2.938h2.284l-2.377,8.048h-2.19l-0.883-3.127
			c-0.086-0.307-0.172-0.643-0.258-1.01c-0.086-0.367-0.17-0.74-0.251-1.119s-0.163-0.736-0.244-1.071h0.381
			c-0.082,0.335-0.163,0.692-0.244,1.071c-0.082,0.379-0.164,0.752-0.248,1.119s-0.171,0.703-0.262,1.01l-0.89,3.127H258.334z"/>
		<path fill="#040000" d="M271.246,312.387c-0.507,0-0.962-0.09-1.364-0.27c-0.402-0.18-0.718-0.448-0.948-0.806
			c-0.229-0.357-0.345-0.801-0.345-1.331c0-0.451,0.082-0.828,0.244-1.129c0.163-0.302,0.386-0.545,0.668-0.729
			c0.283-0.185,0.604-0.324,0.966-0.419s0.741-0.162,1.138-0.2c0.464-0.049,0.838-0.094,1.121-0.136
			c0.282-0.041,0.488-0.105,0.617-0.192c0.129-0.088,0.194-0.219,0.194-0.394v-0.037c0-0.224-0.049-0.414-0.147-0.572
			c-0.098-0.157-0.241-0.279-0.427-0.364s-0.414-0.128-0.682-0.128c-0.273,0-0.511,0.043-0.715,0.128
			c-0.203,0.085-0.369,0.199-0.495,0.343c-0.127,0.144-0.217,0.305-0.27,0.484l-1.975-0.255c0.11-0.485,0.32-0.901,0.632-1.246
			c0.311-0.346,0.708-0.609,1.192-0.791c0.483-0.183,1.034-0.273,1.652-0.273c0.45,0,0.877,0.054,1.282,0.16
			c0.405,0.107,0.765,0.272,1.081,0.496c0.316,0.224,0.563,0.506,0.743,0.849c0.179,0.343,0.269,0.752,0.269,1.229v5.431h-2.046
			v-1.123h-0.065c-0.129,0.253-0.3,0.476-0.513,0.667c-0.213,0.192-0.468,0.342-0.765,0.449
			C271.99,312.333,271.643,312.387,271.246,312.387z M271.849,310.863c0.34,0,0.637-0.068,0.891-0.204
			c0.254-0.137,0.453-0.318,0.596-0.547s0.215-0.486,0.215-0.772v-0.854c-0.067,0.039-0.161,0.078-0.28,0.117
			s-0.256,0.072-0.409,0.102s-0.308,0.056-0.463,0.08c-0.155,0.024-0.298,0.047-0.427,0.066c-0.258,0.038-0.488,0.101-0.689,0.186
			c-0.201,0.085-0.357,0.199-0.467,0.343c-0.11,0.144-0.166,0.321-0.166,0.535c0,0.204,0.052,0.377,0.154,0.518
			c0.103,0.142,0.245,0.248,0.424,0.321C271.407,310.826,271.614,310.863,271.849,310.863z"/>
	</g>
	<g>
		<ellipse fill="#040000" cx="243.142" cy="319.354" rx="4.247" ry="4.313"/>
		<ellipse fill="#FFFFFF" cx="243.142" cy="319.354" rx="1.748" ry="1.775"/>
	</g>
</g>
<g>
</g>
<g>
</g>
<g>
</g>
<g>
</g>
<g>
</g>
<g>
</g>
</svg>
