<?xml version="1.0" encoding="utf-8"?>
<!-- Generator: Adobe Illustrator 16.0.0, SVG Export Plug-In . SVG Version: 6.00 Build 0)  -->
<!DOCTYPE svg PUBLIC "-//W3C//DTD SVG 1.1//EN" "http://www.w3.org/Graphics/SVG/1.1/DTD/svg11.dtd">
<svg version="1.1" id="圖層_1" xmlns="http://www.w3.org/2000/svg" xmlns:xlink="http://www.w3.org/1999/xlink" x="0px" y="0px"
	 width="467.72px" height="382.68px" viewBox="0 0 467.72 382.68" enable-background="new 0 0 467.72 382.68" xml:space="preserve">
<g>
	<g>
		<path fill="#FBFBFC" d="M214.571,378.44c-1.212-1.401-1.679-3.449-2.507-5.2c-0.427-0.896-0.763-2.331-1.432-2.525
			c-2.555-0.748-2.249-2.618-2.162-4.476c0.147-3.157,0.311-6.315,0.509-9.471c0.119-1.903,3.74-4.735,5.847-4.761
			c2.919-0.042,5.837-0.209,8.983-0.331c0.131-1.963,0.061-3.504,0.38-4.964c0.318-1.447,0.705-3.099,1.63-4.157
			c2.977-3.385,11.828-3.055,15.195-0.084c1.172,1.034,3.454,1.342,5.132,1.139c4.514-0.541,9.008-1.393,13.447-2.398
			c2.653-0.601,5.237-1.413,5.907-4.915c0.354-1.847,1.788-3.484,2.745-5.211c0.073-0.133,0.242-0.267,0.391-0.298
			c2.643-0.636,5.265-1.569,7.943-1.788c2.854-0.229,3.297,0.502,3.982,4.394c3.939-2.663,8.278-2.696,12.69-2.377
			c0.399,0.027,0.842-0.467,1.257-0.73c1.881-1.203,3.759-2.407,6.006-3.842c0.025,0.179-0.063-0.695-0.115-0.693
			c-3.308,0.136-3.461-3.452-5.567-4.755c-2.162-1.34-4.124-3.013-6.16-4.557c-0.251-0.192-0.553-0.472-0.604-0.752
			c-0.433-2.224-1.209-4.478-1.108-6.684c0.156-3.599-1.757-6.032-3.672-8.621c-0.998-1.344-1.783-2.851-3.066-4.94
			c-4.519-1.937-8.645-8.308-8.706-14.122c-0.016-1.517,0.417-2.544,1.861-2.857c2.121-0.457,4.372-1.291,6.392-0.943
			c1.74,0.306,3.379,1.881,4.8,3.182c1.437,1.313,2.814,1.543,4.643,1.115c3.553-0.83,4.169-0.647,8.376,1.268
			c1.172-1.415,2.306-3.009,3.68-4.354c0.722-0.713,1.822-1.265,2.82-1.415c2.159-0.322,4.38-0.596,6.543-0.427
			c3.84,0.301,7.752,0.562,11.448,1.549c4.234,1.126,8.209,3.202,12.401,4.523c3.106,0.981,5.46,2.662,7.062,5.454
			c2.181,3.806,5.207,6.366,9.592,7.362c1.481,0.338,3.216,1.234,4.046,2.43c1.94,2.79,4.71,2.951,7.567,3.4
			c0.07-0.358,0.156-0.601,0.159-0.841c0.033-1.875-0.615-3.774,1.583-5.18c2.328-1.49,4.624-2.108,7.214-1.238
			c2.049,0.688,4.042,1.553,6.653,2.572c-0.479-1.236-0.662-1.838-0.938-2.386c-1.733-3.433-1.458-5.139,1.609-7.489
			c3.349-2.57,7.197-4.604,10.143-7.558c2.49-2.499,5.464-2.053,8.221-2.899c2.575-0.796,5.176-1.524,7.786-2.186
			c5.547-1.408,11.11-2.754,16.668-4.112c0.574-0.144,1.185-0.128,1.756-0.27c10.091-2.49,9.843-0.952,15.689,1.905
			c0.129-1.171,0.459-2.219,0.311-3.198c-0.544-3.621-1.114-7.251-1.922-10.815c-1.112-4.897,1.502-8.538,6.561-8.985
			c2.664-0.229,5.312-0.667,8.086-1.6c-0.899-0.57-1.816-1.116-2.695-1.717c-2.016-1.378-4.2-2.566-4.563-5.439
			c-0.096-0.75-0.852-1.445-1.379-2.108c-3.468-4.361-5.313-9.433-6.536-14.801c-0.187-0.826-0.719-1.743-1.373-2.255
			c-3.722-2.949-7.539-5.777-11.308-8.664c-2.73-2.091-4.641-4.463-4.168-8.34c0.227-1.846-0.785-3.809-0.863-5.734
			c-0.114-2.709,1.167-3.982,3.725-3.468c5.017,1.01,10.151,1.735,14.3,5.344c0.931,0.812,2.69,0.655,4.252,0.983
			c0.718-2.504,2.143-2.036,4.186-1.335c2.229,0.765,4.743,0.75,7.141,0.931c1.746,0.13,3.513,0.025,5.269,0.025
			c-0.107-4.753,0.42-7.433,2.61-7.846c1.028-2.109,1.89-3.808,2.675-5.541c0.156-0.347,0.089-0.839,0.015-1.241
			c-0.365-1.929-0.682-3.871-1.18-5.764c-0.517-1.962-1.293-3.423-3.873-3.634c-1.232-0.1-2.524-1.919-3.408-3.222
			c-1.068-1.565-2.156-3.33-2.488-5.145c-0.654-3.573-3.447-6.612-2.244-10.677c1.113-3.774,3.039-6.91,6.161-9.132
			c1.197-0.852,2.99-1.144,4.522-1.164c2.105-0.028,4.225,0.352,7.002,0.67V-0.144c-0.486,2.231-0.217,4.568-2.869,5.888
			c-3.321,1.653-6.474,3.688-9.546,5.789c-1.349,0.922-2.569,2.26-3.405,3.675c-5.291,8.961-13.675,11.823-23.34,12.288
			c-0.493,0.023-1.176-0.15-1.45,0.109c-3.471,3.282-8.016,2.864-12.197,3.568c-1.05,0.176-2.322-0.348-3.354-0.842
			c-2.251-1.077-5.006-0.787-6.776,1.066c-0.425,0.444-0.773,1.347-0.61,1.865c0.167,0.535,1.021,1.238,1.542,1.211
			c2.524-0.14,2.373,1.483,2.403,3.201c0.034,2.171-1.422,2.008-2.775,1.881c-1.778-0.167-2.569,0.731-2.568,2.335
			c0,1.54-0.771,1.69-2.062,1.842c-3.254,0.385-6.518,0.869-9.695,1.642c-0.841,0.205-1.585,1.515-2.034,2.478
			c-0.841,1.819-1.165,3.923-2.188,5.611c-2.723,4.494-5.706,8.829-8.564,13.24c-0.113,0.173-0.016,0.486-0.016,0.91
			c0.642,0.061,1.289,0.204,1.923,0.167c1.38-0.079,2.109,0.485,2.078,1.903c-0.034,1.436,0.511,2.153,2.063,2.289
			c0.713,0.062,1.374,0.86,2.037,1.356c0.387,0.289,0.673,0.744,1.089,0.949c3.31,1.621,6.605,3.28,9.979,4.758
			c2.142,0.939,1.047,2.541,1.034,3.92c-0.007,0.648-0.334,1.289-0.373,1.943c-0.087,1.517,0.433,2.803-1.964,3.633
			c-1.637,0.566-2.723,3.297-3.659,5.254c-2.254,4.703-2.158,4.749-7.205,3.094c0.552,3.79-2.21,3.392-4.495,3.74
			c-1.069,0.164-2.107,0.8-3.156,0.794c-1.669-0.011-3.623,0.083-4.93-0.727c-1.296-0.805-2.077-0.71-3.148-0.082
			c-3.255,1.91-4.401,5.573-2.83,9.023c1.017,2.229-0.001,3.902-2.362,3.883c-3.482-0.026-4.496,1.099-5.548,6.172
			c-0.492,2.374-2.708,3.292-4.288,1.616c-0.654-0.692-0.691-1.974-1.231-3.692c-0.422,1.564-0.852,2.601-0.955,3.67
			c-0.15,1.558-0.924,1.871-2.349,1.969c-1.026,0.07-2.027,0.809-3,1.321c-1.364,0.714-2.618,1.736-4.055,2.175
			c-1.339,0.411-2.861,0.338-4.296,0.291c-3.76-0.125-7.469-0.161-10.797,2.064c-0.685,0.458-1.562,0.747-2.383,0.863
			c-6.973,0.979-12.574,4.751-18.125,8.744c-2.753,1.981-5.836,2.956-9.337,1.606c-0.963-0.371-2.551-0.294-3.343,0.285
			c-3.302,2.411-6.565,1.66-9.919,0.382c-0.927-0.353-1.843-0.738-2.706-1.085c-0.765,1.417-1.545,2.55-2.019,3.8
			c-0.718,1.905-2.275,1.724-3.575,1.352c-0.568-0.164-0.836-1.528-1.167-2.376c-0.669-1.71-1.267-3.45-1.939-5.157
			c-0.151-0.385-0.637-0.657-0.724-1.038c-0.845-3.716-2.727-6.808-5.09-9.76c-0.555-0.695,0.112-2.723,0.698-3.896
			c0.492-0.985,1.683-1.618,1.886-2.486c0.14-2.319,0.383-4.638,0.372-6.957c-0.006-1.118-0.587-2.219-0.754-3.351
			c-0.455-3.107-2.544-5.442-3.657-7.379c-1.396-1.404-2.321-2.372-3.289-3.284c-0.35-0.327-0.795-0.6-1.242-0.768
			c-2.717-1.025-5.665-1.438-6.574-5.178c-0.314-1.306-3.258-1.888-0.996-4.159c-4.464-0.898-3.28-5.226-4.99-7.73
			c-0.164-0.238,1.04-1.425,1.635-2.208c-2.663-1.858-3.081-5.045-3.68-8.058c-0.647-3.229-1.641-3.994-4.869-3.157
			c-0.573,0.148-1.159,0.286-1.703,0.515c-3.892,1.639-4.591,1.425-7.073-2.326c-3.006,0.674-5.875,1.439-8.179,3.988
			c-1.028,1.138-3.061,1.734-4.687,1.847c-2.068,0.144-3.478,0.717-5.104,2.146c-1.69,1.486-2.738,3.158-3.841,4.983
			c-0.572,0.946-1.695,2.101-2.635,2.166c-2.177,0.146-2.743,1.26-2.737,3.087c0.004,1.393-0.629,2.212-2.007,1.901
			c-1.493-0.339-3.691,0.521-4.162-1.901c-0.812-4.184,0.422-6.345,4.21-8.208c0.656-0.323,1.265-1.288,1.401-2.046
			c0.443-2.501,1.728-4.103,4.049-5.144c3.218-1.443,6.188-3.635,9.525-4.55c2.526-0.692,4.274-1.918,5.643-3.829
			c0.485-0.678,0.591-2.427,0.115-2.873c-2.005-1.878-4.083-3.919-6.523-5.041c-6.647-3.056-13.793-4.384-20.927-5.985
			c-6.655-1.492-13.753-2.71-19.317-7.902c-1.947-1.817-5.647-1.908-8.609-2.37c-1.455-0.227-1.865-0.57-2.282-1.979
			c-0.665-2.255-1.806-4.387-2.907-6.485c-0.306-0.583-1.126-1.035-1.804-1.256c-5.078-1.656-10.179-3.241-15.273-4.847
			c-0.404-0.127-0.855-0.447-1.205-0.357c-5.499,1.415-10.375-2.396-16.001-1.61c-0.772,3.237-3.448,3.846-6.635,4.187
			c-4.008,0.43-7.938,1.633-11.947,2.061c-3.696,0.394-7.454,0.259-11.186,0.254c-4.133-0.005-8.142,0.114-12.041,2.038
			c-3.957,1.953-8.224,2.456-12.625,1.062c-3.495-1.107-6.555-0.633-9.007,2.684c-2.454,3.318-8.654,3.814-13.506,1.82
			c-2.543-1.046-5.313-1.536-7.98-2.273c-0.081-0.022-0.182,0.007-0.251-0.029c-6.664-3.375-14.767-3.338-20.295-9.684
			c-2.536-2.911-6.782-4.319-10.281-6.358c-0.28-0.164-0.789,0.07-1.568,0.166c2.524,5.186,6.393,10.308,0.416,15.444
			c0.602,0.372,1.209,0.744,1.813,1.116c-0.493,0.489-0.907,1.139-1.495,1.438c-1.69,0.86-1.842,1.747-0.483,3.116
			c0.962,0.968,1.254,2.012,0.128,3.336c-0.844,0.995-1.213,2.423-1.706,3.691c-0.689,1.775-1.392,3.075-3.669,3.63
			c-3.048,0.743-2.343,4.045-2.645,6.32c-0.223,1.675,0.583,3.489,0.941,5.24c0.012,0.06,0.127,0.126,0.205,0.14
			c6.286,1.156,9.99,6.292,14.554,9.941c5.606,4.482,9.758,10.227,9.535,18.035c-0.092,3.244-0.382,6.483-0.499,9.728
			c-0.064,1.773-0.818,1.967-2.299,1.403c-0.978-0.373-2.062-0.455-3.749-0.802c1.867,2.349,0.991,3.421-0.656,4.56
			c-2.231,1.542-4.267,3.373-6.362,5.111c-1.926,1.597-2.512,3.6-1.564,5.959c0.965,2.403,0.713,4.686,0.179,7.222
			c-0.503,2.386,0.139,5.021,0.322,7.544c0.047,0.664,0.598,1.573,0.333,1.935c-2.074,2.83,0.72,4.773,1.201,7.109
			c0.077,0.376,0.869,0.855,1.334,0.859c2.879,0.029,4.378,1.91,5.729,4.072c1.213,1.944,2.596,3.794,3.627,5.829
			c0.532,1.047,0.65,2.409,0.614,3.62c-0.043,1.435-0.673,2.865-0.637,4.287c0.029,1.186,0.326,2.644,1.063,3.488
			c3.499,4.017,6.424,8.43,9.018,13.041c1.971,3.5,1.698,6.986-0.931,10.265c-0.704,0.875-1.215,2.419-0.936,3.4
			c0.182,0.635,1.947,0.869,3.032,1.172c4.212,1.17,8.443,2.282,12.658,3.444c5.382,1.486,10.715,3.184,16.148,4.434
			c3.555,0.816,7.537-1.563,9.186-4.871c0.343-0.685,0.818-1.374,0.911-2.104c0.556-4.337,3.223-5.521,7.159-5.239
			c2.019,0.146,4.068-0.208,6.103-0.172c3.101,0.054,5.71,1.118,7.805,3.626c2.305,2.759,4.77,5.515,9.051,4.269
			c0.349-0.1,0.904,0.325,1.285,0.613c0.247,0.187,0.398,0.835,0.514,0.818c3.665-0.636,6.177,3.659,10.277,2.102
			c2.859-1.086,6.17,0.993,7.487,3.848c0.633,1.367,1.472,1.588,2.593,0.936c1.646-0.958,2.423-0.261,3.102,1.248
			c0.727,1.619,1.645,3.153,2.074,3.96c3.148,0.688,5.655,1.195,8.143,1.795c1.88,0.454,3.795,0.871,5.568,1.607
			c0.787,0.328,1.597,1.318,1.824,2.165c0.584,2.18,3.323,3.82,5.488,3.605c3.082-0.305,6.219-0.255,9.311-0.055
			c0.729,0.046,1.53,1.201,2.036,2.012c1.09,1.746,2.29,2.514,4.415,1.649c1.497-0.61,3.104-1.655,4.688,0.504
			c0.652,0.89,3.089,0.399,3.84,1.287c1.595,1.884,3.462,4.177,3.685,6.455c0.398,4.079,0.268,8.427-0.733,12.385
			c-1.622,6.398-3.966,12.634-6.342,18.81c-0.912,2.368-3.018,4.25-4.097,6.582c-2.481,5.352-7.076,8.548-10.787,12.368
			c-0.555,1.244-1.115,2.489-1.666,3.733c-0.684,1.544-1.183,3.213-2.102,4.601c-0.708,1.072-1.956,1.771-2.931,2.675
			c-0.54,0.5-1.287,1.001-1.462,1.634c-1.071,3.863-3.828,5.753-7.573,4.843c-0.433-0.104-0.93-1.251-0.866-1.857
			c0.188-1.801-0.196-3.188-1.95-4.104c-1.951,1.062-3.748,2.953-6.367,1.176c-0.385-0.258-2.452,0.851-2.54,1.497
			c-0.381,2.767-2.728,3.799-4.23,5.551c-1.758,2.053-3.352,4.313-5.406,6.012c-1.538,1.276-3.616,2.05-5.577,2.609
			c-2.088,0.602-4.316,0.846-6.494,0.929c-0.896,0.028-2.339-0.531-2.641-1.222c-0.887-2.025-2.052-4.112-0.805-6.551
			c0.312-0.608,0.013-1.927-0.486-2.483c-1.123-1.242-2.471-2.336-3.882-3.243c-0.582-0.371-1.624-0.306-2.337-0.067
			c-0.394,0.131-0.54,1.022-0.797,1.574c0.639,0.26,1.271,0.545,1.923,0.764c0.308,0.104,0.659,0.071,0.963,0.101
			c1.532,5.038-0.131,9.438-5.032,12.423c-2.426,1.477-4.414,2.756-4.832,6.045c-0.28,2.206-0.897,5.18-4.29,5.148
			c-1.064-0.013-2.127-0.394-3.436-0.651c-0.95,1.106-2.188,2.549-3.533,4.113c0.079,5.648-3.055,10.1-7.14,13.746
			c-3.006,2.681-9.688,1.173-12.26-1.971c-0.55-0.671-2.026-1.213-2.774-0.95c-1.541,0.545-2.931,1.601-4.292,2.573
			c-2.954,2.107-5.739,4.474-8.807,6.395c-2.779,1.738-5.974,1.633-9.078,0.806c-2.298-0.613-4.899,1.139-4.413,3.14
			c0.477,1.961,1.554,3.86,0.1,5.858c-1.985,2.728-4.129,5.448-7.528,6.182c-2.779,0.599-5.745,0.738-8.574,0.479
			c-1.162-0.106-2.65-1.591-3.167-2.804c-1.063-2.487-2.691-3.511-5.259-3.624c-4.724-0.205-6.189-1.649-6.242-6.408
			c-0.025-2.378-1.877-1.755-3.028-2.236c-0.58-0.242-1.335-0.058-2.012-0.065v41.033h216.063
			C216.459,380.934,215.736,379.784,214.571,378.44z"/>
	</g>
	<path fill="#040000" d="M2.021,341.706c1.151,0.481,3.003-0.142,3.029,2.237c0.052,4.758,1.516,6.202,6.241,6.407
		c2.567,0.113,4.197,1.137,5.259,3.624c0.519,1.213,2.005,2.697,3.167,2.804c2.828,0.26,5.795,0.121,8.573-0.479
		c3.4-0.732,5.543-3.454,7.528-6.182c1.455-1.998,0.377-3.897-0.1-5.858c-0.487-2.001,2.115-3.753,4.413-3.14
		c3.105,0.827,6.298,0.933,9.078-0.806c3.065-1.921,5.852-4.287,8.806-6.395c1.364-0.973,2.753-2.028,4.293-2.574
		c0.749-0.262,2.224,0.28,2.772,0.951c2.571,3.144,9.255,4.651,12.261,1.971c4.085-3.646,7.219-8.094,7.141-13.746
		c1.343-1.563,2.582-3.005,3.532-4.113c1.308,0.26,2.37,0.641,3.435,0.651c3.391,0.031,4.008-2.944,4.291-5.148
		c0.417-3.287,2.404-4.568,4.83-6.045c4.904-2.985,6.566-7.383,5.033-12.423c-0.304-0.027-0.655,0.004-0.963-0.101
		c-0.654-0.221-1.284-0.506-1.924-0.764c0.258-0.553,0.402-1.443,0.798-1.574c0.713-0.236,1.756-0.304,2.337,0.067
		c1.413,0.907,2.76,2.001,3.882,3.243c0.499,0.557,0.799,1.875,0.488,2.483c-1.247,2.437-0.083,4.525,0.805,6.551
		c0.302,0.688,1.745,1.252,2.642,1.222c2.178-0.083,4.405-0.327,6.493-0.929c1.96-0.558,4.04-1.333,5.577-2.609
		c2.053-1.699,3.648-3.959,5.405-6.012c1.503-1.752,3.85-2.784,4.23-5.551c0.088-0.646,2.157-1.755,2.54-1.497
		c2.619,1.777,4.415-0.114,6.367-1.177c1.753,0.917,2.137,2.305,1.949,4.105c-0.063,0.606,0.433,1.754,0.866,1.857
		c3.746,0.91,6.503-0.979,7.575-4.843c0.175-0.633,0.922-1.136,1.461-1.634c0.973-0.904,2.222-1.603,2.932-2.675
		c0.917-1.388,1.417-3.057,2.1-4.601c0.554-1.244,1.111-2.489,1.667-3.733c3.713-3.82,8.306-7.017,10.787-12.368
		c1.081-2.332,3.185-4.214,4.098-6.582c2.373-6.176,4.72-12.412,6.341-18.81c1.001-3.958,1.13-8.306,0.732-12.385
		c-0.223-2.278-2.09-4.571-3.683-6.455c-0.751-0.888-3.187-0.397-3.839-1.287c-1.583-2.157-3.191-1.115-4.688-0.504
		c-2.126,0.865-3.325,0.099-4.416-1.649c-0.508-0.808-1.307-1.966-2.035-2.012c-3.094-0.2-6.231-0.25-9.312,0.055
		c-2.165,0.215-4.904-1.425-5.488-3.605c-0.226-0.847-1.036-1.837-1.825-2.165c-1.774-0.736-3.689-1.153-5.568-1.607
		c-2.486-0.6-4.993-1.104-8.142-1.795c-0.43-0.806-1.348-2.341-2.074-3.96c-0.678-1.509-1.458-2.207-3.101-1.248
		c-1.122,0.652-1.961,0.432-2.593-0.936c-1.317-2.854-4.628-4.934-7.489-3.848c-4.1,1.558-6.611-2.737-10.274-2.102
		c-0.115,0.018-0.268-0.631-0.514-0.818c-0.383-0.288-0.938-0.713-1.287-0.613c-4.279,1.245-6.744-1.51-9.049-4.27
		c-2.094-2.507-4.705-3.572-7.805-3.625c-2.034-0.036-4.084,0.316-6.103,0.172c-3.936-0.282-6.603,0.903-7.159,5.239
		c-0.094,0.73-0.567,1.418-0.91,2.104c-1.65,3.308-5.631,5.687-9.187,4.87c-5.435-1.249-10.766-2.947-16.148-4.433
		c-4.214-1.163-8.444-2.273-12.658-3.444c-1.086-0.303-2.851-0.537-3.032-1.172c-0.278-0.981,0.233-2.523,0.936-3.4
		c2.629-3.28,2.901-6.765,0.93-10.266c-2.595-4.611-5.521-9.024-9.017-13.04c-0.739-0.845-1.034-2.303-1.064-3.489
		c-0.033-1.422,0.596-2.852,0.638-4.287c0.036-1.21-0.082-2.573-0.614-3.62c-1.033-2.034-2.415-3.885-3.628-5.829
		c-1.35-2.161-2.849-4.043-5.729-4.071c-0.466-0.004-1.257-0.483-1.335-0.86c-0.48-2.336-3.274-4.279-1.2-7.108
		c0.266-0.361-0.286-1.271-0.334-1.935c-0.181-2.522-0.823-5.158-0.32-7.544c0.534-2.537,0.786-4.818-0.181-7.222
		c-0.947-2.357-0.361-4.361,1.563-5.958c2.095-1.738,4.131-3.568,6.363-5.111c1.647-1.138,2.523-2.211,0.657-4.56
		c1.685,0.345,2.772,0.428,3.748,0.802c1.48,0.564,2.235,0.37,2.299-1.403c0.118-3.245,0.407-6.484,0.501-9.728
		c0.224-7.81-3.931-13.553-9.536-18.034c-4.564-3.65-8.268-8.785-14.555-9.941c-0.076-0.014-0.19-0.081-0.204-0.14
		c-0.358-1.75-1.165-3.563-0.942-5.239c0.301-2.275-0.404-5.578,2.645-6.321c2.277-0.556,2.979-1.855,3.669-3.63
		c0.493-1.269,0.862-2.697,1.705-3.691c1.126-1.324,0.834-2.369-0.128-3.336c-1.36-1.368-1.207-2.257,0.483-3.116
		c0.588-0.3,1.002-0.949,1.497-1.438c-0.606-0.372-1.212-0.744-1.815-1.116c5.979-5.136,2.109-10.258-0.415-15.444
		c0.779-0.095,1.289-0.33,1.568-0.166c3.5,2.04,7.745,3.448,10.281,6.358c5.528,6.345,13.632,6.309,20.295,9.684
		c0.07,0.037,0.17,0.007,0.251,0.029c2.667,0.738,5.438,1.228,7.98,2.273c4.852,1.994,11.053,1.499,13.506-1.82
		c2.452-3.315,5.512-3.79,9.007-2.683c4.401,1.394,8.669,0.891,12.626-1.063c3.898-1.923,7.906-2.042,12.041-2.037
		c3.73,0.005,7.488,0.141,11.185-0.254c4.009-0.427,7.94-1.631,11.948-2.062c3.186-0.341,5.86-0.95,6.634-4.186
		c5.627-0.786,10.502,3.024,16.001,1.61c0.349-0.09,0.802,0.229,1.205,0.357c5.095,1.606,10.195,3.19,15.272,4.847
		c0.678,0.221,1.5,0.672,1.805,1.256c1.1,2.098,2.24,4.229,2.906,6.485c0.417,1.408,0.828,1.752,2.28,1.979
		c2.965,0.461,6.666,0.553,8.611,2.37c5.562,5.191,12.661,6.41,19.314,7.902c7.133,1.601,14.279,2.93,20.929,5.985
		c2.442,1.122,4.518,3.164,6.522,5.041c0.474,0.445,0.37,2.194-0.115,2.873c-1.37,1.912-3.117,3.137-5.644,3.828
		c-3.335,0.916-6.307,3.108-9.524,4.55c-2.321,1.042-3.605,2.643-4.05,5.144c-0.134,0.758-0.744,1.722-1.401,2.046
		c-3.788,1.862-5.022,4.023-4.21,8.208c0.471,2.422,2.668,1.562,4.163,1.901c1.377,0.312,2.011-0.507,2.006-1.901
		c-0.005-1.827,0.56-2.939,2.738-3.087c0.939-0.064,2.063-1.219,2.634-2.166c1.104-1.825,2.152-3.496,3.84-4.983
		c1.625-1.43,3.038-2.003,5.104-2.146c1.626-0.113,3.659-0.709,4.688-1.847c2.303-2.549,5.172-3.315,8.179-3.988
		c2.483,3.75,3.181,3.964,7.073,2.326c0.544-0.229,1.13-0.367,1.704-0.515c3.228-0.837,4.221-0.072,4.868,3.156
		c0.603,3.012,1.018,6.201,3.683,8.059c-0.597,0.783-1.801,1.969-1.638,2.208c1.71,2.504,0.529,6.832,4.992,7.73
		c-2.263,2.271,0.679,2.854,0.998,4.159c0.908,3.741,3.853,4.153,6.571,5.179c0.447,0.168,0.891,0.44,1.241,0.767
		c0.969,0.912,1.893,1.879,3.289,3.284c1.114,1.937,3.203,4.271,3.659,7.379c0.167,1.131,0.747,2.233,0.752,3.35
		c0.014,2.319-0.23,4.638-0.372,6.957c-0.202,0.868-1.395,1.5-1.886,2.486c-0.586,1.172-1.252,3.201-0.697,3.895
		c2.363,2.953,4.246,6.045,5.089,9.761c0.087,0.381,0.573,0.653,0.725,1.038c0.673,1.708,1.271,3.446,1.939,5.157
		c0.33,0.847,0.597,2.213,1.167,2.377c1.3,0.372,2.857,0.553,3.574-1.353c0.476-1.25,1.254-2.381,2.021-3.8
		c0.862,0.347,1.778,0.731,2.704,1.085c3.351,1.277,6.617,2.028,9.919-0.383c0.792-0.579,2.381-0.654,3.344-0.284
		c3.5,1.347,6.584,0.374,9.339-1.607c5.55-3.993,11.149-7.766,18.124-8.744c0.821-0.116,1.696-0.405,2.383-0.863
		c3.326-2.226,7.036-2.189,10.796-2.064c1.433,0.046,2.955,0.12,4.295-0.291c1.437-0.439,2.692-1.461,4.055-2.175
		c0.973-0.511,1.973-1.25,3-1.321c1.425-0.099,2.196-0.411,2.349-1.969c0.102-1.069,0.532-2.105,0.955-3.669
		c0.539,1.717,0.577,2.999,1.23,3.692c1.582,1.675,3.799,0.757,4.291-1.616c1.051-5.074,2.064-6.199,5.548-6.173
		c2.361,0.019,3.378-1.653,2.362-3.883c-1.572-3.45-0.426-7.113,2.83-9.023c1.07-0.628,1.852-0.723,3.149,0.082
		c1.305,0.811,3.26,0.716,4.93,0.728c1.047,0.005,2.085-0.631,3.153-0.794c2.285-0.348,5.045,0.05,4.494-3.74
		c5.048,1.655,4.952,1.61,7.207-3.094c0.936-1.957,2.023-4.688,3.659-5.254c2.398-0.829,1.877-2.117,1.965-3.633
		c0.038-0.653,0.366-1.295,0.372-1.943c0.016-1.379,1.108-2.981-1.035-3.92c-3.372-1.479-6.668-3.138-9.979-4.758
		c-0.414-0.204-0.702-0.66-1.086-0.949c-0.662-0.496-1.328-1.295-2.04-1.356c-1.552-0.135-2.097-0.853-2.062-2.289
		c0.03-1.418-0.699-1.982-2.078-1.903c-0.637,0.037-1.282-0.105-1.925-0.167c0-0.424-0.099-0.736,0.018-0.91
		c2.854-4.412,5.842-8.746,8.564-13.24c1.022-1.688,1.346-3.792,2.188-5.611c0.445-0.962,1.193-2.272,2.033-2.478
		c3.18-0.773,6.441-1.259,9.695-1.642c1.292-0.152,2.063-0.303,2.063-1.842c-0.001-1.603,0.793-2.501,2.568-2.335
		c1.352,0.127,2.811,0.29,2.774-1.882c-0.028-1.717,0.12-3.339-2.402-3.2c-0.52,0.027-1.377-0.676-1.543-1.211
		c-0.162-0.516,0.186-1.42,0.609-1.864c1.77-1.854,4.526-2.144,6.777-1.066c1.031,0.494,2.306,1.019,3.354,0.842
		c4.184-0.704,8.728-0.286,12.196-3.567c0.274-0.26,0.958-0.085,1.451-0.109c9.663-0.465,18.05-3.328,23.34-12.288
		c0.838-1.415,2.057-2.753,3.405-3.675c3.07-2.102,6.225-4.136,9.545-5.789c2.651-1.32,2.386-3.657,2.87-5.888
		c-1.103,0.556-2.034,1.235-2.813,2.061c-0.695,0.734-1.063,1.86-1.854,2.408c-2.29,1.589-4.656,3.1-7.115,4.403
		c-2.559,1.357-4.909,2.966-5.936,5.711c-1.166,3.118-3.953,4.616-6.226,6.34c-3.797,2.883-8.386,4.438-13.251,4.747
		c-2.168,0.138-4.813-1.406-6.095,1.81c-0.059,0.142-0.462,0.149-0.709,0.206c-2.145,0.489-4.272,1.127-6.444,1.409
		c-1.456,0.189-3.152,0.274-4.438-0.295c-4.046-1.798-8.063-1.061-10.586,2.502c-0.454,0.64-0.386,1.781-0.29,2.662
		c0.238,2.229,1.745,3.136,3.93,3.219c-1.351,0.331-2.963,0.063-3.738,0.748c-0.957,0.846-1.216,2.487-1.572,3.303
		c-3.735,0.829-7.112,1.535-10.467,2.34c-1.967,0.473-2.856,1.901-3.192,3.864c-0.238,1.402-0.527,2.882-1.196,4.107
		c-1.706,3.143-3.568,6.211-5.516,9.213c-0.995,1.537-2.514,2.748-3.4,4.33c-0.599,1.069-0.706,2.543-0.62,3.807
		c0.027,0.402,1.358,0.78,2.135,1.045c0.534,0.184,1.143,0.157,1.793,0.234c0.085,3.812,3.57,4.32,5.764,5.77
		c3.181,2.102,6.873,3.416,10.744,5.255c-2.738,1.04-2.786,1.763-1.124,4.475c-2.986,3.054-4.609,6.814-6.301,10.521
		c-1.597-0.58-2.993-1.241-4.464-1.574c-1.174-0.267-2.439-0.132-3.664-0.176c0.174,1.21,0.352,2.419,0.514,3.63
		c0.018,0.137-0.063,0.286-0.096,0.412c-1.507,0.313-3.1,0.392-4.463,0.989c-1.6,0.7-2.613,0.385-3.859-0.729
		c-0.635-0.565-2.012-0.841-2.817-0.56c-3.64,1.263-6.043,3.733-6.364,7.799c-0.141,1.77-2.207,3.823,0.713,5.51
		c-2.2,0.258-4.403,0.516-6.333,0.742c-0.601,2.649-1.18,5.192-1.757,7.737c-0.654-3.602-2.323-4.639-5.595-3.432
		c-0.295,1.624-0.573,3.17-0.852,4.716c-0.238-0.205-0.475-0.409-0.715-0.613c-1.38,0.927-2.745,1.881-4.149,2.771
		c-0.882,0.559-1.796,1.374-2.753,1.458c-2.866,0.253-5.885-0.31-8.613,0.375c-6.13,1.538-12.125,3.618-18.157,5.531
		c-0.786,0.249-1.507,0.768-2.2,1.244c-2.596,1.78-5.106,3.691-7.767,5.364c-2.191,1.379-4.494,1.986-7.233,1.165
		c-1.532-0.458-3.748-0.35-5.035,0.479c-2.593,1.668-4.96,1.319-7.508,0.424c-1.12-0.394-2.185-0.955-3.314-1.288
		c-1.611-0.475-2.747-0.06-3.252,1.792c-0.313,1.154-1.024,2.196-1.417,2.998c-1.309-2.565-2.563-4.989-3.778-7.433
		c-0.294-0.598-0.402-1.29-0.681-1.898c-0.796-1.736-1.343-3.685-2.509-5.126c-2.698-3.337-2.724-3.13,0.507-5.957
		c0.842-0.737,1.031-2.424,1.172-3.714c0.101-0.916-0.502-1.887-0.588-2.853c-0.241-2.673,2.631-5.817-1.248-7.968
		c-0.264-0.145-0.284-0.985-0.199-1.464c0.365-2.046-0.395-3.278-2.43-3.499c-0.059-2.428-0.061-2.423-2.39-3.433
		c-0.299-0.129-0.791-0.332-0.801-0.52c-0.101-2.212-1.87-2.01-3.271-2.396c-2.486-0.685-4.658-1.37-4.885-4.802
		c-0.173-2.582-0.833-5.393-4.181-6.409c-0.544-0.165-2.286-2.438-0.636-4.379c0.755-0.888,0.706-2.466,1.021-3.731
		c-0.352,0.086-0.705,0.174-1.057,0.26c-0.935-1.402-2.013-2.732-2.75-4.233c-0.47-0.954-0.453-2.156-0.606-3.255
		c-0.431-3.095-2.116-4.558-5.252-4.246c-1.501,0.15-3.063,0.475-4.418,1.107c-2.04,0.953-3.126,0.371-3.97-1.58
		c-0.274-0.632-1.338-1.569-1.64-1.438c-3.132,1.369-6.925,1.4-9.238,4.487c-1.104,1.474-2.512,1.899-4.425,1.878
		c-1.644-0.018-3.383,0.789-4.921,1.552c-1.411,0.7-2.608,1.831-4.193,2.985c-0.311,3.809-0.472,3.935-4.83,4.969
		c-0.548,0.13-1.126,0.882-1.349,1.476c-0.35,0.925-0.406,1.96-0.584,2.949c-0.231,0.125-0.463,0.25-0.695,0.375
		c-0.456-0.613-1.161-1.166-1.323-1.849c-0.577-2.427,1.083-3.903,2.941-4.24c2.218-0.403,2.284-1.736,2.698-3.333
		c0.32-1.242,0.805-2.912,1.746-3.439c4.747-2.667,9.182-6.267,15.113-5.987c0.461,0.021,1.195-0.396,1.373-0.8
		c0.62-1.415,1.278-2.884,1.482-4.391c0.163-1.176,0.103-2.893-0.61-3.585c-2.271-2.205-4.669-4.47-7.422-5.947
		c-9.489-5.091-20.471-5.106-30.464-8.633c-3.186-1.123-6.122-2.283-8.678-4.546c-1.158-1.025-2.708-1.751-4.204-2.203
		c-2.093-0.634-4.301-0.885-6.229-1.254c-0.998-2.082-1.974-3.968-2.815-5.913c-0.969-2.244-2.565-3.478-4.992-3.818
		c-1.246-0.173-2.417-0.811-3.658-1.075c-5.276-1.119-9.966-5.021-15.824-3.388c-0.139,0.038-0.317-0.103-0.481-0.136
		c-3.964-0.818-7.915-1.729-11.908-2.358c-0.706-0.111-2.247,0.91-2.287,1.486c-0.186,2.69-1.969,2.833-3.906,2.998
		c-2.024,0.172-4.199-0.017-6.038,0.677c-5.841,2.2-11.821,1.717-17.843,1.716c-3.658,0-7.594,0.14-10.902,1.477
		c-4.416,1.783-8.506,2.986-13.233,1.595c-3.671-1.08-7.374-0.898-9.941,2.514c-1.864,2.478-4.427,3.63-7.108,3.064
		c-5.742-1.213-11.372-2.974-17.023-4.604c-2.098-0.605-4.073-1.844-6.193-2.134c-3.166-0.435-5.776-1.831-7.641-4.161
		c-3.371-4.213-8.559-5.416-12.727-8.277c-0.896-0.615-2.813-0.139-4.028,0.381c-0.372,0.159-0.197,2.212,0.132,3.271
		c0.396,1.277,1.226,2.42,1.87,3.621c1.924,3.583,1.215,6.448-1.993,8.858c-0.982,0.737-1.771,1.801-2.439,2.854
		c-0.226,0.358,0.102,1.171,0.334,1.709c0.646,1.498,1.633,2.897,1.998,4.452c0.393,1.68-2.735,5.722-4.21,6.648
		C5.988,46.517,4.734,47.72,4.285,49c-0.724,2.056-0.978,4.331-1.121,6.533c-0.246,3.816,0.899,5.034,4.34,6.561
		c2.423,1.075,4.632,2.693,6.817,4.24c1.865,1.319,3.632,2.801,5.314,4.352c3.885,3.585,7.789,7.356,8.484,12.889
		c0.513,4.077,0.101,8.271,0.101,12.199c-2.438,0.271-4.511,0.5-6.922,0.767c0.717,1.557,1.13,2.457,1.601,3.477
		c-2.404,1.961-4.795,3.861-7.129,5.831c-2.636,2.225-3.348,4.946-2.189,8.276c0.459,1.32,0.602,2.82,0.568,4.229
		c-0.067,2.595-0.368,5.183-0.582,7.773c-0.151,1.846-0.784,3.805-0.372,5.511c0.611,2.53,1.876,4.921,3.049,7.277
		c0.313,0.631,1.378,1.394,1.961,1.292c2.638-0.462,3.636,1.352,4.724,3.084c0.995,1.583,1.744,3.354,2.91,4.785
		c1.036,1.273,1.244,2.39,0.881,3.959c-0.892,3.842-1.511,7.712,2.806,10.15c0.205,0.117,0.347,0.371,0.484,0.582
		c1.668,2.541,3.366,5.064,4.989,7.633c3.299,5.223,3.144,8.28,0.452,11.496c-0.991,1.182-1.424,3.744-0.822,5.095
		c0.522,1.174,2.813,1.705,4.417,2.196c2.152,0.655,4.431,0.881,6.597,1.497c7.409,2.107,14.731,4.548,22.206,6.379
		c4.685,1.147,10.162-1.585,11.395-6.296c1.455-5.554,4.884-6.261,9.429-6.055c0.507,0.021,1.017-0.012,1.527-0.034
		c3.321-0.13,5.935,0.938,8.301,3.539c1.795,1.976,4.356,3.449,6.839,4.533c2.199,0.958,4.762,1.058,7.158,1.572
		c0.31,0.066,0.586,0.333,0.855,0.54c2.117,1.614,4.429,1.868,6.989,1.268c2.773-0.648,4.853,0.646,6.085,3.247
		c0.342,0.725,1.329,1.113,1.904,1.76c1.604,1.81,4.834,1.294,5.72,4.104c0.608,1.934,1.714,2.435,3.685,1.649
		c0.911-0.361,2.184-0.14,3.192,0.156c2.276,0.669,4.528,1.459,6.706,2.396c0.805,0.343,1.595,1.121,2.011,1.907
		c1.704,3.209,4.667,4.604,8.172,3.664c0.246-0.064,0.498-0.169,0.744-0.158c3.234,0.126,6.79-1.045,9.021,2.789
		c0.528,0.911,2.263,1.886,3.144,1.657c2.285-0.589,4.273-0.132,6.497,0.201c2.263,0.337,3.91,1.143,4.508,3.032
		c0.823,2.608,1.613,5.472,1.377,8.131c-0.747,8.468-3.667,16.409-6.765,24.262c-0.35,0.887-0.385,2.138-1.019,2.638
		c-2.438,1.925-5.381,3.37-5.098,7.241c0.024,0.346-0.292,0.818-0.586,1.07c-2.904,2.488-5.666,5.188-8.808,7.335
		c-3.099,2.115-3.397,2.133-2.652,5.825c0.399,1.984-1.367,4.447-3.207,5.378c-1.007,0.509-1.997,1.85-2.218,2.973
		c-0.506,2.553-1.733,3.523-4.204,3.049c-0.998-5.91-3.261-7.115-7.886-4.274c-1.39-1.653-2.748-2.025-4.315-0.122
		c-0.328,0.397-1.327,0.526-1.907,0.37c-1.84-0.498-2.094,0.198-1.756,1.826c0.17,0.82,0.288,2.19-0.155,2.525
		c-5.524,4.15-8.319,12.595-17.353,11.318c-0.686-0.1-1.446,0.343-2.312,0.562c-0.507-1.746-1.898-3.175,0.073-5.043
		c1.145-1.086-0.794-5.09-2.286-5.656c-0.976-0.374-1.733-1.312-2.703-1.717c-1.645-0.696-3.395-1.635-5.065-1.567
		c-0.979,0.042-2.679,1.842-2.654,2.822c0.047,1.782,1.004,3.637,3.248,4.05c0.206,0.034,0.373,0.276,0.491,0.374
		c0.453,3.342-0.915,5.759-3.474,7.551c-1.387,0.973-2.833,1.886-4.34,2.66c-1.344,0.682-1.988,1.423-1.905,3.13
		c0.187,3.863-1.78,5.521-5.432,4.528c-1.71-0.465-2.156,0.114-2.847,1.442c-0.572,1.102-1.55,2.345-2.631,2.734
		c-1.417,0.515-1.485,1.016-1.388,2.368c0.123,1.685-0.016,3.553-0.646,5.093c-0.83,2.022-2.129,3.892-3.439,5.668
		c-2.562,3.475-8.541,3.174-11.202-0.109c-0.877-1.084-3.128-2.05-4.297-1.665c-2.305,0.756-4.325,2.445-6.406,3.83
		c-2.879,1.921-5.648,4.016-8.601,5.809c-0.735,0.445-2.676,0.368-2.887-0.061c-0.805-1.63-1.951-1.144-3.037-0.857
		c-1.552,0.404-3.077,0.947-4.581,1.521c-3.265,1.248-3.752,2.472-2.914,5.936c0.292,1.211,0.452,2.844-0.121,3.803
		c-2.723,4.566-8.703,6.91-13.716,5.57c-0.628-0.168-1.398-0.825-1.597-1.429c-1.275-3.88-4.08-5.13-7.868-5.142
		c-2.576-0.012-3.904-1.324-3.527-3.893c0.452-3.08-0.863-4.205-3.581-4.457c-1.169-0.105-2.337-0.236-3.505-0.355v2.053
		C0.685,341.648,1.441,341.464,2.021,341.706z"/>
	<path fill="#040000" d="M468.729,148.125c-0.214-0.022-0.416-0.047-0.623-0.07v0.731
		C468.295,148.571,468.5,148.344,468.729,148.125z"/>
	<path fill="#040000" d="M461.105,147.384c-1.533,0.021-3.326,0.313-4.522,1.164c-3.121,2.221-5.048,5.358-6.161,9.132
		c-1.203,4.065,1.59,7.105,2.244,10.677c0.334,1.815,1.42,3.58,2.488,5.145c0.885,1.303,2.176,3.122,3.408,3.222
		c2.578,0.211,3.354,1.673,3.873,3.634c0.498,1.894,0.813,3.835,1.179,5.764c0.074,0.403,0.144,0.895-0.014,1.241
		c-0.785,1.733-1.646,3.432-2.675,5.541c-2.192,0.413-2.72,3.094-2.609,7.846c-1.757,0-3.521,0.105-5.27-0.025
		c-2.399-0.181-4.912-0.165-7.141-0.93c-2.042-0.702-3.47-1.171-4.186,1.334c-1.561-0.328-3.319-0.172-4.252-0.983
		c-4.148-3.608-9.283-4.333-14.3-5.344c-2.561-0.515-3.841,0.758-3.726,3.468c0.079,1.925,1.089,3.889,0.863,5.733
		c-0.472,3.878,1.44,6.251,4.169,8.341c3.768,2.888,7.584,5.716,11.308,8.663c0.652,0.516,1.185,1.433,1.373,2.259
		c1.224,5.368,3.068,10.438,6.536,14.801c0.527,0.663,1.285,1.358,1.379,2.108c0.362,2.871,2.548,4.06,4.562,5.438
		c0.883,0.603,1.796,1.146,2.696,1.719c-2.776,0.933-5.422,1.369-8.086,1.6c-5.059,0.445-7.671,4.088-6.563,8.985
		c0.81,3.566,1.38,7.194,1.924,10.815c0.146,0.974-0.184,2.027-0.31,3.198c-5.848-2.857-5.601-4.396-15.69-1.905
		c-0.572,0.142-1.183,0.128-1.756,0.268c-5.56,1.358-11.122,2.706-16.668,4.115c-2.61,0.66-5.211,1.389-7.786,2.185
		c-2.757,0.847-5.73,0.4-8.221,2.899c-2.945,2.955-6.793,4.987-10.143,7.558c-3.064,2.35-3.343,4.057-1.609,7.489
		c0.275,0.55,0.458,1.149,0.938,2.386c-2.611-1.018-4.604-1.882-6.653-2.574c-2.591-0.87-4.885-0.252-7.214,1.238
		c-2.197,1.405-1.55,3.305-1.583,5.18c-0.004,0.24-0.089,0.48-0.16,0.843c-2.854-0.449-5.627-0.61-7.566-3.4
		c-0.83-1.195-2.564-2.092-4.046-2.43c-4.384-0.996-7.412-3.558-9.593-7.362c-1.601-2.792-3.954-4.473-7.061-5.454
		c-4.192-1.321-8.167-3.397-12.401-4.525c-3.696-0.983-7.61-1.248-11.448-1.549c-2.161-0.169-4.383,0.104-6.542,0.427
		c-1.001,0.148-2.099,0.702-2.821,1.417c-1.376,1.343-2.508,2.938-3.68,4.354c-4.21-1.919-4.824-2.098-8.376-1.268
		c-1.828,0.426-3.206,0.198-4.643-1.115c-1.421-1.303-3.061-2.878-4.8-3.182c-2.021-0.348-4.271,0.486-6.391,0.943
		c-1.446,0.313-1.877,1.339-1.862,2.857c0.063,5.813,4.188,12.184,8.706,14.12c1.285,2.092,2.071,3.597,3.065,4.942
		c1.914,2.587,3.829,5.021,3.673,8.619c-0.101,2.208,0.678,4.46,1.109,6.684c0.053,0.282,0.352,0.56,0.604,0.752
		c2.036,1.544,3.999,3.217,6.16,4.557c2.108,1.305,2.262,4.891,5.567,4.755c0.054-0.002,0.143,0.872,0.115,0.693
		c-2.244,1.437-4.125,2.64-6.006,3.842c-0.416,0.266-0.859,0.76-1.257,0.732c-4.412-0.319-8.751-0.286-12.69,2.375
		c-0.687-3.892-1.13-4.623-3.982-4.392c-2.679,0.217-5.301,1.152-7.943,1.786c-0.148,0.033-0.317,0.165-0.391,0.298
		c-0.959,1.727-2.392,3.364-2.744,5.211c-0.67,3.502-3.256,4.314-5.908,4.915c-4.44,1.006-8.934,1.857-13.447,2.398
		c-1.678,0.201-3.961-0.103-5.132-1.137c-3.367-2.971-12.22-3.301-15.195,0.084c-0.925,1.055-1.313,2.706-1.63,4.153
		c-0.319,1.46-0.249,3.005-0.38,4.964c-3.146,0.122-6.063,0.289-8.983,0.331c-2.107,0.029-5.728,2.857-5.848,4.761
		c-0.197,3.155-0.359,6.313-0.508,9.471c-0.087,1.857-0.393,3.728,2.161,4.476c0.667,0.194,1.006,1.631,1.432,2.525
		c0.829,1.751,1.295,3.799,2.507,5.2c1.165,1.344,1.889,2.493,1.5,4.233h2.038c-0.134-1.39,0.255-3.431-0.504-4.049
		c-1.997-1.632-2.938-3.582-3.641-5.95c-0.41-1.379-1.509-2.544-2.25-3.828c-0.457-0.801-1.163-1.643-1.168-2.47
		c-0.015-2.557,0.292-5.115,0.398-7.676c0.124-2.954,2.087-4.574,5.076-4.507c2.5,0.057,5.053-0.04,7.5-0.51
		c2.414-0.463,2.394-2.721,2.629-4.705c0.197-1.649,0.169-3.616,1.058-4.835c2.258-3.102,10.296-2.492,12.456,0.671
		c0.227,0.329,0.597,0.777,0.911,0.787c2.16,0.072,4.344,0.221,6.485-0.002c3.099-0.32,6.226-0.696,9.234-1.474
		c4.438-1.151,9.875-0.984,11.093-7.238c0.042-0.224,0.271-0.435,0.456-0.602c1.781-1.585,2.567-4.747,5.966-3.807
		c0.202,0.061,0.512-0.396,0.807-0.514c1.03-0.399,2.078-0.754,3.228-1.165c0.765,4.576,1.816,5.575,4.19,4.139
		c3.345-2.026,6.853-2.113,10.548-1.882c1.035,0.063,2.441-0.398,3.111-1.137c1.694-1.86,3.683-2.604,6.079-2.747
		c0.825-0.048,1.63-0.457,2.444-0.697c-2.302-1.587-0.466-6.697-5.168-5.332c0.128-0.477,0.168-0.729,0.259-0.963
		c1.063-2.619,1.035-2.647-1.74-2.411c-0.348,0.028-0.853-0.027-1.048-0.252c-1.51-1.763-4.345-1.576-5.224-4.747
		c-0.664-2.397-3.401-4.191-1.461-7.196c0.155-0.244-0.038-0.848-0.245-1.175c-1.612-2.499-3.323-4.936-4.876-7.469
		c-0.61-0.998-0.827-2.232-1.356-3.291c-0.349-0.695-0.808-1.632-1.433-1.86c-4.035-1.448-8.462-7.347-8.269-11.517
		c0.038-0.78,0.772-2.007,1.409-2.178c1.105-0.297,2.397-0.004,3.588,0.193c0.598,0.098,1.132,0.545,1.706,0.806
		c1.058,0.48,2.306,0.727,3.153,1.455c1.795,1.543,3.656,1.637,5.915,1.398c2.063-0.216,4.21,0.546,6.332,0.643
		c1.217,0.056,3.113,0.084,3.576-0.624c2.432-3.702,5.751-4.55,9.945-4.934c4.193-0.388,8.103-0.189,11.986,1.208
		c3.983,1.433,7.859,3.201,11.9,4.43c3.225,0.98,5.532,2.74,7.196,5.63c2.127,3.704,5.249,6.069,9.421,7.269
		c1.753,0.502,3.209,2.006,4.839,2.994c1.485,0.896,2.984,1.78,4.55,2.526c1.428,0.685,2.931,1.24,4.44,1.729
		c1.46,0.477,2.977,0.794,4.467,1.183c0.211-0.368,0.422-0.736,0.633-1.104c-0.812-0.957-1.68-1.875-2.419-2.888
		c-0.556-0.756-1.254-1.597-1.352-2.464c-0.271-2.332,2.63-4.146,5.552-3.399c1.709,0.437,3.267,1.547,4.979,1.871
		c1.565,0.298,3.252-0.057,4.886-0.119c-0.32-1.332-0.432-2.762-1.001-3.981c-1.373-2.925-1.308-3.572,1.288-5.553
		c0.607-0.465,1.251-0.888,1.893-1.298c2.948-1.881,6.368-3.302,8.698-5.77c1.697-1.796,3.469-1.945,5.374-2.494
		c3.563-1.024,7.126-2.057,10.691-3.074c1.546-0.439,3.085-0.925,4.652-1.264c4.858-1.057,9.75-1.95,14.578-3.106
		c3.781-0.907,7.18-0.498,10.401,1.794c2.611,1.859,3.707,1.419,4.559-1.765c0.277-1.036,0.291-2.225,0.111-3.29
		c-0.65-3.86-1.388-7.71-2.188-11.544c-0.367-1.759-0.296-3.218,1.55-4.051c4.45-2.015,9.171-2.43,13.967-2.389
		c0.08,0,0.159,0.076,0.239,0.08c0.843,0.028,1.686,0.048,2.528,0.073c-0.42-0.919-0.774-1.88-1.292-2.736
		c-0.241-0.403-0.795-0.631-1.215-0.909c-3.605-2.384-7.097-4.383-9.407-8.748c-2.718-5.134-5.771-9.928-6.651-15.796
		c-0.101-0.681-0.633-1.437-1.185-1.883c-2.691-2.191-5.22-4.766-8.253-6.333c-6.271-3.237-7.826-8.754-8.285-15.046
		c-0.08-1.091,0.032-2.332,1.522-1.952c4.576,1.167,9.636,1.159,13.102,5.212c0.285,0.333,0.845,0.466,1.303,0.602
		c1.479,0.441,2.972,0.843,4.83,1.365c1.007-3.338,3.592-2.087,6.212-1.198c1.009,0.34,2.179,0.222,3.275,0.24
		c2.183,0.034,4.372-0.088,6.548,0.046c2.549,0.161,2.781-0.08,2.515-2.615c-0.171-1.614-0.031-3.262-0.031-4.91
		c1.222-0.116,2.027-0.192,2.844-0.271c0.776-2.232-0.805-5.287,2.497-6.345c0.119-0.038,0.141-0.643,0.075-0.956
		c-0.64-3.091-1.122-6.233-2.033-9.24c-0.587-1.932-1.698-3.963-4.176-3.885c-2.041,0.063-2.516-1.127-3.068-2.688
		c-1.082-3.047-2.43-5.997-3.502-9.049c-0.508-1.443-0.975-3.051-0.857-4.535c0.256-3.224,2.057-5.841,4.522-7.733
		c1.198-0.921,3.021-1.237,4.603-1.377c1.745-0.154,3.542,0.326,5.307,0.271c0.376-0.012,0.741-0.465,1.21-1v-0.731
		C465.331,147.737,463.211,147.356,461.105,147.384z"/>
	<g enable-background="new    ">
		<path fill="#040000" d="M167.397,200.195v-10.83h2.434l3.415,5.496c0.154,0.257,0.319,0.544,0.494,0.86
			c0.176,0.317,0.357,0.671,0.543,1.058c0.185,0.387,0.37,0.809,0.551,1.265l-0.238,0.129c-0.029-0.387-0.055-0.805-0.08-1.254
			c-0.024-0.447-0.043-0.877-0.058-1.289c-0.016-0.412-0.023-0.756-0.023-1.033v-5.232h2.247v10.831h-2.441l-3.099-4.98
			c-0.206-0.339-0.408-0.682-0.602-1.028c-0.195-0.347-0.4-0.731-0.614-1.159c-0.215-0.427-0.464-0.924-0.748-1.49l0.304-0.058
			c0.028,0.528,0.056,1.03,0.083,1.509c0.025,0.476,0.047,0.907,0.062,1.289c0.016,0.384,0.022,0.693,0.022,0.932v4.985
			L167.397,200.195L167.397,200.195z"/>
		<path fill="#040000" d="M180.771,200.349c-0.511,0-0.967-0.091-1.372-0.271c-0.406-0.178-0.721-0.444-0.954-0.803
			c-0.231-0.355-0.347-0.797-0.347-1.326c0-0.45,0.081-0.826,0.246-1.126c0.163-0.301,0.388-0.543,0.671-0.728
			c0.285-0.183,0.608-0.323,0.971-0.418c0.363-0.095,0.744-0.161,1.145-0.199c0.467-0.049,0.843-0.094,1.127-0.135
			c0.284-0.042,0.491-0.105,0.621-0.192c0.13-0.088,0.196-0.219,0.196-0.394v-0.036c0-0.223-0.051-0.413-0.148-0.569
			c-0.099-0.158-0.242-0.279-0.431-0.363c-0.187-0.085-0.417-0.127-0.686-0.127c-0.275,0-0.514,0.042-0.72,0.127
			c-0.205,0.084-0.37,0.198-0.498,0.341c-0.128,0.144-0.218,0.305-0.27,0.484l-1.987-0.256c0.111-0.483,0.323-0.897,0.636-1.243
			c0.313-0.344,0.713-0.605,1.199-0.789c0.487-0.181,1.04-0.271,1.661-0.271c0.453,0,0.883,0.055,1.291,0.16
			c0.406,0.106,0.768,0.271,1.086,0.494s0.567,0.506,0.747,0.848c0.181,0.342,0.271,0.75,0.271,1.224v5.415h-2.058v-1.119h-0.065
			c-0.129,0.252-0.302,0.475-0.515,0.665c-0.216,0.191-0.472,0.341-0.77,0.446C181.52,200.295,181.17,200.349,180.771,200.349z
			 M181.377,198.828c0.343,0,0.64-0.067,0.895-0.203s0.455-0.315,0.6-0.545c0.144-0.229,0.217-0.484,0.217-0.771v-0.85
			c-0.068,0.038-0.162,0.078-0.282,0.117c-0.121,0.038-0.257,0.071-0.411,0.102c-0.155,0.029-0.31,0.057-0.466,0.079
			c-0.156,0.025-0.3,0.048-0.431,0.066c-0.26,0.038-0.49,0.1-0.692,0.185c-0.203,0.085-0.358,0.198-0.469,0.343
			c-0.11,0.143-0.166,0.319-0.166,0.533c0,0.203,0.051,0.376,0.156,0.518c0.103,0.142,0.245,0.246,0.426,0.32
			C180.934,198.792,181.142,198.828,181.377,198.828z"/>
		<path fill="#040000" d="M190.584,203.393c-0.682,0-1.275-0.089-1.776-0.268c-0.501-0.178-0.905-0.428-1.212-0.744
			c-0.309-0.317-0.515-0.684-0.622-1.094l1.899-0.4c0.067,0.161,0.17,0.311,0.311,0.451c0.141,0.14,0.323,0.254,0.553,0.341
			c0.228,0.089,0.509,0.131,0.841,0.131c0.544,0,0.971-0.131,1.278-0.393c0.308-0.263,0.463-0.664,0.463-1.206v-1.426h-0.13
			c-0.11,0.237-0.263,0.456-0.455,0.658c-0.192,0.201-0.436,0.362-0.729,0.482c-0.295,0.122-0.648,0.183-1.063,0.183
			c-0.615,0-1.172-0.149-1.668-0.446c-0.496-0.3-0.889-0.74-1.181-1.328c-0.291-0.586-0.436-1.31-0.436-2.172
			c0-0.888,0.148-1.636,0.444-2.246c0.297-0.611,0.692-1.073,1.188-1.388c0.496-0.315,1.046-0.474,1.652-0.474
			c0.429,0,0.793,0.07,1.095,0.212c0.301,0.141,0.552,0.319,0.752,0.536c0.199,0.22,0.356,0.444,0.471,0.678h0.066v-1.309h2.13
			v7.908c0,0.747-0.166,1.365-0.498,1.857c-0.333,0.492-0.79,0.857-1.369,1.098C192.007,203.274,191.341,203.393,190.584,203.393z
			 M190.593,198.438c0.371,0,0.686-0.094,0.945-0.277c0.259-0.182,0.458-0.445,0.595-0.788c0.137-0.341,0.205-0.752,0.205-1.231
			c0-0.476-0.069-0.889-0.205-1.239c-0.138-0.352-0.335-0.624-0.595-0.818c-0.261-0.191-0.575-0.29-0.945-0.29
			s-0.686,0.101-0.942,0.298c-0.259,0.199-0.453,0.475-0.587,0.825c-0.132,0.351-0.197,0.76-0.197,1.225
			c0,0.471,0.066,0.878,0.202,1.225c0.135,0.348,0.33,0.611,0.588,0.795C189.915,198.346,190.227,198.438,190.593,198.438z"/>
		<path fill="#040000" d="M199.82,200.355c-0.803,0-1.5-0.174-2.091-0.52c-0.59-0.348-1.045-0.831-1.365-1.453
			c-0.32-0.624-0.481-1.346-0.481-2.171c0-0.833,0.161-1.561,0.481-2.185c0.32-0.622,0.775-1.106,1.365-1.454
			c0.59-0.346,1.287-0.519,2.091-0.519c0.801,0,1.495,0.174,2.083,0.519c0.59,0.348,1.045,0.832,1.366,1.454
			c0.32,0.624,0.48,1.352,0.48,2.185c0,0.824-0.161,1.547-0.48,2.171c-0.32,0.622-0.776,1.105-1.366,1.453
			C201.315,200.182,200.621,200.355,199.82,200.355z M199.82,198.641c0.375,0,0.692-0.104,0.95-0.313
			c0.258-0.207,0.453-0.495,0.589-0.858c0.134-0.367,0.202-0.788,0.202-1.263c0-0.478-0.068-0.901-0.202-1.263
			c-0.136-0.365-0.332-0.65-0.589-0.859c-0.258-0.207-0.575-0.312-0.95-0.312s-0.693,0.104-0.953,0.312
			c-0.26,0.209-0.457,0.494-0.589,0.859c-0.132,0.361-0.198,0.785-0.198,1.263c0,0.475,0.066,0.896,0.198,1.263
			c0.132,0.363,0.328,0.651,0.586,0.858C199.121,198.536,199.44,198.641,199.82,198.641z"/>
	</g>
	<g enable-background="new    ">
		<path fill="#040000" d="M24.457,114.606v-10.831h3.358l1.746,4.986c0.072,0.232,0.157,0.53,0.253,0.891
			c0.097,0.36,0.193,0.747,0.292,1.159c0.099,0.412,0.191,0.81,0.274,1.196c0.083,0.385,0.156,0.719,0.212,0.999h-0.462
			c0.058-0.275,0.128-0.605,0.212-0.988c0.084-0.384,0.175-0.781,0.275-1.196c0.098-0.414,0.194-0.803,0.289-1.167
			c0.093-0.362,0.179-0.661,0.256-0.894l1.719-4.986h3.365v10.831h-2.209v-5.117c0-0.237,0.004-0.53,0.01-0.88
			c0.009-0.349,0.018-0.724,0.029-1.126s0.023-0.808,0.033-1.218c0.01-0.41,0.017-0.796,0.021-1.159h0.166
			c-0.096,0.397-0.2,0.807-0.313,1.228c-0.113,0.422-0.227,0.833-0.34,1.231c-0.113,0.401-0.219,0.766-0.318,1.098
			c-0.099,0.331-0.185,0.606-0.256,0.824l-1.79,5.117h-1.85l-1.812-5.117c-0.077-0.218-0.165-0.491-0.264-0.821
			c-0.099-0.328-0.206-0.692-0.32-1.09c-0.116-0.398-0.231-0.807-0.348-1.229c-0.116-0.421-0.226-0.835-0.333-1.243h0.202
			c0.005,0.35,0.012,0.727,0.023,1.134c0.009,0.408,0.019,0.814,0.027,1.221c0.009,0.407,0.02,0.786,0.029,1.137
			c0.009,0.352,0.014,0.648,0.014,0.89v5.117h-2.192V114.606z"/>
		<path fill="#040000" d="M41.666,114.766c-0.804,0-1.501-0.174-2.092-0.52c-0.589-0.347-1.045-0.832-1.364-1.454
			c-0.321-0.623-0.48-1.345-0.48-2.17c0-0.833,0.159-1.562,0.48-2.185c0.318-0.623,0.775-1.106,1.364-1.454
			c0.589-0.346,1.287-0.519,2.092-0.519c0.799,0,1.493,0.174,2.083,0.519c0.589,0.348,1.044,0.832,1.365,1.454
			c0.32,0.623,0.479,1.351,0.479,2.185c0,0.824-0.159,1.547-0.479,2.17c-0.321,0.622-0.776,1.106-1.365,1.454
			C43.158,114.592,42.464,114.766,41.666,114.766z M41.666,113.051c0.375,0,0.692-0.104,0.949-0.313
			c0.257-0.208,0.454-0.495,0.588-0.86c0.136-0.367,0.203-0.786,0.203-1.261c0-0.479-0.066-0.902-0.203-1.264
			c-0.134-0.364-0.331-0.649-0.588-0.858c-0.258-0.208-0.575-0.312-0.949-0.312s-0.693,0.104-0.953,0.312
			c-0.261,0.209-0.458,0.494-0.589,0.858c-0.132,0.362-0.198,0.785-0.198,1.264c0,0.475,0.066,0.895,0.198,1.261
			c0.132,0.365,0.327,0.653,0.586,0.86C40.966,112.946,41.286,113.051,41.666,113.051z"/>
		<path fill="#040000" d="M51.119,106.581v1.666h-4.839v-1.666H51.119z M47.442,104.612h2.153v7.618c0,0.257,0.056,0.443,0.17,0.563
			c0.114,0.118,0.302,0.178,0.567,0.178c0.096,0,0.22-0.008,0.372-0.025c0.151-0.017,0.268-0.033,0.35-0.046l0.238,1.649
			c-0.216,0.053-0.443,0.091-0.678,0.112c-0.235,0.022-0.464,0.033-0.687,0.033c-0.818,0-1.438-0.189-1.855-0.571
			c-0.418-0.38-0.628-0.936-0.628-1.668L47.442,104.612L47.442,104.612z"/>
		<path fill="#040000" d="M55.913,114.766c-0.804,0-1.5-0.174-2.091-0.52c-0.59-0.347-1.046-0.832-1.365-1.454
			c-0.32-0.623-0.48-1.345-0.48-2.17c0-0.833,0.16-1.562,0.48-2.185c0.319-0.623,0.775-1.106,1.365-1.454
			c0.589-0.346,1.286-0.519,2.091-0.519c0.8,0,1.494,0.174,2.083,0.519c0.59,0.348,1.045,0.832,1.367,1.454
			c0.318,0.623,0.479,1.351,0.479,2.185c0,0.824-0.161,1.547-0.479,2.17c-0.321,0.622-0.777,1.106-1.367,1.454
			C57.406,114.592,56.712,114.766,55.913,114.766z M55.913,113.051c0.375,0,0.692-0.104,0.95-0.313
			c0.257-0.208,0.453-0.495,0.588-0.86c0.134-0.367,0.202-0.786,0.202-1.261c0-0.479-0.068-0.902-0.202-1.264
			c-0.135-0.364-0.332-0.649-0.588-0.858c-0.259-0.208-0.575-0.312-0.95-0.312c-0.375,0-0.693,0.104-0.954,0.312
			c-0.26,0.209-0.457,0.494-0.588,0.858c-0.132,0.362-0.199,0.785-0.199,1.264c0,0.475,0.066,0.895,0.199,1.261
			c0.131,0.365,0.327,0.653,0.585,0.86C55.214,112.946,55.533,113.051,55.913,113.051z"/>
		<path fill="#040000" d="M65.762,114.744c-0.414,0-0.771-0.068-1.072-0.207c-0.3-0.138-0.55-0.314-0.747-0.531
			c-0.198-0.215-0.351-0.438-0.463-0.672h-0.086v1.271h-2.117v-10.831h2.153v4.107h0.058c0.115-0.233,0.27-0.457,0.461-0.672
			c0.193-0.216,0.439-0.393,0.737-0.534c0.298-0.141,0.661-0.211,1.091-0.211c0.611,0,1.163,0.159,1.657,0.475
			c0.492,0.318,0.887,0.783,1.181,1.396c0.293,0.613,0.441,1.368,0.441,2.264c0,0.882-0.145,1.63-0.431,2.246
			c-0.287,0.615-0.678,1.085-1.173,1.41C66.959,114.581,66.393,114.744,65.762,114.744z M65.121,112.999
			c0.375,0,0.691-0.1,0.945-0.302c0.255-0.2,0.448-0.481,0.582-0.843c0.132-0.36,0.198-0.781,0.198-1.261
			c0-0.475-0.066-0.891-0.198-1.251c-0.133-0.358-0.326-0.637-0.582-0.835c-0.255-0.199-0.571-0.299-0.945-0.299
			c-0.366,0-0.681,0.098-0.943,0.295c-0.264,0.195-0.461,0.472-0.599,0.829c-0.137,0.355-0.206,0.776-0.206,1.261
			c0,0.486,0.071,0.906,0.209,1.265c0.14,0.358,0.341,0.639,0.603,0.839C64.446,112.899,64.759,112.999,65.121,112.999z"/>
		<path fill="#040000" d="M73.245,114.722c-0.554,0-1.038-0.121-1.453-0.363c-0.414-0.243-0.734-0.593-0.959-1.051
			c-0.226-0.458-0.338-1.005-0.338-1.639v-5.088h2.151v4.703c0,0.51,0.128,0.904,0.386,1.184c0.258,0.281,0.613,0.422,1.065,0.422
			c0.305,0,0.573-0.066,0.805-0.196c0.234-0.132,0.417-0.323,0.55-0.578c0.131-0.254,0.199-0.563,0.199-0.927v-4.609h2.159v8.025
			h-2.057l-0.028-2.021h0.18c-0.222,0.679-0.55,1.205-0.986,1.577C74.48,114.536,73.922,114.722,73.245,114.722z"/>
	</g>
	<g enable-background="new    ">
		<path fill="#040000" d="M198.937,100.877v-10.83h2.433l3.416,5.495c0.154,0.258,0.319,0.544,0.494,0.862
			c0.176,0.316,0.355,0.669,0.543,1.057c0.185,0.388,0.37,0.809,0.552,1.264l-0.239,0.131c-0.029-0.388-0.056-0.806-0.08-1.254
			c-0.023-0.448-0.043-0.879-0.058-1.29c-0.016-0.412-0.022-0.756-0.022-1.032v-5.233h2.246v10.83h-2.441l-3.098-4.98
			c-0.208-0.338-0.409-0.681-0.604-1.027c-0.194-0.347-0.399-0.732-0.613-1.159c-0.215-0.427-0.464-0.924-0.749-1.49l0.305-0.059
			c0.027,0.528,0.056,1.03,0.083,1.509c0.026,0.476,0.047,0.907,0.061,1.29c0.016,0.383,0.022,0.693,0.022,0.931v4.986
			L198.937,100.877L198.937,100.877z"/>
		<path fill="#040000" d="M212.311,101.031c-0.511,0-0.967-0.09-1.373-0.269c-0.405-0.179-0.721-0.447-0.953-0.804
			c-0.231-0.355-0.348-0.797-0.348-1.327c0-0.449,0.082-0.826,0.246-1.126c0.164-0.301,0.388-0.543,0.672-0.727
			c0.284-0.184,0.607-0.324,0.97-0.418c0.362-0.096,0.745-0.161,1.145-0.2c0.468-0.048,0.843-0.093,1.128-0.134
			c0.284-0.042,0.491-0.104,0.621-0.192c0.13-0.087,0.195-0.218,0.195-0.393v-0.037c0-0.222-0.05-0.413-0.148-0.57
			c-0.099-0.158-0.242-0.279-0.431-0.363c-0.187-0.085-0.416-0.127-0.685-0.127c-0.275,0-0.515,0.042-0.72,0.127
			c-0.205,0.084-0.371,0.199-0.498,0.341c-0.127,0.144-0.217,0.305-0.271,0.483l-1.986-0.254c0.11-0.484,0.322-0.899,0.636-1.243
			c0.313-0.345,0.712-0.606,1.199-0.789c0.486-0.182,1.04-0.272,1.661-0.272c0.453,0,0.883,0.053,1.291,0.16
			c0.405,0.106,0.768,0.271,1.085,0.494c0.318,0.223,0.567,0.505,0.748,0.847c0.18,0.342,0.27,0.751,0.27,1.224v5.415h-2.058v-1.119
			h-0.065c-0.13,0.252-0.302,0.475-0.516,0.665c-0.216,0.192-0.472,0.342-0.769,0.447
			C213.059,100.976,212.71,101.031,212.311,101.031z M212.917,99.511c0.342,0,0.64-0.067,0.896-0.204
			c0.255-0.136,0.455-0.316,0.599-0.545c0.145-0.228,0.217-0.484,0.217-0.771v-0.85c-0.067,0.039-0.162,0.077-0.282,0.116
			c-0.121,0.039-0.257,0.072-0.411,0.102c-0.155,0.03-0.31,0.057-0.467,0.079c-0.157,0.025-0.3,0.047-0.43,0.066
			c-0.26,0.039-0.491,0.101-0.694,0.185c-0.202,0.085-0.358,0.199-0.468,0.343c-0.111,0.143-0.166,0.32-0.166,0.534
			c0,0.203,0.05,0.376,0.155,0.517c0.103,0.14,0.246,0.246,0.426,0.319C212.472,99.474,212.682,99.511,212.917,99.511z"/>
		<path fill="#040000" d="M218.535,100.877v-10.83h2.151v10.83H218.535z M220.485,98.537v-2.603h0.311l2.643-3.081h2.508
			l-3.482,4.027h-0.507L220.485,98.537z M223.561,100.877l-2.419-3.509l1.438-1.542l3.517,5.051H223.561z"/>
		<path fill="#040000" d="M228.09,91.814c-0.333,0-0.616-0.109-0.849-0.328c-0.234-0.218-0.35-0.484-0.35-0.799
			c0-0.316,0.116-0.582,0.35-0.8c0.233-0.219,0.517-0.328,0.849-0.328c0.332,0,0.613,0.109,0.843,0.328
			c0.232,0.218,0.348,0.484,0.348,0.8c0,0.315-0.115,0.581-0.348,0.799C228.702,91.705,228.421,91.814,228.09,91.814z
			 M227.014,100.877v-8.024h2.151v8.024H227.014z"/>
		<path fill="#040000" d="M230.934,92.854h2.159v8.49c0.006,0.597-0.108,1.083-0.34,1.462c-0.23,0.378-0.563,0.657-1,0.839
			c-0.437,0.182-0.956,0.272-1.563,0.272h-0.536V102.2h0.333c0.347,0,0.59-0.076,0.733-0.228c0.142-0.152,0.212-0.387,0.212-0.702
			L230.934,92.854L230.934,92.854z M232.016,91.814c-0.332,0-0.615-0.109-0.847-0.328c-0.233-0.218-0.351-0.484-0.351-0.799
			c0-0.316,0.117-0.582,0.351-0.8c0.232-0.219,0.516-0.328,0.847-0.328c0.333,0,0.613,0.109,0.845,0.328
			c0.231,0.218,0.347,0.484,0.347,0.8c0,0.315-0.115,0.581-0.347,0.799S232.349,91.814,232.016,91.814z"/>
		<path fill="#040000" d="M235.946,91.814c-0.331,0-0.615-0.109-0.848-0.328c-0.234-0.218-0.351-0.484-0.351-0.799
			c0-0.316,0.117-0.582,0.351-0.8c0.232-0.219,0.517-0.328,0.848-0.328s0.612,0.109,0.843,0.328c0.232,0.218,0.348,0.484,0.348,0.8
			c0,0.315-0.115,0.581-0.348,0.799C236.559,91.705,236.277,91.814,235.946,91.814z M234.871,100.877v-8.024h2.151v8.024H234.871z"
			/>
		<path fill="#040000" d="M240.949,96.269v4.608h-2.151v-8.024h2.051l0.029,2.021h-0.182c0.218-0.679,0.543-1.204,0.979-1.577
			c0.435-0.374,0.996-0.56,1.679-0.56c0.553,0,1.038,0.121,1.452,0.363c0.413,0.242,0.733,0.591,0.96,1.047
			c0.228,0.455,0.339,1.003,0.339,1.642v5.088h-2.152v-4.701c0-0.511-0.127-0.906-0.382-1.189c-0.256-0.283-0.61-0.426-1.068-0.426
			c-0.305,0-0.571,0.067-0.806,0.201c-0.233,0.132-0.415,0.325-0.549,0.577C241.016,95.592,240.949,95.901,240.949,96.269z"/>
	</g>
	<g>
		<ellipse fill="#040000" cx="184.022" cy="209.304" rx="4.272" ry="4.3"/>
		<ellipse fill="#FFFFFF" cx="184.022" cy="209.306" rx="1.759" ry="1.771"/>
	</g>
	<g>
		<ellipse fill="#040000" cx="46.279" cy="122.258" rx="4.272" ry="4.3"/>
		<ellipse fill="#FFFFFF" cx="46.278" cy="122.258" rx="1.76" ry="1.771"/>
	</g>
	<g>
		<ellipse fill="#040000" cx="222.31" cy="109.191" rx="4.271" ry="4.3"/>
		<ellipse fill="#FFFFFF" cx="222.31" cy="109.191" rx="1.759" ry="1.771"/>
	</g>
</g>
<g>
</g>
<g>
</g>
<g>
</g>
<g>
</g>
<g>
</g>
<g>
</g>
</svg>
