<?xml version="1.0" encoding="utf-8"?>
<!-- Generator: Adobe Illustrator 16.0.0, SVG Export Plug-In . SVG Version: 6.00 Build 0)  -->
<!DOCTYPE svg PUBLIC "-//W3C//DTD SVG 1.1//EN" "http://www.w3.org/Graphics/SVG/1.1/DTD/svg11.dtd">
<svg version="1.1" id="圖層_1" xmlns="http://www.w3.org/2000/svg" xmlns:xlink="http://www.w3.org/1999/xlink" x="0px" y="0px"
	 width="311.811px" height="297.641px" viewBox="0 0 311.811 297.641" enable-background="new 0 0 311.811 297.641"
	 xml:space="preserve">
<path fill="#FBFBFC" d="M108.326,0.156c50.42,0,100.842,0,151.265,0c-0.302,0.721-0.767,1.418-0.867,2.167
	c-0.294,2.157-0.438,4.334-0.634,6.406c-2.561,0.781-4.208,1.979-4.229,4.61c-0.012,1.627,0.465,3.505-2.019,3.914
	c-0.251,0.041-0.46,0.94-0.511,1.458c-0.082,0.871-0.021,1.757-0.021,2.64c-4.425,0.796-6.044,2.938-6.123,7.555
	c-0.074,4.317-0.221,8.651-0.708,12.933c-0.364,3.188-1.539,6.277-1.924,9.464c-0.163,1.354,0.359,3.568,1.301,4.116
	c1.911,1.11,1.635,2.03,0.44,3.078c-0.968,0.85-2.266,1.31-3.409,1.961c-0.627,0.356-1.229,0.754-1.841,1.137
	c-0.544,0.341-1.062,0.929-1.632,0.986c-2.153,0.222-3.522,1.448-4.397,3.278c-1.411,2.947-2.709,5.948-4.083,8.913
	c-0.185,0.4-0.443,0.892-0.802,1.064c-1.771,0.867-3.632,1.562-5.363,2.491c-0.618,0.333-1.301,1.115-1.398,1.774
	c-0.567,3.869-0.997,4.475-4.886,4.864c-1.735,0.176-1.971,1.032-1.686,2.413c0.317,1.544,0.683,3.078,1.05,4.712
	c-1.684-0.618-3.117-1.251-4.612-1.633c-0.462-0.118-1.345,0.313-1.577,0.743c-0.205,0.383,0.048,1.279,0.402,1.659
	c1.971,2.11,4.033,4.131,6.094,6.213c-0.595,0.719-1.374,1.665-1.893,2.291c0.702,1.292,1.807,2.43,1.566,3.033
	c-0.836,2.117-0.472,3.351,1.338,3.708c0.24,1.888-0.089,3.952,0.784,4.979c1.019,1.194,3.083,1.486,4.701,2.153
	c0.213,0.088,0.469,0.082,0.704,0.113c1.32,0.168,1.901,0.772,1.795,2.25c-0.061,0.831,0.27,2.197,0.844,2.489
	c4.362,2.214,2.772,6.732,4.594,9.88c-1.944,0.232-3.382,0.241-4.696,0.652c-0.462,0.146-1.049,1.663-0.844,1.896
	c1.125,1.274,1.609,2.528,1.089,4.235c-0.121,0.397,0.499,1.083,0.869,1.563c0.463,0.595,1.021,1.115,1.536,1.667
	c-0.258,0.039-0.512,0.077-0.77,0.116c-0.243,1.188-1.019,2.679-0.57,3.479c0.395,0.71,2.131,0.769,3.3,0.904
	c1.165,0.134,2.361,0.041,3.54-0.022c1.391-0.08,2.832-0.041,4.158-0.404c1.936-0.533,3.688-0.892,5.334,0.713
	c0.394,0.383,1.396,0.717,1.67,0.503c0.452-0.358,0.583-1.17,0.771-1.813c0.499-1.73,0.628-3.675,1.521-5.158
	c1.049-1.744,1.397-3.331,0.866-5.228c-0.18-0.646-0.206-1.34-0.296-1.974c4.033-1.116,5.355-2.719,4.184-5.49
	c-0.792-1.869-0.106-2.654,1.362-2.967c1.313-0.279,2.735-0.026,4.109-0.065c1.283-0.036,2.893,0.324,3.791-0.308
	c3.111-2.192,6.604-2.639,10.186-3.035c1.337-0.148,2.655-0.494,3.985-0.745c4.734-0.896,9.474-1.776,14.206-2.705
	c0.669-0.132,1.362-0.393,1.93-0.77c1.84-1.229,5.217,0.097,5.392,2.266c0.3,3.7,0.195,7.343-2.368,10.42
	c-0.271,0.324-0.36,0.896-0.35,1.348c0.112,4.01,4.193,6.341,7.836,4.684c2.903-1.32,5.037-0.534,5.143,2.746
	c0.023,0.712,0.012,1.544,0.354,2.106c2.332,3.789,1.395,7.923,1.423,11.97c0.02,2.442-0.861,3.921-3.447,3.648
	c-4.171-0.438-6.626,2.112-8.925,4.979c-1.255,1.561-2.398,3.211-3.7,4.729c-0.646,0.753-1.476,1.397-2.321,1.929
	c-5.207,3.257-10.433,6.479-15.669,9.678c-1.208,0.737-1.557,1.539-0.544,2.682c1.402,1.585,2.329,3.24,0.957,5.357
	c-0.168,0.258,0.038,0.762,0.066,1.151c0.058,0.702,0.112,1.406,0.166,2.11c-0.75-0.249-1.499-0.502-2.235-0.747
	c0.188-0.78,0.287-1.241,0.407-1.696c0.479-1.816-0.553-2.736-2.031-3.256c-1.481-0.521-2.402,0.028-2.797,1.641
	c-0.128,0.522-0.688,1.123-1.197,1.337c-3.275,1.365-5.203,4.287-7.543,6.674c-3.054,3.119-5.704,6.635-8.677,9.84
	c-0.993,1.07-2.35,1.938-3.701,2.51c-2.757,1.16-5.604,2.122-8.45,3.039c-2.334,0.75-3.605-0.086-4.589-2.455
	c-0.267-0.643-1.103-1.451-1.709-1.477c-3.423-0.154-6.866-0.288-10.276-0.047c-2.735,0.19-5.254,1.205-6.33,4.183
	c-2.321-1.813-2.473-1.88-3.658,0.756c-0.533,1.187-0.563,2.739-0.396,4.071c0.442,3.547-0.897,5.083-4.332,4.52
	c-1.165-0.188-2.271-0.708-3.428-0.979c-1.018-0.236-2.063-0.339-3.097-0.5c0.242,1.013,0.491,2.024,0.721,3.041
	c0.032,0.146-0.032,0.315-0.1,0.846c-0.8,0.101-1.687,0.269-2.577,0.316c-2.867,0.155-4.968,1.751-4.917,3.856
	c0.035,1.626,0.164,3.247,0.258,5.004c-2.134,0.314-4.016,0.743-5.911,0.843c-5.13,0.264-9.807,3.317-11.288,8.23
	c-0.976,3.235-2.763,5.022-5.864,5.932c-2.709,0.796-4.175,2.73-4.479,5.627c-0.133,1.248-0.25,2.873-1.035,3.615
	c-3.696,3.491-6.313,8.384-11.957,9.492c-0.905,0.181-1.937,1.424-2.294,2.399c-1.273,3.477-3.542,5.861-6.585,7.904
	c-4.435,2.979-9.45,3.72-14.454,4.555c-4.898,0.813-9.81,2.317-14.821,0.279c-0.827-0.337-2.031,0.098-3.015,0.347
	c-6.752,1.724-13.589,3.223-19.522,7.213c-0.513,0.345-1.257,0.337-1.78,0.669c-1.772,1.13-3.968,1.983-5.146,3.583
	c-3.267,4.428-7.654,6.335-12.822,7.064c-1.498,0.211-2.643,0.125-3.786-1.207c-0.992-1.153-2.473-2.285-3.908-2.578
	c-6.755-1.384-13.246-4.177-20.341-3.818c-2.801,0.14-6.155-3.432-5.178-6.017c1.368-3.622,0.831-7.021,0.38-10.557
	c-0.08-0.621-0.011-1.262-0.011-1.895c0.187,0.118,0.377,0.236,0.563,0.354c0.87-1.024,2.389-1.988,2.5-3.092
	c0.568-5.564,0.743-11.169,1.126-16.753c0.074-1.068,0.583-2.107,0.662-3.174c0.046-0.605-0.189-1.601-0.609-1.817
	c-2.306-1.203-1.883-3.114-1.847-5.039c2.355,0.32,4.407,0.6,7.062,0.961c-0.647-1.729-1.023-2.734-1.416-3.78
	c2.171-2.103,2.094-2.169-0.34-4.077c-0.64-0.499-1.116-1.768-0.999-2.584c0.455-3.171,1.179-6.117,4.163-8.242
	c2.832-2.016,2.632-4.708,0.159-6.993c-0.462-0.428-0.806-0.991-1.183-1.509c-1.234-1.681-0.995-2.896,1.039-3.708
	c1.176-0.469,2.368-1.024,3.358-1.797c0.522-0.406,0.632-1.357,0.927-2.063c-0.622-0.217-1.246-0.616-1.867-0.612
	c-1.269,0.007-2.535,0.231-3.804,0.363c-1.853,0.188-3.702,0.374-5.553,0.563c-0.02-0.203-0.037-0.405-0.058-0.605
	c0.428-0.091,0.866-0.281,1.287-0.249c1.797,0.142,2.008-0.984,1.795-2.315c-0.521-3.282-1.738-4.037-4.941-3.124
	c-0.993,0.281-1.979,0.61-2.938,1c-3.127,1.267-3.904,2.655-3.189,5.994c0.266,1.236,0.852,2.403,1.288,3.604
	c0.399,1.093,0.793,2.185,1.188,3.272c-3.682,1.373-4.6,1.354-6.176-1.62c-1.257-2.371-2.645-5.343-2.248-7.762
	c0.465-2.854,0.688-5.497,0.042-8.242c-0.585-2.49-1.296-4.954-1.91-7.27c0.473-0.889,0.849-1.741,1.357-2.502
	c0.313-0.464,0.771-0.97,1.269-1.144c4.236-1.468,8.511-2.819,12.73-4.323c0.479-0.172,1.102-1.45,0.987-1.567
	c-1.572-1.642-2.819-3.796-5.449-3.969c-2.304-0.15-4.604-0.381-6.912-0.456c-3.077-0.1-3.271-0.254-3.367-3.259
	c-0.044-1.362-0.12-2.729-0.288-4.082c-0.604-4.857-0.599-4.961,3.942-6.648c1.66-0.616,1.573-1.309,0.42-2.337
	c-1.552-1.387-2.963-2.97-4.662-4.134c-1.561-1.069-1.577-2.318-1.429-3.924c0.244-2.629,0.335-5.277,0.393-7.917
	c0.03-1.463-0.956-1.993-2.033-1.192c-2.908,2.156-5.864,0.793-8.734,0.231c-2.172-0.425-1.232-2.622-1.436-4.03
	c-0.066-0.466,1.08-1.567,1.701-1.592c2.537-0.096,3.115-1.457,3.297-3.737c0.738-9.188-3.542-16.601-8.14-23.9
	c-0.319-0.509-1.607-0.924-2.094-0.679c-0.738,0.373-1.623,1.349-1.65,2.096c-0.161,4.564-0.169,9.141-0.088,13.71
	c0.066,3.75,0.292,7.498,0.516,11.243c0.118,1.965-1.772,3.971-3.715,4.002c-2.441,0.039-2.899-1.434-2.911-3.433
	c-0.036-5.45-0.017-10.903-0.183-16.348c-0.228-7.362-0.617-14.717-0.917-22.075c-0.055-1.326-0.008-2.656-0.008-4.004
	c1.312-0.157,2.402-0.288,3.49-0.419c0.438,3.229,2.277,5.063,4.613,4.552c2.266-0.499,1.815-2.221,1.77-3.649
	c0.946-0.805,1.592-1.808,2.358-2.704c0.442-0.521,1.019-1.064,1.642-1.272c3.991-1.333,6.99-4.087,9.068-7.499
	c2.001-3.285,4.108-5.665,8.077-6.474c2.031-0.415,3.261-0.303,4.564,1.263c1.374,1.647,2.934,3.14,4.467,4.644
	c0.375,0.367,0.964,0.714,1.458,0.72c1.801,0.019,4.687-3.636,4.646-5.488c-0.024-1.073,0.021-2.553,0.669-3.168
	c3.408-3.223,7.564-4.428,12.252-4.362c1.225,0.018,3.055-0.973,3.579-2.021c1.126-2.251,2.84-3.148,5.03-3.55
	c3.77-0.69,4.143-1.089,4.646-4.981c0.216-1.662,0.413-3.348,0.873-4.949c0.606-2.106,1.5-4.128,2.203-6.208
	c0.519-1.533,0.043-2.27-1.703-2.101c-1.37,0.133-2.891,0.464-3.776-1.229c-0.049-0.095-1.61,0.229-1.803,0.659
	c-0.813,1.819-1.303,3.781-2.065,5.628c-0.253,0.611-0.942,1.442-1.471,1.471c-2.756,0.146-5.522,0.068-8.306,0.068
	c-0.072-1.608-0.122-2.881-0.189-4.152c-0.19-3.61,0.021-3.802,3.577-4.55c0.603-0.126,1.436-1.009,1.491-1.604
	c0.326-3.52-1.835-6.482-5.32-7.351c0.896-3.369,1.787-6.731,2.651-9.991c1.261-0.185,2.229-0.231,3.145-0.477
	c2.145-0.57,4.632-0.538,5.728,1.146c0.798,1.225-0.079,3.559-0.202,5.399c-0.011,0.155,0.019,0.313,0.04,0.626
	c0.344,0.158,0.741,0.459,1.17,0.516c2.908,0.373,5.817,0.749,8.737,0.971c0.413,0.03,1.095-0.694,1.297-1.21
	c0.842-2.14,1.822-4.285,2.23-6.525c0.453-2.478,0.396-5.061,0.402-7.597c0.001-0.364-0.851-0.827-1.384-1.073
	c-0.599-0.275-1.286-0.354-2.447-0.652c0.981-0.833,1.508-1.6,2.202-1.809c2.118-0.639,4.3-1.063,6.834-1.662
	c0.891,1.194,2.112,2.948,4.684,2.004c3.36-1.232,6.368-2.845,8.385-6.022c0.883-1.394,2.129-2.563,3.274-3.775
	C105.815,2.57,107.086,1.379,108.326,0.156z"/>
<path fill="#040000" d="M261.815,0.156c-1.855,2.639-1.157,5.836-1.905,8.712c-0.174,0.666-0.726,1.687-1.199,1.744
	c-2.585,0.312-3.156,1.788-3.215,4.16c-0.028,1.242-1.167,2.419-1.568,3.7c-0.377,1.191-0.433,2.484-0.646,3.729
	c-0.158,0.937-0.188,2.587-0.54,2.664c-1.14,0.247-2.407-0.087-3.615-0.513c-1.653,0.617-2.11,2.094-2.234,4.026
	c-0.406,6.295-1.042,12.575-1.579,18.862c-0.046,0.539-0.219,1.199,0.01,1.607c1.019,1.807,0.584,3.138-1.145,4.06
	c0.105,0.276,0.133,0.448,0.225,0.56c0.986,1.164,3.05,2.813,2.786,3.384c-0.853,1.845-2.311,3.652-3.987,4.801
	c-2.037,1.395-4.552,2.069-6.824,3.134c-0.546,0.256-1.125,0.737-1.383,1.268c-1.504,3.074-3.019,6.153-4.313,9.321
	c-0.523,1.285-0.979,2.094-2.469,2.49c-2.648,0.707-5.088,1.718-5.667,5.119c-0.519,3.042-3.327,3.542-6.01,4.065
	c0.385,1.642,0.809,3.094,1.063,4.575c0.44,2.56-0.165,3.169-3.041,3.229c0.501,0.502,0.915,1.252,1.518,1.466
	c3.201,1.134,3.416,1.886,1.09,4.458c-0.104,0.118-0.179,0.262,0.287,0.339c0.146,1.485,0.297,2.97,0.471,4.734
	c2.083,0.17,2.071,1.729,1.349,3.625c-0.604,1.578-0.107,2.613,1.519,3.094c0.986,0.292,1.957,0.643,2.95,0.911
	c1.928,0.516,3.381,1.304,3.201,3.754c-0.049,0.64,0.643,1.665,1.257,1.958c1.503,0.72,1.967,1.804,2.214,3.373
	c0.369,2.337,0.932,4.673,1.695,6.909c0.907,2.641-0.491,2.887-2.447,2.791c-0.473-0.022-0.946-0.086-1.417-0.133
	c-0.053,0.139-0.145,0.263-0.139,0.384c0.088,2.555,0.221,5.041,2.014,7.191c0.368,0.44-0.43,1.865-0.727,2.965
	c4.779-0.302,9.506-0.602,14.111-0.894c0.805-1.613,1.982-3.353,2.531-5.276c0.404-1.414,0.225-3.127-0.139-4.597
	c-0.471-1.892-0.33-2.819,1.897-2.975c2.751-0.191,2.954-0.901,2.124-3.582c-0.271-0.881-0.004-2.245,0.542-3.012
	c1.307-1.836,4.832-2.762,6.954-1.83c1.513,0.665,2.604,0.309,3.999-0.327c2.278-1.038,4.695-1.845,7.132-2.432
	c5.32-1.285,10.681-2.399,16.041-3.514c1.314-0.273,2.692-0.213,4.027-0.421c0.813-0.127,1.794-0.254,2.354-0.766
	c1.355-1.239,2.455-1.024,4.062-0.335c3.043,1.305,4.616,3.238,4.045,6.604c-0.454,2.666-0.527,5.561-1.688,7.89
	c-0.954,1.913-0.604,3.349,0.345,4.482c0.94,1.124,2.352,0.626,3.821-0.125c3.856-1.971,7.296,0.285,7.64,4.669
	c0.057,0.711,0.063,1.519,0.403,2.1c2.641,4.538,1.332,9.384,1.159,14.133c-0.079,2.192-1.396,3.612-3.521,3.42
	c-5.088-0.456-7.932,2.645-10.385,6.318c-2.146,3.211-4.979,5.357-8.369,7.136c-4.276,2.244-8.278,5.015-12.554,7.652
	c1.786,2.16,3.118,3.946,1.688,6.546c-0.301,0.546,0.765,1.854,1.29,3.005c-1.098,0.557-2.394,1.213-3.689,1.87
	c0.254,0.454,0.501,0.909,0.755,1.364c-1.649-1.042-3.332-2.033-4.908-3.18c-0.297-0.216-0.313-1.104-0.163-1.586
	c0.18-0.563,0.685-1.024,0.84-1.688c-3.794,3.714-8.314,6.405-11.55,10.911c-3.809,5.307-8.504,10.295-15.066,12.516
	c-2.331,0.788-4.816,1.376-7.263,1.491c-2.556,0.122-4.279-1.495-4.973-4.297c-1.688,0-3.36,0.086-5.021-0.021
	c-2.386-0.151-4.32,0.156-5.846,2.485c-0.926,1.412-2.809,2.19-4.273,3.264c-1.017-0.577-2.054-1.164-3.6-2.041
	c0,1.195-0.157,1.901,0.025,2.504c0.744,2.429,0.046,4.636-1.041,6.708c-0.299,0.576-1.351,1.105-2.02,1.063
	c-2.195-0.135-4.373-0.544-6.679-0.862c-0.061,0.551-0.123,1.174-0.193,1.795c-0.291,2.622-0.969,2.979-3.655,2.271
	c-0.916-0.241-2.008-0.264-2.902,0.002c-1.374,0.404-1.349,1.312-0.421,2.348c0.509,0.569,1.337,1.546,1.158,1.917
	c-0.617,1.294-1.38,3.006-2.519,3.454c-2.099,0.826-4.49,1.063-6.785,1.201c-4.271,0.253-8.254,2.71-9.477,6.924
	c-1.108,3.817-3.269,6.093-6.975,7.114c-2.085,0.58-3.132,2.017-3.302,4.207c-0.193,2.464-0.81,4.729-3.149,6.146
	c-0.651,0.396-1.199,1.09-1.601,1.765c-1.867,3.152-4.723,4.945-8.081,6.008c-1.553,0.492-2.193,1.533-3.057,2.895
	c-1.748,2.756-3.885,5.477-6.437,7.455c-6.219,4.829-14.002,4.907-21.337,6.105c-2.574,0.42-5.31-0.221-7.97-0.237
	c-1.611-0.012-3.228,0.183-4.827,0.395c-0.696,0.092-1.357,0.678-2.027,0.665c-7.697-0.133-13.268,5.527-20.187,7.532
	c-1.206,0.352-2.237,1.768-3.064,2.902c-3.87,5.312-9.46,6.771-15.518,7.137c-0.782,0.047-1.888-0.459-2.367-1.077
	c-1.688-2.188-3.938-3.141-6.515-3.668c-2.649-0.545-5.255-1.33-7.917-1.783c-3.046-0.511-6.122-0.938-9.2-1.104
	c-4.066-0.217-8.374-4.383-7.133-8.167c1.34-4.092,0.326-7.862,0.22-11.768c-0.037-1.348,0.235-2.229,1.563-2.49
	c1.497-0.297,1.746-1.26,1.811-2.611c0.285-5.966,0.671-11.924,0.997-17.888c0.021-0.342-0.162-0.702-0.271-1.047
	c-0.654-2.086-1.406-4.152-1.892-6.278c-0.092-0.4,0.802-1.397,1.359-1.508c1.208-0.234,2.492-0.071,3.818-0.071
	c0.379-0.894,0.835-1.953,1.348-3.15c-2.42-1.329-2.215-3.515-1.759-5.972c0.605-3.274,1.642-6.068,4.567-8.07
	c1.948-1.332,1.796-2.604,0.174-4.242c-0.447-0.453-0.85-0.961-1.214-1.484c-2.227-3.196-1.873-4.958,2.03-7.329
	c-1.766,0.158-2.868,0.253-3.969,0.359c-1.424,0.14-2.853,0.437-4.269,0.381c-0.737-0.03-1.448-0.676-2.17-1.045
	c0.458-0.533,0.938-1.051,1.367-1.605c0.955-1.233,1.886-2.488,3.083-4.075c-0.914-0.059-1.081-0.105-1.227-0.07
	c-6.427,1.579-6.938,2.65-4.166,8.712c2.243,4.902,1.705,5.755-3.517,6.216c-1.947,0.172-3.438-0.1-4.302-2.03
	c-1.196-2.684-2.453-5.338-3.599-8.041c-0.232-0.549-0.322-1.371-0.083-1.877c2.297-4.827,0.146-9.278-1.157-13.749
	c-1.145-3.921,0.387-6.775,4.335-7.552c1.87-0.367,3.795-0.643,5.554-1.328c1.665-0.646,3.143-1.778,5.238-3.015
	c-1.158-0.58-2.128-1.382-3.188-1.529c-2.438-0.343-4.92-0.384-7.385-0.509c-2.979-0.149-4.02-1.104-4.282-4.027
	c-0.216-2.396-0.441-4.79-0.625-7.188c-0.242-3.165,1.292-5.18,4.477-6.173c-1.527-1.427-2.65-2.871-4.109-3.753
	c-1.864-1.126-2.058-2.601-1.835-4.469c0.272-2.288,0.441-4.589,0.622-6.539c-3.571-0.393-6.842-0.724-10.104-1.137
	c-0.557-0.069-1.308-0.354-1.563-0.782c-2.447-4.115-0.624-8.174,4.02-8.971c1.515-9.183-2.65-16.575-7.259-23.827
	c-0.234,0.017-0.468,0.031-0.701,0.045c0,5.538-0.055,11.078,0.022,16.613c0.037,2.547,0.292,5.093,0.531,7.633
	c0.135,1.442-1.51,6.104-2.646,6.208c-1.924,0.18-4.031,0.1-5.806-0.562c-0.911-0.34-1.753-2.151-1.807-3.334
	c-0.357-8.086-0.472-16.183-0.716-24.273c-0.179-5.922-0.425-11.841-0.654-17.76c-0.131-3.417-0.293-3.857,3.085-3.73
	c0.752,0.027,1.534-0.346,2.281-0.598c2.202-0.744,2.521-0.515,2.426,1.828c-0.1,2.514-0.1,2.514,1.977,2.871
	c-0.753-1.933,0.635-2.66,1.582-4.001c2.462-3.493,7.033-3.683,9.427-6.954c1.818-2.486,3.593-5.004,5.435-7.472
	c0.418-0.561,0.952-1.201,1.565-1.41c2.17-0.742,4.371-1.425,6.607-1.914c2.315-0.507,3.635,1.134,4.958,2.696
	c1.218,1.442,2.527,2.809,3.708,4.11c1.108-1.063,2.083-1.755,2.708-2.685c0.381-0.565,0.389-1.521,0.277-2.258
	c-0.215-1.432,0.23-2.238,1.418-3.177c4.128-3.259,8.66-4.944,13.933-4.641c0.516,0.03,1.326-0.562,1.571-1.074
	c1.397-2.924,3.854-4.069,6.832-4.645c0.841-0.163,2.109-0.887,2.233-1.538c0.688-3.591,1.041-7.24,3.041-10.454
	c0.298-0.477,0.17-1.223,0.236-1.817c-3.715-1.15-3.899-1.062-5.02,2.335c-1.251,3.798-1.251,3.798-5.208,3.798
	c-2.152,0-4.313-0.09-6.459,0.024c-1.987,0.107-2.521-0.932-2.454-2.647c0.038-0.96,0.122-1.923,0.08-2.879
	c-0.229-5.146,0.162-5.749,5.169-7.372c-0.427-1.241-0.854-2.477-1.387-4.032c-0.593,0.488-0.908,0.77-1.243,1.021
	c-1.429,1.069-2.609,0.863-2.462-1.06c0.247-3.235,0.979-6.43,1.302-9.663c0.403-4.036,2.563-5.781,6.471-5.477
	c1.63,0.127,3.251,0.356,4.87,0.595c1.714,0.253,3.418,0.569,5.588,0.937c-1.073,2.028-2.037,3.852-3.262,6.162
	c2.787,0.215,4.888,0.377,7.241,0.56c1.053-3.942,3.958-7.473,2.612-11.627c-2.651-0.967-5.089-1.803-7.478-2.771
	c-0.481-0.196-0.763-0.896-1.137-1.364c0.582-0.292,1.147-0.776,1.751-0.836c1.333-0.127,2.682-0.039,4.239-0.039
	c-0.245-1.967,0.66-2.153,2.519-1.94c1.49,0.171,3.262-0.411,4.615-1.182c1.787-1.015,3.191-1.11,4.316,0.646
	c0.896,1.397,1.939,1.437,3.263,0.882c2.771-1.162,5.087-2.754,6.838-5.38c1.471-2.206,3.563-3.996,5.38-5.969
	c0.958,0,1.915,0,2.872,0c-1.237,1.223-2.51,2.414-3.705,3.678c-1.145,1.212-2.391,2.383-3.274,3.776
	c-2.016,3.179-5.024,4.788-8.385,6.022c-2.571,0.944-3.792-0.81-4.683-2.004c-2.534,0.597-4.716,1.022-6.834,1.662
	c-0.695,0.209-1.22,0.975-2.203,1.808c1.163,0.297,1.85,0.377,2.448,0.653c0.535,0.246,1.385,0.709,1.384,1.073
	c-0.006,2.537,0.05,5.121-0.403,7.597c-0.409,2.24-1.388,4.384-2.23,6.524c-0.203,0.516-0.884,1.24-1.296,1.21
	c-2.92-0.222-5.829-0.599-8.737-0.972c-0.428-0.055-0.826-0.357-1.17-0.515c-0.022-0.313-0.051-0.471-0.04-0.625
	c0.124-1.84,1.001-4.173,0.202-5.4c-1.098-1.683-3.583-1.716-5.728-1.146c-0.917,0.244-1.883,0.292-3.145,0.476
	c-0.863,3.259-1.757,6.622-2.651,9.992c3.484,0.867,5.646,3.831,5.319,7.35c-0.056,0.596-0.888,1.479-1.49,1.604
	c-3.557,0.746-3.77,0.938-3.578,4.549c0.068,1.271,0.117,2.543,0.19,4.153c2.783,0,5.549,0.078,8.305-0.068
	c0.527-0.027,1.218-0.858,1.472-1.47c0.762-1.847,1.253-3.809,2.065-5.628c0.193-0.43,1.753-0.754,1.803-0.659
	c0.886,1.692,2.407,1.361,3.776,1.229c1.746-0.17,2.22,0.566,1.702,2.101c-0.701,2.081-1.597,4.102-2.202,6.209
	c-0.459,1.6-0.658,3.288-0.874,4.949c-0.502,3.893-0.877,4.291-4.646,4.98c-2.191,0.402-3.905,1.298-5.03,3.551
	c-0.525,1.049-2.354,2.039-3.579,2.021c-4.688-0.065-8.846,1.14-12.252,4.362c-0.649,0.614-0.695,2.095-0.669,3.168
	c0.041,1.853-2.845,5.507-4.646,5.487c-0.495-0.005-1.083-0.352-1.457-0.719c-1.533-1.503-3.093-2.997-4.466-4.644
	c-1.305-1.565-2.534-1.677-4.565-1.264c-3.969,0.81-6.076,3.189-8.076,6.475c-2.077,3.412-5.077,6.166-9.068,7.499
	c-0.624,0.208-1.198,0.751-1.643,1.271c-0.768,0.897-1.412,1.9-2.357,2.706c0.045,1.429,0.498,3.152-1.77,3.649
	c-2.336,0.512-4.179-1.323-4.613-4.552c-1.089,0.131-2.179,0.262-3.49,0.419c0,1.348-0.046,2.679,0.007,4.004
	c0.301,7.358,0.691,14.715,0.917,22.076c0.167,5.444,0.147,10.897,0.184,16.348c0.012,2,0.469,3.472,2.911,3.432
	c1.943-0.033,3.833-2.039,3.715-4c-0.224-3.745-0.45-7.493-0.516-11.244c-0.08-4.567-0.073-9.144,0.087-13.71
	c0.027-0.748,0.914-1.724,1.65-2.095c0.488-0.247,1.775,0.169,2.095,0.678c4.598,7.301,8.878,14.712,8.14,23.901
	c-0.184,2.281-0.761,3.641-3.298,3.737c-0.62,0.021-1.768,1.125-1.699,1.591c0.201,1.41-0.739,3.605,1.435,4.031
	c2.87,0.562,5.825,1.926,8.734-0.231c1.078-0.8,2.063-0.271,2.034,1.192c-0.059,2.643-0.147,5.291-0.393,7.917
	c-0.148,1.604-0.133,2.854,1.43,3.926c1.697,1.162,3.108,2.747,4.66,4.132c1.153,1.026,1.242,1.72-0.419,2.339
	c-4.543,1.687-4.547,1.787-3.943,6.646c0.167,1.353,0.244,2.72,0.288,4.084c0.099,3.003,0.292,3.156,3.369,3.259
	c2.307,0.075,4.607,0.304,6.912,0.456c2.632,0.173,3.877,2.327,5.449,3.967c0.112,0.119-0.507,1.397-0.987,1.567
	c-4.222,1.506-8.494,2.859-12.73,4.322c-0.499,0.175-0.956,0.681-1.267,1.146c-0.512,0.759-0.887,1.613-1.359,2.502
	c0.613,2.314,1.325,4.778,1.911,7.269c0.646,2.746,0.423,5.388-0.042,8.243c-0.396,2.417,0.99,5.389,2.247,7.758
	c1.578,2.977,2.494,2.994,6.177,1.622c-0.395-1.087-0.79-2.182-1.188-3.271c-0.438-1.2-1.021-2.367-1.286-3.606
	c-0.715-3.338,0.062-4.726,3.188-5.992c0.958-0.389,1.944-0.718,2.938-1.002c3.202-0.912,4.418-0.157,4.94,3.126
	c0.213,1.329,0.003,2.457-1.795,2.316c-0.419-0.032-0.856,0.158-1.287,0.247c0.021,0.2,0.039,0.404,0.059,0.604
	c1.852-0.186,3.7-0.37,5.553-0.561c1.267-0.131,2.534-0.356,3.804-0.364c0.622-0.002,1.245,0.396,1.868,0.612
	c-0.296,0.706-0.404,1.657-0.928,2.065c-0.99,0.773-2.183,1.325-3.358,1.797c-2.034,0.812-2.272,2.029-1.039,3.708
	c0.378,0.514,0.72,1.075,1.184,1.509c2.473,2.284,2.672,4.979-0.16,6.993c-2.983,2.123-3.709,5.068-4.163,8.239
	c-0.118,0.819,0.359,2.088,0.999,2.587c2.435,1.906,2.512,1.976,0.339,4.074c0.393,1.047,0.77,2.053,1.417,3.783
	c-2.654-0.362-4.706-0.643-7.062-0.963c-0.035,1.923-0.46,3.838,1.846,5.041c0.419,0.217,0.657,1.21,0.61,1.817
	c-0.078,1.065-0.59,2.104-0.661,3.174c-0.384,5.584-0.559,11.187-1.128,16.753c-0.111,1.104-1.63,2.065-2.5,3.092
	c-0.188-0.118-0.376-0.237-0.563-0.354c0,0.631-0.068,1.271,0.011,1.895c0.451,3.534,0.988,6.934-0.38,10.554
	c-0.977,2.588,2.377,6.158,5.178,6.018c7.095-0.356,13.587,2.438,20.342,3.819c1.436,0.293,2.916,1.426,3.907,2.577
	c1.146,1.334,2.289,1.418,3.787,1.208c5.167-0.729,9.557-2.637,12.822-7.063c1.179-1.6,3.373-2.455,5.146-3.583
	c0.525-0.334,1.268-0.326,1.78-0.671c5.935-3.99,12.771-5.489,19.523-7.214c0.982-0.248,2.188-0.681,3.014-0.346
	c5.013,2.038,9.923,0.537,14.822-0.28c5.003-0.83,10.02-1.575,14.454-4.552c3.043-2.043,5.313-4.431,6.584-7.907
	c0.356-0.978,1.387-2.221,2.294-2.396c5.643-1.106,8.26-6.001,11.957-9.494c0.785-0.742,0.902-2.365,1.034-3.614
	c0.303-2.896,1.771-4.833,4.479-5.628c3.103-0.907,4.888-2.698,5.863-5.93c1.481-4.913,6.159-7.968,11.288-8.233
	c1.896-0.098,3.774-0.526,5.911-0.842c-0.096-1.755-0.224-3.38-0.261-5.004c-0.05-2.103,2.055-3.701,4.92-3.857
	c0.893-0.049,1.776-0.217,2.576-0.315c0.065-0.529,0.134-0.696,0.101-0.844c-0.229-1.019-0.478-2.03-0.721-3.041
	c1.034,0.159,2.081,0.262,3.095,0.498c1.155,0.271,2.265,0.79,3.428,0.98c3.438,0.563,4.777-0.975,4.334-4.52
	c-0.167-1.334-0.136-2.889,0.396-4.073c1.187-2.636,1.337-2.566,3.657-0.754c1.077-2.979,3.596-3.991,6.331-4.186
	c3.41-0.24,6.854-0.106,10.276,0.048c0.607,0.026,1.442,0.836,1.709,1.479c0.98,2.369,2.253,3.205,4.588,2.453
	c2.851-0.915,5.692-1.877,8.452-3.039c1.352-0.568,2.707-1.438,3.699-2.508c2.972-3.205,5.622-6.724,8.677-9.84
	c2.339-2.388,4.269-5.309,7.543-6.677c0.508-0.213,1.069-0.813,1.196-1.335c0.394-1.61,1.315-2.161,2.799-1.642
	c1.477,0.52,2.509,1.438,2.029,3.256c-0.118,0.455-0.219,0.916-0.404,1.698c0.733,0.247,1.483,0.498,2.235,0.747
	c-0.057-0.704-0.11-1.408-0.167-2.112c-0.03-0.391-0.236-0.895-0.068-1.152c1.373-2.114,0.446-3.771-0.955-5.354
	c-1.015-1.146-0.664-1.945,0.542-2.682c5.238-3.201,10.465-6.424,15.669-9.68c0.847-0.528,1.675-1.174,2.322-1.929
	c1.299-1.519,2.446-3.17,3.699-4.73c2.301-2.864,4.755-5.418,8.925-4.979c2.587,0.271,3.465-1.204,3.449-3.647
	c-0.031-4.046,0.905-8.18-1.423-11.97c-0.348-0.563-0.333-1.396-0.354-2.106c-0.106-3.279-2.237-4.066-5.143-2.745
	c-3.643,1.654-7.723-0.675-7.836-4.685c-0.016-0.453,0.08-1.022,0.349-1.347c2.563-3.077,2.668-6.722,2.368-10.421
	c-0.176-2.169-3.553-3.494-5.391-2.268c-0.569,0.378-1.261,0.641-1.934,0.771c-4.728,0.929-9.469,1.807-14.205,2.706
	c-1.327,0.251-2.646,0.597-3.984,0.746c-3.578,0.396-7.073,0.843-10.185,3.034c-0.897,0.633-2.508,0.271-3.79,0.308
	c-1.376,0.039-2.795-0.214-4.111,0.066c-1.47,0.312-2.153,1.098-1.363,2.966c1.178,2.771-0.146,4.374-4.181,5.49
	c0.09,0.635,0.114,1.326,0.296,1.974c0.528,1.896,0.182,3.482-0.868,5.227c-0.892,1.484-1.019,3.429-1.521,5.158
	c-0.187,0.645-0.318,1.455-0.77,1.813c-0.274,0.216-1.276-0.119-1.67-0.501c-1.646-1.606-3.4-1.246-5.338-0.713
	c-1.324,0.363-2.764,0.324-4.157,0.402c-1.176,0.065-2.373,0.156-3.538,0.022c-1.169-0.135-2.905-0.193-3.301-0.902
	c-0.447-0.8,0.326-2.29,0.569-3.479c0.259-0.039,0.515-0.077,0.771-0.116c-0.516-0.553-1.073-1.07-1.535-1.667
	c-0.372-0.479-0.991-1.164-0.869-1.562c0.522-1.708,0.036-2.962-1.09-4.236c-0.205-0.231,0.381-1.751,0.845-1.896
	c1.313-0.411,2.754-0.421,4.695-0.653c-1.82-3.146-0.229-7.666-4.594-9.879c-0.572-0.291-0.9-1.657-0.843-2.489
	c0.106-1.478-0.476-2.082-1.796-2.25c-0.237-0.03-0.491-0.024-0.705-0.113c-1.616-0.668-3.686-0.959-4.7-2.153
	c-0.873-1.027-0.544-3.092-0.783-4.979c-1.811-0.358-2.175-1.592-1.339-3.708c0.239-0.604-0.858-1.742-1.565-3.033
	c0.518-0.627,1.297-1.572,1.893-2.291c-2.062-2.083-4.125-4.104-6.094-6.213c-0.356-0.381-0.606-1.276-0.402-1.659
	c0.229-0.429,1.111-0.86,1.573-0.743c1.498,0.382,2.934,1.017,4.617,1.633c-0.366-1.634-0.731-3.168-1.052-4.712
	c-0.285-1.381-0.051-2.238,1.686-2.413c3.892-0.391,4.319-0.996,4.888-4.864c0.098-0.659,0.777-1.441,1.398-1.774
	c1.734-0.931,3.596-1.624,5.364-2.491c0.356-0.174,0.616-0.665,0.801-1.064c1.374-2.965,2.672-5.966,4.081-8.913
	c0.875-1.83,2.246-3.058,4.399-3.278c0.569-0.059,1.087-0.646,1.632-0.987c0.611-0.382,1.215-0.779,1.841-1.136
	c1.141-0.653,2.44-1.111,3.407-1.961c1.195-1.048,1.473-1.968-0.44-3.078c-0.938-0.547-1.462-2.763-1.299-4.117
	c0.382-3.186,1.559-6.275,1.924-9.463c0.488-4.281,0.634-8.617,0.707-12.933c0.08-4.616,1.699-6.759,6.123-7.554
	c0-0.885-0.061-1.769,0.021-2.641c0.051-0.517,0.26-1.416,0.512-1.458c2.483-0.409,2.008-2.287,2.018-3.914
	c0.021-2.633,1.667-3.832,4.229-4.61c0.194-2.07,0.341-4.248,0.633-6.406c0.101-0.748,0.567-1.446,0.866-2.167
	C260.22,0.156,261.02,0.156,261.815,0.156z"/>
<g enable-background="new    ">
	<path fill="#040000" d="M59.966,211.392v10.521H57.82v-10.521H59.966L59.966,211.392z"/>
	<path fill="#040000" d="M65.89,214.118v1.618h-4.697v-1.618H65.89z M62.322,212.204h2.089v7.401c0,0.25,0.055,0.431,0.165,0.548
		c0.11,0.113,0.294,0.171,0.55,0.171c0.095,0,0.214-0.007,0.361-0.024c0.146-0.015,0.261-0.03,0.34-0.045l0.231,1.604
		c-0.21,0.054-0.431,0.089-0.659,0.108c-0.229,0.021-0.45,0.032-0.666,0.032c-0.795,0-1.396-0.185-1.802-0.554
		c-0.407-0.371-0.609-0.909-0.609-1.621V212.204L62.322,212.204z"/>
	<path fill="#040000" d="M70.547,222.068c-0.78,0-1.458-0.167-2.03-0.503c-0.572-0.339-1.015-0.808-1.325-1.414
		c-0.312-0.604-0.467-1.307-0.467-2.107c0-0.81,0.155-1.518,0.467-2.122c0.311-0.604,0.752-1.074,1.325-1.411
		c0.571-0.339,1.249-0.506,2.03-0.506c0.776,0,1.45,0.17,2.023,0.506c0.572,0.337,1.015,0.809,1.326,1.411
		c0.311,0.604,0.466,1.313,0.466,2.122c0,0.802-0.156,1.503-0.466,2.107c-0.312,0.606-0.753,1.075-1.326,1.414
		C71.997,221.901,71.322,222.068,70.547,222.068z M70.547,220.404c0.365,0,0.673-0.103,0.921-0.305
		c0.249-0.202,0.44-0.481,0.571-0.837c0.132-0.354,0.197-0.764,0.197-1.225c0-0.465-0.065-0.876-0.197-1.229
		c-0.131-0.354-0.322-0.63-0.571-0.834c-0.25-0.201-0.558-0.304-0.921-0.304c-0.362,0-0.673,0.103-0.926,0.304
		c-0.253,0.204-0.442,0.479-0.572,0.834c-0.128,0.353-0.19,0.764-0.19,1.229c0,0.461,0.063,0.869,0.19,1.225
		c0.13,0.354,0.318,0.635,0.569,0.837C69.868,220.302,70.178,220.404,70.547,220.404z"/>
	<path fill="#040000" d="M75.756,221.914v-7.796h1.956l0.084,1.9h-0.147c0.122-0.473,0.3-0.856,0.536-1.155
		c0.235-0.299,0.514-0.519,0.831-0.66s0.652-0.213,1.002-0.213c0.562,0,1.022,0.177,1.386,0.531
		c0.362,0.353,0.619,0.885,0.767,1.595h-0.237c0.106-0.479,0.292-0.878,0.551-1.19c0.26-0.312,0.566-0.546,0.925-0.701
		c0.357-0.154,0.738-0.231,1.14-0.231c0.478,0,0.903,0.104,1.278,0.313c0.376,0.21,0.673,0.513,0.892,0.909
		c0.218,0.399,0.326,0.886,0.326,1.459v5.239h-2.097v-4.838c0-0.446-0.12-0.779-0.358-0.998c-0.237-0.218-0.531-0.329-0.883-0.329
		c-0.266,0-0.497,0.06-0.689,0.173c-0.194,0.117-0.345,0.277-0.45,0.484c-0.104,0.207-0.158,0.454-0.158,0.736v4.771h-2.026v-4.898
		c0-0.388-0.112-0.693-0.34-0.924c-0.227-0.226-0.52-0.341-0.88-0.341c-0.248,0-0.471,0.058-0.67,0.169
		c-0.199,0.113-0.355,0.279-0.473,0.5c-0.117,0.219-0.174,0.487-0.174,0.808v4.688L75.756,221.914L75.756,221.914L75.756,221.914z"
		/>
	<path fill="#040000" d="M90.965,222.063c-0.497,0-0.938-0.089-1.333-0.262c-0.393-0.175-0.699-0.435-0.925-0.782
		c-0.224-0.346-0.337-0.773-0.337-1.288c0-0.438,0.08-0.803,0.238-1.094c0.159-0.292,0.376-0.527,0.651-0.706
		c0.276-0.18,0.591-0.314,0.943-0.407c0.354-0.092,0.723-0.156,1.111-0.193c0.454-0.047,0.816-0.091,1.094-0.13
		c0.276-0.042,0.477-0.103,0.604-0.188c0.126-0.085,0.189-0.211,0.189-0.382v-0.034c0-0.218-0.048-0.401-0.144-0.555
		c-0.097-0.153-0.235-0.271-0.417-0.354c-0.183-0.082-0.404-0.123-0.666-0.123c-0.268,0-0.499,0.041-0.698,0.123
		c-0.199,0.083-0.36,0.193-0.483,0.334c-0.125,0.14-0.212,0.295-0.264,0.469l-1.928-0.247c0.106-0.471,0.313-0.874,0.616-1.209
		c0.306-0.333,0.692-0.588,1.164-0.767c0.473-0.175,1.011-0.265,1.613-0.265c0.44,0,0.856,0.055,1.252,0.154
		c0.395,0.104,0.747,0.264,1.057,0.48c0.307,0.218,0.549,0.49,0.725,0.824c0.175,0.331,0.262,0.729,0.262,1.188v5.262h-1.998v-1.088
		H93.23c-0.127,0.245-0.294,0.461-0.501,0.646c-0.208,0.187-0.457,0.333-0.747,0.436C91.691,222.01,91.353,222.063,90.965,222.063z
		 M91.554,220.586c0.332,0,0.62-0.064,0.868-0.196c0.249-0.133,0.441-0.308,0.583-0.529s0.21-0.47,0.21-0.749v-0.825
		c-0.064,0.038-0.156,0.075-0.273,0.113s-0.25,0.069-0.399,0.098c-0.147,0.031-0.3,0.058-0.452,0.077
		c-0.152,0.024-0.291,0.045-0.417,0.064c-0.253,0.037-0.477,0.098-0.673,0.181c-0.195,0.083-0.349,0.192-0.456,0.333
		c-0.106,0.138-0.161,0.311-0.161,0.519c0,0.197,0.05,0.364,0.15,0.502c0.101,0.137,0.238,0.239,0.414,0.313
		C91.122,220.551,91.325,220.586,91.554,220.586z"/>
	<path fill="#040000" d="M99.098,217.438v4.476h-2.091v-7.796h1.991l0.028,1.964h-0.175c0.21-0.659,0.526-1.169,0.948-1.533
		c0.425-0.359,0.969-0.542,1.631-0.542c0.539,0,1.008,0.117,1.409,0.354c0.402,0.236,0.713,0.574,0.933,1.017
		c0.219,0.442,0.329,0.977,0.329,1.596v4.942h-2.089v-4.565c0-0.497-0.123-0.879-0.371-1.156c-0.249-0.274-0.595-0.412-1.037-0.412
		c-0.296,0-0.557,0.063-0.782,0.193c-0.227,0.13-0.404,0.316-0.533,0.562C99.162,216.779,99.098,217.08,99.098,217.438z"/>
</g>
<g enable-background="new    ">
	<path fill="#040000" d="M211.354,159.594V149.07h2.362l3.316,5.339c0.147,0.25,0.309,0.529,0.479,0.838
		c0.172,0.308,0.345,0.649,0.525,1.026c0.18,0.376,0.359,0.785,0.537,1.228l-0.231,0.128c-0.025-0.377-0.055-0.782-0.076-1.219
		c-0.022-0.435-0.043-0.853-0.057-1.254c-0.015-0.399-0.021-0.734-0.021-1.002v-5.084h2.18v10.521h-2.371l-3.009-4.838
		c-0.199-0.326-0.396-0.662-0.585-0.998c-0.188-0.336-0.388-0.711-0.596-1.126c-0.208-0.414-0.449-0.896-0.727-1.446l0.295-0.058
		c0.028,0.513,0.056,1,0.08,1.465c0.026,0.464,0.045,0.882,0.063,1.255c0.014,0.371,0.02,0.673,0.02,0.902v4.844h-2.188v0.003
		H211.354z"/>
	<path fill="#040000" d="M224.34,159.742c-0.497,0-0.939-0.089-1.334-0.263c-0.394-0.173-0.699-0.434-0.925-0.78
		c-0.225-0.346-0.337-0.774-0.337-1.289c0-0.437,0.079-0.802,0.237-1.094c0.159-0.291,0.377-0.527,0.652-0.706
		c0.274-0.179,0.589-0.314,0.942-0.406c0.354-0.093,0.724-0.156,1.11-0.193c0.454-0.048,0.818-0.091,1.096-0.132
		c0.274-0.041,0.477-0.101,0.602-0.188c0.129-0.085,0.189-0.211,0.189-0.381v-0.035c0-0.217-0.047-0.401-0.145-0.554
		c-0.096-0.154-0.232-0.271-0.416-0.354c-0.183-0.083-0.404-0.123-0.666-0.123c-0.267,0-0.497,0.04-0.698,0.123
		c-0.198,0.082-0.36,0.193-0.483,0.333c-0.123,0.139-0.212,0.295-0.262,0.469l-1.93-0.247c0.107-0.471,0.313-0.874,0.616-1.209
		c0.306-0.333,0.691-0.587,1.164-0.767c0.472-0.175,1.012-0.263,1.614-0.263c0.439,0,0.856,0.053,1.252,0.153
		c0.396,0.104,0.746,0.265,1.056,0.479c0.309,0.219,0.55,0.492,0.727,0.825c0.175,0.331,0.264,0.729,0.264,1.188v5.262h-2v-1.088
		h-0.063c-0.125,0.245-0.293,0.461-0.501,0.646c-0.207,0.187-0.456,0.333-0.746,0.436
		C225.067,159.689,224.727,159.742,224.34,159.742z M224.927,158.265c0.332,0,0.622-0.065,0.868-0.197
		c0.249-0.132,0.441-0.307,0.581-0.529c0.143-0.222,0.212-0.47,0.212-0.749v-0.825c-0.063,0.038-0.156,0.076-0.271,0.113
		c-0.118,0.038-0.251,0.069-0.401,0.1c-0.146,0.029-0.299,0.056-0.452,0.075c-0.149,0.024-0.291,0.045-0.416,0.064
		c-0.253,0.038-0.478,0.098-0.674,0.181c-0.195,0.083-0.347,0.192-0.456,0.333c-0.107,0.139-0.161,0.312-0.161,0.52
		c0,0.196,0.051,0.364,0.149,0.503c0.101,0.136,0.24,0.237,0.416,0.311C224.497,158.229,224.698,158.265,224.927,158.265z"/>
	<path fill="#040000" d="M232.473,155.117v4.477h-2.091v-7.797h1.991l0.028,1.965h-0.177c0.21-0.658,0.526-1.17,0.949-1.533
		c0.424-0.36,0.968-0.541,1.632-0.541c0.535,0,1.006,0.116,1.407,0.352s0.715,0.574,0.935,1.018c0.22,0.442,0.33,0.976,0.33,1.596
		v4.942h-2.091v-4.566c0-0.497-0.123-0.879-0.371-1.156c-0.247-0.273-0.595-0.412-1.038-0.412c-0.294,0-0.557,0.064-0.782,0.194
		c-0.227,0.129-0.403,0.316-0.532,0.562C232.535,154.458,232.473,154.757,232.473,155.117z"/>
	<path fill="#040000" d="M239.197,151.797h2.096v8.248c0.006,0.58-0.104,1.054-0.331,1.42c-0.225,0.367-0.546,0.64-0.971,0.815
		c-0.423,0.177-0.93,0.266-1.518,0.266h-0.52v-1.669h0.321c0.34,0,0.577-0.071,0.713-0.22c0.137-0.148,0.206-0.377,0.206-0.682
		v-8.18L239.197,151.797L239.197,151.797z M240.249,150.788c-0.325,0-0.598-0.105-0.824-0.317c-0.227-0.214-0.341-0.473-0.341-0.778
		s0.114-0.565,0.341-0.775c0.228-0.213,0.499-0.318,0.824-0.318c0.322,0,0.597,0.105,0.819,0.318c0.225,0.21,0.337,0.47,0.337,0.775
		s-0.112,0.564-0.337,0.778C240.843,150.682,240.571,150.788,240.249,150.788z"/>
	<path fill="#040000" d="M246.51,159.747c-0.779,0-1.456-0.167-2.027-0.503c-0.575-0.339-1.02-0.807-1.328-1.412
		s-0.464-1.309-0.464-2.108c0-0.81,0.155-1.518,0.464-2.122c0.31-0.604,0.753-1.074,1.328-1.412
		c0.571-0.337,1.248-0.504,2.027-0.504c0.775,0,1.45,0.169,2.021,0.504c0.575,0.338,1.017,0.809,1.326,1.412
		c0.311,0.604,0.468,1.313,0.468,2.122c0,0.801-0.157,1.503-0.468,2.108s-0.751,1.073-1.326,1.412
		C247.96,159.58,247.285,159.747,246.51,159.747z M246.51,158.083c0.365,0,0.672-0.103,0.925-0.306
		c0.248-0.2,0.438-0.479,0.568-0.836c0.132-0.354,0.197-0.762,0.197-1.225c0-0.465-0.065-0.876-0.197-1.228
		c-0.13-0.354-0.32-0.631-0.568-0.834c-0.253-0.202-0.56-0.304-0.925-0.304c-0.364,0-0.674,0.102-0.926,0.304
		c-0.253,0.203-0.442,0.479-0.571,0.834c-0.13,0.352-0.192,0.763-0.192,1.228c0,0.463,0.063,0.87,0.192,1.225
		c0.129,0.355,0.316,0.636,0.567,0.836C245.829,157.98,246.139,158.083,246.51,158.083z"/>
</g>
<g enable-background="new    ">
	<path fill="#040000" d="M44.232,129.667v-10.521h2.362l3.315,5.338c0.149,0.25,0.31,0.528,0.479,0.836
		c0.171,0.308,0.345,0.651,0.526,1.027c0.181,0.376,0.359,0.785,0.536,1.228l-0.231,0.127c-0.028-0.377-0.054-0.783-0.077-1.219
		c-0.022-0.436-0.042-0.854-0.058-1.253c-0.015-0.399-0.021-0.734-0.021-1.002v-5.083h2.181v10.521h-2.37l-3.008-4.838
		c-0.201-0.329-0.396-0.663-0.585-1c-0.188-0.336-0.388-0.711-0.596-1.126s-0.451-0.897-0.727-1.447l0.295-0.057
		c0.027,0.513,0.055,1.001,0.08,1.466c0.025,0.462,0.046,0.881,0.061,1.253c0.015,0.373,0.021,0.673,0.021,0.904v4.844H44.23v0.002
		H44.232z"/>
	<path fill="#040000" d="M57.217,129.815c-0.494,0-0.938-0.087-1.332-0.261c-0.394-0.175-0.699-0.435-0.926-0.781
		c-0.224-0.345-0.337-0.775-0.337-1.289c0-0.438,0.08-0.803,0.238-1.094c0.159-0.292,0.377-0.528,0.653-0.706
		c0.275-0.179,0.589-0.314,0.941-0.406c0.354-0.092,0.724-0.156,1.112-0.194c0.454-0.046,0.816-0.091,1.095-0.13
		c0.275-0.041,0.477-0.102,0.604-0.187c0.126-0.085,0.189-0.212,0.189-0.382v-0.036c0-0.217-0.048-0.401-0.144-0.555
		c-0.096-0.152-0.234-0.271-0.418-0.353c-0.182-0.083-0.404-0.124-0.666-0.124c-0.267,0-0.499,0.041-0.699,0.124
		c-0.199,0.082-0.36,0.193-0.483,0.332c-0.125,0.14-0.211,0.296-0.263,0.47l-1.929-0.247c0.106-0.47,0.313-0.874,0.618-1.208
		c0.304-0.334,0.691-0.589,1.163-0.766c0.473-0.177,1.011-0.265,1.613-0.265c0.439,0,0.857,0.053,1.252,0.155
		c0.396,0.104,0.747,0.265,1.056,0.48s0.551,0.491,0.726,0.824c0.176,0.33,0.263,0.729,0.263,1.188v5.261h-1.998v-1.087h-0.063
		c-0.126,0.245-0.293,0.461-0.5,0.646c-0.209,0.186-0.458,0.332-0.747,0.434C57.944,129.763,57.605,129.815,57.217,129.815z
		 M57.806,128.339c0.333,0,0.622-0.065,0.869-0.197c0.248-0.133,0.441-0.308,0.582-0.53c0.142-0.222,0.21-0.47,0.21-0.749v-0.825
		c-0.064,0.037-0.156,0.075-0.272,0.113c-0.117,0.038-0.25,0.07-0.399,0.099c-0.148,0.029-0.3,0.056-0.453,0.077
		c-0.151,0.024-0.292,0.046-0.418,0.064c-0.252,0.038-0.477,0.098-0.673,0.18c-0.195,0.083-0.348,0.192-0.456,0.332
		c-0.106,0.139-0.161,0.312-0.161,0.519c0,0.198,0.05,0.365,0.15,0.502c0.1,0.138,0.239,0.239,0.415,0.311
		C57.375,128.304,57.578,128.339,57.806,128.339z"/>
	<path fill="#040000" d="M65.35,125.189v4.478h-2.089v-10.521h2.062v4.688h-0.218c0.211-0.659,0.526-1.169,0.95-1.531
		c0.424-0.363,0.967-0.544,1.631-0.544c0.537,0,1.006,0.118,1.408,0.354c0.401,0.234,0.714,0.574,0.937,1.017
		c0.221,0.443,0.333,0.976,0.333,1.597v4.942h-2.097V125.1c0-0.496-0.124-0.879-0.371-1.155c-0.248-0.275-0.593-0.414-1.038-0.414
		c-0.295,0-0.556,0.064-0.781,0.195c-0.227,0.129-0.406,0.315-0.534,0.561C65.415,124.53,65.35,124.832,65.35,125.189z"/>
	<path fill="#040000" d="M74.283,129.815c-0.496,0-0.938-0.087-1.332-0.261c-0.394-0.175-0.702-0.435-0.926-0.781
		c-0.225-0.345-0.337-0.775-0.337-1.289c0-0.438,0.079-0.803,0.238-1.094c0.159-0.292,0.377-0.528,0.652-0.706
		c0.274-0.179,0.589-0.314,0.942-0.406c0.353-0.092,0.723-0.156,1.11-0.194c0.454-0.046,0.818-0.091,1.096-0.13
		c0.274-0.041,0.476-0.102,0.603-0.187c0.126-0.085,0.188-0.212,0.188-0.382v-0.036c0-0.217-0.047-0.401-0.144-0.555
		c-0.097-0.152-0.234-0.271-0.418-0.353c-0.182-0.083-0.403-0.124-0.666-0.124c-0.266,0-0.499,0.041-0.698,0.124
		c-0.198,0.082-0.358,0.193-0.482,0.332c-0.125,0.14-0.211,0.296-0.264,0.47l-1.929-0.247c0.107-0.47,0.313-0.874,0.619-1.208
		c0.303-0.334,0.691-0.589,1.164-0.766c0.472-0.177,1.009-0.265,1.612-0.265c0.439,0,0.856,0.053,1.253,0.155
		c0.393,0.104,0.746,0.265,1.054,0.48c0.31,0.216,0.551,0.491,0.726,0.824c0.176,0.33,0.263,0.729,0.263,1.188v5.261H76.61v-1.087
		h-0.063c-0.127,0.245-0.294,0.461-0.501,0.646c-0.209,0.186-0.458,0.332-0.747,0.434C75.011,129.763,74.671,129.815,74.283,129.815
		z M74.872,128.339c0.332,0,0.622-0.065,0.87-0.197c0.248-0.133,0.441-0.308,0.582-0.53c0.141-0.222,0.211-0.47,0.211-0.749v-0.825
		c-0.064,0.037-0.157,0.075-0.273,0.113c-0.117,0.038-0.25,0.07-0.399,0.099c-0.149,0.029-0.301,0.056-0.453,0.077
		c-0.152,0.024-0.292,0.046-0.417,0.064c-0.252,0.038-0.477,0.098-0.673,0.18c-0.196,0.083-0.349,0.192-0.456,0.332
		c-0.107,0.139-0.161,0.312-0.161,0.519c0,0.198,0.05,0.365,0.149,0.502c0.101,0.138,0.237,0.239,0.416,0.311
		C74.441,128.304,74.643,128.339,74.872,128.339z"/>
</g>
<g>
	<ellipse fill="#040000" cx="60.251" cy="138.878" rx="4.148" ry="4.178"/>
	<ellipse fill="#FFFFFF" cx="60.251" cy="138.878" rx="1.707" ry="1.72"/>
</g>
<g>
	<ellipse fill="#040000" cx="78.51" cy="231.933" rx="4.148" ry="4.178"/>
	<ellipse fill="#FFFFFF" cx="78.51" cy="231.934" rx="1.708" ry="1.721"/>
</g>
<g>
	<ellipse fill="#040000" cx="230.383" cy="170.864" rx="4.147" ry="4.178"/>
	<ellipse fill="#FFFFFF" cx="230.383" cy="170.865" rx="1.707" ry="1.72"/>
</g>
<g>
	<path fill="#040000" d="M124.504,18.194c-0.864,0-1.62-0.16-2.265-0.48c-0.645-0.319-1.146-0.769-1.504-1.345
		c-0.358-0.576-0.537-1.246-0.537-2.009V7.523h2.132v6.659c0,0.409,0.09,0.772,0.271,1.091c0.18,0.316,0.433,0.566,0.761,0.749
		c0.327,0.181,0.708,0.271,1.143,0.271c0.439,0,0.822-0.09,1.146-0.271c0.324-0.182,0.577-0.432,0.757-0.749
		c0.18-0.318,0.271-0.683,0.271-1.091V7.523h2.139v6.836c0,0.763-0.179,1.432-0.537,2.009s-0.86,1.025-1.507,1.345
		C126.125,18.034,125.369,18.194,124.504,18.194z"/>
	<path fill="#040000" d="M130.577,18.045V10.25h2.026v1.35h0.069c0.141-0.477,0.374-0.834,0.701-1.077s0.715-0.364,1.164-0.364
		c0.112,0,0.229,0.004,0.352,0.014c0.121,0.01,0.227,0.023,0.314,0.042v1.864c-0.089-0.028-0.221-0.05-0.396-0.066
		c-0.176-0.018-0.346-0.025-0.509-0.025c-0.309,0-0.588,0.068-0.838,0.205s-0.444,0.33-0.585,0.579
		c-0.14,0.249-0.21,0.543-0.21,0.883v4.392H130.577z"/>
	<path fill="#040000" d="M138.345,18.194c-0.496,0-0.939-0.087-1.332-0.261c-0.394-0.175-0.701-0.436-0.927-0.78
		c-0.224-0.346-0.336-0.776-0.336-1.289c0-0.438,0.08-0.803,0.238-1.094c0.159-0.292,0.376-0.527,0.652-0.707
		c0.275-0.18,0.59-0.314,0.942-0.406c0.354-0.092,0.724-0.157,1.111-0.194c0.454-0.047,0.818-0.09,1.094-0.131
		c0.276-0.04,0.478-0.102,0.604-0.187c0.126-0.084,0.188-0.212,0.188-0.381v-0.035c0-0.216-0.048-0.401-0.144-0.555
		c-0.097-0.152-0.235-0.271-0.417-0.353c-0.183-0.083-0.404-0.124-0.666-0.124c-0.268,0-0.499,0.042-0.698,0.124
		s-0.36,0.193-0.484,0.332s-0.211,0.295-0.263,0.47l-1.928-0.247c0.106-0.471,0.313-0.873,0.617-1.208
		c0.304-0.334,0.69-0.59,1.164-0.766c0.472-0.177,1.01-0.265,1.612-0.265c0.439,0,0.856,0.052,1.251,0.155
		c0.396,0.104,0.747,0.265,1.056,0.48c0.309,0.217,0.551,0.491,0.726,0.823s0.263,0.729,0.263,1.189v5.261h-1.998v-1.087h-0.063
		c-0.126,0.245-0.293,0.46-0.501,0.646c-0.208,0.186-0.457,0.331-0.747,0.435C139.072,18.142,138.733,18.194,138.345,18.194z
		 M138.934,16.719c0.332,0,0.622-0.066,0.87-0.198s0.441-0.309,0.582-0.529c0.14-0.222,0.21-0.471,0.21-0.749v-0.827
		c-0.065,0.038-0.157,0.076-0.273,0.113c-0.117,0.038-0.25,0.07-0.4,0.099c-0.149,0.029-0.3,0.055-0.451,0.078
		c-0.152,0.024-0.291,0.045-0.417,0.064c-0.252,0.038-0.478,0.098-0.674,0.18c-0.195,0.083-0.348,0.193-0.456,0.332
		c-0.107,0.139-0.161,0.313-0.161,0.519c0,0.198,0.05,0.365,0.15,0.502c0.102,0.136,0.238,0.239,0.414,0.311
		C138.503,16.683,138.705,16.719,138.934,16.719z"/>
	<path fill="#040000" d="M147.488,18.208c-0.631,0-1.191-0.093-1.679-0.278c-0.488-0.187-0.887-0.455-1.192-0.81
		c-0.306-0.353-0.499-0.775-0.579-1.271l1.97-0.269c0.09,0.358,0.261,0.628,0.513,0.813c0.252,0.184,0.589,0.274,1.009,0.274
		c0.396,0,0.71-0.077,0.94-0.229c0.229-0.153,0.343-0.348,0.343-0.583c0-0.203-0.083-0.369-0.249-0.498s-0.415-0.229-0.747-0.3
		l-1.339-0.269c-0.748-0.154-1.31-0.419-1.684-0.791s-0.561-0.852-0.561-1.439c0-0.494,0.134-0.923,0.403-1.285
		c0.269-0.363,0.646-0.644,1.136-0.84c0.489-0.198,1.06-0.297,1.714-0.297c0.626,0,1.168,0.09,1.627,0.269
		c0.458,0.179,0.826,0.433,1.104,0.763c0.278,0.33,0.455,0.719,0.53,1.165l-1.872,0.262c-0.065-0.278-0.212-0.506-0.438-0.682
		c-0.228-0.177-0.529-0.265-0.908-0.265c-0.351,0-0.639,0.074-0.866,0.223c-0.227,0.149-0.34,0.34-0.34,0.575
		c0,0.198,0.077,0.364,0.231,0.498c0.153,0.134,0.406,0.237,0.757,0.307l1.401,0.283c0.758,0.15,1.319,0.4,1.688,0.749
		c0.367,0.348,0.55,0.803,0.55,1.363c0,0.513-0.146,0.961-0.442,1.345c-0.295,0.384-0.701,0.683-1.223,0.897
		C148.766,18.101,148.166,18.208,147.488,18.208z"/>
	<path fill="#040000" d="M155.797,18.201c-0.779,0-1.457-0.168-2.029-0.505c-0.573-0.336-1.015-0.807-1.325-1.412
		c-0.312-0.604-0.466-1.308-0.466-2.107c0-0.811,0.155-1.518,0.466-2.122c0.311-0.605,0.752-1.076,1.325-1.413
		c0.572-0.336,1.25-0.505,2.029-0.505c0.776,0,1.451,0.168,2.023,0.505s1.015,0.808,1.325,1.413c0.31,0.604,0.467,1.313,0.467,2.122
		c0,0.8-0.156,1.503-0.467,2.107c-0.312,0.605-0.753,1.076-1.325,1.412C157.248,18.033,156.573,18.201,155.797,18.201z
		 M155.797,16.534c0.365,0,0.673-0.101,0.923-0.304c0.25-0.202,0.439-0.481,0.57-0.837s0.196-0.765,0.196-1.226
		c0-0.466-0.065-0.875-0.196-1.229c-0.131-0.354-0.32-0.631-0.57-0.833s-0.559-0.304-0.923-0.304c-0.363,0-0.673,0.102-0.925,0.304
		c-0.252,0.203-0.442,0.479-0.571,0.833c-0.129,0.353-0.192,0.763-0.192,1.229c0,0.461,0.063,0.87,0.192,1.226
		s0.318,0.635,0.568,0.837C155.119,16.433,155.428,16.534,155.797,16.534z"/>
	<path fill="#040000" d="M164.513,18.201c-0.79,0-1.473-0.165-2.044-0.494c-0.572-0.329-1.016-0.795-1.325-1.397
		c-0.312-0.604-0.466-1.312-0.466-2.125c0-0.806,0.153-1.511,0.463-2.115c0.308-0.605,0.742-1.078,1.304-1.419
		c0.561-0.341,1.218-0.512,1.971-0.512c0.52,0,1,0.085,1.444,0.254c0.443,0.169,0.833,0.42,1.167,0.752s0.594,0.746,0.778,1.243
		c0.185,0.496,0.276,1.069,0.276,1.719v0.586h-6.569v-1.327h5.554l-0.976,0.346c0-0.404-0.063-0.755-0.188-1.052
		c-0.127-0.296-0.313-0.526-0.559-0.688c-0.244-0.162-0.548-0.244-0.907-0.244c-0.36,0-0.666,0.083-0.918,0.248
		c-0.253,0.165-0.445,0.391-0.579,0.678c-0.133,0.287-0.199,0.617-0.199,0.989v0.932c0,0.438,0.074,0.81,0.224,1.116
		c0.149,0.306,0.361,0.538,0.636,0.695c0.273,0.156,0.593,0.236,0.957,0.236c0.248,0,0.474-0.037,0.677-0.109
		c0.203-0.073,0.376-0.18,0.519-0.317c0.144-0.139,0.252-0.31,0.326-0.512l1.9,0.274c-0.122,0.452-0.34,0.847-0.655,1.184
		c-0.315,0.336-0.711,0.598-1.186,0.783C165.662,18.111,165.12,18.201,164.513,18.201z"/>
</g>
<g>
	<ellipse fill="#040000" cx="143.706" cy="26.79" rx="4.148" ry="4.178"/>
	<ellipse fill="#FFFFFF" cx="143.706" cy="26.79" rx="1.707" ry="1.72"/>
</g>
</svg>
