<?xml version="1.0" encoding="utf-8"?>
<!-- Generator: Adobe Illustrator 16.0.0, SVG Export Plug-In . SVG Version: 6.00 Build 0)  -->
<!DOCTYPE svg PUBLIC "-//W3C//DTD SVG 1.1//EN" "http://www.w3.org/Graphics/SVG/1.1/DTD/svg11.dtd">
<svg version="1.1" id="圖層_1" xmlns="http://www.w3.org/2000/svg" xmlns:xlink="http://www.w3.org/1999/xlink" x="0px" y="0px"
	 width="510.24px" height="510.24px" viewBox="0 0 510.24 510.24" enable-background="new 0 0 510.24 510.24" xml:space="preserve">
<path fill="#FBFBFC" d="M182.359,511.369c-60.911,0-121.82,0-182.902,0c0-36.087,0-72.175,0-108.262
	c1.185,1.727,2.474,3.388,3.514,5.198c0.83,1.44,1.382,3.045,2.006,4.598c0.689,1.712,1.293,3.458,1.99,5.169
	c0.387,0.951,0.688,2.435,1.372,2.661c1.391,0.463,3.021,0.454,3.759-1.521c0.484-1.304,1.341-2.472,2.128-3.869
	c0.81,0.309,1.642,0.613,2.463,0.943c3.732,1.491,7.393,2.407,11.079-0.301c0.738-0.543,2.223-0.722,3.077-0.375
	c4.227,1.711,7.85,0.44,11.154-2.045c5.547-4.169,11.418-7.535,18.433-8.632c1.226-0.193,2.347-0.966,3.566-1.281
	c2.668-0.688,5.344-1.4,8.063-1.816c1.77-0.273,3.62,0.006,5.432-0.06c2.596-0.093,5.057-0.479,6.53-3.049
	c0.266-0.463,1.071-1.017,1.497-0.924c3.443,0.733,3.814-1.605,4.259-3.957c0.086-0.461,0.332-0.884,0.703-1.837
	c0.346,1.566,0.243,2.938,0.859,3.441c0.874,0.711,2.294,1.051,3.456,1.001c0.495-0.022,1.167-1.368,1.354-2.205
	c1.221-5.419,2.193-6.587,5.826-6.649c2.736-0.044,3.829-1.763,2.642-4.154c-1.755-3.55-0.322-7.726,3.442-9.479
	c0.734-0.342,1.858,0.059,2.788,0.213c1.702,0.292,3.395,0.926,5.083,0.901c1.563-0.021,3.098-0.892,4.68-1.067
	c2.347-0.259,4.338-0.67,3.864-3.844c0.618,0.145,0.965,0.185,1.281,0.305c4.496,1.71,4.494,1.713,6.02-2.69
	c0.116-0.339,0.209-0.707,0.415-0.988c1.383-1.912,2.444-4.346,4.309-5.52c1.343-0.846,1.682-1.424,1.746-2.729
	c0.057-1.129,0.469-2.247,0.453-3.364c-0.017-1.178,0.066-2.847-0.636-3.425c-1.534-1.266-3.521-2.006-5.35-2.908
	c-3.536-1.748-7.113-3.416-10.609-5.242c-0.466-0.244-0.738-1.201-0.767-1.843c-0.067-1.591-0.75-2.283-2.373-2.172
	c-0.657,0.047-1.334-0.14-2.152-0.239c0.171-0.57,0.199-0.947,0.377-1.221c3.496-5.313,7.041-10.592,10.479-15.938
	c0.508-0.785,0.717-1.885,0.719-2.84c0.004-2.19,0.989-3.236,3.168-3.581c3.792-0.602,7.556-1.385,11.488-2.121
	c0.388-1.515-0.153-4.037,3.041-3.688c1.528,0.166,2.911,0.126,2.883-2.085c-0.024-1.902-0.082-3.429-2.683-3.271
	c-0.528,0.031-1.351-0.764-1.599-1.356c-0.186-0.443,0.175-1.32,0.57-1.757c1.672-1.837,4.845-2.198,7.021-1.529
	c2.153,0.663,4.748,1.503,6.695,0.88c3.444-1.1,7.75,0.063,10.362-3.501c0.186-0.25,1.021-0.021,1.551-0.049
	c10.225-0.497,19.041-3.529,24.771-12.748c1.211-1.947,3.255-3.531,5.219-4.841c3.284-2.18,6.815-3.995,10.227-5.991
	c0.272-0.159,0.642-0.569,0.599-0.796c-0.39-2.047,1.453-2.384,2.48-3.402c1.5-1.49,3.177-2.998,4.089-4.837
	c2.217-4.466,2.746-9.227,1.513-14.146c-0.341-1.356-0.267-2.814-0.363-4.232c-0.122-1.81,0.161-3.754-0.423-5.398
	c-0.987-2.793-2.518-5.397-3.795-8.028c3.683-0.554,7.203-0.902,10.631-1.66c2.416-0.531,5.073-1.134,6.984-2.55
	c5.774-4.288,12.113-6.237,19.256-5.935c0.697,0.03,1.974-0.073,2.022-0.308c0.553-2.724,3.229-2.078,4.75-3.165
	c1.153-0.821,1.901-2.243,2.719-3.47c0.633-0.951,1.01-2.067,1.654-3.009c0.967-1.412,2.17-2.667,3.084-4.107
	c1.329-2.103,1.862-4.914,5.188-4.964c0.098-0.971,0.113-1.775,0.264-2.556c0.695-3.564,2.523-5.047,6.101-5.461
	c1.158-0.135,2.424-0.767,3.297-1.546c1.736-1.554,3.236-3.366,4.719-4.952c2.328,0.364,4.615,0.776,6.918,1.041
	c0.625,0.071,1.756-0.145,1.883-0.497c1.15-3.221,3.504-6.04,2.472-9.994c-0.438-1.688,0.237-4.618,1.504-5.6
	c3.16-2.458,6.967-4.087,10.471-6.128c1.025-0.599,2.068-1.323,2.801-2.229c2.154-2.657,4.562-5.144,8.054-5.521
	c2.688-0.292,3.496-1.436,3.725-3.815c0.109-1.11,0.688-2.334,1.426-3.19c1.172-1.359,3.076-2.219,3.941-3.703
	c2.727-4.691,5.113-9.575,7.565-14.262c5.201,0.256,5.201,0.256,5.884-4.5c0.032-0.267,0.129-0.535,0.112-0.798
	c-0.205-4.129,1.572-7.204,4.945-9.554c2.109-1.471,2.943-3.559,2.359-6.126c-0.57-2.504,0.34-4.524,1.998-6.397
	c1.248-1.406,2.559-2.872,3.342-4.54c2.01-4.256,4.822-7.671,8.707-10.439c1.526-1.086,3.307-3.348,3.168-4.918
	c-0.435-4.967,1.699-8.565,4.738-12.031c0.938-1.071,1.637-2.37,2.321-3.632c2.459-4.532,4.625-9.24,7.373-13.588
	c1.771-2.799,2.355-5.547,1.924-8.671c-0.414-2.988,0.254-6.406-3.393-8.104c-0.42-0.193-0.854-0.852-0.871-1.309
	c-0.115-3.435-2.723-3.466-5.137-3.806c-2.492-0.349-4.648-0.954-4.334-4.237c0.076-0.804-0.41-1.754-0.875-2.497
	c-1.238-1.997-0.92-3.822,0.037-5.854c0.852-1.811,1.469-3.792,1.811-5.763c0.592-3.403,4.67-8.319,7.275-7.74
	c3.42,0.758,4.518-1.213,6.241-3.331c1.548-1.899,3.763-3.89,6.031-4.453c3.688-0.915,7.267,0.633,10.451,2.708
	c-1.568,1.901-3.186,3.595-4.484,5.495c-1.653,2.415-1.387,4.937,0.31,7.285c1.629,2.255,3.264,4.431,6.686,2.945
	c0.447-0.196,1.603,0.5,2.035,1.074c2.512,3.34,4.967,6.609,9.537,7.469c0.955,0.18,1.846,1.324,2.518,2.208
	c2.246,2.948,4.923,4.641,8.854,3.839c3.896-0.793,4.322-0.262,3.07,3.398c-1.226,3.583-0.752,5.146,2.199,7.385
	c1.942,1.474,3.771,3.137,5.854,4.375c1.199,0.713,2.834,1.109,4.228,1.014c2.536-0.176,2.926,0.117,3.125,2.789
	c0.069,0.979,0.713,2.238,1.504,2.768c1.396,0.938,3.063,1.573,4.701,2.055c3.153,0.926,4.422,0.12,5.272-3.042
	c0.088-0.331,0.121-0.738,0.336-0.966c1.387-1.467,2.816-2.892,4.514-4.613c3.375,2.106,8.357,1.979,11.988,5.249
	c-3.776,2.842-3.778,2.842-2.024,7.142c0.135,0.333,0.323,0.649,0.422,0.991c0.766,2.693,2.252,5.426-0.67,7.857
	c-0.404,0.337-0.591,1.149-0.572,1.732c0.068,2.419-0.111,4.934,0.52,7.22c0.479,1.752,1.994,3.242,3.121,4.799
	c0.644,0.89,1.599,1.586,2.117,2.528c1.75,3.159,3.898,6.355,7.426,7.11c5.209,1.114,6.125,4.267,5.793,8.623
	c-0.018,0.178,0.041,0.359,0.029,0.538c-0.064,1.486,0.416,2.38,2.006,3.01c0.938,0.371,1.957,1.813,2.021,2.833
	c0.178,2.652-0.228,5.337-0.25,8.01c-0.021,1.924,0.037,3.876,0.354,5.769c0.605,3.608,1.582,7.163,2.076,10.785
	c0.254,1.84-0.033,3.66,2.891,3.498c-1.534,0.827-2.834,1.322-3.885,2.137c-2.274,1.765-2.317,5.33-0.067,7.051
	c2.004,1.534,4.002,3.402,6.317,4.133c2.805,0.886,3.271,2.698,3.439,4.945c0.121,1.6,0.555,2.623,2.332,3.108
	c0.834,0.228,1.895,1.394,1.975,2.22c0.377,3.831,0.604,7.691,0.557,11.538c-0.022,2.091-1.307,3.428-3.723,3.403
	c-0.811-0.008-1.873,0.295-2.391,0.85c-1.822,1.938-1.013,7.378,1.123,8.966c0.68,0.506,1.735,1.341,1.651,1.877
	c-0.319,2.041-0.422,5.024-1.735,5.814c-2.73,1.642-1.791,4.015-2.441,6.045c-0.539,1.695-1.381,3.409-1.416,5.129
	c-0.102,5.138,2.295,7.37,8.101,8.032c0.909,4.199,0.909,4.197-3.031,5.462c-1.033,0.332-2.092,0.607-3.09,1.021
	c-5.525,2.281-9.179,8.728-7.834,13.861c0.795,0.082,1.61,0.166,3.086,0.317c-3.228,2.575-4.099,6.018-7.242,8.296
	c-4.762,3.452-9.959,4.505-15.398,5.327c-3.896,0.594-3.895,0.45-3.242,4.474c0.22,1.387,0.75,2.96,0.32,4.16
	c-0.606,1.683-2.07,3.046-2.996,4.643c-0.977,1.692-2.1,2.815-4.278,2.582c-0.673-0.071-2.023,0.49-2.027,0.773
	c-0.037,3.098-2.41,2.816-4.389,3.202c-2.654,0.519-5.162,3.855-4.832,6.563c0.358,2.916,2.793,2.209,4.668,2.424
	c0.271,0.031,0.536,0.095,0.809,0.113c2.975,0.206,3.795,2.566,3.861,4.717c0.03,1.111-1.625,2.521-2.834,3.337
	c-0.974,0.652-2.474,0.467-3.644,0.904c-2.072,0.78-4.307,1.442-6.055,2.717c-2.996,2.182-3.23,4.637-1.279,7.757
	c0.654,1.043,1.39,2.038,2.414,3.521c-2.559,1.376-4.938,2.575-7.223,3.928c-0.883,0.522-1.939,1.273-2.228,2.145
	c-0.68,2.052-2.037,2.012-3.651,1.659c-0.705-0.152-1.383-0.434-2.086-0.608c-1.773-0.448-2.849-0.063-2.609,2.063
	c0.166,1.516,0.457,3.094,0.188,4.552c-0.182,0.976-1.073,2.31-1.944,2.594c-3.787,1.241-4.178,1.901-3.637,5.813
	c0.256,1.848,0.434,4.127-0.412,5.623c-2.584,4.556-2.252,9.185-1.035,13.835c0.553,2.116,0.252,3.093-1.697,4.25
	c-2.32,1.378-4.578,3.155-6.197,5.263c-0.955,1.238-1.549,1.666-3.059,1.759c-1.791,0.112-3.646,0.629-5.285,1.371
	c-1.324,0.598-2.24,2.138-3.574,2.652c-3.395,1.312-4.453,3.911-4.865,7.128c-0.271,2.123-0.723,4.226-1.149,6.324
	c-0.313,1.531-1.209,2.373-2.888,2.041c-2.12-0.417-3.663,0.174-4.17,2.492c-0.727-0.139-1.258-0.201-1.768-0.343
	c-5.191-1.458-5.693-1.123-6.402,4.108c-0.071,0.532-0.385,1.234-0.805,1.487c-3.623,2.114-4.785,5.632-4.775,9.333
	c0.004,3.312-1.141,5.951-2.506,8.84c-1.227,2.602-2.705,3.88-5.467,3.78c-2.209-0.079-2.594,0.987-3,3.021
	c-0.475,2.396-1.512,5.518-3.338,6.588c-2.119,1.238-3.98,2.532-5.81,4.146c-1.557,1.371-3.653,2.133-5.504,3.186
	c-0.502,0.287-1.174,0.538-1.405,0.988c-1.545,2.989-4.037,4.119-7.427,3.961c-3.377-0.156-6.838-0.108-10.166,0.427
	c-6.454,1.036-12.846,2.472-19.26,3.757c-0.43,0.086-0.85,0.283-1.252,0.472c-4.342,2.009-8.604,2.718-12.736-0.545
	c-0.434-0.341-1.2-0.261-1.809-0.402c-3.854-0.896-7.188,1.319-10.752,1.744c-9.955,1.197-19.992,2.054-30.014,2.254
	c-4.182,0.082-8.696-1.232-12.513-3.041c-2.939-1.397-5.737-2.539-8.915-2.68c-2.712-0.118-5.459,0.272-8.15,0.022
	c-2.258-0.207-4.455-1.046-6.69-1.549c-2.414-0.545-4.818-1.287-7.265-1.477c-3.313-0.257-6.662-0.169-9.988-0.03
	c-1.749,0.074-3.787,0.101-5.164,0.966c-3.537,2.234-5.648,5.626-6.896,9.663c-1.344,4.343,1.65,7.641,2.428,11.453
	c0.354,1.738,1.767,3.24,2.409,4.955c0.855,2.282,1.92,4.061,4.76,3.926c0.491-0.021,1.354,0.184,1.445,0.475
	c1.094,3.438,2.073,6.919,3.077,10.389c0.016,0.059-0.088,0.146-0.125,0.225c-0.867,1.813-1.731,3.627-2.74,5.737
	c-3.542,1.435-2.682,5.072-2.813,8.188c-1.938,0-3.792-0.286-5.513,0.063c-2.925,0.596-5.618,0.191-8.164-1.14
	c-2-1.049-3.391-0.931-3.973,1.44c-1.664-0.282-3.616-0.027-4.562-0.874c-4.296-3.85-9.723-4.521-14.962-5.647
	c-3.134-0.673-4.515,0.585-4.39,3.703c0.084,2.108,1.122,4.247,0.908,6.288c-0.343,3.271,1.031,5.559,3.316,7.402
	c2.447,1.975,5.246,3.521,7.711,5.478c2.445,1.94,5.236,3.813,6.826,6.356C181.044,504.904,181.424,508.306,182.359,511.369z"/>
<path fill="#040000" d="M182.155,511.381c-0.932-3.065-1.315-6.466-2.959-9.096c-1.591-2.544-4.379-4.416-6.827-6.357
	c-2.464-1.956-5.262-3.503-7.71-5.477c-2.285-1.846-3.661-4.132-3.317-7.402c0.216-2.041-0.823-4.18-0.907-6.289
	c-0.125-3.118,1.257-4.376,4.391-3.702c5.239,1.125,10.667,1.798,14.961,5.647c0.945,0.847,2.897,0.592,4.563,0.873
	c0.582-2.371,1.974-2.488,3.973-1.442c2.546,1.334,5.239,1.734,8.164,1.143c1.722-0.35,3.573-0.063,5.514-0.063
	c0.132-3.115-0.729-6.753,2.813-8.188c1.007-2.109,1.872-3.924,2.74-5.737c0.036-0.077,0.141-0.165,0.123-0.226
	c-1.001-3.469-1.98-6.946-3.074-10.389c-0.09-0.29-0.953-0.492-1.445-0.475c-2.84,0.133-3.904-1.646-4.76-3.926
	c-0.643-1.719-2.056-3.214-2.409-4.954c-0.779-3.813-3.773-7.11-2.428-11.453c1.249-4.038,3.36-7.427,6.897-9.663
	c1.376-0.871,3.413-0.893,5.164-0.966c3.325-0.139,6.676-0.228,9.988,0.029c2.445,0.188,4.851,0.932,7.263,1.477
	c2.237,0.505,4.432,1.342,6.691,1.55c2.692,0.247,5.438-0.146,8.15-0.023c3.179,0.142,5.975,1.281,8.915,2.677
	c3.816,1.815,8.332,3.126,12.513,3.044c10.021-0.2,20.059-1.054,30.014-2.253c3.563-0.425,6.898-2.641,10.752-1.744
	c0.607,0.142,1.375,0.06,1.809,0.401c4.134,3.264,8.396,2.555,12.736,0.545c0.402-0.188,0.822-0.381,1.252-0.471
	c6.416-1.286,12.805-2.722,19.26-3.758c3.33-0.534,6.787-0.581,10.168-0.426c3.388,0.157,5.88-0.97,7.425-3.962
	c0.231-0.45,0.903-0.7,1.405-0.987c1.847-1.054,3.947-1.813,5.504-3.187c1.83-1.613,3.689-2.907,5.81-4.146
	c1.83-1.071,2.863-4.197,3.34-6.588c0.406-2.034,0.791-3.102,3-3.021c2.76,0.099,4.238-1.185,5.467-3.78
	c1.361-2.889,2.508-5.53,2.502-8.841c-0.006-3.7,1.154-7.219,4.777-9.333c0.424-0.248,0.734-0.957,0.807-1.487
	c0.707-5.229,1.209-5.563,6.402-4.107c0.508,0.143,1.039,0.204,1.766,0.343c0.507-2.318,2.052-2.909,4.17-2.493
	c1.679,0.335,2.574-0.511,2.888-2.041c0.428-2.1,0.879-4.201,1.149-6.324c0.414-3.217,1.474-5.815,4.865-7.127
	c1.336-0.516,2.248-2.056,3.574-2.652c1.643-0.743,3.494-1.258,5.287-1.372c1.506-0.093,2.1-0.519,3.057-1.759
	c1.621-2.105,3.879-3.883,6.197-5.263c1.951-1.157,2.248-2.133,1.697-4.25c-1.217-4.648-1.551-9.278,1.033-13.835
	c0.85-1.495,0.67-3.775,0.414-5.623c-0.541-3.915-0.15-4.57,3.637-5.813c0.871-0.286,1.766-1.618,1.944-2.596
	c0.271-1.457-0.021-3.032-0.188-4.551c-0.236-2.127,0.84-2.512,2.611-2.063c0.702,0.177,1.381,0.456,2.086,0.609
	c1.614,0.352,2.973,0.392,3.651-1.659c0.287-0.871,1.345-1.622,2.228-2.145c2.285-1.354,4.662-2.553,7.223-3.928
	c-1.021-1.488-1.76-2.48-2.412-3.522c-1.953-3.12-1.719-5.577,1.277-7.757c1.746-1.272,3.979-1.937,6.055-2.716
	c1.17-0.438,2.672-0.251,3.644-0.905c1.207-0.813,2.866-2.226,2.834-3.336c-0.064-2.15-0.886-4.513-3.861-4.717
	c-0.271-0.021-0.537-0.08-0.807-0.114c-1.877-0.217-4.312,0.492-4.67-2.423c-0.332-2.708,2.178-6.047,4.832-6.564
	c1.979-0.381,4.352-0.104,4.387-3.202c0.008-0.283,1.356-0.846,2.029-0.773c2.18,0.232,3.303-0.891,4.278-2.581
	c0.926-1.597,2.39-2.96,2.996-4.644c0.432-1.199-0.102-2.772-0.322-4.159c-0.647-4.022-0.649-3.882,3.244-4.474
	c5.438-0.825,10.635-1.876,15.396-5.327c3.147-2.277,4.018-5.72,7.244-8.296c-1.476-0.15-2.291-0.234-3.087-0.316
	c-1.344-5.136,2.31-11.581,7.835-13.861c0.997-0.413,2.059-0.69,3.092-1.021c3.938-1.265,3.938-1.263,3.028-5.462
	c-5.805-0.662-8.2-2.895-8.1-8.032c0.035-1.72,0.875-3.434,1.414-5.129c0.652-2.03-0.287-4.403,2.443-6.045
	c1.313-0.79,1.414-3.773,1.737-5.814c0.082-0.536-0.975-1.372-1.651-1.877c-2.136-1.588-2.947-7.026-1.125-8.966
	c0.52-0.554,1.582-0.856,2.391-0.85c2.416,0.023,3.699-1.313,3.725-3.403c0.048-3.846-0.182-7.708-0.559-11.538
	c-0.08-0.825-1.143-1.993-1.975-2.221c-1.777-0.486-2.209-1.509-2.332-3.108c-0.17-2.247-0.636-4.062-3.438-4.945
	c-2.317-0.731-4.313-2.6-6.32-4.133c-2.247-1.721-2.204-5.287,0.068-7.051c1.049-0.814,2.351-1.31,3.885-2.139
	c-2.926,0.164-2.637-1.656-2.891-3.496c-0.494-3.622-1.473-7.176-2.078-10.785c-0.315-1.893-0.373-3.846-0.354-5.769
	c0.022-2.672,0.43-5.357,0.25-8.01c-0.066-1.02-1.084-2.462-2.021-2.833c-1.592-0.629-2.068-1.523-2.004-3.009
	c0.01-0.179-0.047-0.36-0.031-0.538c0.332-4.356-0.584-7.508-5.793-8.623c-3.526-0.755-5.676-3.951-7.426-7.11
	c-0.52-0.942-1.475-1.64-2.119-2.528c-1.125-1.557-2.641-3.046-3.119-4.799c-0.627-2.287-0.448-4.801-0.52-7.221
	c-0.017-0.583,0.168-1.396,0.572-1.732c2.924-2.432,1.436-5.164,0.67-7.857c-0.101-0.341-0.287-0.658-0.422-0.991
	c-1.753-4.299-1.748-4.3,2.024-7.142c-3.629-3.271-8.613-3.143-11.988-5.249c-1.696,1.723-3.125,3.146-4.514,4.613
	c-0.213,0.227-0.246,0.635-0.336,0.966c-0.848,3.162-2.115,3.968-5.273,3.042c-1.639-0.481-3.305-1.116-4.7-2.055
	c-0.793-0.531-1.431-1.792-1.504-2.768c-0.199-2.671-0.589-2.964-3.125-2.789c-1.394,0.096-3.027-0.301-4.228-1.014
	c-2.084-1.239-3.912-2.901-5.854-4.376c-2.951-2.239-3.425-3.802-2.199-7.386c1.25-3.658,0.828-4.191-3.072-3.396
	c-3.93,0.802-6.604-0.891-8.853-3.839c-0.674-0.884-1.563-2.029-2.518-2.208c-4.568-0.858-7.025-4.129-9.535-7.469
	c-0.434-0.574-1.59-1.271-2.037-1.074c-3.422,1.485-5.057-0.691-6.686-2.945c-1.697-2.35-1.963-4.87-0.312-7.285
	c1.302-1.9,2.918-3.594,4.486-5.495c-3.187-2.074-6.764-3.622-10.449-2.708c-2.271,0.564-4.483,2.554-6.033,4.453
	c-1.725,2.118-2.823,4.088-6.241,3.331c-2.605-0.578-6.685,4.337-7.273,7.741c-0.346,1.97-0.959,3.952-1.813,5.763
	c-0.957,2.031-1.275,3.855-0.035,5.854c0.461,0.741,0.948,1.692,0.871,2.497c-0.314,3.281,1.844,3.889,4.338,4.237
	c2.412,0.339,5.018,0.37,5.135,3.806c0.02,0.457,0.453,1.114,0.869,1.309c3.649,1.696,2.979,5.115,3.396,8.104
	c0.433,3.124-0.155,5.872-1.926,8.671c-2.748,4.35-4.918,9.057-7.373,13.589c-0.686,1.261-1.383,2.562-2.322,3.632
	c-3.036,3.466-5.17,7.063-4.735,12.031c0.137,1.57-1.646,3.832-3.168,4.918c-3.886,2.768-6.699,6.184-8.707,10.439
	c-0.789,1.667-2.099,3.134-3.344,4.54c-1.656,1.873-2.568,3.895-1.998,6.396c0.584,2.567-0.248,4.656-2.357,6.126
	c-3.375,2.351-5.154,5.425-4.945,9.554c0.013,0.263-0.082,0.531-0.116,0.798c-0.683,4.756-0.681,4.756-5.88,4.499
	c-2.454,4.688-4.842,9.57-7.567,14.262c-0.865,1.485-2.769,2.345-3.941,3.703c-0.738,0.855-1.315,2.08-1.426,3.19
	c-0.229,2.38-1.035,3.523-3.725,3.815c-3.494,0.379-5.9,2.864-8.054,5.521c-0.731,0.906-1.774,1.631-2.799,2.229
	c-3.504,2.041-7.313,3.672-10.475,6.128c-1.265,0.982-1.939,3.911-1.502,5.6c1.03,3.953-1.322,6.772-2.474,9.993
	c-0.125,0.354-1.258,0.569-1.883,0.498c-2.299-0.266-4.586-0.678-6.914-1.042c-1.485,1.586-2.983,3.399-4.721,4.953
	c-0.875,0.78-2.144,1.413-3.297,1.546c-3.574,0.415-5.404,1.896-6.101,5.461c-0.153,0.78-0.168,1.585-0.264,2.556
	c-3.326,0.051-3.857,2.861-5.189,4.964c-0.913,1.44-2.116,2.696-3.082,4.107c-0.645,0.939-1.021,2.06-1.653,3.009
	c-0.818,1.228-1.566,2.648-2.719,3.47c-1.523,1.086-4.199,0.441-4.751,3.165c-0.049,0.234-1.327,0.338-2.023,0.308
	c-7.143-0.304-13.481,1.646-19.256,5.935c-1.909,1.416-4.567,2.019-6.982,2.55c-3.429,0.758-6.95,1.105-10.631,1.66
	c1.277,2.631,2.809,5.234,3.795,8.028c0.583,1.645,0.299,3.591,0.423,5.399c0.097,1.416,0.022,2.877,0.362,4.233
	c1.234,4.919,0.704,9.682-1.513,14.145c-0.912,1.837-2.589,3.35-4.089,4.839c-1.028,1.021-2.872,1.354-2.481,3.403
	c0.044,0.226-0.324,0.637-0.597,0.795c-3.411,1.997-6.942,3.812-10.227,5.992c-1.964,1.308-4.009,2.896-5.219,4.841
	c-5.732,9.214-14.546,12.251-24.771,12.747c-0.53,0.027-1.365-0.204-1.552,0.05c-2.61,3.562-6.917,2.399-10.361,3.501
	c-1.949,0.622-4.544-0.222-6.697-0.882c-2.176-0.669-5.348-0.309-7.02,1.528c-0.396,0.437-0.756,1.313-0.57,1.758
	c0.248,0.593,1.067,1.389,1.599,1.355c2.602-0.155,2.657,1.37,2.682,3.271c0.028,2.212-1.353,2.251-2.881,2.085
	c-3.195-0.348-2.654,2.176-3.041,3.689c-3.933,0.736-7.695,1.518-11.488,2.121c-2.178,0.345-3.163,1.391-3.168,3.58
	c-0.001,0.955-0.211,2.05-0.72,2.841c-3.437,5.348-6.982,10.626-10.478,15.938c-0.181,0.272-0.205,0.646-0.377,1.22
	c0.816,0.1,1.492,0.284,2.153,0.238c1.62-0.111,2.305,0.577,2.372,2.171c0.025,0.642,0.299,1.599,0.766,1.843
	c3.495,1.826,7.073,3.495,10.609,5.243c1.827,0.901,3.814,1.641,5.349,2.907c0.701,0.575,0.619,2.247,0.636,3.426
	c0.015,1.116-0.396,2.235-0.453,3.362c-0.064,1.308-0.402,1.887-1.746,2.731c-1.867,1.174-2.927,3.605-4.309,5.518
	c-0.205,0.282-0.297,0.65-0.416,0.989c-1.523,4.403-1.521,4.401-6.018,2.69c-0.316-0.119-0.663-0.159-1.282-0.306
	c0.476,3.176-1.517,3.586-3.864,3.845c-1.584,0.175-3.116,1.05-4.68,1.07c-1.689,0.022-3.382-0.611-5.083-0.902
	c-0.929-0.155-2.054-0.559-2.788-0.214c-3.766,1.754-5.198,5.931-3.442,9.479c1.188,2.396,0.096,4.113-2.643,4.157
	c-3.634,0.061-4.604,1.229-5.825,6.647c-0.188,0.833-0.86,2.183-1.354,2.205c-1.161,0.049-2.583-0.289-3.456-1
	c-0.618-0.505-0.514-1.877-0.859-3.442c-0.373,0.952-0.618,1.378-0.703,1.836c-0.442,2.353-0.814,4.688-4.259,3.958
	c-0.425-0.093-1.232,0.465-1.497,0.925c-1.475,2.567-3.936,2.956-6.53,3.049c-1.812,0.063-3.661-0.217-5.431,0.058
	c-2.72,0.419-5.396,1.132-8.063,1.819c-1.219,0.315-2.34,1.088-3.566,1.281c-7.013,1.096-12.885,4.462-18.432,8.632
	c-3.306,2.484-6.929,3.756-11.154,2.043c-0.855-0.345-2.339-0.166-3.078,0.377c-3.686,2.707-7.345,1.792-11.078,0.301
	c-0.822-0.333-1.653-0.638-2.464-0.948c-0.787,1.402-1.643,2.57-2.127,3.873c-0.738,1.976-2.369,1.983-3.759,1.521
	c-0.685-0.228-0.985-1.715-1.374-2.664c-0.696-1.71-1.3-3.456-1.989-5.169c-0.625-1.548-1.177-3.155-2.006-4.597
	c-1.04-1.811-2.331-3.475-3.514-5.198c0-2.155,0-4.31,0-6.464c0.967-0.551,1.934-1.104,2.717-1.55
	c-0.396-1.448-1.296-2.841-0.922-3.674c2.087-4.64-0.835-8.431-1.795-12.548c0-0.718,0-1.438,0-2.153
	c2.086-0.093,2.948,0.824,2.741,2.935c-0.126,1.29-0.29,2.741,1.681,3.153c0.349,0.072,0.682,1.307,0.626,1.974
	c-0.137,1.691-0.645,3.362-0.716,5.053c-0.045,1.076,0.701,2.201,0.586,3.252c-0.146,1.353-0.396,3.11-1.303,3.886
	c-3.395,2.903-3.391,2.757-0.478,6.264c1.202,1.443,1.799,3.387,2.617,5.129c0.374,0.795,0.547,1.685,0.937,2.478
	c1.201,2.438,2.463,4.849,3.789,7.444c0.358-0.6,1.252-1.511,1.461-2.557c0.557-2.796,2.235-2.909,4.416-2.149
	c0.938,0.326,1.816,0.822,2.755,1.146c2.725,0.939,5.271,1.302,8.015-0.488c1.306-0.853,3.605-1.052,5.128-0.562
	c3.229,1.043,5.867,0.236,8.436-1.452c2.719-1.784,5.203-3.993,8.086-5.438c2.947-1.477,6.236-2.299,9.407-3.318
	c4.099-1.319,8.167-2.836,12.365-3.719c2.785-0.585,5.788-0.061,8.667-0.329c1.109-0.104,2.174-0.971,3.197-1.59
	c1.514-0.915,2.971-1.918,4.452-2.884c0.248,0.208,0.494,0.419,0.74,0.629c0.292-1.628,0.583-3.255,0.885-4.947
	c3.564-1.199,5.208-0.189,5.988,3.615c0.595-2.605,1.191-5.211,1.856-8.111c1.957-0.229,4.373-0.517,7.077-0.831
	c-2.045-1.919-1.766-7.613,0.61-10.222c1.515-1.658,3.662-2.824,5.687-3.921c0.544-0.295,1.915,0.237,2.491,0.805
	c1.287,1.26,2.424,1.473,4.119,0.746c1.459-0.624,3.157-0.704,4.762-1.028c0.026-0.153,0.095-0.313,0.074-0.465
	c-0.164-1.27-0.343-2.535-0.521-3.798c1.223,0.037,2.487-0.109,3.653,0.157c1.657,0.383,3.245,1.068,5.022,1.684
	c1.709-3.862,3.529-7.666,6.696-10.979c-0.226-0.536-0.903-1.536-0.993-2.584c-0.061-0.675,0.744-1.426,1.392-2.539
	c-3.351-1.564-7.308-2.935-10.692-5.153c-2.334-1.531-6.074-2.061-6.135-6.04c-0.534-0.086-0.991-0.098-1.4-0.242
	c-0.981-0.341-2.781-0.784-2.768-1.13c0.058-1.447,0.489-2.951,1.12-4.279c0.477-1.005,1.588-1.691,2.198-2.657
	c2.354-3.726,4.692-7.464,6.872-11.289c0.685-1.201,1.043-2.665,1.227-4.052c0.309-2.322,1.402-3.867,3.724-4.393
	c3.504-0.796,7.021-1.514,10.951-2.354c0.797-2.032,1.049-5.634,5.537-4.152c-0.305-0.177-0.606-0.499-0.917-0.51
	c-1.302-0.04-2.306-0.035-2.807-1.759c-0.507-1.744-1.259-3.017,0.353-4.742c2.553-2.734,7.748-3.884,10.927-1.912
	c1.188,0.736,3.157,0.519,4.716,0.315c2.32-0.299,4.594-0.964,6.884-1.479c0.263-0.06,0.691-0.078,0.75-0.229
	c1.274-3.309,3.989-1.775,6.244-1.884c5.396-0.257,10.423-2.021,14.667-5.13c2.602-1.902,5.245-3.999,6.903-7.176
	c1.11-2.123,3.562-3.674,5.649-5.149c2.636-1.861,6.163-2.85,8.143-5.183c3.788-4.465,10.225-7.323,10.013-14.504
	c-0.066-2.222-0.236-4.443-0.296-6.667c-0.062-2.19-0.023-4.382-0.066-6.575c-0.014-0.701,0.042-1.479-0.242-2.081
	c-1.377-2.916-2.841-5.794-4.31-8.668c-0.764-1.496-1.956-1.976-3.623-1.463c-1.381,0.424-2.796,0.801-4.226,0.995
	c-2.089,0.285-3.077-0.866-2.642-2.884c0.735-3.411,6.289-7.383,9.809-6.866c0.646,0.095,1.198,0.904,1.762,1.418
	c0.819,0.748,1.767,1.425,2.364,2.325c0.458,0.688,0.461,1.672,0.714,2.721c6.209-0.814,12.848-1.212,18.332-5.828
	c4.002-3.367,9.158-3.496,14.116-3.903c1.394-0.113,2.779,0.265,3.64-1.521c0.335-0.694,1.904-0.755,2.854-1.22
	c1.006-0.489,2.438-0.893,2.818-1.721c1.108-2.433,2.199-4.571,4.369-6.496c2.092-1.855,2.951-5.038,4.469-7.569
	c1.313-2.188,2.609-4.431,4.268-6.354c0.888-1.03,2.535-2.055,3.81-2.018c4.336,0.124,5.983-3.059,7.543-5.902
	c1.024-1.869,1.483-2.053,3.356-1.225c1.683,0.742,4.201,1.526,5.49,0.799c1.928-1.09,3.146-3.227,2.799-6.111
	c-0.313-2.629,0.488-5.403,0.931-8.094c0.069-0.438,0.772-0.863,1.272-1.136c3.955-2.154,7.943-4.246,11.883-6.424
	c0.509-0.279,0.791-0.943,1.189-1.42c2.475-2.962,5.346-5.285,9.26-6.254c0.793-0.197,1.604-1.455,1.873-2.377
	c0.631-2.13,0.601-4.527,3.771-4.748c0.569-0.04,1.229-1.042,1.573-1.732c2.521-5.01,4.937-10.076,7.507-15.06
	c0.295-0.568,1.336-0.987,2.065-1.054c1.037-0.092,2.111,0.207,3.494,0.38c0.277-2.081,0.65-3.921,0.74-5.771
	c0.143-2.973,1.227-5.389,3.696-7.141c2.603-1.85,3.947-3.974,3.396-7.502c-0.279-1.801,1.104-4.006,2.113-5.818
	c1.434-2.567,3.063-5.068,4.897-7.367c2.164-2.708,4.416-5.442,7.062-7.655c2.271-1.899,3.77-3.75,3.389-6.796
	c-0.393-3.137,0.883-5.535,2.887-8.03c3.084-3.843,6.078-7.951,8.056-12.405c1.403-3.16,2.871-6.186,4.659-9.137
	c1.662-2.747,0.306-9.721-1.977-11.877c-0.262-0.246-0.65-0.485-0.723-0.787c-0.84-3.507-3.64-4.095-6.642-4.648
	c-2.5-0.462-4.387-1.667-3.862-4.763c0.12-0.719-0.183-1.639-0.582-2.291c-1.82-2.968-1.357-5.745,0.256-8.645
	c0.705-1.269,1.086-2.807,1.25-4.264c0.623-5.523,5.307-9.655,10.981-9.734c0.736-0.01,1.74-0.86,2.148-1.585
	c5.221-9.215,13.82-7.235,20.299-3.104c2.479,1.58,2.287,2.235-0.053,4.102c-1.252,1.002-2.431,2.169-3.39,3.448
	c-2.393,3.196-0.952,5.281,1.605,7.674c0.48,0.448,1.836,0.114,2.746-0.06c1.824-0.348,3.047-0.249,4.149,1.75
	c1.781,3.219,4.115,6.028,8.191,6.937c1.396,0.313,2.799,1.625,3.709,2.838c2.096,2.792,3.777,3.688,7.113,3.11
	c5.443-0.941,7.025,0.945,5.242,6.276c-0.688,2.062-0.615,3.763,1.521,5.095c1.906,1.19,3.529,2.836,5.447,4.012
	c0.938,0.576,2.322,0.896,3.398,0.713c3.149-0.533,5.016,0.74,5.266,3.955c0.156,2.024,4.102,4.661,6.082,4.05
	c0.244-0.074,0.67-0.315,0.652-0.384c-1.056-3.881,4.321-3.895,4.397-7.235c0.037-1.521,1.504-1.843,2.929-1.334
	c3.573,1.274,7.198,2.434,10.684,3.917c1.231,0.523,2.336,1.71,3.098,2.856c0.888,1.344,1.738,3.042-1.205,3.335
	c-1.33,0.133-1.698,1.005-1.174,2.356c0.773,1.998,1.496,4.041,1.971,6.125c0.457,2.018,0.437,3.848-1.401,5.629
	c-2.336,2.26-0.127,10.246,2.832,11.576c0.643,0.289,1.446,0.837,1.625,1.43c1.621,5.353,5.516,8.098,10.768,9.03
	c2.099,0.373,2.767,1.238,2.674,3.153c-0.045,0.981,0.095,1.973,0.156,2.956c0.137,2.204,0.063,4.382,2.578,5.682
	c0.855,0.442,1.457,1.869,1.658,2.94c0.324,1.736,0.594,3.63,0.233,5.321c-1.274,6.004,0.104,11.688,1.642,17.394
	c0.299,1.114,0.422,2.276,1.053,3.05c0.865,0.942,2.103,1.75,2.504,2.856c0.553,1.528-0.113,2.69-2.119,2.858
	c-1.006,0.084-2.098,0.67-2.899,1.324c-1.438,1.173-0.955,3.149,0.633,3.931c1.393,0.684,2.643,1.659,3.938,2.526
	c0.662,0.443,1.283,1.332,1.933,1.344c2.998,0.05,3.356,2.051,3.664,4.285c0.225,1.653,0.528,3.11,2.5,4.021
	c1.104,0.509,1.987,2.347,2.199,3.705c0.487,3.089,0.645,6.251,0.665,9.385c0.037,5.407-1.45,7.03-6.872,7.83
	c-0.337,2.396-1.187,4.701,1.877,6.433c1.821,1.031,2.424,3.044,0.893,5.111c-0.443,0.603-0.768,1.443-0.772,2.18
	c-0.019,1.756,0.553,3.659-2.021,4.23c-0.215,0.047-0.295,0.777-0.406,1.196c-0.537,1.981-1.438,3.958-1.483,5.95
	c-0.045,1.933,0.535,4.008,1.383,5.763c0.324,0.671,2.141,0.817,3.289,0.855c0.805,0.025,1.631-0.537,2.961-1.022
	c0.285,3.037,0.641,5.675,0.699,8.319c0.012,0.563-0.955,1.391-1.65,1.675c-1.746,0.718-3.607,1.168-5.408,1.776
	c-4.422,1.497-7.358,5.324-7.521,9.599c1.078,0.236,2.125,0.468,3.172,0.697c-0.271,1.188-0.301,2.494-0.853,3.535
	c-1.368,2.595-2.473,5.647-4.604,7.442c-2.639,2.222-6.088,3.691-9.412,4.875c-3.529,1.262-7.322,1.807-11.227,2.716
	c0.174,1.043,0.368,2.175,0.553,3.305c0.315,1.946,1.399,4.077-1.547,5.137c-0.435,0.152-0.58,1.056-0.892,1.599
	c-0.53,0.935-1.151,1.828-1.618,2.796c-1.093,2.243-3.855,1.647-5.121,2.796c-1.482,1.343-2.209,3.377-4.707,3.351
	c-3.08-0.033-4.252,1.813-4.507,4.719c1.371,0.166,2.837,0.026,3.984,0.563c1.539,0.718,3.353,1.661,4.144,3.024
	c2.752,4.757,1.112,7.999-4.386,9.497c-2.328,0.636-4.862,0.933-6.905,2.081c-3.23,1.81-3.343,3.396-1.269,6.372
	c2.73,3.909,2.75,3.933-1.002,6.995c-1.037,0.847-2.156,1.72-3.393,2.163c-1.687,0.605-3.015,1.196-3.697,3.104
	c-0.287,0.797-1.795,1.479-2.834,1.62c-1.385,0.189-2.851-0.2-4.619-0.371c0,2.085,0.205,4.222-0.066,6.297
	c-0.202,1.547-1.149,2.75-3.129,2.664c-2.02-0.087-2.862,0.995-2.194,2.903c1.178,3.35,0.178,6.255-1.396,9.229
	c-1.904,3.601-1.086,7.443,0.082,11.008c0.978,2.965,0.066,4.365-2.479,5.781c-2.738,1.521-6.027,2.69-6.654,6.53
	c-0.08,0.492-1.523,1.077-2.34,1.085c-2.418,0.021-5.029-1.107-6.41,2.238c-0.322,0.785-1.97,1.15-3.076,1.488
	c-2.963,0.896-3.537,3.188-3.914,5.817c-0.367,2.553-1.029,5.066-1.666,7.57c-0.166,0.654-0.736,1.746-1.1,1.735
	c-4.109-0.087-7.293,4.901-11.857,2.122c-0.129-0.079-0.348-0.013-0.705-0.013c-0.178,0.273-0.656,0.66-0.613,0.979
	c0.545,3.926-2.545,5.479-4.694,7.852c-1.189,1.312-1.406,3.919-1.263,5.887c0.351,4.746-2.52,8.156-4.778,11.677
	c-0.883,1.369-3.623,1.568-5.771,2.399c-0.385,1.094-0.817,2.634-1.455,4.09c-0.977,2.229-1.475,4.58-4.559,5.504
	c-2.107,0.632-3.713,2.815-5.627,4.195c-1.51,1.09-3.146,2.007-4.854,3.08c0.662,1.723,0.666,3.139-2.055,2.398
	c-0.238-0.063-0.621-0.052-0.768,0.095c-3.07,3.061-6.679,1.969-10.236,1.351c-0.441-0.076-0.926-0.14-1.354-0.042
	c-6.5,1.491-12.993,3.014-19.483,4.529c-0.084,0.019-0.152,0.133-0.229,0.139c-6.08,0.579-11.959,3.313-18.248,1.664
	c-0.42-0.11-1.004-0.194-1.192-0.49c-1.801-2.811-4.861-2.222-6.781-1.324c-5.111,2.388-10.576,2.497-15.898,3.137
	c-6.268,0.753-12.666,1.029-18.971,0.738c-5.446-0.252-10.954-1.015-15.732-4.34c-1.44-1.003-3.584-1.215-5.443-1.384
	c-2.427-0.221-4.903-0.194-7.334,0.005c-3.543,0.292-6.739-0.201-9.874-2.104c-1.462-0.883-3.586-0.866-5.423-0.944
	c-3.42-0.146-6.858-0.219-10.271-0.006c-1.679,0.104-3.631,0.509-4.902,1.487c-2.778,2.135-4.68,5.064-4.906,8.665
	c-0.083,1.318,0.4,2.734,0.885,4.013c1.234,3.266,2.705,6.444,3.894,9.725c0.604,1.665,1.175,2.778,3.314,2.794
	c2.863,0.017,3.939,2.355,4.586,4.619c0.834,2.926,1.343,5.941,1.935,8.932c0.093,0.474,0.004,1.398-0.196,1.458
	c-3.003,0.869-1.993,3.324-2.226,5.285c-0.042,0.343-0.146,0.68-0.25,1.147c-0.916,0.08-1.775,0.156-3.042,0.265
	c0,1.776-0.182,3.521,0.048,5.207c0.279,2.06-0.08,2.996-2.481,2.746c-2.398-0.25-4.841-0.059-7.263-0.086
	c-1.084-0.015-2.207,0.067-3.244-0.179c-2.768-0.661-5.806-2.918-6.778,1.182c-2.099-0.566-3.692-0.978-5.273-1.438
	c-0.487-0.144-1.065-0.313-1.377-0.663c-3.725-4.216-9.116-4.229-14.024-5.398c-0.378-0.09-1.363,0.921-1.491,1.534
	c-0.188,0.91,0.078,1.938,0.26,2.896c0.15,0.789,0.745,1.584,0.655,2.313c-0.763,6.122,4.188,8.125,7.953,10.992
	c2.934,2.234,5.871,4.465,8.769,6.743c0.477,0.374,0.938,0.932,1.111,1.493c1.039,3.396,1.99,6.818,2.971,10.23
	C183.606,511.381,182.88,511.381,182.155,511.381z M204.657,231.255c2.552-0.312,4.861-0.89,7.14-0.787
	c2.272,0.103,2.07-0.819,1.432-2.188c-0.366-0.785-0.955-1.464-1.476-2.237C208.799,227.063,205.744,227.594,204.657,231.255z"/>
<path fill="#FFFFFF" d="M204.657,231.255c1.087-3.658,4.143-4.191,7.099-5.212c0.521,0.773,1.109,1.453,1.476,2.237
	c0.638,1.368,0.84,2.29-1.432,2.188C209.518,230.365,207.209,230.943,204.657,231.255z"/>
<g enable-background="new    ">
	<path fill="#040000" d="M253.826,235.142v-11.755h2.44v3.219l-0.031,2.99l0.031,1.176v4.371L253.826,235.142L253.826,235.142z
		 M255.62,232.531v-2.375c0.249-0.41,0.497-0.794,0.741-1.156c0.244-0.359,0.506-0.718,0.781-1.075
		c0.276-0.357,0.588-0.742,0.934-1.152l2.91-3.385h2.973l-5.014,5.735l-0.201-0.056L255.62,232.531z M261.217,235.142l-3.532-5.31
		l1.522-1.807l4.871,7.116H261.217L261.217,235.142z"/>
	<path fill="#040000" d="M267.883,235.268c-0.612,0-1.145-0.13-1.604-0.394c-0.457-0.263-0.812-0.644-1.062-1.141
		c-0.247-0.497-0.372-1.09-0.372-1.78v-5.521h2.375v5.104c0,0.553,0.143,0.982,0.428,1.288c0.283,0.305,0.676,0.457,1.176,0.457
		c0.336,0,0.631-0.072,0.889-0.212c0.259-0.145,0.459-0.353,0.605-0.627c0.146-0.276,0.219-0.611,0.219-1.007v-5.002h2.385v8.71
		h-2.271l-0.033-2.192h0.201c-0.246,0.736-0.609,1.307-1.09,1.71C269.248,235.066,268.633,235.268,267.883,235.268z"/>
	<path fill="#040000" d="M277.252,230.14v5.002h-2.377v-8.709h2.265l0.03,2.192h-0.198c0.239-0.736,0.6-1.307,1.079-1.711
		c0.48-0.405,1.101-0.607,1.855-0.607c0.609,0,1.143,0.132,1.6,0.394c0.459,0.263,0.813,0.644,1.063,1.137
		c0.25,0.495,0.375,1.088,0.375,1.782v5.521h-2.377v-5.104c0-0.554-0.142-0.981-0.422-1.292c-0.281-0.306-0.674-0.461-1.183-0.461
		c-0.334,0-0.631,0.071-0.887,0.217c-0.258,0.146-0.459,0.354-0.606,0.627C277.322,229.403,277.252,229.741,277.252,230.14z"/>
	<path fill="#040000" d="M286.096,225.305c-0.371,0-0.683-0.118-0.938-0.356c-0.258-0.236-0.387-0.526-0.387-0.869
		c0-0.342,0.129-0.631,0.387-0.867c0.256-0.237,0.566-0.354,0.938-0.354c0.364,0,0.676,0.118,0.932,0.354
		c0.254,0.235,0.383,0.525,0.383,0.867c0,0.343-0.129,0.632-0.383,0.869C286.77,225.187,286.461,225.305,286.096,225.305z
		 M284.904,235.142v-8.709h2.377v8.709H284.904z"/>
	<path fill="#040000" d="M293.205,238.613c-0.752,0-1.41-0.097-1.963-0.29c-0.553-0.196-0.998-0.465-1.336-0.808
		c-0.342-0.346-0.568-0.743-0.688-1.188l2.099-0.436c0.072,0.174,0.188,0.338,0.342,0.489c0.156,0.153,0.357,0.275,0.611,0.372
		c0.254,0.096,0.563,0.144,0.93,0.144c0.6,0,1.072-0.144,1.412-0.427c0.34-0.284,0.51-0.721,0.51-1.31v-1.546h-0.145
		c-0.121,0.254-0.289,0.494-0.502,0.711c-0.214,0.219-0.48,0.395-0.806,0.524c-0.323,0.132-0.715,0.199-1.172,0.199
		c-0.682,0-1.295-0.161-1.842-0.483c-0.549-0.324-0.982-0.804-1.303-1.441c-0.324-0.637-0.48-1.423-0.48-2.358
		c0-0.965,0.16-1.775,0.488-2.438s0.764-1.164,1.311-1.506c0.55-0.341,1.158-0.513,1.828-0.513c0.472,0,0.875,0.077,1.205,0.229
		c0.332,0.154,0.609,0.347,0.832,0.583c0.221,0.238,0.394,0.481,0.521,0.734h0.071v-1.419h2.353v8.584
		c0,0.81-0.183,1.482-0.552,2.015c-0.366,0.535-0.87,0.93-1.512,1.191C294.779,238.482,294.041,238.613,293.205,238.613z
		 M293.215,233.233c0.41,0,0.757-0.102,1.046-0.301c0.286-0.2,0.506-0.484,0.657-0.855c0.15-0.37,0.228-0.815,0.228-1.337
		c0-0.517-0.076-0.964-0.228-1.345s-0.371-0.678-0.657-0.889c-0.289-0.208-0.636-0.314-1.046-0.314
		c-0.407,0-0.756,0.108-1.041,0.324c-0.286,0.216-0.5,0.515-0.647,0.896c-0.146,0.381-0.217,0.825-0.217,1.329
		c0,0.51,0.071,0.954,0.221,1.329c0.152,0.375,0.367,0.664,0.654,0.864C292.465,233.132,292.811,233.233,293.215,233.233z"/>
	<path fill="#040000" d="M301.938,235.308c-0.564,0-1.068-0.098-1.517-0.292c-0.446-0.193-0.797-0.484-1.053-0.871
		c-0.254-0.388-0.383-0.867-0.383-1.441c0-0.488,0.09-0.896,0.27-1.221c0.183-0.326,0.429-0.589,0.742-0.789s0.67-0.352,1.072-0.453
		c0.402-0.104,0.822-0.175,1.266-0.218c0.515-0.052,0.931-0.102,1.244-0.146s0.541-0.112,0.685-0.209
		c0.145-0.095,0.215-0.236,0.215-0.426v-0.04c0-0.242-0.054-0.448-0.164-0.618c-0.107-0.172-0.267-0.303-0.474-0.394
		c-0.207-0.094-0.461-0.14-0.758-0.14c-0.303,0-0.565,0.046-0.793,0.14c-0.225,0.09-0.41,0.214-0.551,0.37
		c-0.141,0.155-0.24,0.331-0.297,0.523l-2.195-0.274c0.123-0.526,0.357-0.978,0.701-1.351c0.348-0.374,0.787-0.658,1.326-0.855
		c0.535-0.197,1.149-0.295,1.834-0.295c0.5,0,0.975,0.059,1.424,0.173s0.85,0.293,1.199,0.537c0.352,0.243,0.625,0.548,0.826,0.92
		c0.198,0.37,0.299,0.813,0.299,1.328v5.879h-2.271v-1.214h-0.071c-0.144,0.272-0.334,0.513-0.57,0.722
		c-0.234,0.206-0.521,0.37-0.851,0.484C302.766,235.249,302.379,235.308,301.938,235.308z M302.607,233.658
		c0.377,0,0.707-0.074,0.985-0.221c0.283-0.147,0.503-0.343,0.662-0.591c0.158-0.246,0.24-0.526,0.24-0.836v-0.923
		c-0.072,0.041-0.18,0.083-0.311,0.125c-0.136,0.042-0.285,0.08-0.455,0.112c-0.168,0.033-0.34,0.062-0.517,0.086
		c-0.172,0.027-0.33,0.051-0.473,0.072c-0.287,0.042-0.543,0.108-0.766,0.201c-0.224,0.093-0.396,0.216-0.521,0.372
		c-0.121,0.155-0.182,0.349-0.182,0.582c0,0.221,0.055,0.407,0.17,0.56c0.111,0.154,0.271,0.268,0.471,0.347
		C302.117,233.618,302.346,233.658,302.607,233.658z"/>
	<path fill="#040000" d="M308.811,235.142v-8.709h2.223l0.098,2.123h-0.168c0.14-0.526,0.343-0.957,0.611-1.29
		c0.268-0.334,0.582-0.58,0.943-0.738c0.36-0.158,0.741-0.237,1.141-0.237c0.637,0,1.162,0.197,1.574,0.592
		c0.414,0.395,0.703,0.989,0.875,1.782h-0.271c0.123-0.537,0.33-0.979,0.627-1.328c0.293-0.352,0.646-0.611,1.054-0.787
		c0.405-0.171,0.836-0.259,1.295-0.259c0.541,0,1.022,0.116,1.453,0.353c0.428,0.232,0.766,0.571,1.014,1.016
		c0.248,0.446,0.371,0.989,0.371,1.63v5.854h-2.383v-5.406c0-0.499-0.138-0.871-0.406-1.115c-0.273-0.244-0.607-0.368-1.006-0.368
		c-0.303,0-0.566,0.066-0.785,0.195c-0.221,0.129-0.391,0.309-0.51,0.541c-0.121,0.231-0.183,0.506-0.183,0.822v5.332h-2.305v-5.476
		c0-0.431-0.127-0.773-0.385-1.029c-0.26-0.254-0.592-0.383-1.002-0.383c-0.279,0-0.535,0.063-0.761,0.189
		c-0.227,0.126-0.405,0.312-0.538,0.557c-0.134,0.245-0.199,0.545-0.199,0.903v5.239h-2.377V235.142L308.811,235.142z"/>
	<path fill="#040000" d="M324.789,225.305c-0.365,0-0.678-0.118-0.936-0.356c-0.261-0.236-0.388-0.526-0.388-0.869
		c0-0.342,0.128-0.631,0.388-0.867c0.258-0.237,0.569-0.354,0.936-0.354c0.367,0,0.678,0.118,0.933,0.354
		c0.254,0.235,0.385,0.525,0.385,0.867c0,0.343-0.129,0.632-0.385,0.869C325.465,225.187,325.156,225.305,324.789,225.305z
		 M323.6,235.142v-8.709h2.377v8.709H323.6z"/>
</g>
<g enable-background="new    ">
	<path fill="#040000" d="M157.875,318.224c-1.052,0-1.999-0.24-2.838-0.718c-0.839-0.479-1.503-1.167-1.988-2.067
		c-0.486-0.898-0.729-1.982-0.729-3.251c0-1.272,0.242-2.36,0.729-3.261c0.484-0.902,1.149-1.596,1.988-2.072
		c0.84-0.478,1.787-0.718,2.838-0.718c1.053,0,1.998,0.24,2.835,0.718c0.838,0.479,1.499,1.17,1.985,2.072
		c0.486,0.899,0.729,1.988,0.729,3.261c0,1.269-0.243,2.353-0.729,3.255c-0.486,0.9-1.148,1.591-1.985,2.065
		C159.873,317.985,158.928,318.224,157.875,318.224z M157.875,316.087c0.617,0,1.157-0.151,1.619-0.45
		c0.463-0.299,0.822-0.74,1.082-1.321c0.256-0.58,0.386-1.289,0.386-2.127c0-0.842-0.13-1.555-0.386-2.138
		c-0.258-0.585-0.619-1.026-1.082-1.325c-0.462-0.299-1.001-0.45-1.619-0.45c-0.61,0-1.148,0.153-1.615,0.454
		c-0.464,0.304-0.825,0.745-1.082,1.326c-0.26,0.58-0.388,1.291-0.388,2.133c0,0.835,0.128,1.544,0.388,2.123
		c0.257,0.578,0.618,1.019,1.082,1.321C156.726,315.935,157.265,316.087,157.875,316.087z"/>
	<path fill="#040000" d="M169.063,321.53c-0.755,0-1.409-0.099-1.962-0.292c-0.554-0.192-1-0.465-1.339-0.808
		c-0.342-0.347-0.568-0.741-0.687-1.188l2.097-0.434c0.074,0.175,0.188,0.337,0.344,0.49c0.153,0.15,0.355,0.274,0.609,0.37
		c0.252,0.095,0.562,0.141,0.93,0.141c0.601,0,1.069-0.141,1.41-0.425c0.34-0.284,0.511-0.723,0.511-1.312v-1.546h-0.145
		c-0.122,0.256-0.29,0.494-0.502,0.713c-0.212,0.22-0.48,0.395-0.806,0.523c-0.324,0.133-0.715,0.198-1.172,0.198
		c-0.682,0-1.295-0.16-1.844-0.484c-0.547-0.323-0.98-0.804-1.302-1.44c-0.322-0.636-0.481-1.421-0.481-2.355
		c0-0.966,0.164-1.776,0.489-2.44c0.328-0.661,0.766-1.164,1.313-1.505c0.547-0.343,1.156-0.516,1.826-0.516
		c0.473,0,0.875,0.078,1.208,0.23c0.332,0.152,0.607,0.347,0.829,0.583c0.22,0.238,0.395,0.479,0.521,0.734h0.072v-1.42h2.353v8.584
		c0,0.81-0.183,1.481-0.55,2.015c-0.367,0.535-0.871,0.932-1.512,1.191C170.633,321.398,169.897,321.53,169.063,321.53z
		 M169.071,316.149c0.41,0,0.758-0.1,1.044-0.299c0.286-0.2,0.506-0.486,0.657-0.856s0.227-0.815,0.227-1.338
		c0-0.516-0.076-0.964-0.227-1.345c-0.152-0.381-0.371-0.678-0.657-0.888c-0.287-0.208-0.634-0.315-1.044-0.315
		c-0.409,0-0.757,0.109-1.041,0.324c-0.285,0.217-0.5,0.516-0.646,0.896c-0.146,0.381-0.219,0.825-0.219,1.328
		c0,0.511,0.074,0.955,0.225,1.329c0.148,0.377,0.364,0.665,0.648,0.865C168.323,316.051,168.667,316.149,169.071,316.149z"/>
	<path fill="#040000" d="M176.478,308.22c-0.367,0-0.68-0.118-0.937-0.355c-0.258-0.234-0.387-0.522-0.387-0.867
		c0-0.343,0.128-0.631,0.387-0.867c0.256-0.238,0.569-0.356,0.937-0.356s0.679,0.118,0.934,0.356
		c0.254,0.236,0.383,0.524,0.383,0.867c0,0.345-0.127,0.633-0.383,0.867C177.155,308.102,176.845,308.22,176.478,308.22z
		 M175.29,318.058v-8.71h2.376v8.71H175.29z"/>
	<path fill="#040000" d="M179.628,318.058v-8.71h2.225l0.096,2.125h-0.168c0.138-0.526,0.341-0.958,0.609-1.292
		c0.269-0.335,0.583-0.579,0.944-0.738c0.361-0.158,0.742-0.236,1.141-0.236c0.638,0,1.163,0.198,1.574,0.593
		c0.412,0.394,0.704,0.987,0.873,1.78h-0.271c0.122-0.535,0.332-0.978,0.626-1.326c0.295-0.351,0.646-0.61,1.053-0.784
		c0.406-0.173,0.839-0.262,1.296-0.262c0.542,0,1.027,0.117,1.454,0.352c0.429,0.233,0.767,0.574,1.013,1.019
		c0.248,0.443,0.371,0.986,0.371,1.629v5.854h-2.385v-5.405c0-0.498-0.136-0.871-0.407-1.117c-0.271-0.242-0.605-0.364-1.005-0.364
		c-0.303,0-0.564,0.063-0.785,0.192c-0.221,0.128-0.391,0.31-0.511,0.54c-0.119,0.231-0.18,0.505-0.18,0.821v5.333h-2.304v-5.477
		c0-0.43-0.131-0.774-0.388-1.028c-0.258-0.255-0.591-0.383-1-0.383c-0.28,0-0.536,0.063-0.762,0.188
		c-0.226,0.127-0.405,0.313-0.538,0.559c-0.133,0.246-0.199,0.547-0.199,0.904v5.236h-2.374L179.628,318.058L179.628,318.058z"/>
	<path fill="#040000" d="M195.606,308.22c-0.367,0-0.679-0.118-0.938-0.355c-0.257-0.234-0.386-0.522-0.386-0.867
		c0-0.343,0.128-0.631,0.386-0.867c0.257-0.238,0.57-0.356,0.938-0.356s0.678,0.118,0.933,0.356
		c0.255,0.236,0.384,0.524,0.384,0.867c0,0.345-0.128,0.633-0.384,0.867C196.284,308.102,195.973,308.22,195.606,308.22z
		 M194.418,318.058v-8.71h2.376v8.71H194.418z"/>
</g>
<g>
	<ellipse fill="#040000" cx="286.32" cy="244.125" rx="4.719" ry="4.667"/>
	<ellipse fill="#FFFFFF" cx="286.32" cy="244.125" rx="1.943" ry="1.922"/>
</g>
<g>
	<ellipse fill="#040000" cx="174.425" cy="327.838" rx="4.718" ry="4.667"/>
	<ellipse fill="#FFFFFF" cx="174.425" cy="327.837" rx="1.941" ry="1.922"/>
</g>
<g>
	<path fill="#040000" d="M205.686,405.036v-11.755h2.438v4.741h5.151v-4.741h2.439v11.755h-2.439v-4.993h-5.151v4.993H205.686z"/>
	<path fill="#040000" d="M218.914,395.198c-0.367,0-0.679-0.118-0.937-0.354s-0.388-0.525-0.388-0.867s0.13-0.632,0.388-0.868
		s0.569-0.354,0.937-0.354s0.678,0.118,0.934,0.354c0.255,0.236,0.383,0.526,0.383,0.868s-0.127,0.631-0.383,0.867
		S219.281,395.198,218.914,395.198z M217.726,405.036v-8.71h2.376v8.71H217.726z"/>
	<path fill="#040000" d="M226.026,408.509c-0.755,0-1.409-0.099-1.961-0.292c-0.553-0.195-1-0.465-1.339-0.81
		c-0.34-0.345-0.569-0.739-0.687-1.188l2.098-0.436c0.074,0.175,0.188,0.337,0.343,0.489c0.153,0.153,0.356,0.276,0.609,0.371
		c0.252,0.095,0.563,0.142,0.93,0.142c0.601,0,1.07-0.142,1.411-0.426c0.34-0.284,0.51-0.721,0.51-1.31v-1.546h-0.145
		c-0.122,0.258-0.29,0.495-0.502,0.714c-0.213,0.218-0.48,0.394-0.806,0.523c-0.324,0.133-0.715,0.197-1.172,0.197
		c-0.682,0-1.294-0.162-1.842-0.485c-0.549-0.322-0.982-0.803-1.305-1.438c-0.321-0.636-0.481-1.423-0.481-2.359
		c0-0.962,0.164-1.773,0.49-2.438c0.326-0.663,0.764-1.165,1.312-1.507c0.547-0.343,1.156-0.514,1.826-0.514
		c0.473,0,0.875,0.076,1.208,0.229c0.332,0.151,0.607,0.348,0.829,0.584c0.221,0.236,0.395,0.48,0.521,0.732h0.072v-1.42h2.352
		v8.584c0,0.811-0.184,1.481-0.55,2.017c-0.367,0.533-0.87,0.931-1.511,1.19C227.598,408.378,226.86,408.509,226.026,408.509z
		 M226.034,403.128c0.409,0,0.757-0.101,1.044-0.301c0.287-0.199,0.506-0.484,0.658-0.855c0.151-0.37,0.227-0.816,0.227-1.337
		c0-0.517-0.075-0.964-0.227-1.346s-0.371-0.678-0.658-0.888c-0.287-0.211-0.635-0.314-1.044-0.314c-0.41,0-0.756,0.106-1.041,0.322
		c-0.285,0.217-0.5,0.515-0.646,0.896c-0.146,0.381-0.22,0.824-0.22,1.329c0,0.511,0.074,0.953,0.224,1.329
		c0.148,0.376,0.364,0.664,0.649,0.863C225.286,403.027,225.63,403.128,226.034,403.128z"/>
	<path fill="#040000" d="M234.757,405.202c-0.563,0-1.067-0.098-1.515-0.292c-0.446-0.193-0.797-0.484-1.052-0.872
		c-0.255-0.387-0.383-0.865-0.383-1.438c0-0.489,0.09-0.897,0.271-1.225c0.181-0.324,0.428-0.589,0.742-0.787
		c0.313-0.2,0.671-0.353,1.072-0.454c0.4-0.103,0.822-0.175,1.264-0.218c0.516-0.053,0.93-0.102,1.244-0.146
		c0.313-0.044,0.542-0.114,0.686-0.209c0.145-0.095,0.216-0.236,0.216-0.426v-0.039c0-0.242-0.056-0.448-0.164-0.62
		c-0.109-0.17-0.268-0.302-0.475-0.395c-0.208-0.093-0.46-0.139-0.758-0.139c-0.303,0-0.567,0.046-0.793,0.139
		s-0.41,0.216-0.55,0.37c-0.142,0.155-0.241,0.33-0.299,0.525l-2.193-0.276c0.122-0.525,0.356-0.976,0.702-1.35
		c0.345-0.373,0.787-0.658,1.324-0.855c0.536-0.196,1.147-0.296,1.833-0.296c0.5,0,0.974,0.059,1.423,0.174s0.849,0.294,1.2,0.536
		c0.351,0.242,0.626,0.548,0.824,0.919c0.199,0.371,0.3,0.814,0.3,1.329v5.878h-2.272v-1.215h-0.072
		c-0.143,0.273-0.333,0.515-0.569,0.722c-0.237,0.209-0.521,0.37-0.85,0.485S235.198,405.202,234.757,405.202z M235.427,403.553
		c0.377,0,0.706-0.073,0.988-0.222c0.281-0.146,0.502-0.345,0.662-0.592s0.239-0.524,0.239-0.836v-0.923
		c-0.075,0.042-0.178,0.084-0.312,0.126c-0.133,0.042-0.284,0.079-0.455,0.11c-0.17,0.03-0.341,0.061-0.514,0.087
		c-0.173,0.025-0.331,0.05-0.475,0.069c-0.287,0.044-0.542,0.109-0.766,0.201c-0.224,0.093-0.396,0.216-0.519,0.371
		c-0.122,0.155-0.183,0.35-0.183,0.58c0,0.221,0.057,0.407,0.171,0.562c0.113,0.151,0.271,0.268,0.47,0.347
		S235.166,403.553,235.427,403.553z"/>
	<path fill="#040000" d="M245.154,405.219c-0.717,0-1.354-0.104-1.91-0.313c-0.555-0.208-1.007-0.509-1.354-0.902
		c-0.349-0.395-0.567-0.868-0.658-1.421l2.241-0.3c0.101,0.399,0.295,0.702,0.582,0.907c0.286,0.205,0.669,0.308,1.147,0.308
		c0.452,0,0.808-0.086,1.068-0.257s0.391-0.388,0.391-0.649c0-0.228-0.094-0.412-0.283-0.558c-0.188-0.145-0.472-0.257-0.849-0.335
		l-1.523-0.3c-0.851-0.174-1.488-0.469-1.914-0.884c-0.425-0.416-0.638-0.952-0.638-1.609c0-0.553,0.153-1.031,0.458-1.437
		c0.306-0.404,0.736-0.718,1.292-0.938c0.555-0.221,1.205-0.331,1.949-0.331c0.712,0,1.329,0.101,1.85,0.3
		c0.521,0.2,0.939,0.483,1.256,0.853c0.316,0.368,0.518,0.803,0.603,1.302l-2.129,0.292c-0.074-0.311-0.24-0.563-0.498-0.761
		s-0.603-0.296-1.033-0.296c-0.397,0-0.727,0.082-0.985,0.248c-0.258,0.166-0.387,0.38-0.387,0.644c0,0.222,0.088,0.406,0.263,0.557
		c0.177,0.149,0.463,0.265,0.861,0.344l1.595,0.314c0.861,0.168,1.5,0.447,1.917,0.836c0.417,0.391,0.626,0.896,0.626,1.522
		c0,0.573-0.167,1.074-0.502,1.503s-0.799,0.763-1.391,1.002C246.607,405.098,245.925,405.219,245.154,405.219z"/>
	<path fill="#040000" d="M253.008,400.034v5.002h-2.376v-11.755h2.345v5.238h-0.247c0.238-0.736,0.599-1.307,1.081-1.712
		c0.48-0.405,1.099-0.607,1.854-0.607c0.611,0,1.146,0.131,1.604,0.396c0.457,0.263,0.813,0.642,1.063,1.136
		c0.254,0.494,0.379,1.089,0.379,1.783v5.521h-2.384v-5.104c0-0.552-0.142-0.982-0.423-1.29c-0.282-0.309-0.675-0.461-1.18-0.461
		c-0.335,0-0.632,0.072-0.89,0.217c-0.258,0.146-0.46,0.354-0.605,0.627C253.081,399.299,253.008,399.635,253.008,400.034z"/>
	<path fill="#040000" d="M261.852,395.198c-0.367,0-0.681-0.118-0.938-0.354s-0.387-0.525-0.387-0.867s0.129-0.632,0.387-0.868
		s0.57-0.354,0.938-0.354c0.364,0,0.678,0.118,0.932,0.354c0.256,0.236,0.383,0.526,0.383,0.868s-0.127,0.631-0.383,0.867
		C262.529,395.08,262.217,395.198,261.852,395.198z M260.662,405.036v-8.71h2.377v8.71H260.662z"/>
</g>
<g>
	<ellipse fill="#040000" cx="237.484" cy="415.176" rx="4.718" ry="4.667"/>
	<ellipse fill="#FFFFFF" cx="237.484" cy="415.175" rx="1.941" ry="1.922"/>
</g>
</svg>
