<?xml version="1.0" encoding="utf-8"?>
<!-- Generator: Adobe Illustrator 16.0.0, SVG Export Plug-In . SVG Version: 6.00 Build 0)  -->
<!DOCTYPE svg PUBLIC "-//W3C//DTD SVG 1.1//EN" "http://www.w3.org/Graphics/SVG/1.1/DTD/svg11.dtd">
<svg version="1.1" id="圖層_1" xmlns="http://www.w3.org/2000/svg" xmlns:xlink="http://www.w3.org/1999/xlink" x="0px" y="0px"
	 width="595.279px" height="595.279px" viewBox="0 0 595.279 595.279" enable-background="new 0 0 595.279 595.279"
	 xml:space="preserve">
<g>
	<g>
		<path fill="#E98A1F" d="M483.028,451.592c0,27.6,22.381,49.976,49.98,49.976s49.976-22.376,49.976-49.976
			c0-27.604-22.376-49.98-49.976-49.98S483.028,423.988,483.028,451.592z"/>
		<path fill="#E98A1F" d="M478.573,380.342c0,22.305,18.083,40.388,40.388,40.388c22.31,0,40.389-18.083,40.389-40.388
			c0-22.308-18.079-40.393-40.389-40.393C496.656,339.949,478.573,358.034,478.573,380.342z"/>
		<path fill="#E98A1F" d="M440.61,505.252c0,23.122,18.748,41.865,41.867,41.865c23.122,0,41.87-18.743,41.87-41.865
			c0-23.126-18.748-41.869-41.87-41.869C459.358,463.383,440.61,482.126,440.61,505.252z"/>
		<path fill="#E98A1F" d="M111.214,451.264c0,27.6-22.376,49.976-49.976,49.976c-27.602,0-49.978-22.376-49.978-49.976
			c0-27.604,22.376-49.98,49.978-49.98C88.838,401.283,111.214,423.659,111.214,451.264z"/>
		<path fill="#E98A1F" d="M115.671,380.014c0,22.305-18.083,40.384-40.391,40.384c-22.305,0-40.386-18.079-40.386-40.384
			c0-22.31,18.081-40.39,40.386-40.39C97.587,339.624,115.671,357.704,115.671,380.014z"/>
		<path fill="#E98A1F" d="M153.634,504.925c0,23.121-18.746,41.864-41.867,41.864c-23.124,0-41.867-18.743-41.867-41.864
			c0-23.127,18.743-41.87,41.867-41.87C134.888,463.055,153.634,481.798,153.634,504.925z"/>
		<path fill="#EFD45C" d="M522.585,323.763c0,119.538-101.744,216.436-227.254,216.436c-125.509,0-227.255-96.897-227.255-216.436
			c0-119.533,101.746-216.433,227.255-216.433C420.841,107.33,522.585,204.23,522.585,323.763z"/>
		<path fill="#EFD45C" d="M287.439,451.259c0,39.354-47.495,71.25-106.08,71.25s-106.08-31.896-106.08-71.25
			c0-39.348,47.495-71.245,106.08-71.245S287.439,411.911,287.439,451.259z"/>
		<path fill="#EFD45C" d="M515.149,451.259c0,39.354-46.735,71.25-104.385,71.25c-57.652,0-104.387-31.896-104.387-71.25
			c0-39.348,46.734-71.245,104.387-71.245C468.413,380.014,515.149,411.911,515.149,451.259z"/>
		<g>
			<path fill="#E98A1F" d="M420.415,123.677c0.01-0.009,48.122-43.95,82.795,11.893c0,0,40.283,65.436-7.982,54.074
				c-16.16-4.868-32.377-9.735-48.986-12.848c-8.172-1.531-16.459-2.673-24.771-3.044c-9.852-0.439-24.672,5.67-29.542-6.069
				c-3.623-8.735-1.878-16.203,4.19-23.331C403.133,136.117,412.535,130.874,420.415,123.677z"/>
		</g>
		<g>
			<path fill="#E98A1F" d="M71.982,139.759c0.007-0.012,36.382-54.071,83.257-7.997c0,0,54.601,54.071,5.015,54.43
				c-16.851-0.914-33.759-1.816-50.631-0.917c-8.305,0.442-16.625,1.287-24.793,2.892c-9.678,1.899-22.632,11.335-30.136,1.078
				c-5.586-7.634-5.653-15.298-1.438-23.661C58.125,155.926,66.025,148.613,71.982,139.759z"/>
		</g>
		<ellipse fill="#262727" cx="303.405" cy="438.405" rx="10.865" ry="5.917"/>
		
			<ellipse transform="matrix(0.9969 -0.0789 0.0789 0.9969 -25.5895 15.8939)" fill="#E98A1F" cx="188.412" cy="331.894" rx="39.059" ry="17.1"/>
		
			<ellipse transform="matrix(0.9992 0.0401 -0.0401 0.9992 13.5705 -15.8605)" fill="#E98A1F" cx="402.251" cy="330.436" rx="39.06" ry="17.101"/>
		<ellipse fill="#262727" cx="201.552" cy="395.139" rx="5.735" ry="10.784"/>
		<ellipse fill="#262727" cx="407.986" cy="395.139" rx="5.736" ry="10.784"/>
	</g>
	<circle fill="#231815" cx="223.537" cy="395.137" r="45.461"/>
	<circle fill="#231815" cx="382.183" cy="395.137" r="45.461"/>
	<path fill="none" stroke="#231815" stroke-width="2" stroke-miterlimit="10" d="M259.222,404.143c0,0,40.725-14.284,96.646,0"/>
	<path fill="#FFFFFF" d="M207.288,359.162c0,0-25.38,5.471-25.928,40.726C181.36,399.888,184.53,381.956,207.288,359.162z"/>
	<path fill="#FFFFFF" d="M366.845,359.162c0,0-25.379,5.471-25.928,40.726C340.917,399.888,344.087,381.956,366.845,359.162z"/>
	<g>
		
			<ellipse transform="matrix(0.9202 0.3915 -0.3915 0.9202 84.1317 -142.1994)" fill="#F6F189" cx="390.806" cy="135.231" rx="161.131" ry="102.173"/>
		
			<ellipse transform="matrix(0.9202 0.3915 -0.3915 0.9202 104.2663 -128.3252)" fill="#F6F189" cx="366.844" cy="191.545" rx="218.691" ry="40.973"/>
		<path fill="#F6F189" d="M244.686,67.101"/>
		<path fill="#E84E4D" d="M244.686,67.101c0,0,93.441,101.44,295.423,128.622l-15.082,35.604c0,0-190.704-36.404-292.74-127.757
			L244.686,67.101z"/>
	</g>
</g>
</svg>
