<?xml version="1.0" encoding="utf-8"?>
<!-- Generator: Adobe Illustrator 16.0.0, SVG Export Plug-In . SVG Version: 6.00 Build 0)  -->
<!DOCTYPE svg PUBLIC "-//W3C//DTD SVG 1.1//EN" "http://www.w3.org/Graphics/SVG/1.1/DTD/svg11.dtd">
<svg version="1.1" id="圖層_1" xmlns="http://www.w3.org/2000/svg" xmlns:xlink="http://www.w3.org/1999/xlink" x="0px" y="0px"
	 width="595.279px" height="595.279px" viewBox="0 0 595.279 595.279" enable-background="new 0 0 595.279 595.279"
	 xml:space="preserve">
<g>
	<g>
		<path fill="#E98A1F" d="M481.177,414.502c0,27.108,21.982,49.087,49.092,49.087c27.108,0,49.086-21.979,49.086-49.087
			c0-27.113-21.978-49.091-49.086-49.091C503.159,365.411,481.177,387.389,481.177,414.502z"/>
		<path fill="#E98A1F" d="M476.802,344.521c0,21.907,17.762,39.669,39.67,39.669c21.912,0,39.669-17.762,39.669-39.669
			c0-21.91-17.757-39.675-39.669-39.675C494.564,304.846,476.802,322.611,476.802,344.521z"/>
		<path fill="#E98A1F" d="M439.517,467.208c0,22.71,18.414,41.12,41.119,41.12c22.711,0,41.125-18.41,41.125-41.12
			c0-22.715-18.414-41.125-41.125-41.125C457.931,426.083,439.517,444.493,439.517,467.208z"/>
		<path fill="#E98A1F" d="M115.981,414.181c0,27.108-21.978,49.086-49.087,49.086c-27.111,0-49.089-21.978-49.089-49.086
			c0-27.113,21.978-49.092,49.089-49.092C94.003,365.089,115.981,387.068,115.981,414.181z"/>
		<path fill="#E98A1F" d="M120.357,344.198c0,21.908-17.761,39.665-39.67,39.665c-21.908,0-39.668-17.757-39.668-39.665
			c0-21.912,17.76-39.672,39.668-39.672C102.596,304.527,120.357,322.286,120.357,344.198z"/>
		<path fill="#E98A1F" d="M157.646,466.886c0,22.711-18.412,41.12-41.123,41.12c-22.711,0-41.122-18.409-41.122-41.12
			c0-22.715,18.411-41.124,41.122-41.124C139.234,425.762,157.646,444.171,157.646,466.886z"/>
		<path fill="#EFD45C" d="M520.031,288.948c0,117.41-99.932,212.584-223.209,212.584c-123.276,0-223.211-95.174-223.211-212.584
			c0-117.406,99.936-212.582,223.211-212.582C420.099,76.367,520.031,171.543,520.031,288.948z"/>
		<ellipse fill="#EFD45C" cx="184.878" cy="414.176" rx="104.191" ry="69.982"/>
		<path fill="#EFD45C" d="M512.726,414.176c0,38.652-45.9,69.982-102.524,69.982c-56.628,0-102.531-31.33-102.531-69.982
			c0-38.647,45.903-69.978,102.531-69.978C466.825,344.198,512.726,375.529,512.726,414.176z"/>
		<g>
			<path fill="#E98A1F" d="M419.68,92.424c0.009-0.009,47.267-43.167,81.32,11.681c0,0,39.566,64.271-7.841,53.112
				c-15.872-4.781-31.801-9.562-48.111-12.619c-8.027-1.504-16.166-2.626-24.333-2.99c-9.674-0.432-24.23,5.569-29.017-5.961
				c-3.559-8.58-1.842-15.914,4.119-22.915C402.706,104.641,411.942,99.492,419.68,92.424z"/>
		</g>
		<g>
			<path fill="#E98A1F" d="M77.447,108.219c0.006-0.012,35.735-53.109,81.775-7.854c0,0,53.629,53.109,4.926,53.461
				c-16.551-0.897-33.158-1.784-49.731-0.9c-8.155,0.434-16.33,1.264-24.35,2.84c-9.506,1.866-22.229,11.134-29.602,1.059
				c-5.486-7.498-5.552-15.026-1.412-23.24C63.836,124.098,71.595,116.915,77.447,108.219z"/>
		</g>
		<ellipse fill="#262727" cx="304.75" cy="401.55" rx="10.672" ry="5.812"/>
		<path fill="#E98A1F" d="M230.048,293.909c0.732,9.249-15.797,18.099-36.919,19.769c-21.122,1.672-38.837-4.471-39.569-13.718
			c-0.732-9.244,15.797-18.097,36.919-19.769C211.601,278.522,229.316,284.664,230.048,293.909z"/>
		
			<ellipse transform="matrix(0.9992 0.0401 -0.0401 0.9992 12.1696 -15.872)" fill="#E98A1F" cx="401.839" cy="295.503" rx="38.366" ry="16.796"/>
		<ellipse fill="#262727" cx="204.711" cy="359.054" rx="5.633" ry="10.593"/>
		<ellipse fill="#262727" cx="407.473" cy="359.054" rx="5.634" ry="10.593"/>
	</g>
	<path fill="#EF8F88" d="M367.491,455.622c0,0,3.764-20.205-14.445-20.803c0,0-9.552,5.075-1.791,13.135
		c0,0,12.323,13.135,6.759,15.821"/>
	<path fill="#040000" d="M316.479,472.731c0,0,34.18,0.597,54.18-21.194C370.658,451.536,359.763,474.671,316.479,472.731z"/>
	<path fill-rule="evenodd" clip-rule="evenodd" fill="#969696" d="M384.702,532.414c-6.707-5.015-6.768-5.082-3.857-10.544
		c6.092-11.437,12.239-22.843,18.35-34.271c4.468-8.354,7.425-17.273,8.19-26.987c0.909-11.48,5.336-21.616,10.219-31.574
		c4.403-8.98,9.175-17.796,17.108-24.818c2.267-2.013,5.094-3.715,8.177-4.983c1.324-0.544,4.314-0.098,5.867,0.8
		c1.292,0.746,2.267,2.982,2.179,4.266c-0.178,2.477-0.887,4.893-1.932,7.08c-8.283,17.236-16.655,34.436-25.093,51.605
		c-3.807,7.74-8.521,15.1-11.563,23.146c-4.491,11.91-7.877,24.272-11.697,36.456c-0.704,2.248-1.255,4.555-1.861,6.842
		c-1.483,5.633-2.402,6.055-10.2,4.667C387.291,533.536,385.994,532.974,384.702,532.414z"/>
	<path fill-rule="evenodd" clip-rule="evenodd" fill="#969696" d="M182.211,388.751c1.101,2.181,2.414,4.301,3.272,6.561
		c3.512,9.266,6.862,18.582,10.322,27.864c1.221,3.278,1.04,6.7-1.585,9.983c-5.346,6.7-5.488,12.866-3.368,19.473
		c7.411,23.042,14.167,46.268,21.171,69.425c0.311,1.028,0.608,2.066,0.921,3.098c1.028,3.409-0.033,6.646-3.701,9.669
		c-1.098,0.268-2.195,0.538-3.293,0.807c-5.463-0.259-7.474-3.013-8.12-6.43c-2.801-14.823-5.404-29.69-8.135-44.531
		c-2.199-11.948-4.284-23.926-6.889-35.782c-0.525-2.391-2.738-4.568-4.909-6.354c-3.531-2.908-7.669-5.413-11.552-8.091
		c-0.373-1.522-0.746-3.048-1.12-4.573c0.098-0.494,0.343-1.017,0.27-1.476c-1.817-11.404-3.668-22.804-5.513-34.201
		c0.549-0.135,1.099-0.268,1.646-0.403c0.506,1.068,1.158,2.095,1.49,3.209c2.214,7.412,4.314,14.858,6.607,22.249
		c0.218,0.706,1.494,1.121,2.28,1.674c0.423-0.835,1.325-1.776,1.188-2.49c-0.658-3.464-1.648-6.852-2.419-10.292
		c-1.171-5.242-2.257-10.506-3.383-15.761c0.55-0.133,1.099-0.268,1.648-0.403c2.937,9.17,5.873,18.335,8.811,27.505
		c0.532-0.116,1.062-0.235,1.594-0.354c0.033-0.692,0.21-1.42,0.077-2.077c-1.575-7.769-3.223-15.519-4.774-23.291
		c-0.203-1.015,0.026-2.125,0.055-3.19c0.274-0.067,0.548-0.136,0.822-0.203c0.471,0.739,1.145,1.423,1.38,2.225
		c2.216,7.599,4.328,15.227,6.552,22.825c0.259,0.879,1.009,1.627,1.529,2.439c0.499-0.176,0.999-0.351,1.5-0.525
		c-0.088-1.028-0.072-2.082-0.285-3.085c-1.002-4.781-2.142-9.534-3.09-14.326c-0.717-3.629-1.222-7.307-1.824-10.964
		C181.663,388.884,181.934,388.819,182.211,388.751z"/>
	<circle fill-rule="evenodd" clip-rule="evenodd" fill="#EFD45C" cx="186.649" cy="493.453" r="30.949"/>
	<path fill-rule="evenodd" clip-rule="evenodd" fill="#EFD45C" d="M448.831,493.453c0,17.093-13.854,30.95-30.947,30.95
		c-17.095,0-30.947-13.857-30.947-30.95c0-17.092,13.853-30.949,30.947-30.949C434.978,462.504,448.831,476.362,448.831,493.453z"/>
</g>
</svg>
