<?xml version="1.0" encoding="utf-8"?>
<!-- Generator: Adobe Illustrator 16.0.0, SVG Export Plug-In . SVG Version: 6.00 Build 0)  -->
<!DOCTYPE svg PUBLIC "-//W3C//DTD SVG 1.1//EN" "http://www.w3.org/Graphics/SVG/1.1/DTD/svg11.dtd">
<svg version="1.1" id="圖層_1" xmlns="http://www.w3.org/2000/svg" xmlns:xlink="http://www.w3.org/1999/xlink" x="0px" y="0px"
	 width="595.279px" height="595.279px" viewBox="0 0 595.279 595.279" enable-background="new 0 0 595.279 595.279"
	 xml:space="preserve">
<g>
	<path fill="#E98A1F" d="M480.485,408.911c0,27.289,22.132,49.416,49.421,49.416c27.29,0,49.416-22.127,49.416-49.416
		c0-27.295-22.126-49.422-49.416-49.422C502.616,359.49,480.485,381.616,480.485,408.911z"/>
	<path fill="#E98A1F" d="M476.08,338.46c0,22.055,17.882,39.936,39.937,39.936c22.06,0,39.935-17.881,39.935-39.936
		c0-22.057-17.875-39.939-39.935-39.939C493.962,298.521,476.08,316.404,476.08,338.46z"/>
	<path fill="#E98A1F" d="M438.542,461.97c0,22.863,18.537,41.396,41.399,41.396c22.861,0,41.399-18.533,41.399-41.396
		c0-22.867-18.538-41.4-41.399-41.4C457.079,420.57,438.542,439.103,438.542,461.97z"/>
	<path fill="#E98A1F" d="M112.836,408.587c0,27.291-22.125,49.416-49.417,49.416c-27.292,0-49.418-22.125-49.418-49.416
		c0-27.295,22.125-49.42,49.418-49.42C90.712,359.167,112.836,381.292,112.836,408.587z"/>
	<path fill="#E98A1F" d="M117.242,338.136c0,22.053-17.881,39.93-39.937,39.93c-22.055,0-39.935-17.877-39.935-39.93
		c0-22.059,17.879-39.938,39.935-39.938C99.362,298.198,117.242,316.077,117.242,338.136z"/>
	<circle fill="#E98A1F" cx="113.383" cy="461.646" r="41.398"/>
	<ellipse fill="#EFD45C" cx="294.891" cy="282.515" rx="224.709" ry="214.009"/>
	<ellipse fill="#EFD45C" cx="182.197" cy="408.583" rx="104.891" ry="70.449"/>
	<path fill="#EFD45C" d="M512.245,408.583c0,38.91-46.213,70.449-103.215,70.449c-57.007,0-103.219-31.539-103.219-70.449
		c0-38.906,46.212-70.447,103.219-70.447C466.032,338.136,512.245,369.677,512.245,408.583z"/>
	<g>
		<path fill="#E98A1F" d="M418.573,84.672c0.009-0.01,47.581-43.458,81.867,11.759c0,0,39.833,64.703-7.892,53.469
			c-15.979-4.813-32.017-9.627-48.438-12.704c-8.081-1.514-16.275-2.644-24.495-3.01c-9.74-0.434-24.396,5.607-29.211-6.001
			c-3.582-8.637-1.856-16.021,4.146-23.069C401.484,96.971,410.781,91.787,418.573,84.672z"/>
	</g>
	<g>
		<path fill="#E98A1F" d="M74.044,100.573c0.006-0.012,35.975-53.465,82.324-7.907c0,0,53.989,53.466,4.959,53.82
			c-16.663-0.904-33.381-1.796-50.065-0.906c-8.21,0.437-16.439,1.272-24.513,2.859c-9.569,1.879-22.379,11.208-29.8,1.066
			c-5.522-7.548-5.588-15.127-1.421-23.395C60.343,116.559,68.153,109.328,74.044,100.573z"/>
	</g>
	<path fill="#262727" d="M313.616,395.87c0,3.23-4.811,5.852-10.742,5.852c-5.937,0-10.744-2.621-10.744-5.852
		s4.808-5.85,10.744-5.85C308.806,390.021,313.616,392.64,313.616,395.87z"/>
	
		<ellipse transform="matrix(0.9969 -0.0789 0.0789 0.9969 -22.3325 15.8292)" fill="#E98A1F" cx="189.168" cy="290.556" rx="38.622" ry="16.908"/>
	
		<ellipse transform="matrix(0.9992 0.0401 -0.0401 0.9992 11.9161 -15.8325)" fill="#E98A1F" cx="400.612" cy="289.115" rx="38.623" ry="16.908"/>
	<path fill="#262727" d="M218.775,355.286c0,5.094-8.95-3.807-19.989-3.807c-11.042,0-19.991,8.9-19.991,3.807
		c0-5.088,8.949-16.828,19.991-16.828C209.825,338.458,218.775,350.198,218.775,355.286z"/>
	<path fill="#262727" d="M420.603,355.286c0,5.094-8.95-3.807-19.99-3.807c-11.042,0-19.99,8.9-19.99,3.807
		c0-5.088,8.948-16.828,19.99-16.828C411.653,338.458,420.603,350.198,420.603,355.286z"/>
	<g>
		<path fill-rule="evenodd" clip-rule="evenodd" fill="#FFFFFF" d="M309.007,498.81c0.392,0.244,0.783,0.494,1.174,0.74
			c0.045-0.049,0.09-0.094,0.134-0.137c-0.501-0.563-1.001-1.127-1.503-1.688c2.082,0.191,3.92,1.432,6.309,1.029
			c-1.551-1.77-3.591-2.783-4.65-4.795c0.438,0.1,0.875,0.203,1.488,0.338c-0.188-1.422,0.162-2.783-1.329-3.68
			c-1.035-0.623-1.907-1.52-2.958-2.381c-0.398,0.553-0.771,1.076-1.143,1.594c-0.051-0.035-0.102-0.074-0.152-0.107
			c6.23-9.867,12.458-19.732,18.58-29.436c0.438-0.055,0.882-0.033,0.909-0.131c0.077-0.256-0.029-0.568-0.09-1.072
			c3.284-5.203,6.707-10.623,10.127-16.047c3.821-6.057,7.633-12.123,11.478-18.166c0.337-0.531,0.253-1.516,1.374-1.346
			c-0.07-0.373-0.125-0.66-0.201-1.078c0.448,0.232,0.782,0.404,1.116,0.576c0.064-0.09,0.125-0.182,0.188-0.27
			c-0.216-0.162-0.435-0.322-0.789-0.58c0.169-0.271,0.45-0.676,0.688-1.104c0.404-0.727,0.739-0.611,1.057,0.174
			c0.337-0.533,0.617-0.979,0.946-1.498c-0.33-0.09-0.567-0.154-0.905-0.242c0.393-0.623,0.748-1.184,1.244-1.975
			c-0.244,0.594-0.391,0.955-0.545,1.33c1.229,0.201,1.688-0.139,1.882-1.338c-1.418-0.166-1.418-0.166-0.2-1.906
			c0.155,0.154,0.284,0.371,0.472,0.461c0.23,0.105,0.509,0.107,0.886,0.178c0.037-0.465,0.072-0.916,0.103-1.33
			c0.333-0.178,0.642-0.34,0.952-0.506c-0.14-0.195-0.279-0.391-0.389-0.539c0.326-0.121,0.703-0.262,1.079-0.404
			c-0.052-0.109-0.101-0.213-0.153-0.32c-1.272-0.42-1.35,1.074-2.098,1.498c-0.079-0.063-0.156-0.125-0.235-0.189
			c0.471-0.525,0.932-1.057,1.414-1.57c0.482-0.51,0.985-1.002,1.477-1.5c-0.096-0.086-0.19-0.172-0.289-0.258
			c-0.281,0.338-0.563,0.682-0.844,1.023c-0.083-0.064-0.166-0.133-0.249-0.193c0.835-1.063,1.732-2.078,2.484-3.195
			c0.611-0.908,1.234-1.715,2.26-2.203c0.801-0.385,1.472-1.098,2.296-1.367c1.549-0.5,2.68-1.404,3.521-2.756
			c0.469-0.756,1.225-0.734,1.918-0.516c1.621,0.512,3.218,1.113,4.823,1.676c0.32,0.113,0.637,0.227,1.021,0.197
			c-1.316-0.648-2.631-1.291-3.878-1.906c0.106-0.406,0.213-0.814,0.384-1.471c1.417,0.607,2.85,1.199,4.254,1.842
			c2.014,0.92,4.004,1.883,6.001,2.828c0.215,0.102,0.413,0.242,0.613,0.375c2.91,1.846,5.84,3.666,8.72,5.559
			c1.059,0.695,2.006,1.555,2.946,2.451c-0.508-0.32-1.007-0.656-1.526-0.955c-0.492-0.285-0.959-0.66-1.588-0.166
			c-0.15,0.115-0.635-0.092-0.903-0.25c-1.133-0.682-2.242-1.4-3.451-1.969c4.241,3.406,9.013,6.162,12.288,10.703
			c-0.183-0.088-0.366-0.18-0.55-0.268c-0.081,0.041-0.162,0.084-0.245,0.129c0.335,0.75,0.673,1.5,1.078,2.408
			c-0.935,1.316-0.739,3.162-0.741,4.881c-0.005,2.219-0.462,4.146-1.877,5.609c0.356-0.783,0.796-1.75,1.236-2.719
			c-0.102-0.08-0.202-0.16-0.306-0.24c-0.259,0.266-0.593,0.492-0.764,0.807c-0.374,0.689-0.777,1.227-1.661,1.318
			c-0.329,0.033-0.72,0.389-0.913,0.703c-1.072,1.74-2.085,3.518-3.132,5.275c-0.446,0.746-0.928,1.473-1.521,2.219
			c1.219-9.492-2.396-16.686-10.259-21.855c0.351,0.35,0.696,0.711,1.048,1.061c0.337,0.332,0.682,0.654,0.963,1.055
			c-1.466-0.924-2.931-1.848-3.895-2.457c1.979,1.717,4.479,3.746,6.82,5.943c4.309,4.039,5.723,9.051,4.673,14.82
			c-0.118,0.658-0.554,1.359,0.096,2.031c0.092,0.094-0.057,0.521-0.191,0.732c-3.126,4.881-6.264,9.75-9.398,14.621
			c-0.074,0.117-0.162,0.223-0.222,0.346c-1.558,3.17-4.2,5.262-7.084,7.105c-0.78,0.5-1.47,1.031-1.837,1.961
			c-0.273,0.682-0.864,1.234-1.175,1.91c-0.128,0.281,0.103,0.729,0.168,1.1c0.282-0.078,0.659-0.07,0.829-0.256
			c2.08-2.238,4.131-4.51,6.138-6.715c-0.701,1.109-1.475,2.307-2.217,3.518c-0.794,1.299-1.541,2.625-2.348,3.912
			c-0.432,0.689-0.97,1.314-1.413,1.996c-0.924,1.428-1.797,2.887-2.728,4.313c-2.138,3.289-4.346,6.533-6.44,9.85
			c-1.912,3.025-3.762,6.094-5.548,9.197c-0.855,1.488-1.495,3.1-2.302,4.799c0.03-0.404,0.047-0.713,0.075-1.02
			c0.206-2.256-1.15-3.484-3.396-3.07c-3.268,0.605-6.149,3.967-6.4,7.613c-0.064,0.924,0.039,1.934,0.359,2.799
			c0.634,1.721,1.758,2.045,4.181,1.553c-0.764,0.721-1.568,1.408-2.279,2.18c-0.678,0.738-1.359,0.744-2.165,0.277
			c-2.358-1.371-4.729-2.725-7.087-4.098c-1.857-1.084-3.689-2.209-5.563-3.264c-0.471-0.268-1.028-0.773-1.547,0.1
			c-0.66,1.113-0.729,1.582,0.075,2.23c0.686,0.559,1.435,1.049,2.189,1.51c3.081,1.895,6.176,3.77,9.269,5.65
			c0.246,0.152,0.492,0.311,0.737,0.465c-0.041,0.076-0.081,0.156-0.122,0.232c-3.855-1.965-7.71-3.922-11.564-5.885
			c-0.07,0.121-0.139,0.24-0.207,0.357c2.916,3.082,6.688,5.094,9.861,7.93c-1.387,0.332-2.599-0.586-4.146-0.891
			c0.498,0.355,0.825,0.588,1.154,0.82C332.531,514.327,311.259,500.915,309.007,498.81z M345.856,473.298
			c-0.027,0.139-0.055,0.277-0.082,0.416c1.698,0.559,3.359,1.283,5.097,1.639c6.143,1.264,11.414-0.705,16.063-4.668
			c0.157-0.131,0.18-0.742,0.048-0.84c-1.216-0.916-2.551-1.672-4.131-1.463c-1.34,0.178-2.724,0.385-3.964,0.885
			C354.652,470.968,350.455,472.757,345.856,473.298z M340.933,440.73c-0.209,0.182-0.305,0.229-0.348,0.301
			c-1.924,3.355-3.58,6.814-4.469,10.609c-0.259,1.113-0.049,2.047,0.506,3.016c2.075,3.623,5.271,5.934,8.949,7.65
			c1.321,0.615,2.749,1.01,4.129,1.504c-0.064-0.391-0.227-0.559-0.406-0.709c-2.355-1.99-4.506-4.166-6.25-6.719
			c-3.084-4.516-4.135-9.363-2.326-14.656C340.81,441.456,340.841,441.167,340.933,440.73z M346.92,431.927
			c-0.5,1.295-1.247,2.902-1.714,4.588c-0.191,0.693,0.155,1.574,0.418,2.311c0.076,0.221,0.759,0.432,1.058,0.328
			c2.421-0.811,4.816-1.697,7.215-2.572c0.276-0.102,0.604-0.23,0.766-0.449c1.04-1.408,1.933-2.898,2.104-4.691
			c0.186-1.906-0.835-3.404-2.983-4.424c-1.301-0.615-2.568-0.316-3.897,1.135C348.905,429.228,348.075,430.439,346.92,431.927z
			 M372.967,448.669c0.571-1.164,1.091-2.092,1.48-3.07c0.442-1.107,0.575-2.281-0.112-3.352c-0.609-0.947-1.342-1.74-2.765-1.27
			c-1.451,0.48-2.978,0.734-4.47,1.1c-0.228,0.055-0.526,0.102-0.649,0.26c-1.396,1.813-2.905,3.611-2.812,6.082
			c0.074,1.922,1.337,3.061,2.974,3.826c1.462,0.684,2.77,0.275,3.848-0.773C371.413,450.55,372.23,449.501,372.967,448.669z
			 M378.74,446.138c0.785,1.379,0.35,2.432-0.263,3.418c-1.331,2.146-2.671,4.285-4.09,6.377c-0.641,0.939,0.078,1.145,0.596,1.549
			c0.555,0.432,0.96,0.498,1.395-0.207c1.537-2.498,3.163-4.943,4.677-7.457c0.85-1.412,1.2-2.975,0.663-4.615
			c-0.156-0.479-0.356-0.855-1.029-0.605c-1.599,0.59-3.231,1.094-4.834,1.668c-0.33,0.121-0.699,0.338-0.883,0.619
			c-1.495,2.287-2.943,4.602-4.419,6.896c-0.31,0.484-0.229,0.813,0.276,1.074c0.271,0.143,0.541,0.301,0.781,0.488
			c0.655,0.52,1.078,0.412,1.531-0.332c1.492-2.445,3.053-4.85,4.587-7.271C378.031,447.259,378.334,446.779,378.74,446.138z
			 M362.375,467.482c-3.324-1.854-6.746-2.027-10.315-2.014c-1.374,2.18-2.74,4.344-4.012,6.359
			C352.888,471.404,357.254,468.573,362.375,467.482z M354.147,444.034c1.712-2.711,3.355-5.316,5.066-8.025
			c1.393,1.412,0.066,2.414-0.409,3.592c0.889-0.227,1.639-0.426,2.393-0.615c1.811-0.449,2.549-1.979,1.826-3.707
			c-0.245-0.586-0.563-0.748-1.184-0.572c-1.574,0.443-3.171,0.816-4.749,1.252c-0.544,0.154-1.282,0.26-1.556,0.652
			c-1.329,1.916-2.533,3.926-3.785,5.912C352.587,443.05,353.3,443.501,354.147,444.034z M367.665,437.888
			c-2.994,0.145-3.947,0.678-5.385,2.951c-1.249,1.975-2.499,3.961-3.792,6.006c0.885,0.561,1.675,1.061,2.52,1.594
			C363.224,444.925,365.417,441.45,367.665,437.888z M363.834,458.519c0.295,0.131,0.473,0.221,0.657,0.285
			c1.281,0.467,1.313,0.918,0.663,1.803c-0.785,1.066-1.472,2.219-2.126,3.373c-0.165,0.291-0.053,0.744-0.068,1.125
			c0.317-0.176,0.748-0.271,0.938-0.537c0.817-1.174,1.549-2.408,2.357-3.588c0.177-0.262,0.545-0.391,0.824-0.582
			c0.229-0.16,0.593-0.295,0.641-0.496c0.045-0.197-0.182-0.561-0.389-0.697c-1.03-0.686-2.077-1.352-3.157-1.953
			c-0.232-0.127-0.813-0.084-0.926,0.086c-1.14,1.693-2.229,3.428-3.286,5.178c-0.101,0.162,0.105,0.514,0.172,0.771
			c0.261-0.066,0.602-0.057,0.771-0.221c0.283-0.283,0.44-0.688,0.681-1.016c0.312-0.428,0.435-1.137,1.278-0.836
			c0.083,0.027,0.58-0.695,0.529-0.756C362.641,459.611,363.56,459.212,363.834,458.519z M356.318,457.185
			c0.124,0.057,0.25,0.115,0.373,0.168c-0.063,0.275-0.07,0.58-0.197,0.818c-0.287,0.537-0.681,1.025-0.938,1.576
			c-0.086,0.188,0.041,0.576,0.203,0.736c0.103,0.102,0.592,0.035,0.669-0.098c0.514-0.861,0.956-1.768,1.436-2.65
			c0.111-0.207,0.279-0.381,0.404-0.58c0.4-0.646,0.99-1.252,1.144-1.951c0.212-0.973-0.688-1.414-1.427-1.746
			c-0.777-0.352-0.856,0.477-1.116,0.867c-0.923,1.389-1.809,2.803-2.652,4.242c-0.137,0.227,0.011,0.623,0.028,0.938
			c0.288-0.135,0.674-0.199,0.847-0.42C355.549,458.491,355.915,457.823,356.318,457.185z M366.952,436.441
			c1.035,0.641,2.438,0.301,3.05-0.723c0.626-1.057,0.267-2.357-0.832-3.004c-1.054-0.627-2.347-0.352-2.97,0.633
			C365.495,434.462,365.804,435.738,366.952,436.441z M352.592,454.142c0.009,0.006,0.014,0.008,0.022,0.014
			c-0.509,0.805-1.041,1.594-1.509,2.42c-0.123,0.215-0.173,0.629-0.048,0.803c0.773,1.078,2.151,1.023,2.894-0.098
			c0.656-0.988,1.28-2.002,1.908-3.01c0.124-0.203,0.234-0.418,0.308-0.639c0.283-0.869-0.132-1.518-1.193-2.066
			c-0.889-0.457-0.934,0.385-1.227,0.775C353.32,452.909,352.973,453.538,352.592,454.142z M380.543,433.915
			c-0.034-0.109-0.069-0.223-0.103-0.336c-0.529-0.396-1.315-0.693-1.517-1.213c-0.214-0.551,0.132-1.316,0.233-1.988
			c-0.05-0.09-0.097-0.18-0.147-0.271c-1.061,1.691-2.301,1.434-3.73,0.438c1.343,1.727,0.392,2.766-1.115,3.783
			c1.052,0.006,1.918-0.244,2.411,0.076c0.497,0.322,0.625,1.215,0.916,1.859c0.091,0.025,0.184,0.051,0.275,0.074
			C377.752,434.48,378.607,433.595,380.543,433.915z M347.067,451.177c0.116,0.068,0.236,0.137,0.353,0.205
			c-0.098,0.285-0.161,0.59-0.304,0.854c-0.274,0.508-0.627,0.977-0.875,1.5c-0.086,0.182,0.038,0.465,0.066,0.699
			c0.222-0.066,0.559-0.057,0.65-0.207c1.064-1.668,2.102-3.352,3.109-5.053c0.093-0.154-0.06-0.455-0.099-0.688
			c-0.22,0.088-0.521,0.109-0.648,0.27c-0.354,0.455-0.614,0.984-0.962,1.447c-0.105,0.139-0.381,0.154-0.58,0.229
			c-0.022-0.217-0.131-0.469-0.05-0.633c0.221-0.459,0.566-0.857,0.773-1.32c0.112-0.248,0.044-0.57,0.057-0.863
			c-0.258,0.139-0.621,0.211-0.761,0.426c-0.851,1.32-1.692,2.646-2.439,4.025c-0.243,0.449-1.094,0.805-0.463,1.539
			c0.411-0.389,0.845-0.746,1.217-1.164C346.463,452.052,346.751,451.603,347.067,451.177z M358.73,460.421
			c0.081,0.051,0.164,0.104,0.246,0.152c-0.136,0.363-0.348,0.715-0.381,1.082c-0.024,0.268,0.188,0.557,0.297,0.838
			c0.226-0.143,0.563-0.23,0.66-0.436c0.846-1.785,1.667-3.582,2.444-5.393c0.1-0.23-0.089-0.588-0.146-0.885
			c-0.295,0.072-0.711,0.039-0.871,0.225c-1.292,1.496-2.548,3.02-3.771,4.564c-0.141,0.18-0.014,0.566-0.013,0.859
			c0.29-0.078,0.629-0.084,0.86-0.242C358.328,460.999,358.51,460.681,358.73,460.421z M372.993,426.552
			c-1.199,1.582-2.401,1.244-3.741,0.273c1.145,1.582,0.619,2.646-0.861,3.613c1.966-0.623,2.729,0.381,3.162,2.098
			c0.101-1.926,1.044-2.73,2.956-2.553C372.891,429.288,372.201,428.325,372.993,426.552z M368.2,426.091
			c-1.742-0.576-1.982-1.684-1.351-3.295c-1.104,1.324-2.179,1.549-3.479,0.279c0.889,1.539,0.482,2.645-0.88,3.605
			c1.772-0.57,2.497,0.291,2.938,1.895C365.442,426.632,366.421,425.984,368.2,426.091z M349.264,452.13
			c0.007,0.006,0.017,0.012,0.022,0.014c-0.364,0.576-0.73,1.152-1.091,1.73c-0.803,1.299-0.7,1.611,0.755,2.207
			c0.176,0.07,0.416-0.012,0.627-0.027c-0.041-0.23-0.05-0.475-0.131-0.689c-0.125-0.328-0.516-0.775-0.415-0.932
			c0.313-0.492,0.742-1.1,1.243-1.234c0.658-0.184,0.744-0.248,0.517-0.904c-0.127-0.363,0.145-0.941,0.39-1.318
			c0.104-0.162,0.646-0.17,0.92-0.066c0.488,0.186,0.925-0.053,0.737-0.387c-0.271-0.475-0.868-0.797-1.389-1.07
			c-0.142-0.074-0.589,0.217-0.749,0.441C350.185,450.611,349.738,451.382,349.264,452.13z M346.461,446.29
			c0.01-0.035,0.018-0.064,0.027-0.102c-0.366-0.094-0.731-0.207-1.103-0.254c-0.04-0.002-0.152,0.391-0.189,0.607
			c-0.083,0.455-0.02,0.98-0.228,1.357c-0.655,1.195-1.425,2.328-2.105,3.51c-0.134,0.232-0.067,0.582-0.095,0.873
			c0.26-0.148,0.616-0.234,0.762-0.459c0.78-1.203,1.479-2.455,2.273-3.648c0.2-0.301,0.648-0.436,0.983-0.648
			c0.177-0.115,0.417-0.195,0.504-0.363c0.051-0.096-0.108-0.359-0.235-0.482C346.891,446.517,346.662,446.419,346.461,446.29z
			 M350.031,482.948c0.424-0.443,1.049-0.83,0.999-1.1c-0.085-0.453-0.593-0.822-1.033-1.363c-0.525,0.834-0.938,1.482-1.348,2.137
			c0.556,0.35,0.967,0.609,1.493,0.941C350.079,483.224,350.037,482.988,350.031,482.948z M351.926,481.958
			c-0.867,0.572-0.936,1.301-0.709,2.084c0.056,0.197,0.264,0.414,0.452,0.49c0.117,0.047,0.393-0.117,0.492-0.256
			c0.348-0.488,0.651-1.008,0.99-1.549C352.646,482.409,352.284,482.183,351.926,481.958z M362.295,454.556
			c0.399-0.633,0.832-1.174,1.085-1.783c0.116-0.279-0.117-0.705-0.192-1.063c-0.271,0.117-0.637,0.164-0.796,0.371
			c-0.43,0.555-0.77,1.174-1.163,1.799C361.638,454.14,361.915,454.316,362.295,454.556z M354.813,449.786
			c0.072,0.055,0.145,0.117,0.217,0.172c0.239-0.148,0.479-0.297,0.773-0.479c-0.05,0.316-0.089,0.576-0.133,0.836
			c0.067,0.039,0.134,0.072,0.204,0.109c0.506-0.645,1.014-1.289,1.539-1.959c-0.494-0.313-0.942-0.596-1.463-0.924
			C355.572,448.292,355.193,449.042,354.813,449.786z M348.477,479.513c-0.588,0.588-1.106,1.109-1.668,1.672
			c0.407,0.379,0.772,0.729,1.091,1.029c0.202-0.396,0.282-0.854,0.533-0.986C349.36,480.73,349.128,480.228,348.477,479.513z
			 M364.797,452.808c-0.127-0.082-0.257-0.168-0.385-0.254c-0.613,0.721-1.222,1.441-1.81,2.135c0.42,0.262,0.699,0.441,1.103,0.693
			C364.064,454.54,364.431,453.673,364.797,452.808z M362.15,451.54c-0.042-0.082-0.135-0.529-0.316-0.568
			c-0.258-0.061-0.657,0.107-0.861,0.314c-0.302,0.307-0.562,0.711-0.693,1.119c-0.097,0.301,0.042,0.678,0.077,1.021
			c0.312-0.049,0.625-0.1,0.797-0.129c-0.071-0.504-0.241-0.879-0.122-1.045C361.215,451.993,361.599,451.874,362.15,451.54z
			 M350.579,445.622c0.024-0.555,0.051-1.061,0.074-1.566c-0.391,0.307-0.899,0.539-1.135,0.936
			c-0.229,0.385-0.172,0.939-0.242,1.418C349.663,446.175,350.054,445.941,350.579,445.622z M359.915,450.673
			c0.107-0.055,0.214-0.107,0.319-0.166c-0.142-0.266-0.285-0.771-0.428-0.771c-1.403-0.002-0.681,1.201-0.935,1.914
			c-0.236-0.148-0.402-0.252-0.564-0.357c-0.082,0.072-0.161,0.143-0.241,0.213c0.206,0.242,0.445,0.717,0.606,0.689
			c1.237-0.193,0.721-1.158,0.679-2.047C359.617,450.396,359.768,450.532,359.915,450.673z M339.342,502.564
			c0.178-0.396,0.33-0.74,0.482-1.08c-0.296-0.063-0.598-0.1-0.88-0.197c-0.109-0.037-0.158-0.227-0.262-0.309
			c-0.188-0.152-0.394-0.369-0.598-0.375c-0.133-0.002-0.38,0.324-0.379,0.5c0.002,0.215,0.168,0.484,0.343,0.627
			C338.381,502.001,338.774,502.202,339.342,502.564z M366.213,453.63c-0.22-0.084-0.513-0.299-0.778-0.271
			c-0.406,0.041-1.323,1.896-1.236,2.582C364.874,455.167,365.474,454.476,366.213,453.63z M342.439,478.109
			c0.437,0.279,0.629,0.377,0.788,0.51c0.146,0.119,0.257,0.279,0.385,0.42c0.15-0.146,0.327-0.281,0.446-0.449
			c0.255-0.361,0.48-0.748,0.726-1.137c-0.295-0.248-0.602-0.762-1.126-0.031C343.446,477.72,342.965,477.827,342.439,478.109z
			 M352.338,448.001c0.306,0.193,0.549,0.344,0.827,0.521c0.385-0.611,0.791-1.256,1.179-1.869
			c-0.282-0.178-0.538-0.338-0.825-0.521C353.126,446.753,352.701,447.429,352.338,448.001z M366.6,453.931
			c-0.488,0.926-0.925,1.742-1.359,2.561c0.118,0.08,0.236,0.16,0.355,0.24c0.574-0.748,1.147-1.492,1.778-2.313
			C367.124,454.261,366.865,454.097,366.6,453.931z M384.499,431.581c-0.097-0.057-0.198-0.113-0.297-0.168
			c-0.095-0.322-0.189-0.641-0.332-1.119c-0.437,0.434-0.818,0.814-1.078,1.072c0.213,0.465,0.354,0.773,0.575,1.258
			C383.739,432.281,384.119,431.931,384.499,431.581z M347.704,485.974c-0.013,0.006-0.283,0.08-0.671,0.193
			c0.77,0.633,1.448,1.191,2.175,1.789c0.187-0.184,0.387-0.383,0.638-0.631C349.145,486.884,348.514,486.486,347.704,485.974z
			 M356.306,450.613c0.358,0.203,0.666,0.379,1.024,0.582c0.333-0.787,0.658-1.564,0.984-2.34c-0.096-0.051-0.188-0.104-0.282-0.156
			C357.456,449.337,356.883,449.976,356.306,450.613z M350.906,447.513c0.471-0.898,0.864-1.637,1.243-2.363
			c-0.103-0.045-0.368-0.168-0.709-0.32c-0.364,0.578-0.807,1.281-1.395,2.213c0.392-0.23,0.565-0.328,0.796-0.465
			C350.865,446.902,350.881,447.126,350.906,447.513z M355.442,447.109c-0.1-0.055-0.197-0.107-0.295-0.164
			c-0.519,0.631-1.037,1.264-1.479,1.803c0.346,0.291,0.562,0.471,0.813,0.686C354.813,448.634,355.123,447.87,355.442,447.109z
			 M318.167,472.478c-0.093-0.059-0.187-0.123-0.281-0.186c-0.537,0.748-1.084,1.492-1.597,2.258
			c-0.043,0.066,0.146,0.291,0.258,0.498C317.127,474.128,317.648,473.306,318.167,472.478z M343.365,432.038
			c1.142,0.57,1.268-0.307,1.648-0.941C343.94,430.572,343.679,431.277,343.365,432.038z M345.918,480.892
			c0.086-0.023,0.173-0.043,0.258-0.064c-0.025-0.416-0.122-0.84-0.062-1.244c0.059-0.373,0.287-0.719,0.44-1.078
			c-0.436,0.145-0.637,0.412-0.873,0.635c-0.262,0.25-0.556,0.463-0.978,0.805c0.434-0.027,0.697-0.047,0.905-0.061
			C345.728,480.275,345.823,480.583,345.918,480.892z M339.127,440.714c-0.061-0.18-0.12-0.359-0.18-0.535
			c-0.324,0.084-0.773,0.072-0.94,0.285c-0.173,0.219-0.077,0.65-0.097,0.992C338.316,441.212,338.722,440.96,339.127,440.714z
			 M336.08,442.984c1.109,0.443,1.443-0.051,1.702-0.555c0.068-0.133-0.167-0.424-0.262-0.645
			C337.103,442.132,336.681,442.484,336.08,442.984z M330.201,453.532c0.392-0.328,0.604-0.492,0.795-0.682
			c0.162-0.152,0.298-0.344,0.446-0.516c-0.19-0.127-0.462-0.404-0.554-0.354c-0.302,0.168-0.583,0.422-0.781,0.705
			C330.017,452.814,330.144,453.091,330.201,453.532z M346.196,429.548c-0.099-0.16-0.196-0.32-0.297-0.479
			c-0.392,0.209-0.806,0.387-1.146,0.658c-0.061,0.049,0.193,0.49,0.302,0.752C345.437,430.167,345.816,429.857,346.196,429.548z
			 M348.451,425.931c-1.217-0.395-1.588-0.107-1.744,1.314C347.345,426.763,347.811,426.413,348.451,425.931z M328.841,456.105
			c-0.193-0.068-0.385-0.137-0.579-0.205c-0.172,0.445-0.343,0.896-0.513,1.342c0.205,0.063,0.579,0.197,0.593,0.17
			C328.536,456.988,328.683,456.542,328.841,456.105z M347.106,427.745c-0.082-0.125-0.167-0.25-0.25-0.377
			c-0.451,0.324-0.904,0.654-1.479,1.072C346.609,429.046,346.728,428.187,347.106,427.745z M338.599,439.474
			c0.085,0.121,0.17,0.238,0.258,0.357c0.335-0.221,0.705-0.404,0.984-0.682c0.126-0.123,0.063-0.439,0.084-0.67
			c-0.222,0.051-0.498,0.037-0.65,0.168C339.01,438.876,338.82,439.195,338.599,439.474z M383.817,434.853
			c0.104,0.348,0.199,0.662,0.289,0.969c0.362-0.127,0.665-0.232,0.721-0.254c0.146-0.502,0.224-0.766,0.314-1.078
			c-0.147,0.025-0.278,0.035-0.399,0.072C384.452,434.646,384.169,434.741,383.817,434.853z M340.063,487.345
			c0.892,1.395,1.061,1.432,1.719,0.66C341.225,487.79,340.645,487.57,340.063,487.345z M344.026,433.126
			c-1.106-0.553-1.304-0.438-1.664,0.793C342.914,433.656,343.361,433.447,344.026,433.126z M335.347,444.611
			c0.088,0.137,0.171,0.27,0.258,0.406c0.328-0.176,0.697-0.303,0.96-0.547c0.096-0.09-0.063-0.451-0.104-0.688
			C336.09,444.056,335.718,444.335,335.347,444.611z M383.149,428.966c-0.113-0.184-0.224-0.369-0.336-0.553
			c-0.475,0.33-0.947,0.66-1.422,0.99c0.093,0.145,0.188,0.289,0.281,0.438C382.163,429.548,382.656,429.255,383.149,428.966z
			 M337.273,499.716c-0.135-0.012-0.272-0.021-0.408-0.035c-0.151,0.305-0.3,0.604-0.485,0.988c0.365,0.119,0.634,0.209,1.16,0.383
			C337.425,500.48,337.349,500.099,337.273,499.716z M381.917,427.2c-0.096-0.121-0.192-0.246-0.287-0.361
			c-0.438,0.338-0.876,0.68-1.313,1.023c0.094,0.121,0.188,0.238,0.282,0.357C381.038,427.882,381.477,427.538,381.917,427.2z"/>
		<path fill-rule="evenodd" clip-rule="evenodd" fill="#FFFFFF" d="M347.273,503.652c0.495,0.313,0.77,0.488,1.091,0.691
			c0.262-0.357-0.165-1.346,0.845-0.893c-0.518,0.816-1.033,1.637-1.575,2.498c-0.521-0.283-0.983-0.533-1.511-0.822
			c0.258-0.408,0.486-0.771,0.717-1.137c-0.035-0.037-0.067-0.07-0.1-0.105c-0.394,0.252-0.788,0.506-1.183,0.758
			c-0.074-0.082-0.146-0.162-0.219-0.248c0.562-0.459,1.121-0.914,1.683-1.375c0.303-0.248,0.61-0.49,0.9-0.75
			c0.392-0.352,0.766-0.725,1.23-1.166c-0.189-0.221-0.512-0.605-0.831-0.984c0.067-0.059,0.134-0.113,0.202-0.17
			c0.69,0.436,1.381,0.869,2.069,1.305c-0.016,0.07-0.034,0.145-0.054,0.217c-0.34-0.006-0.682-0.01-1.108-0.02
			c0.154,0.324,0.292,0.611,0.381,0.797C348.994,502.697,348.222,503.126,347.273,503.652z"/>
		<path fill-rule="evenodd" clip-rule="evenodd" fill="#FFFFFF" d="M343.738,503.193c0.416,0.033,0.667,0.061,0.915,0.07
			c0.751,0.021,1.458-0.791,1.253-1.498c-0.064-0.229-0.291-0.506-0.5-0.568c-0.174-0.051-0.493,0.127-0.639,0.295
			c-0.284,0.336-0.449,0.777-0.749,1.094c-0.203,0.219-0.614,0.479-0.812,0.4c-0.229-0.088-0.525-0.602-0.448-0.789
			c0.232-0.553,0.521-1.268,0.996-1.502c0.911-0.457,2.167-0.52,0.911-1.973c0.609-0.037,1.099-0.066,1.602-0.094
			c0.14,0.355,0.326,0.836,0.573,1.467c-0.235-0.02-0.458-0.053-0.678-0.051c-0.2,0.004-0.4,0.049-0.41,0.049
			c0.247,0.773,0.658,1.457,0.622,2.119c-0.027,0.508-0.525,1.098-0.97,1.455C344.885,504.087,344.24,504.116,343.738,503.193z"/>
		<path fill-rule="evenodd" clip-rule="evenodd" fill="#FFFFFF" d="M347.703,502.238c-0.844-1.174-0.878-1.74-0.116-2.914
			C347.623,500.226,347.657,501.126,347.703,502.238z"/>
		<path fill-rule="evenodd" clip-rule="evenodd" d="M345.856,473.298c4.6-0.541,8.796-2.33,13.03-4.031
			c1.24-0.5,2.624-0.707,3.964-0.885c1.58-0.209,2.915,0.547,4.131,1.463c0.132,0.098,0.109,0.709-0.048,0.84
			c-4.648,3.963-9.92,5.932-16.063,4.668c-1.737-0.355-3.398-1.08-5.097-1.639C345.801,473.575,345.828,473.437,345.856,473.298z"/>
		<path fill-rule="evenodd" clip-rule="evenodd" d="M340.933,440.73c-0.092,0.438-0.123,0.727-0.215,0.996
			c-1.809,5.293-0.758,10.141,2.326,14.656c1.744,2.553,3.895,4.729,6.25,6.719c0.18,0.15,0.342,0.318,0.406,0.709
			c-1.38-0.494-2.808-0.889-4.129-1.504c-3.679-1.717-6.874-4.027-8.949-7.65c-0.555-0.969-0.765-1.902-0.506-3.016
			c0.889-3.795,2.545-7.254,4.469-10.609C340.628,440.958,340.724,440.911,340.933,440.73z"/>
		<path fill-rule="evenodd" clip-rule="evenodd" d="M346.92,431.927c1.155-1.488,1.984-2.699,2.966-3.775
			c1.329-1.451,2.597-1.75,3.897-1.135c2.148,1.02,3.169,2.518,2.983,4.424c-0.172,1.793-1.064,3.283-2.104,4.691
			c-0.161,0.219-0.489,0.348-0.766,0.449c-2.398,0.875-4.794,1.762-7.215,2.572c-0.299,0.104-0.981-0.107-1.058-0.328
			c-0.263-0.736-0.609-1.617-0.418-2.311C345.673,434.829,346.42,433.222,346.92,431.927z M352.261,433.71
			c0.396-0.771,1.031-1.826,1.469-2.959c0.166-0.43-0.122-1.033-0.205-1.559c-0.474,0.178-1.142,0.211-1.391,0.549
			c-1.158,1.586-2.228,3.238-3.268,4.906c-0.336,0.533-0.552,1.168-0.699,1.789c-0.075,0.311,0.032,0.896,0.221,0.98
			c0.294,0.127,0.767,0.002,1.091-0.158c0.318-0.158,0.585-0.469,0.804-0.762C350.892,435.681,351.466,434.837,352.261,433.71z"/>
		<path fill-rule="evenodd" clip-rule="evenodd" d="M372.967,448.669c-0.737,0.832-1.554,1.881-2.506,2.803
			c-1.078,1.049-2.386,1.457-3.848,0.773c-1.637-0.766-2.899-1.904-2.974-3.826c-0.094-2.471,1.416-4.27,2.812-6.082
			c0.123-0.158,0.422-0.205,0.649-0.26c1.492-0.365,3.019-0.619,4.47-1.1c1.423-0.471,2.155,0.322,2.765,1.27
			c0.688,1.07,0.555,2.244,0.112,3.352C374.058,446.577,373.538,447.505,372.967,448.669z M368.05,445.466
			c-0.535,1.213-1.101,2.377-1.539,3.586c-0.12,0.324,0.15,0.791,0.242,1.199c0.374-0.094,0.879-0.066,1.104-0.301
			c1.754-1.842,3.211-3.893,3.964-6.359c0.097-0.316-0.037-0.906-0.272-1.066c-0.221-0.148-0.84-0.025-1.064,0.199
			C369.625,443.587,368.856,444.542,368.05,445.466z"/>
		<path fill-rule="evenodd" clip-rule="evenodd" d="M378.74,446.138c-0.405,0.641-0.708,1.121-1.012,1.602
			c-1.534,2.422-3.095,4.826-4.587,7.271c-0.453,0.744-0.876,0.852-1.531,0.332c-0.24-0.188-0.51-0.346-0.781-0.488
			c-0.505-0.262-0.586-0.59-0.276-1.074c1.476-2.295,2.924-4.609,4.419-6.896c0.184-0.281,0.553-0.498,0.883-0.619
			c1.603-0.574,3.235-1.078,4.834-1.668c0.673-0.25,0.873,0.127,1.029,0.605c0.537,1.641,0.187,3.203-0.663,4.615
			c-1.514,2.514-3.14,4.959-4.677,7.457c-0.435,0.705-0.84,0.639-1.395,0.207c-0.518-0.404-1.236-0.609-0.596-1.549
			c1.419-2.092,2.759-4.23,4.09-6.377C379.089,448.57,379.525,447.517,378.74,446.138z"/>
		<path fill-rule="evenodd" clip-rule="evenodd" d="M362.375,467.482c-5.121,1.092-9.487,3.922-14.327,4.346
			c1.271-2.016,2.638-4.18,4.012-6.359C355.629,465.454,359.051,465.628,362.375,467.482z"/>
		<path fill-rule="evenodd" clip-rule="evenodd" d="M354.147,444.034c-0.847-0.533-1.56-0.984-2.397-1.512
			c1.252-1.986,2.456-3.996,3.785-5.912c0.273-0.393,1.012-0.498,1.556-0.652c1.578-0.436,3.175-0.809,4.749-1.252
			c0.62-0.176,0.938-0.014,1.184,0.572c0.723,1.729-0.016,3.258-1.826,3.707c-0.754,0.189-1.504,0.389-2.393,0.615
			c0.476-1.178,1.802-2.18,0.409-3.592C357.502,438.718,355.859,441.323,354.147,444.034z M356.413,437.685
			c-1.046,0.963-1.282,1.701-0.886,2.629C356.759,439.745,357.144,438.685,356.413,437.685z M354.031,440.751
			c-0.171-0.1-0.34-0.203-0.511-0.297c-0.331,0.658-0.664,1.32-0.997,1.982c0.109,0.063,0.22,0.121,0.329,0.184
			C353.244,441.995,353.638,441.374,354.031,440.751z"/>
		<path fill-rule="evenodd" clip-rule="evenodd" d="M367.665,437.888c-2.248,3.563-4.441,7.037-6.657,10.551
			c-0.845-0.533-1.635-1.033-2.52-1.594c1.293-2.045,2.543-4.031,3.792-6.006C363.718,438.566,364.671,438.032,367.665,437.888z"/>
		<path fill-rule="evenodd" clip-rule="evenodd" d="M363.834,458.519c-0.274,0.693-1.193,1.092-0.441,1.939
			c0.051,0.061-0.446,0.783-0.529,0.756c-0.844-0.301-0.967,0.408-1.278,0.836c-0.24,0.328-0.397,0.732-0.681,1.016
			c-0.169,0.164-0.51,0.154-0.771,0.221c-0.066-0.258-0.272-0.609-0.172-0.771c1.057-1.75,2.146-3.484,3.286-5.178
			c0.113-0.17,0.693-0.213,0.926-0.086c1.08,0.602,2.127,1.268,3.157,1.953c0.207,0.137,0.434,0.5,0.389,0.697
			c-0.048,0.201-0.412,0.336-0.641,0.496c-0.279,0.191-0.647,0.32-0.824,0.582c-0.809,1.18-1.54,2.414-2.357,3.588
			c-0.189,0.266-0.62,0.361-0.938,0.537c0.016-0.381-0.097-0.834,0.068-1.125c0.654-1.154,1.341-2.307,2.126-3.373
			c0.65-0.885,0.618-1.336-0.663-1.803C364.307,458.74,364.129,458.65,363.834,458.519z"/>
		<path fill-rule="evenodd" clip-rule="evenodd" d="M356.318,457.185c-0.402,0.639-0.769,1.307-1.227,1.9
			c-0.173,0.221-0.559,0.285-0.847,0.42c-0.018-0.314-0.165-0.711-0.028-0.938c0.844-1.439,1.729-2.854,2.652-4.242
			c0.26-0.391,0.339-1.219,1.116-0.867c0.739,0.332,1.639,0.773,1.427,1.746c-0.153,0.699-0.743,1.305-1.144,1.951
			c-0.125,0.199-0.293,0.373-0.404,0.58c-0.479,0.883-0.922,1.789-1.436,2.65c-0.077,0.133-0.566,0.199-0.669,0.098
			c-0.162-0.16-0.289-0.549-0.203-0.736c0.257-0.551,0.65-1.039,0.938-1.576c0.127-0.238,0.135-0.543,0.197-0.818
			C356.568,457.3,356.442,457.241,356.318,457.185z M357.947,454.82c-0.294,0.465-0.588,0.93-0.88,1.395
			C357.986,456.148,358.256,455.671,357.947,454.82z"/>
		<path fill-rule="evenodd" clip-rule="evenodd" d="M366.952,436.441c-1.148-0.703-1.457-1.979-0.752-3.094
			c0.623-0.984,1.916-1.26,2.97-0.633c1.099,0.646,1.458,1.947,0.832,3.004C369.39,436.741,367.988,437.081,366.952,436.441z"/>
		<path fill-rule="evenodd" clip-rule="evenodd" d="M352.592,454.142c0.381-0.604,0.728-1.232,1.155-1.801
			c0.293-0.391,0.338-1.232,1.227-0.775c1.062,0.549,1.477,1.197,1.193,2.066c-0.073,0.221-0.184,0.436-0.308,0.639
			c-0.628,1.008-1.252,2.021-1.908,3.01c-0.742,1.121-2.12,1.176-2.894,0.098c-0.125-0.174-0.075-0.588,0.048-0.803
			c0.468-0.826,1-1.615,1.509-2.42C352.606,454.15,352.601,454.148,352.592,454.142z M352.217,456.81
			c0.1,0.074,0.198,0.152,0.296,0.229c1.211-0.633,1.5-2.066,2.27-3.074c0.215-0.279,0.207-0.732,0.303-1.105
			c-0.109-0.025-0.217-0.051-0.324-0.078C353.912,454.124,353.064,455.468,352.217,456.81z"/>
		<path fill-rule="evenodd" clip-rule="evenodd" d="M380.543,433.915c-1.937-0.32-2.791,0.564-2.776,2.422
			c-0.092-0.023-0.185-0.049-0.275-0.074c-0.291-0.645-0.419-1.537-0.916-1.859c-0.493-0.32-1.359-0.07-2.411-0.076
			c1.507-1.018,2.458-2.057,1.115-3.783c1.43,0.996,2.67,1.254,3.73-0.438c0.051,0.092,0.098,0.182,0.147,0.271
			c-0.102,0.672-0.447,1.438-0.233,1.988c0.201,0.52,0.987,0.816,1.517,1.213C380.474,433.693,380.509,433.806,380.543,433.915z"/>
		<path fill-rule="evenodd" clip-rule="evenodd" d="M347.067,451.177c-0.315,0.426-0.604,0.875-0.955,1.266
			c-0.372,0.418-0.806,0.775-1.217,1.164c-0.631-0.734,0.22-1.09,0.463-1.539c0.747-1.379,1.589-2.705,2.439-4.025
			c0.14-0.215,0.503-0.287,0.761-0.426c-0.013,0.293,0.056,0.615-0.057,0.863c-0.207,0.463-0.553,0.861-0.773,1.32
			c-0.081,0.164,0.027,0.416,0.05,0.633c0.199-0.074,0.475-0.09,0.58-0.229c0.348-0.463,0.608-0.992,0.962-1.447
			c0.128-0.16,0.429-0.182,0.648-0.27c0.039,0.232,0.191,0.533,0.099,0.688c-1.008,1.701-2.045,3.385-3.109,5.053
			c-0.092,0.15-0.429,0.141-0.65,0.207c-0.028-0.234-0.152-0.518-0.066-0.699c0.248-0.523,0.601-0.992,0.875-1.5
			c0.143-0.264,0.206-0.568,0.304-0.854C347.303,451.314,347.183,451.245,347.067,451.177z"/>
		<path fill-rule="evenodd" clip-rule="evenodd" d="M358.73,460.421c-0.22,0.26-0.401,0.578-0.674,0.766
			c-0.231,0.158-0.57,0.164-0.86,0.242c-0.001-0.293-0.128-0.68,0.013-0.859c1.223-1.545,2.479-3.068,3.771-4.564
			c0.16-0.186,0.576-0.152,0.871-0.225c0.058,0.297,0.246,0.654,0.146,0.885c-0.777,1.811-1.599,3.607-2.444,5.393
			c-0.098,0.205-0.435,0.293-0.66,0.436c-0.108-0.281-0.321-0.57-0.297-0.838c0.033-0.367,0.245-0.719,0.381-1.082
			C358.894,460.525,358.811,460.472,358.73,460.421z"/>
		<path fill-rule="evenodd" clip-rule="evenodd" d="M372.993,426.552c-0.792,1.773-0.103,2.736,1.516,3.432
			c-1.912-0.178-2.855,0.627-2.956,2.553c-0.433-1.717-1.196-2.721-3.162-2.098c1.48-0.967,2.006-2.031,0.861-3.613
			C370.592,427.796,371.794,428.134,372.993,426.552z"/>
		<path fill-rule="evenodd" clip-rule="evenodd" d="M368.2,426.091c-1.779-0.107-2.759,0.541-2.771,2.484
			c-0.441-1.604-1.166-2.465-2.938-1.895c1.362-0.961,1.769-2.066,0.88-3.605c1.3,1.27,2.374,1.045,3.479-0.279
			C366.218,424.407,366.458,425.515,368.2,426.091z"/>
		<path fill-rule="evenodd" clip-rule="evenodd" d="M349.264,452.13c0.474-0.748,0.921-1.52,1.437-2.236
			c0.16-0.225,0.607-0.516,0.749-0.441c0.521,0.273,1.118,0.596,1.389,1.07c0.188,0.334-0.249,0.572-0.737,0.387
			c-0.273-0.104-0.815-0.096-0.92,0.066c-0.245,0.377-0.517,0.955-0.39,1.318c0.228,0.656,0.142,0.721-0.517,0.904
			c-0.501,0.135-0.93,0.742-1.243,1.234c-0.101,0.156,0.29,0.604,0.415,0.932c0.081,0.215,0.09,0.459,0.131,0.689
			c-0.211,0.016-0.451,0.098-0.627,0.027c-1.455-0.596-1.558-0.908-0.755-2.207c0.36-0.578,0.727-1.154,1.091-1.73
			C349.281,452.142,349.271,452.136,349.264,452.13z"/>
		<path fill-rule="evenodd" clip-rule="evenodd" d="M346.461,446.29c0.201,0.129,0.43,0.227,0.595,0.391
			c0.127,0.123,0.286,0.387,0.235,0.482c-0.087,0.168-0.327,0.248-0.504,0.363c-0.335,0.213-0.783,0.348-0.983,0.648
			c-0.794,1.193-1.493,2.445-2.273,3.648c-0.146,0.225-0.502,0.311-0.762,0.459c0.027-0.291-0.039-0.641,0.095-0.873
			c0.681-1.182,1.45-2.314,2.105-3.51c0.208-0.377,0.145-0.902,0.228-1.357c0.037-0.217,0.149-0.609,0.189-0.607
			c0.371,0.047,0.736,0.16,1.103,0.254C346.479,446.226,346.471,446.255,346.461,446.29z"/>
		<path fill-rule="evenodd" clip-rule="evenodd" d="M350.031,482.948c0.007,0.039,0.049,0.275,0.111,0.615
			c-0.526-0.332-0.938-0.592-1.493-0.941c0.41-0.654,0.822-1.303,1.348-2.137c0.44,0.541,0.948,0.91,1.033,1.363
			C351.079,482.118,350.454,482.505,350.031,482.948z"/>
		<path fill-rule="evenodd" clip-rule="evenodd" d="M351.926,481.958c0.358,0.225,0.72,0.451,1.226,0.77
			c-0.339,0.541-0.643,1.061-0.99,1.549c-0.1,0.139-0.375,0.303-0.492,0.256c-0.188-0.076-0.396-0.293-0.452-0.49
			C350.99,483.259,351.059,482.531,351.926,481.958z"/>
		<path fill-rule="evenodd" clip-rule="evenodd" d="M362.295,454.556c-0.38-0.24-0.657-0.416-1.066-0.676
			c0.394-0.625,0.733-1.244,1.163-1.799c0.159-0.207,0.525-0.254,0.796-0.371c0.075,0.357,0.309,0.783,0.192,1.063
			C363.127,453.382,362.695,453.923,362.295,454.556z"/>
		<path fill-rule="evenodd" clip-rule="evenodd" d="M354.813,449.786c0.38-0.744,0.759-1.494,1.138-2.244
			c0.521,0.328,0.969,0.611,1.463,0.924c-0.525,0.67-1.033,1.314-1.539,1.959c-0.07-0.037-0.137-0.07-0.204-0.109
			c0.044-0.26,0.083-0.52,0.133-0.836c-0.294,0.182-0.534,0.33-0.773,0.479C354.957,449.904,354.885,449.841,354.813,449.786z"/>
		<path fill-rule="evenodd" clip-rule="evenodd" d="M348.477,479.513c0.651,0.715,0.883,1.217-0.044,1.715
			c-0.251,0.133-0.331,0.59-0.533,0.986c-0.318-0.301-0.684-0.65-1.091-1.029C347.37,480.622,347.889,480.101,348.477,479.513z"/>
		<path fill-rule="evenodd" clip-rule="evenodd" d="M364.797,452.808c-0.366,0.865-0.733,1.732-1.092,2.574
			c-0.403-0.252-0.683-0.432-1.103-0.693c0.588-0.693,1.196-1.414,1.81-2.135C364.54,452.64,364.67,452.726,364.797,452.808z"/>
		<path fill-rule="evenodd" clip-rule="evenodd" d="M362.15,451.54c-0.551,0.334-0.935,0.453-1.119,0.713
			c-0.119,0.166,0.051,0.541,0.122,1.045c-0.172,0.029-0.485,0.08-0.797,0.129c-0.035-0.344-0.174-0.721-0.077-1.021
			c0.132-0.408,0.392-0.813,0.693-1.119c0.204-0.207,0.604-0.375,0.861-0.314C362.015,451.011,362.108,451.458,362.15,451.54z"/>
		<path fill-rule="evenodd" clip-rule="evenodd" d="M350.579,445.622c-0.525,0.318-0.916,0.553-1.303,0.787
			c0.07-0.479,0.014-1.033,0.242-1.418c0.235-0.396,0.744-0.629,1.135-0.936C350.63,444.562,350.604,445.068,350.579,445.622z"/>
		<path fill-rule="evenodd" clip-rule="evenodd" d="M359.915,450.673c-0.147-0.141-0.298-0.277-0.563-0.525
			c0.042,0.889,0.559,1.854-0.679,2.047c-0.161,0.027-0.4-0.447-0.606-0.689c0.08-0.07,0.159-0.141,0.241-0.213
			c0.162,0.105,0.328,0.209,0.564,0.357c0.254-0.713-0.469-1.916,0.935-1.914c0.143,0,0.286,0.506,0.428,0.771
			C360.129,450.566,360.023,450.618,359.915,450.673z"/>
		<path fill-rule="evenodd" clip-rule="evenodd" d="M339.342,502.564c-0.568-0.361-0.961-0.563-1.293-0.834
			c-0.175-0.143-0.341-0.412-0.343-0.627c-0.001-0.176,0.246-0.502,0.379-0.5c0.204,0.006,0.409,0.223,0.598,0.375
			c0.104,0.082,0.152,0.271,0.262,0.309c0.282,0.098,0.584,0.135,0.88,0.197C339.672,501.823,339.52,502.167,339.342,502.564z"/>
		<path fill-rule="evenodd" clip-rule="evenodd" d="M366.213,453.63c-0.739,0.846-1.339,1.537-2.015,2.311
			c-0.087-0.686,0.83-2.541,1.236-2.582C365.7,453.331,365.993,453.546,366.213,453.63z"/>
		<path fill-rule="evenodd" clip-rule="evenodd" d="M342.439,478.109c0.526-0.281,1.007-0.389,1.219-0.688
			c0.524-0.73,0.831-0.217,1.126,0.031c-0.245,0.389-0.471,0.775-0.726,1.137c-0.119,0.168-0.296,0.303-0.446,0.449
			c-0.128-0.141-0.239-0.301-0.385-0.42C343.068,478.486,342.875,478.388,342.439,478.109z"/>
		<path fill-rule="evenodd" clip-rule="evenodd" d="M352.338,448.001c0.363-0.572,0.788-1.248,1.181-1.869
			c0.287,0.184,0.543,0.344,0.825,0.521c-0.388,0.613-0.794,1.258-1.179,1.869C352.887,448.345,352.644,448.195,352.338,448.001z"/>
		<path fill-rule="evenodd" clip-rule="evenodd" d="M366.6,453.931c0.266,0.166,0.524,0.33,0.774,0.488
			c-0.631,0.82-1.204,1.564-1.778,2.313c-0.119-0.08-0.237-0.16-0.355-0.24C365.675,455.673,366.112,454.857,366.6,453.931z"/>
		<path fill-rule="evenodd" clip-rule="evenodd" d="M384.499,431.581c-0.38,0.35-0.761,0.699-1.132,1.043
			c-0.222-0.484-0.362-0.793-0.575-1.258c0.26-0.258,0.642-0.639,1.078-1.072c0.143,0.479,0.237,0.797,0.332,1.119
			C384.301,431.468,384.403,431.525,384.499,431.581z"/>
		<path fill-rule="evenodd" clip-rule="evenodd" d="M347.704,485.974c0.81,0.512,1.44,0.91,2.142,1.352
			c-0.251,0.248-0.451,0.447-0.638,0.631c-0.727-0.598-1.405-1.156-2.175-1.789C347.421,486.054,347.692,485.98,347.704,485.974z"/>
		<path fill-rule="evenodd" clip-rule="evenodd" d="M356.306,450.613c0.577-0.637,1.15-1.275,1.727-1.914
			c0.095,0.053,0.187,0.105,0.282,0.156c-0.326,0.775-0.651,1.553-0.984,2.34C356.972,450.991,356.664,450.816,356.306,450.613z"/>
		<path fill-rule="evenodd" clip-rule="evenodd" d="M350.906,447.513c-0.025-0.387-0.042-0.611-0.064-0.936
			c-0.23,0.137-0.404,0.234-0.796,0.465c0.588-0.932,1.03-1.635,1.395-2.213c0.341,0.152,0.606,0.275,0.709,0.32
			C351.771,445.876,351.377,446.615,350.906,447.513z"/>
		<path fill-rule="evenodd" clip-rule="evenodd" d="M355.442,447.109c-0.318,0.762-0.629,1.525-0.961,2.324
			c-0.252-0.215-0.468-0.395-0.813-0.686c0.442-0.539,0.961-1.172,1.479-1.803C355.244,447.001,355.342,447.054,355.442,447.109z"/>
		<path fill-rule="evenodd" clip-rule="evenodd" d="M318.167,472.478c-0.52,0.828-1.04,1.65-1.62,2.57
			c-0.112-0.207-0.301-0.432-0.258-0.498c0.513-0.766,1.06-1.51,1.597-2.258C317.981,472.355,318.074,472.419,318.167,472.478z"/>
		<path fill-rule="evenodd" clip-rule="evenodd" d="M343.365,432.038c0.313-0.762,0.574-1.467,1.648-0.941
			C344.633,431.732,344.507,432.609,343.365,432.038z"/>
		<path fill-rule="evenodd" clip-rule="evenodd" d="M345.918,480.892c-0.096-0.309-0.19-0.617-0.309-1.008
			c-0.208,0.014-0.472,0.033-0.905,0.061c0.422-0.342,0.716-0.555,0.978-0.805c0.236-0.223,0.438-0.49,0.873-0.635
			c-0.153,0.359-0.382,0.705-0.44,1.078c-0.061,0.404,0.036,0.828,0.062,1.244C346.091,480.849,346.004,480.868,345.918,480.892z"/>
		<path fill-rule="evenodd" clip-rule="evenodd" d="M339.127,440.714c-0.405,0.246-0.812,0.498-1.217,0.742
			c0.02-0.342-0.076-0.773,0.097-0.992c0.167-0.213,0.616-0.201,0.94-0.285C339.007,440.355,339.067,440.534,339.127,440.714z"/>
		<path fill-rule="evenodd" clip-rule="evenodd" d="M336.08,442.984c0.601-0.5,1.022-0.852,1.44-1.199
			c0.095,0.221,0.33,0.512,0.262,0.645C337.524,442.933,337.19,443.427,336.08,442.984z"/>
		<path fill-rule="evenodd" clip-rule="evenodd" d="M330.201,453.532c-0.058-0.441-0.185-0.719-0.094-0.846
			c0.198-0.283,0.479-0.537,0.781-0.705c0.092-0.051,0.363,0.227,0.554,0.354c-0.148,0.172-0.284,0.363-0.446,0.516
			C330.806,453.04,330.593,453.204,330.201,453.532z"/>
		<path fill-rule="evenodd" clip-rule="evenodd" d="M346.196,429.548c-0.38,0.309-0.759,0.619-1.142,0.932
			c-0.108-0.262-0.362-0.703-0.302-0.752c0.341-0.271,0.755-0.449,1.146-0.658C345.999,429.228,346.097,429.388,346.196,429.548z"/>
		<path fill-rule="evenodd" clip-rule="evenodd" d="M348.451,425.931c-0.641,0.482-1.106,0.832-1.744,1.314
			C346.864,425.823,347.235,425.536,348.451,425.931z"/>
		<path fill-rule="evenodd" clip-rule="evenodd" d="M328.841,456.105c-0.158,0.438-0.305,0.883-0.499,1.307
			c-0.014,0.027-0.388-0.107-0.593-0.17c0.17-0.445,0.341-0.896,0.513-1.342C328.456,455.968,328.648,456.036,328.841,456.105z"/>
		<path fill-rule="evenodd" clip-rule="evenodd" d="M347.106,427.745c-0.378,0.441-0.497,1.301-1.729,0.695
			c0.574-0.418,1.027-0.748,1.479-1.072C346.939,427.495,347.024,427.62,347.106,427.745z"/>
		<path fill-rule="evenodd" clip-rule="evenodd" d="M338.599,439.474c0.221-0.279,0.411-0.598,0.676-0.826
			c0.152-0.131,0.429-0.117,0.65-0.168c-0.021,0.23,0.042,0.547-0.084,0.67c-0.279,0.277-0.649,0.461-0.984,0.682
			C338.769,439.712,338.684,439.595,338.599,439.474z"/>
		<path fill-rule="evenodd" clip-rule="evenodd" d="M383.817,434.853c0.353-0.111,0.636-0.207,0.925-0.291
			c0.121-0.037,0.252-0.047,0.399-0.072c-0.091,0.313-0.168,0.576-0.314,1.078c-0.056,0.021-0.358,0.127-0.721,0.254
			C384.016,435.515,383.921,435.2,383.817,434.853z"/>
		<path fill-rule="evenodd" clip-rule="evenodd" d="M340.063,487.345c0.582,0.225,1.162,0.445,1.719,0.66
			C341.123,488.777,340.954,488.74,340.063,487.345z"/>
		<path fill-rule="evenodd" clip-rule="evenodd" d="M344.026,433.126c-0.665,0.32-1.111,0.529-1.664,0.793
			C342.722,432.689,342.919,432.573,344.026,433.126z"/>
		<path fill-rule="evenodd" clip-rule="evenodd" d="M335.347,444.611c0.371-0.275,0.743-0.555,1.114-0.828
			c0.041,0.236,0.199,0.598,0.104,0.688c-0.263,0.244-0.632,0.371-0.96,0.547C335.518,444.88,335.435,444.747,335.347,444.611z"/>
		<path fill-rule="evenodd" clip-rule="evenodd" d="M383.149,428.966c-0.493,0.289-0.985,0.582-1.477,0.875
			c-0.094-0.148-0.188-0.293-0.281-0.438c0.475-0.33,0.947-0.66,1.422-0.99C382.925,428.597,383.035,428.782,383.149,428.966z"/>
		<path fill-rule="evenodd" clip-rule="evenodd" d="M337.273,499.716c0.076,0.383,0.152,0.764,0.267,1.336
			c-0.526-0.174-0.795-0.264-1.16-0.383c0.186-0.385,0.334-0.684,0.485-0.988C337,499.695,337.138,499.704,337.273,499.716z"/>
		<path fill-rule="evenodd" clip-rule="evenodd" d="M381.917,427.2c-0.44,0.338-0.879,0.682-1.317,1.02
			c-0.095-0.119-0.188-0.236-0.282-0.357c0.437-0.344,0.875-0.686,1.313-1.023C381.725,426.954,381.822,427.079,381.917,427.2z"/>
		<path fill-rule="evenodd" clip-rule="evenodd" fill="#FFFFFF" d="M352.261,433.71c-0.795,1.127-1.369,1.971-1.979,2.787
			c-0.219,0.293-0.485,0.604-0.804,0.762c-0.324,0.16-0.797,0.285-1.091,0.158c-0.188-0.084-0.296-0.67-0.221-0.98
			c0.147-0.621,0.363-1.256,0.699-1.789c1.04-1.668,2.109-3.32,3.268-4.906c0.249-0.338,0.917-0.371,1.391-0.549
			c0.083,0.525,0.371,1.129,0.205,1.559C353.292,431.884,352.656,432.939,352.261,433.71z"/>
		<path fill-rule="evenodd" clip-rule="evenodd" fill="#FFFFFF" d="M368.05,445.466c0.806-0.924,1.575-1.879,2.434-2.742
			c0.225-0.225,0.844-0.348,1.064-0.199c0.235,0.16,0.369,0.75,0.272,1.066c-0.753,2.467-2.21,4.518-3.964,6.359
			c-0.225,0.234-0.729,0.207-1.104,0.301c-0.092-0.408-0.362-0.875-0.242-1.199C366.949,447.843,367.515,446.679,368.05,445.466z"/>
		<path fill-rule="evenodd" clip-rule="evenodd" fill="#FFFFFF" d="M356.413,437.685c0.73,1,0.346,2.061-0.886,2.629
			C355.131,439.386,355.367,438.648,356.413,437.685z"/>
		<path fill-rule="evenodd" clip-rule="evenodd" fill="#FFFFFF" d="M354.031,440.751c-0.393,0.623-0.786,1.244-1.179,1.869
			c-0.109-0.063-0.22-0.121-0.329-0.184c0.333-0.662,0.666-1.324,0.997-1.982C353.691,440.548,353.86,440.652,354.031,440.751z"/>
		<path fill-rule="evenodd" clip-rule="evenodd" fill="#FFFFFF" d="M357.947,454.82c0.31,0.852,0.039,1.328-0.88,1.395
			C357.359,455.749,357.653,455.284,357.947,454.82z"/>
		<path fill-rule="evenodd" clip-rule="evenodd" fill="#FFFFFF" d="M352.217,456.81c0.847-1.342,1.695-2.686,2.544-4.029
			c0.107,0.027,0.215,0.053,0.324,0.078c-0.096,0.373-0.088,0.826-0.303,1.105c-0.77,1.008-1.059,2.441-2.27,3.074
			C352.415,456.962,352.317,456.884,352.217,456.81z"/>
	</g>
	<path fill-rule="evenodd" clip-rule="evenodd" fill="#F8F4AC" d="M227.694,474.835c0,0,16.158-77.133,103.558,11.621"/>
	<path fill-rule="evenodd" clip-rule="evenodd" fill="#F8F4AC" d="M262.181,477.046c0,0,14.539-56.076,43.63-51.359
		c0,0,54.481-0.818,49.001,53.352"/>
	<path fill="#CA904B" d="M399.288,504.363c0,15.932-1.652,28.848-17.584,28.848H226.409c-15.934,0-16.641-12.916-16.641-28.848
		v-15.674c0-15.932,0.707-28.852,16.641-28.852h155.295c15.932,0,17.584,12.92,17.584,28.852V504.363z"/>
	<ellipse fill="#EFD45C" cx="204.405" cy="490.505" rx="24.943" ry="21.639"/>
	<ellipse fill="#EFD45C" cx="407.22" cy="490.505" rx="24.943" ry="21.639"/>
	
		<text transform="matrix(1 0 0 1 283.7175 509.9036)" fill="#231815" stroke="#F5F4BA" stroke-width="2" stroke-miterlimit="10" font-family="'AdobeMingStd-Light-B5pc-H'" font-size="42.3587">¥</text>
</g>
</svg>
